<svg width="1763" height="2759" viewBox="0 0 1763 2759" fill="none" xmlns="http://www.w3.org/2000/svg">
<path fill-rule="evenodd" clip-rule="evenodd" d="M1263.1 910.297C1204.59 938.862 1149.88 963.84 1116.79 977.805C1169.54 950.402 1218.46 928.159 1263.1 910.297ZM323.754 1449.88C325.727 1452.48 327.575 1454.96 329.286 1457.3C327.503 1455 325.656 1452.52 323.754 1449.88Z" fill="url(#paint0_radial_354_1268)"/>
<path d="M431.285 2631.8C454.285 2636.8 514.085 2625.4 569.285 2539.8C638.285 2432.8 619.285 2202.8 649.785 2179.8C684.452 2189.3 780.485 2202.6 887.285 2179.8C1020.79 2151.3 1267.29 1847.3 1285.29 1805.3C1303.29 1763.3 1380.29 1519.8 1380.29 1487.3C1380.29 1461.3 1190.29 1494.47 1095.29 1514.3C1146.62 1499.47 1262.39 1459.1 1314.79 1416.3C1380.29 1362.8 1552.29 1006.8 1561.29 852.304C1534.15 838.146 1427.63 844.467 1263.1 910.297C1204.59 938.862 1149.88 963.84 1116.79 977.805C1169.54 950.402 1218.46 928.159 1263.1 910.297C1349.83 867.952 1444.9 817.724 1490.29 783.805C1585.29 712.805 1769.29 130.305 1706.79 59.3046C1644.29 -11.6954 1196.29 166.305 1095.29 264.305C994.286 362.305 679.285 608.805 649.785 1021.3C638.119 912.638 609.985 641.805 590.785 617.805C566.785 587.805 272.785 884.805 234.285 1083.8C204.747 1236.48 279.232 1388.03 323.754 1449.88C325.727 1452.48 327.575 1454.96 329.286 1457.3C327.503 1455 325.656 1452.52 323.754 1449.88C288.258 1403.05 212.2 1317.58 160.286 1315.3C105.486 1312.9 81.2856 1420.3 44.2855 1606.3C34.7856 1780.8 79.2855 1852.8 133.286 1932.8C182.736 2006.07 260.285 2083.8 431.285 2131.8C402.286 2225.14 359.982 2425.3 350.286 2475.8C326.285 2600.8 408.285 2626.8 431.285 2631.8Z" fill="url(#paint1_radial_354_1268)"/>
<ellipse cx="453.338" cy="2511.17" rx="123.584" ry="208.463" transform="rotate(19.1922 453.338 2511.17)" fill="#B76736"/>
<path d="M370.5 2700L587.5 2516.5L477.481 2543.1C451.494 2549.38 424.128 2541.36 405.65 2522.04L353.5 2467.5L370.5 2700Z" fill="#5E2C0F"/>
<path d="M323.754 1449.88C288.258 1403.05 212.2 1317.58 160.286 1315.31C105.486 1312.91 81.2856 1420.31 44.2855 1606.31C34.7856 1780.81 79.2855 1852.81 133.286 1932.81C182.736 2006.07 260.285 2083.81 431.285 2131.8C402.285 2225.14 359.982 2425.3 350.286 2475.8C326.285 2600.8 327.286 2710 350.286 2715C373.286 2720 514.085 2625.4 569.285 2539.8C638.285 2432.8 619.285 2202.8 649.785 2179.8C684.452 2189.3 780.485 2202.6 887.285 2179.8C1020.79 2151.3 1221.5 1905.5 1285.29 1805.3C1411.97 1606.31 1385.5 1546.8 1385.5 1514.3C1385.5 1488.3 1190.29 1494.47 1095.29 1514.3C1146.62 1499.47 1262.39 1459.1 1314.79 1416.3C1380.29 1362.8 1552.29 1006.8 1561.29 852.305C1534.15 838.146 1479.32 855.169 1314.79 921M323.754 1449.88C279.232 1388.03 204.747 1236.48 234.285 1083.81C272.785 884.805 566.785 587.805 590.785 617.805C609.985 641.805 638.119 912.639 649.785 1021.31C679.285 608.805 929.5 387 1095.29 264.305C1208.41 180.587 1644.29 -11.6949 1706.79 59.3051C1769.29 130.305 1585.29 712.805 1490.29 783.805C1444.9 817.724 1401.52 878.655 1314.79 921M323.754 1449.88C325.727 1452.48 327.574 1454.96 329.286 1457.31C327.503 1455 325.656 1452.52 323.754 1449.88ZM1314.79 921C1256.28 949.565 1146.6 1019.54 1113.5 1033.5C1166.26 1006.1 1270.14 938.862 1314.79 921Z" stroke="#75411A" stroke-width="86" stroke-linejoin="round"/>
<path d="M394.5 2284.5L464.645 2313.15C488.653 2322.96 514.338 2328 540.27 2328H625.5" stroke="#75411A" stroke-width="81" stroke-linejoin="round"/>
<ellipse cx="896.929" cy="1750.05" rx="114.5" ry="128" transform="rotate(13.697 896.929 1750.05)" fill="#5E2C0F"/>
<ellipse cx="364.214" cy="1693.53" rx="114.5" ry="128" transform="rotate(19.1922 364.214 1693.53)" fill="#5E2C0F"/>
<ellipse cx="418.064" cy="1667.04" rx="20.9151" ry="30.8044" transform="rotate(-10.2529 418.064 1667.04)" fill="#FFECD0"/>
<ellipse cx="952.064" cy="1711.04" rx="20.9151" ry="30.8044" transform="rotate(-10.2529 952.064 1711.04)" fill="#FFECD0"/>
<path d="M510 1844V1844C549.341 1905.67 633.758 1919.05 690.238 1872.56L705.5 1860" stroke="#5E2C0F" stroke-width="54" stroke-linecap="round" stroke-linejoin="round"/>
<defs>
<radialGradient id="paint0_radial_354_1268" cx="0" cy="0" r="1" gradientUnits="userSpaceOnUse" gradientTransform="translate(881.231 1337.9) rotate(90) scale(1294.9 838.231)">
<stop offset="0.120192" stop-color="#FFECD0"/>
<stop offset="1" stop-color="#FDCA9D"/>
</radialGradient>
<radialGradient id="paint1_radial_354_1268" cx="0" cy="0" r="1" gradientUnits="userSpaceOnUse" gradientTransform="translate(881.231 1337.9) rotate(90) scale(1294.9 838.231)">
<stop offset="0.120192" stop-color="#FFECD0"/>
<stop offset="1" stop-color="#FDCA9D"/>
</radialGradient>
</defs>
</svg>
