<svg width="347" height="164" viewBox="0 0 347 164" fill="none" xmlns="http://www.w3.org/2000/svg">
<path d="M40 42C40 40.8954 40.8954 40 42 40H305C306.105 40 307 40.8954 307 42V122C307 123.105 306.105 124 305 124H42C40.8954 124 40 123.105 40 122V42Z" fill="white"/>
<path d="M42 40V41H305V40V39H42V40ZM307 42H306V122H307H308V42H307ZM305 124V123H42V124V125H305V124ZM40 122H41V42H40H39V122H40ZM42 124V123C41.4477 123 41 122.552 41 122H40H39C39 123.657 40.3431 125 42 125V124ZM307 122H306C306 122.552 305.552 123 305 123V124V125C306.657 125 308 123.657 308 122H307ZM305 40V41C305.552 41 306 41.4477 306 42H307H308C308 40.3431 306.657 39 305 39V40ZM42 40V39C40.3431 39 39 40.3431 39 42H40H41C41 41.4477 41.4477 41 42 41V40Z" fill="black" fill-opacity="0.1"/>
<rect x="77.5" y="79.5" width="4" height="6" rx="0.5" stroke="#2C2825"/>
<rect x="83.5" y="83.5" width="4" height="6" rx="0.5" stroke="#2C2825"/>
<rect width="5" height="1" transform="translate(81 83)" fill="#2C2825"/>
<rect x="71.5" y="75.5" width="4" height="6" rx="0.5" stroke="#2C2825"/>
<rect width="5" height="1" transform="translate(75 79)" fill="#2C2825"/>
<rect x="97" y="85" width="2" height="5" rx="0.5" fill="#2C2825"/>
<rect x="102" y="80" width="2" height="10" rx="0.5" fill="#2C2825"/>
<rect x="107" y="75" width="2" height="15" rx="0.5" fill="#2C2825"/>
<path d="M117.75 82.3125H120.912L122.318 77L126.182 87L127.939 82H130.75" stroke="#2C2825" stroke-width="1.5" stroke-linecap="round"/>
<path d="M140 79.5V76C140 75.4477 140.448 75 141 75H144.5M140 79.5H154.5M140 79.5V85M154.5 79.5V76C154.5 75.4477 154.052 75 153.5 75H144.5M154.5 79.5V85M140 85V88.5C140 89.0523 140.448 89.5 141 89.5H144.5M140 85H154.5M154.5 85V88.5C154.5 89.0523 154.052 89.5 153.5 89.5H144.5M144.5 75V89.5" stroke="#2C2825" stroke-width="1.5"/>
<path d="M167.1 87.86L171.984 82.627C172.555 82.015 173.49 81.9169 174.176 82.397L175.897 83.6016C176.619 84.1076 177.611 83.9681 178.166 83.2823L184.32 75.68" stroke="#6B6560" stroke-width="1.26" stroke-linecap="round"/>
<rect x="171.72" y="80.72" width="2.52" height="2.52" rx="1.26" fill="#6B6560"/>
<rect x="175.92" y="82.4" width="2.52" height="2.52" rx="1.26" fill="#6B6560"/>
<rect x="183.48" y="74" width="2.52" height="2.52" rx="1.26" fill="#6B6560"/>
<rect x="165" y="87.44" width="2.52" height="2.52" rx="1.26" fill="#6B6560"/>
<path d="M233.861 81.6864L227.316 88.6632C227.196 88.7909 227.287 89 227.462 89H245.8C245.91 89 246 88.9105 246 88.8V76.0351C246 75.8501 245.77 75.7643 245.649 75.9039L238.298 84.3641C238.231 84.4413 238.116 84.4554 238.032 84.3967L234.122 81.6594C234.04 81.6023 233.929 81.6139 233.861 81.6864Z" fill="#F3F3F3"/>
<path d="M228.1 87.86L232.984 82.627C233.555 82.015 234.49 81.9169 235.176 82.397L236.897 83.6016C237.619 84.1076 238.611 83.9681 239.166 83.2823L245.32 75.68" stroke="#6B6560" stroke-width="1.26" stroke-linecap="round"/>
<rect x="232.72" y="80.72" width="2.52" height="2.52" rx="1.26" fill="#6B6560"/>
<rect x="236.92" y="82.4" width="2.52" height="2.52" rx="1.26" fill="#6B6560"/>
<rect x="244.48" y="74" width="2.52" height="2.52" rx="1.26" fill="#6B6560"/>
<rect x="226" y="87.44" width="2.52" height="2.52" rx="1.26" fill="#6B6560"/>
<path d="M262.876 81.6716L257.312 87.6639C257.193 87.7919 257.284 88 257.459 88H274.3C274.41 88 274.5 87.9105 274.5 87.8V76.0689C274.5 75.8799 274.262 75.7963 274.144 75.9437L267.783 83.8721C267.723 83.9465 267.619 83.9684 267.534 83.9245L263.115 81.6301C263.035 81.5887 262.938 81.6056 262.876 81.6716Z" fill="#F3F3F3"/>
<path d="M257.1 87.86L261.984 82.627C262.555 82.015 263.49 81.9169 264.176 82.397L265.897 83.6016C266.619 84.1076 267.611 83.9681 268.166 83.2823L274.32 75.68" stroke="#6B6560" stroke-width="1.26" stroke-linecap="round"/>
<path d="M199.1 87.86L203.984 82.627C204.555 82.015 205.49 81.9169 206.176 82.397L207.897 83.6016C208.619 84.1076 209.611 83.9681 210.166 83.2823L216.32 75.68" stroke="#6B6560" stroke-width="1.26" stroke-linecap="round"/>
<rect x="40" y="4" width="45.9375" height="30" rx="3" fill="white"/>
<rect x="40.5" y="4.5" width="44.9375" height="29" rx="2.5" stroke="black" stroke-opacity="0.2"/>
<path d="M46.8438 22V16H47.7656V22H46.8438ZM47.3125 15C47.1328 15 46.9779 14.9388 46.8477 14.8164C46.7201 14.694 46.6563 14.5469 46.6563 14.375C46.6563 14.2031 46.7201 14.056 46.8477 13.9336C46.9779 13.8112 47.1328 13.75 47.3125 13.75C47.4922 13.75 47.6458 13.8112 47.7734 13.9336C47.9036 14.056 47.9688 14.2031 47.9688 14.375C47.9688 14.5469 47.9036 14.694 47.7734 14.8164C47.6458 14.9388 47.4922 15 47.3125 15ZM50.376 18.3906V22H49.4541V16H50.3447V16.9375H50.4229C50.5635 16.6328 50.777 16.388 51.0635 16.2031C51.3499 16.0156 51.7197 15.9219 52.1729 15.9219C52.5791 15.9219 52.9346 16.0052 53.2393 16.1719C53.5439 16.3359 53.7809 16.5859 53.9502 16.9219C54.1195 17.2552 54.2041 17.6771 54.2041 18.1875V22H53.2822V18.25C53.2822 17.7786 53.1598 17.4115 52.915 17.1484C52.6702 16.8828 52.3343 16.75 51.9072 16.75C51.613 16.75 51.3499 16.8138 51.1182 16.9414C50.889 17.069 50.708 17.2552 50.5752 17.5C50.4424 17.7448 50.376 18.0417 50.376 18.3906ZM58.3262 22.125C57.7637 22.125 57.2793 21.9922 56.873 21.7266C56.4668 21.4609 56.1543 21.0951 55.9355 20.6289C55.7168 20.1628 55.6074 19.6302 55.6074 19.0312C55.6074 18.4219 55.7194 17.8841 55.9434 17.418C56.1699 16.9492 56.485 16.5833 56.8887 16.3203C57.2949 16.0547 57.7689 15.9219 58.3105 15.9219C58.7324 15.9219 59.1126 16 59.4512 16.1562C59.7897 16.3125 60.0671 16.5312 60.2832 16.8125C60.4993 17.0937 60.6335 17.4219 60.6855 17.7969H59.7637C59.6934 17.5234 59.5371 17.2812 59.2949 17.0703C59.0553 16.8568 58.7324 16.75 58.3262 16.75C57.9668 16.75 57.6517 16.8437 57.3809 17.0312C57.1126 17.2161 56.903 17.4779 56.752 17.8164C56.6035 18.1523 56.5293 18.5469 56.5293 19C56.5293 19.4635 56.6022 19.8672 56.748 20.2109C56.8965 20.5547 57.1048 20.8216 57.373 21.0117C57.6439 21.2018 57.9616 21.2969 58.3262 21.2969C58.5658 21.2969 58.7832 21.2552 58.9785 21.1719C59.1738 21.0885 59.3392 20.9688 59.4746 20.8125C59.61 20.6562 59.7064 20.4687 59.7637 20.25H60.6855C60.6335 20.6042 60.5046 20.9232 60.2988 21.207C60.0957 21.4883 59.8262 21.7122 59.4902 21.8789C59.1569 22.043 58.7689 22.125 58.3262 22.125ZM64.4707 22.125C63.929 22.125 63.4538 21.9961 63.0449 21.7383C62.6387 21.4805 62.321 21.1198 62.0918 20.6562C61.8652 20.1927 61.752 19.651 61.752 19.0312C61.752 18.4062 61.8652 17.8607 62.0918 17.3945C62.321 16.9284 62.6387 16.5664 63.0449 16.3086C63.4538 16.0508 63.929 15.9219 64.4707 15.9219C65.0124 15.9219 65.4863 16.0508 65.8926 16.3086C66.3014 16.5664 66.6191 16.9284 66.8457 17.3945C67.0749 17.8607 67.1895 18.4062 67.1895 19.0312C67.1895 19.651 67.0749 20.1927 66.8457 20.6562C66.6191 21.1198 66.3014 21.4805 65.8926 21.7383C65.4863 21.9961 65.0124 22.125 64.4707 22.125ZM64.4707 21.2969C64.8822 21.2969 65.2207 21.1914 65.4863 20.9805C65.752 20.7695 65.9486 20.4922 66.0762 20.1484C66.2038 19.8047 66.2676 19.4323 66.2676 19.0312C66.2676 18.6302 66.2038 18.2565 66.0762 17.9102C65.9486 17.5638 65.752 17.2839 65.4863 17.0703C65.2207 16.8568 64.8822 16.75 64.4707 16.75C64.0592 16.75 63.7207 16.8568 63.4551 17.0703C63.1895 17.2839 62.9928 17.5638 62.8652 17.9102C62.7376 18.2565 62.6738 18.6302 62.6738 19.0312C62.6738 19.4323 62.7376 19.8047 62.8652 20.1484C62.9928 20.4922 63.1895 20.7695 63.4551 20.9805C63.7207 21.1914 64.0592 21.2969 64.4707 21.2969ZM69.5186 18.3906V22H68.5967V16H69.4873V16.9375H69.5654C69.7061 16.6328 69.9196 16.388 70.2061 16.2031C70.4925 16.0156 70.8623 15.9219 71.3154 15.9219C71.7217 15.9219 72.0771 16.0052 72.3818 16.1719C72.6865 16.3359 72.9235 16.5859 73.0928 16.9219C73.262 17.2552 73.3467 17.6771 73.3467 18.1875V22H72.4248V18.25C72.4248 17.7786 72.3024 17.4115 72.0576 17.1484C71.8128 16.8828 71.4769 16.75 71.0498 16.75C70.7555 16.75 70.4925 16.8138 70.2607 16.9414C70.0316 17.069 69.8506 17.2552 69.7178 17.5C69.585 17.7448 69.5186 18.0417 69.5186 18.3906ZM79.2813 17.3437L78.4531 17.5781C78.401 17.4401 78.3242 17.306 78.2227 17.1758C78.1237 17.043 77.9883 16.9336 77.8164 16.8477C77.6445 16.7617 77.4245 16.7187 77.1563 16.7187C76.7891 16.7187 76.4831 16.8034 76.2383 16.9727C75.9961 17.1393 75.875 17.3516 75.875 17.6094C75.875 17.8385 75.9583 18.0195 76.125 18.1523C76.2917 18.2852 76.5521 18.3958 76.9063 18.4844L77.7969 18.7031C78.3333 18.8333 78.7331 19.0326 78.9961 19.3008C79.2591 19.5664 79.3906 19.9089 79.3906 20.3281C79.3906 20.6719 79.2917 20.9792 79.0938 21.25C78.8984 21.5208 78.625 21.7344 78.2734 21.8906C77.9219 22.0469 77.513 22.125 77.0469 22.125C76.4349 22.125 75.9284 21.9922 75.5273 21.7266C75.1263 21.4609 74.8724 21.0729 74.7656 20.5625L75.6406 20.3437C75.724 20.6667 75.8815 20.9089 76.1133 21.0703C76.3477 21.2318 76.6536 21.3125 77.0313 21.3125C77.4609 21.3125 77.8021 21.2214 78.0547 21.0391C78.3099 20.8542 78.4375 20.6328 78.4375 20.375C78.4375 20.1667 78.3646 19.9922 78.2188 19.8516C78.0729 19.7083 77.849 19.6016 77.5469 19.5312L76.5469 19.2969C75.9974 19.1667 75.5937 18.9648 75.3359 18.6914C75.0807 18.4154 74.9531 18.0703 74.9531 17.6562C74.9531 17.3177 75.0482 17.0182 75.2383 16.7578C75.431 16.4974 75.6927 16.293 76.0234 16.1445C76.3568 15.9961 76.7344 15.9219 77.1563 15.9219C77.75 15.9219 78.2161 16.0521 78.5547 16.3125C78.8958 16.5729 79.138 16.9167 79.2813 17.3437Z" fill="black"/>
</svg>
