<svg width="359" height="279" viewBox="0 0 359 279" fill="none" xmlns="http://www.w3.org/2000/svg">
<g filter="url(#filter0_d_4049_3577)">
<rect x="12" y="10" width="335" height="255" rx="10" fill="white"/>
<path d="M37.3037 38V27.4312H39.4717L42.6504 35.561H42.7749L45.9463 27.4312H48.1143V38H46.415V30.4854H46.2832L43.3535 38H42.0645L39.1348 30.4854H39.0103V38H37.3037ZM53.4883 38.1611C51.0859 38.1611 49.6357 36.5938 49.6357 34.001V33.9863C49.6357 31.4155 51.1079 29.8408 53.4883 29.8408C55.876 29.8408 57.3408 31.4082 57.3408 33.9863V34.001C57.3408 36.5938 55.8833 38.1611 53.4883 38.1611ZM53.4883 36.6816C54.7554 36.6816 55.4731 35.6929 55.4731 34.0083V33.9937C55.4731 32.3091 54.748 31.313 53.4883 31.313C52.2212 31.313 51.4961 32.3091 51.4961 33.9937V34.0083C51.4961 35.6929 52.2212 36.6816 53.4883 36.6816ZM58.6719 38V29.9946H60.4956V31.2178H60.6201C61.001 30.3608 61.77 29.8408 62.9272 29.8408C64.7144 29.8408 65.6885 30.9175 65.6885 32.8218V38H63.8647V33.2466C63.8647 32.0015 63.3594 31.3716 62.2534 31.3716C61.1694 31.3716 60.4956 32.1333 60.4956 33.3345V38H58.6719ZM70.2275 38.1318C68.2207 38.1318 66.9463 36.5425 66.9463 34.0083V33.9937C66.9463 31.4448 68.1987 29.8628 70.2275 29.8628C71.3262 29.8628 72.2417 30.4048 72.6592 31.269H72.7837V26.8965H74.6147V38H72.7837V36.7476H72.6592C72.2197 37.6191 71.3555 38.1318 70.2275 38.1318ZM70.7988 36.5938C72.0439 36.5938 72.813 35.6123 72.813 34.0083V33.9937C72.813 32.3896 72.0366 31.4009 70.7988 31.4009C69.561 31.4009 68.7993 32.3823 68.7993 33.9937V34.0083C68.7993 35.6196 69.5537 36.5938 70.7988 36.5938ZM78.5898 38.1318C77.0664 38.1318 75.9604 37.1943 75.9604 35.7368V35.7222C75.9604 34.2939 77.0518 33.459 79 33.3418L81.0581 33.2173V32.5288C81.0581 31.7305 80.5381 31.291 79.5566 31.291C78.7217 31.291 78.1797 31.5913 77.9966 32.1187L77.9893 32.1479H76.2681L76.2754 32.082C76.4512 30.7344 77.7402 29.8408 79.6445 29.8408C81.7026 29.8408 82.8599 30.8369 82.8599 32.5288V38H81.0581V36.9014H80.9336C80.4941 37.6777 79.6445 38.1318 78.5898 38.1318ZM77.7622 35.6489C77.7622 36.3301 78.3408 36.7329 79.1465 36.7329C80.2451 36.7329 81.0581 36.0151 81.0581 35.063V34.4185L79.2563 34.5356C78.2383 34.6016 77.7622 34.9751 77.7622 35.6343V35.6489ZM85.1577 40.8125C84.938 40.8125 84.6816 40.8052 84.4619 40.7832V39.3843C84.6084 39.3989 84.8135 39.4062 85.0039 39.4062C85.751 39.4062 86.1978 39.0986 86.3955 38.3735L86.4907 38.0073L83.627 29.9946H85.6191L87.4868 36.2495H87.626L89.4863 29.9946H91.4053L88.5342 38.1685C87.8457 40.1753 86.9302 40.8125 85.1577 40.8125ZM91.1763 40.7905L91.8135 36.3887H93.6958L92.4214 40.7905H91.1763ZM99.5439 38V27.4312H103.506C106.648 27.4312 108.479 29.3501 108.479 32.6606V32.6753C108.479 36.0591 106.67 38 103.506 38H99.5439ZM101.434 36.4106H103.257C105.359 36.4106 106.553 35.0776 106.553 32.7046V32.6899C106.553 30.3682 105.33 29.0205 103.257 29.0205H101.434V36.4106ZM113.385 38.1611C111.004 38.1611 109.562 36.5645 109.562 34.0156V34.0083C109.562 31.4888 111.019 29.8408 113.297 29.8408C115.575 29.8408 116.981 31.4375 116.981 33.8545V34.4551H111.385C111.407 35.8906 112.184 36.7256 113.421 36.7256C114.41 36.7256 114.974 36.2275 115.15 35.8613L115.172 35.8101H116.908L116.886 35.876C116.629 36.9087 115.56 38.1611 113.385 38.1611ZM113.319 31.269C112.301 31.269 111.539 31.9575 111.4 33.2319H115.201C115.077 31.9209 114.337 31.269 113.319 31.269ZM121.74 38.1611C119.33 38.1611 117.909 36.6011 117.909 33.9863V33.9717C117.909 31.3862 119.323 29.8408 121.732 29.8408C123.791 29.8408 125.021 30.9834 125.226 32.6387V32.668H123.505L123.498 32.646C123.329 31.8696 122.736 31.313 121.74 31.313C120.495 31.313 119.762 32.2944 119.762 33.9717V33.9863C119.762 35.6855 120.502 36.6816 121.74 36.6816C122.685 36.6816 123.263 36.2495 123.49 35.4072L123.505 35.3779L125.226 35.3706L125.211 35.4292C124.948 37.0698 123.769 38.1611 121.74 38.1611ZM129.954 38V36.7256L133.425 33.1807C134.861 31.7305 135.264 31.1958 135.264 30.3828V30.3608C135.264 29.3867 134.597 28.6836 133.499 28.6836C132.378 28.6836 131.624 29.4233 131.624 30.5146L131.616 30.5439L129.858 30.5366L129.851 30.5146C129.851 28.5444 131.389 27.1675 133.594 27.1675C135.652 27.1675 137.131 28.4199 137.131 30.1997V30.2217C137.131 31.4229 136.553 32.375 134.626 34.228L132.51 36.2788V36.4326H137.292V38H129.954ZM142.71 38.2124C140.396 38.2124 138.88 36.9526 138.741 35.1436L138.733 35.0557H140.535L140.542 35.1362C140.645 36.0298 141.473 36.667 142.71 36.667C143.934 36.667 144.747 35.9858 144.747 35.0044V34.9897C144.747 33.8765 143.926 33.2612 142.571 33.2612H141.326V31.855H142.535C143.699 31.855 144.476 31.1958 144.476 30.2729V30.2583C144.476 29.2915 143.824 28.7202 142.696 28.7202C141.583 28.7202 140.813 29.3135 140.718 30.2583L140.711 30.3315H138.953L138.96 30.251C139.122 28.4199 140.564 27.2188 142.696 27.2188C144.871 27.2188 146.285 28.354 146.285 30.0093V30.0239C146.285 31.335 145.34 32.2065 144.073 32.4702V32.5068C145.625 32.6533 146.658 33.5762 146.658 35.041V35.0557C146.658 36.916 145.054 38.2124 142.71 38.2124Z" fill="#333333"/>
<path d="M37.0254 63V54.5449H38.7949V58.3418H38.9004L42.0234 54.5449H43.9922L40.9102 58.248L44.209 63H42.0879L39.6328 59.4082L38.7949 60.416V63H37.0254ZM47.707 63.1348C45.7441 63.1348 44.5547 61.8516 44.5547 59.7832V59.7773C44.5547 57.7266 45.7559 56.4082 47.6367 56.4082C49.5176 56.4082 50.6895 57.6973 50.6895 59.6484V60.1816H46.248C46.2656 61.2422 46.834 61.8574 47.7422 61.8574C48.4922 61.8574 48.9082 61.459 49.0254 61.2129L49.043 61.1777H50.6367L50.625 61.2363C50.4258 62.0449 49.5938 63.1348 47.707 63.1348ZM47.666 57.6914C46.9219 57.6914 46.3711 58.1953 46.2656 59.1094H49.0488C48.9434 58.1719 48.4102 57.6914 47.666 57.6914ZM54.9258 63.1348C52.9629 63.1348 51.7734 61.8516 51.7734 59.7832V59.7773C51.7734 57.7266 52.9746 56.4082 54.8555 56.4082C56.7363 56.4082 57.9082 57.6973 57.9082 59.6484V60.1816H53.4668C53.4844 61.2422 54.0527 61.8574 54.9609 61.8574C55.7109 61.8574 56.127 61.459 56.2441 61.2129L56.2617 61.1777H57.8555L57.8438 61.2363C57.6445 62.0449 56.8125 63.1348 54.9258 63.1348ZM54.8848 57.6914C54.1406 57.6914 53.5898 58.1953 53.4844 59.1094H56.2676C56.1621 58.1719 55.6289 57.6914 54.8848 57.6914ZM59.3086 65.1387V56.5488H61.0195V57.5449H61.125C61.459 56.8535 62.1445 56.4434 63.0586 56.4434C64.6699 56.4434 65.6777 57.709 65.6777 59.7656V59.7773C65.6777 61.8516 64.6934 63.0996 63.0586 63.0996C62.1738 63.0996 61.4531 62.6719 61.125 61.9688H61.0195V65.1387H59.3086ZM62.4727 61.6816C63.375 61.6816 63.9375 60.9609 63.9375 59.7773V59.7656C63.9375 58.582 63.3809 57.8613 62.4727 57.8613C61.5703 57.8613 61.002 58.582 61.002 59.7656V59.7773C61.002 60.9609 61.5762 61.6816 62.4727 61.6816ZM71.0449 55.5586C70.5176 55.5586 70.0781 55.1367 70.0781 54.6094C70.0781 54.0762 70.5176 53.6543 71.0449 53.6543C71.5723 53.6543 72.0059 54.0762 72.0059 54.6094C72.0059 55.1367 71.5723 55.5586 71.0449 55.5586ZM70.1836 63V56.5488H71.8945V63H70.1836ZM76.2949 63.0234C74.7246 63.0234 74.0918 62.5137 74.0918 61.2598V57.8379H73.0957V56.5488H74.0918V55.0078H75.8203V56.5488H77.1504V57.8379H75.8203V60.8672C75.8203 61.4473 76.0664 61.7051 76.6465 61.7051C76.8691 61.7051 76.9863 61.6934 77.1504 61.6758V62.9473C76.9395 62.9883 76.623 63.0234 76.2949 63.0234ZM83.8008 63.1348C82.3535 63.1348 81.6094 62.2559 81.6094 60.7207V56.5488H83.3203V60.3281C83.3203 61.2422 83.666 61.7168 84.4746 61.7168C85.3184 61.7168 85.7754 61.1484 85.7754 60.2754V56.5488H87.4863V63H85.7754V62.0039H85.6699C85.377 62.707 84.7207 63.1348 83.8008 63.1348ZM89.2031 65.1387V56.5488H90.9141V57.5449H91.0195C91.3535 56.8535 92.0391 56.4434 92.9531 56.4434C94.5645 56.4434 95.5723 57.709 95.5723 59.7656V59.7773C95.5723 61.8516 94.5879 63.0996 92.9531 63.0996C92.0684 63.0996 91.3477 62.6719 91.0195 61.9688H90.9141V65.1387H89.2031ZM92.3672 61.6816C93.2695 61.6816 93.832 60.9609 93.832 59.7773V59.7656C93.832 58.582 93.2754 57.8613 92.3672 57.8613C91.4648 57.8613 90.8965 58.582 90.8965 59.7656V59.7773C90.8965 60.9609 91.4707 61.6816 92.3672 61.6816ZM97.4707 60.2109L97.3184 54.5391H99.1934L99.0352 60.2109H97.4707ZM98.2559 63.1699C97.5996 63.1699 97.1895 62.7949 97.1895 62.1914C97.1895 61.582 97.5996 61.207 98.2559 61.207C98.918 61.207 99.3223 61.582 99.3223 62.1914C99.3223 62.7949 98.918 63.1699 98.2559 63.1699ZM106.852 63V59.8418L103.91 54.5449H105.826L107.689 58.1016H107.795L109.652 54.5449H111.568L108.621 59.8418V63H106.852ZM114.557 63.1348C112.57 63.1348 111.375 61.875 111.375 59.7773V59.7656C111.375 57.6855 112.588 56.4082 114.557 56.4082C116.525 56.4082 117.738 57.6797 117.738 59.7656V59.7773C117.738 61.8809 116.543 63.1348 114.557 63.1348ZM114.557 61.793C115.465 61.793 115.986 61.0488 115.986 59.7773V59.7656C115.986 58.5059 115.459 57.75 114.557 57.75C113.648 57.75 113.127 58.5059 113.127 59.7656V59.7773C113.127 61.0488 113.643 61.793 114.557 61.793ZM121.266 63.1348C119.818 63.1348 119.074 62.2559 119.074 60.7207V56.5488H120.785V60.3281C120.785 61.2422 121.131 61.7168 121.939 61.7168C122.783 61.7168 123.24 61.1484 123.24 60.2754V56.5488H124.951V63H123.24V62.0039H123.135C122.842 62.707 122.186 63.1348 121.266 63.1348ZM127.254 58.1719L127.084 54.5449H128.713L128.543 58.1719H127.254ZM132.527 63L130.283 56.5488H132.117L133.453 61.4004H133.559L134.883 56.5488H136.682L134.449 63H132.527ZM140.402 63.1348C138.439 63.1348 137.25 61.8516 137.25 59.7832V59.7773C137.25 57.7266 138.451 56.4082 140.332 56.4082C142.213 56.4082 143.385 57.6973 143.385 59.6484V60.1816H138.943C138.961 61.2422 139.529 61.8574 140.438 61.8574C141.188 61.8574 141.604 61.459 141.721 61.2129L141.738 61.1777H143.332L143.32 61.2363C143.121 62.0449 142.289 63.1348 140.402 63.1348ZM140.361 57.6914C139.617 57.6914 139.066 58.1953 138.961 59.1094H141.744C141.639 58.1719 141.105 57.6914 140.361 57.6914ZM147.879 63V56.5488H149.59V57.5566H149.695C149.971 56.8301 150.639 56.4082 151.482 56.4082C152.361 56.4082 153.012 56.8535 153.275 57.5977H153.381C153.674 56.8828 154.424 56.4082 155.326 56.4082C156.609 56.4082 157.412 57.2402 157.412 58.5703V63H155.701V58.998C155.701 58.2188 155.35 57.8262 154.635 57.8262C153.943 57.8262 153.498 58.3359 153.498 59.0332V63H151.787V58.9219C151.787 58.2305 151.395 57.8262 150.727 57.8262C150.059 57.8262 149.59 58.3711 149.59 59.1094V63H147.879ZM161.906 63.1348C159.943 63.1348 158.754 61.8516 158.754 59.7832V59.7773C158.754 57.7266 159.955 56.4082 161.836 56.4082C163.717 56.4082 164.889 57.6973 164.889 59.6484V60.1816H160.447C160.465 61.2422 161.033 61.8574 161.941 61.8574C162.691 61.8574 163.107 61.459 163.225 61.2129L163.242 61.1777H164.836L164.824 61.2363C164.625 62.0449 163.793 63.1348 161.906 63.1348ZM161.865 57.6914C161.121 57.6914 160.57 58.1953 160.465 59.1094H163.248C163.143 58.1719 162.609 57.6914 161.865 57.6914ZM168.592 63.0996C166.98 63.0996 165.973 61.8398 165.973 59.7773V59.7656C165.973 57.6914 166.957 56.4434 168.592 56.4434C169.477 56.4434 170.197 56.877 170.52 57.5801H170.625V54.082H172.336V63H170.625V61.998H170.52C170.186 62.6953 169.5 63.0996 168.592 63.0996ZM169.172 61.6816C170.08 61.6816 170.643 60.9668 170.643 59.7832V59.7715C170.643 58.5879 170.074 57.8613 169.172 57.8613C168.27 57.8613 167.713 58.5879 167.713 59.7656V59.7773C167.713 60.9668 168.27 61.6816 169.172 61.6816ZM174.979 55.5586C174.451 55.5586 174.012 55.1367 174.012 54.6094C174.012 54.0762 174.451 53.6543 174.979 53.6543C175.506 53.6543 175.939 54.0762 175.939 54.6094C175.939 55.1367 175.506 55.5586 174.979 55.5586ZM174.117 63V56.5488H175.828V63H174.117ZM180.229 63.0234C178.658 63.0234 178.025 62.5137 178.025 61.2598V57.8379H177.029V56.5488H178.025V55.0078H179.754V56.5488H181.084V57.8379H179.754V60.8672C179.754 61.4473 180 61.7051 180.58 61.7051C180.803 61.7051 180.92 61.6934 181.084 61.6758V62.9473C180.873 62.9883 180.557 63.0234 180.229 63.0234ZM184.266 63.0996C183.035 63.0996 182.162 62.3379 182.162 61.166V61.1543C182.162 59.9941 183.059 59.3145 184.664 59.2207L186.223 59.127V58.5938C186.223 58.0371 185.842 57.7207 185.139 57.7207C184.523 57.7207 184.131 57.9375 183.996 58.3184L183.984 58.3418H182.402L182.408 58.2891C182.543 57.1582 183.609 56.4082 185.232 56.4082C186.943 56.4082 187.91 57.2168 187.91 58.5938V63H186.223V62.1445H186.117C185.789 62.7422 185.109 63.0996 184.266 63.0996ZM183.832 61.0605C183.832 61.5527 184.248 61.8516 184.84 61.8516C185.631 61.8516 186.223 61.3301 186.223 60.6504V60.1758L184.922 60.2578C184.189 60.3047 183.832 60.5801 183.832 61.0488V61.0605ZM192.264 63.0234C190.693 63.0234 190.061 62.5137 190.061 61.2598V57.8379H189.064V56.5488H190.061V55.0078H191.789V56.5488H193.119V57.8379H191.789V60.8672C191.789 61.4473 192.035 61.7051 192.615 61.7051C192.838 61.7051 192.955 61.6934 193.119 61.6758V62.9473C192.908 62.9883 192.592 63.0234 192.264 63.0234ZM197.332 63.1348C195.369 63.1348 194.18 61.8516 194.18 59.7832V59.7773C194.18 57.7266 195.381 56.4082 197.262 56.4082C199.143 56.4082 200.314 57.6973 200.314 59.6484V60.1816H195.873C195.891 61.2422 196.459 61.8574 197.367 61.8574C198.117 61.8574 198.533 61.459 198.65 61.2129L198.668 61.1777H200.262L200.25 61.2363C200.051 62.0449 199.219 63.1348 197.332 63.1348ZM197.291 57.6914C196.547 57.6914 195.996 58.1953 195.891 59.1094H198.674C198.568 58.1719 198.035 57.6914 197.291 57.6914ZM204.018 63.0996C202.406 63.0996 201.398 61.8398 201.398 59.7773V59.7656C201.398 57.6914 202.383 56.4434 204.018 56.4434C204.902 56.4434 205.623 56.877 205.945 57.5801H206.051V54.082H207.762V63H206.051V61.998H205.945C205.611 62.6953 204.926 63.0996 204.018 63.0996ZM204.598 61.6816C205.506 61.6816 206.068 60.9668 206.068 59.7832V59.7715C206.068 58.5879 205.5 57.8613 204.598 57.8613C203.695 57.8613 203.139 58.5879 203.139 59.7656V59.7773C203.139 60.9668 203.695 61.6816 204.598 61.6816ZM213.123 63V57.8379H212.08V56.5488H213.123V55.9453C213.123 54.6621 213.779 54.0176 215.338 54.0176C215.684 54.0176 215.971 54.041 216.217 54.082V55.2246C216.111 55.207 215.93 55.1895 215.707 55.1895C215.045 55.1895 214.799 55.5 214.799 56.0625V56.5488H216.164V57.8379H214.834V63H213.123ZM220.166 63.1348C218.18 63.1348 216.984 61.875 216.984 59.7773V59.7656C216.984 57.6855 218.197 56.4082 220.166 56.4082C222.135 56.4082 223.348 57.6797 223.348 59.7656V59.7773C223.348 61.8809 222.152 63.1348 220.166 63.1348ZM220.166 61.793C221.074 61.793 221.596 61.0488 221.596 59.7773V59.7656C221.596 58.5059 221.068 57.75 220.166 57.75C219.258 57.75 218.736 58.5059 218.736 59.7656V59.7773C218.736 61.0488 219.252 61.793 220.166 61.793ZM224.742 63V56.5488H226.453V57.5508H226.559C226.764 56.8535 227.35 56.4434 228.188 56.4434C228.416 56.4434 228.656 56.4785 228.826 56.5254V58.0195C228.568 57.9609 228.305 57.9199 228.041 57.9199C227.068 57.9199 226.453 58.4766 226.453 59.3906V63H224.742ZM233.062 63V61.8105L235.787 59.1211C236.977 57.9668 237.299 57.5391 237.299 56.9473V56.9297C237.299 56.209 236.807 55.7051 235.998 55.7051C235.172 55.7051 234.604 56.2559 234.604 57.0586V57.0879H232.969L232.963 57.0645C232.963 55.4414 234.229 54.3281 236.08 54.3281C237.82 54.3281 239.039 55.3242 239.039 56.7832V56.8008C239.039 57.7617 238.541 58.5586 237 59.9824L235.436 61.4414V61.5762H239.162V63H233.062ZM246.182 63.0996C244.57 63.0996 243.562 61.8398 243.562 59.7773V59.7656C243.562 57.6914 244.547 56.4434 246.182 56.4434C247.066 56.4434 247.787 56.877 248.109 57.5801H248.215V54.082H249.926V63H248.215V61.998H248.109C247.775 62.6953 247.09 63.0996 246.182 63.0996ZM246.762 61.6816C247.67 61.6816 248.232 60.9668 248.232 59.7832V59.7715C248.232 58.5879 247.664 57.8613 246.762 57.8613C245.859 57.8613 245.303 58.5879 245.303 59.7656V59.7773C245.303 60.9668 245.859 61.6816 246.762 61.6816ZM253.453 63.0996C252.223 63.0996 251.35 62.3379 251.35 61.166V61.1543C251.35 59.9941 252.246 59.3145 253.852 59.2207L255.41 59.127V58.5938C255.41 58.0371 255.029 57.7207 254.326 57.7207C253.711 57.7207 253.318 57.9375 253.184 58.3184L253.172 58.3418H251.59L251.596 58.2891C251.73 57.1582 252.797 56.4082 254.42 56.4082C256.131 56.4082 257.098 57.2168 257.098 58.5938V63H255.41V62.1445H255.305C254.977 62.7422 254.297 63.0996 253.453 63.0996ZM253.02 61.0605C253.02 61.5527 253.436 61.8516 254.027 61.8516C254.818 61.8516 255.41 61.3301 255.41 60.6504V60.1758L254.109 60.2578C253.377 60.3047 253.02 60.5801 253.02 61.0488V61.0605ZM259.365 65.2734C259.166 65.2734 258.949 65.2676 258.75 65.2559V63.9668C258.867 63.9785 259.037 63.9844 259.195 63.9844C259.805 63.9844 260.156 63.75 260.279 63.2461L260.338 63L258.07 56.5488H259.951L261.305 61.4355H261.422L262.775 56.5488H264.58L262.383 62.9941C261.809 64.6992 260.959 65.2734 259.365 65.2734ZM268.16 63.1348C266.408 63.1348 265.412 62.3496 265.289 61.2422L265.283 61.2188H266.965L266.977 61.2422C267.111 61.6406 267.504 61.9277 268.178 61.9277C268.834 61.9277 269.279 61.6465 269.279 61.2188V61.207C269.279 60.8613 269.021 60.6445 268.365 60.498L267.287 60.2695C266.057 60.0059 265.447 59.4023 265.447 58.4355V58.4297C265.447 57.2168 266.525 56.4082 268.137 56.4082C269.83 56.4082 270.768 57.252 270.838 58.2891V58.3125H269.25L269.244 58.2832C269.15 57.9375 268.77 57.6152 268.131 57.6152C267.539 57.6152 267.117 57.8906 267.117 58.3242V58.3301C267.117 58.6758 267.357 58.875 268.025 59.0215L269.098 59.25C270.387 59.5254 270.99 60.0645 270.99 61.0195V61.0254C270.99 62.3027 269.812 63.1348 268.16 63.1348ZM273.621 63.1465C273.023 63.1465 272.59 62.707 272.59 62.127C272.59 61.5469 273.023 61.1133 273.621 61.1133C274.225 61.1133 274.652 61.5469 274.652 62.127C274.652 62.707 274.225 63.1465 273.621 63.1465Z" fill="#858585"/>
<path d="M56.0117 129V121.717H55.918L53.7676 123.275V122.162L56.0176 120.545H57.0664V129H56.0117Z" fill="#ADADAD"/>
<path d="M110.943 128V127.273L113.803 124.18C114.881 123.014 115.197 122.574 115.197 121.836V121.824C115.197 120.934 114.594 120.266 113.598 120.266C112.584 120.266 111.91 120.928 111.91 121.924L111.904 121.936L110.896 121.93L110.885 121.924C110.891 120.424 112.051 119.346 113.668 119.346C115.145 119.346 116.275 120.348 116.275 121.713V121.725C116.275 122.691 115.859 123.395 114.33 124.971L112.408 126.957V127.051H116.416V128H110.943Z" fill="#ADADAD"/>
<path d="M144.52 220L148.27 209.431H150.401L154.151 220H152.174L151.288 217.268H147.376L146.498 220H144.52ZM149.273 211.394L147.853 215.811H150.819L149.398 211.394H149.273ZM161.801 220.161C159.765 220.161 158.535 219.224 158.381 217.869V217.854H160.19L160.197 217.869C160.388 218.425 160.922 218.813 161.831 218.813C162.739 218.813 163.369 218.403 163.369 217.803V217.788C163.369 217.319 163.017 217.012 162.138 216.814L160.842 216.521C159.318 216.184 158.593 215.466 158.593 214.287V214.28C158.593 212.837 159.912 211.841 161.801 211.841C163.75 211.841 164.914 212.808 165.031 214.104V214.119H163.317L163.31 214.097C163.178 213.591 162.651 213.181 161.794 213.181C160.981 213.181 160.395 213.577 160.395 214.177V214.185C160.395 214.653 160.732 214.939 161.596 215.137L162.893 215.422C164.46 215.774 165.2 216.44 165.2 217.605V217.62C165.2 219.143 163.771 220.161 161.801 220.161ZM166.538 220V211.995H168.362V213.24H168.486C168.831 212.346 169.636 211.841 170.684 211.841C171.768 211.841 172.559 212.397 172.903 213.284H173.027C173.416 212.412 174.338 211.841 175.452 211.841C177.063 211.841 178.03 212.83 178.03 214.492V220H176.206V214.939C176.206 213.899 175.73 213.372 174.756 213.372C173.804 213.372 173.188 214.082 173.188 214.998V220H171.365V214.807C171.365 213.921 170.815 213.372 169.922 213.372C169.021 213.372 168.362 214.133 168.362 215.129V220H166.538ZM181.873 220.132C180.35 220.132 179.244 219.194 179.244 217.737V217.722C179.244 216.294 180.335 215.459 182.283 215.342L184.341 215.217V214.529C184.341 213.73 183.821 213.291 182.84 213.291C182.005 213.291 181.463 213.591 181.28 214.119L181.272 214.148H179.551L179.559 214.082C179.734 212.734 181.023 211.841 182.928 211.841C184.986 211.841 186.143 212.837 186.143 214.529V220H184.341V218.901H184.217C183.777 219.678 182.928 220.132 181.873 220.132ZM181.045 217.649C181.045 218.33 181.624 218.733 182.43 218.733C183.528 218.733 184.341 218.015 184.341 217.063V216.418L182.54 216.536C181.521 216.602 181.045 216.975 181.045 217.634V217.649ZM187.906 220V208.896H189.73V220H187.906ZM191.61 220V208.896H193.434V220H191.61ZM201.765 220.161C199.729 220.161 198.499 219.224 198.345 217.869V217.854H200.154L200.161 217.869C200.352 218.425 200.886 218.813 201.794 218.813C202.703 218.813 203.333 218.403 203.333 217.803V217.788C203.333 217.319 202.981 217.012 202.102 216.814L200.806 216.521C199.282 216.184 198.557 215.466 198.557 214.287V214.28C198.557 212.837 199.875 211.841 201.765 211.841C203.713 211.841 204.878 212.808 204.995 214.104V214.119H203.281L203.274 214.097C203.142 213.591 202.615 213.181 201.758 213.181C200.945 213.181 200.359 213.577 200.359 214.177V214.185C200.359 214.653 200.696 214.939 201.56 215.137L202.856 215.422C204.424 215.774 205.164 216.44 205.164 217.605V217.62C205.164 219.143 203.735 220.161 201.765 220.161ZM206.502 222.659V211.995H208.326V213.247H208.45C208.89 212.375 209.761 211.863 210.882 211.863C212.889 211.863 214.17 213.459 214.17 215.994V216.008C214.17 218.557 212.911 220.132 210.882 220.132C209.783 220.132 208.868 219.59 208.45 218.726H208.326V222.659H206.502ZM210.311 218.594C211.556 218.594 212.31 217.612 212.31 216.008V215.994C212.31 214.382 211.556 213.401 210.311 213.401C209.073 213.401 208.304 214.382 208.304 215.986V216.001C208.304 217.605 209.073 218.594 210.311 218.594ZM215.509 220V211.995H217.333V213.225H217.457C217.728 212.368 218.46 211.863 219.515 211.863C219.793 211.863 220.079 211.899 220.255 211.951V213.584C219.962 213.525 219.662 213.481 219.347 213.481C218.131 213.481 217.333 214.207 217.333 215.349V220H215.509ZM224.501 220.161C222.099 220.161 220.648 218.594 220.648 216.001V215.986C220.648 213.416 222.121 211.841 224.501 211.841C226.889 211.841 228.354 213.408 228.354 215.986V216.001C228.354 218.594 226.896 220.161 224.501 220.161ZM224.501 218.682C225.768 218.682 226.486 217.693 226.486 216.008V215.994C226.486 214.309 225.761 213.313 224.501 213.313C223.234 213.313 222.509 214.309 222.509 215.994V216.008C222.509 217.693 223.234 218.682 224.501 218.682ZM232.336 220.161C230.534 220.161 229.611 219.077 229.611 217.173V211.995H231.435V216.755C231.435 217.993 231.896 218.623 232.995 218.623C234.174 218.623 234.804 217.861 234.804 216.66V211.995H236.628V220H234.804V218.784H234.68C234.306 219.641 233.493 220.161 232.336 220.161ZM241.504 220.037C239.666 220.037 238.911 219.421 238.911 217.876V213.408H237.666V211.995H238.911V210.032H240.764V211.995H242.456V213.408H240.764V217.444C240.764 218.242 241.079 218.579 241.841 218.579C242.097 218.579 242.236 218.572 242.456 218.55V219.956C242.192 220.007 241.855 220.037 241.504 220.037ZM248.209 210.654C247.608 210.654 247.118 210.178 247.118 209.578C247.118 208.984 247.608 208.501 248.209 208.501C248.802 208.501 249.293 208.984 249.293 209.578C249.293 210.178 248.802 210.654 248.209 210.654ZM247.293 220V211.995H249.117V220H247.293ZM253.883 220.161C251.847 220.161 250.617 219.224 250.463 217.869V217.854H252.272L252.279 217.869C252.47 218.425 253.004 218.813 253.913 218.813C254.821 218.813 255.451 218.403 255.451 217.803V217.788C255.451 217.319 255.099 217.012 254.22 216.814L252.924 216.521C251.4 216.184 250.675 215.466 250.675 214.287V214.28C250.675 212.837 251.994 211.841 253.883 211.841C255.832 211.841 256.996 212.808 257.113 214.104V214.119H255.399L255.392 214.097C255.26 213.591 254.733 213.181 253.876 213.181C253.063 213.181 252.477 213.577 252.477 214.177V214.185C252.477 214.653 252.814 214.939 253.678 215.137L254.975 215.422C256.542 215.774 257.282 216.44 257.282 217.605V217.62C257.282 219.143 255.854 220.161 253.883 220.161ZM265.562 222.812C263.452 222.812 262.185 221.912 262.002 220.564L262.009 220.542H263.833L263.84 220.564C263.965 221.077 264.573 221.436 265.591 221.436C266.836 221.436 267.561 220.857 267.561 219.832V218.301H267.437C266.975 219.158 266.104 219.626 264.998 219.626C262.969 219.626 261.709 218.059 261.709 215.789V215.774C261.709 213.459 262.969 211.863 265.034 211.863C266.14 211.863 267.004 212.405 267.458 213.313H267.554V211.995H269.377V219.802C269.377 221.648 267.898 222.812 265.562 222.812ZM265.562 218.176C266.829 218.176 267.59 217.202 267.59 215.789V215.774C267.59 214.36 266.821 213.379 265.562 213.379C264.294 213.379 263.577 214.36 263.577 215.774V215.789C263.577 217.202 264.294 218.176 265.562 218.176ZM271.111 220V211.995H272.935V213.225H273.06C273.331 212.368 274.063 211.863 275.118 211.863C275.396 211.863 275.682 211.899 275.857 211.951V213.584C275.564 213.525 275.264 213.481 274.949 213.481C273.733 213.481 272.935 214.207 272.935 215.349V220H271.111ZM280.104 220.161C277.701 220.161 276.251 218.594 276.251 216.001V215.986C276.251 213.416 277.723 211.841 280.104 211.841C282.491 211.841 283.956 213.408 283.956 215.986V216.001C283.956 218.594 282.499 220.161 280.104 220.161ZM280.104 218.682C281.371 218.682 282.088 217.693 282.088 216.008V215.994C282.088 214.309 281.363 213.313 280.104 213.313C278.836 213.313 278.111 214.309 278.111 215.994V216.008C278.111 217.693 278.836 218.682 280.104 218.682ZM286.488 220L284.32 211.995H286.151L287.484 218.008H287.609L289.147 211.995H290.883L292.436 218.008H292.56L293.886 211.995H295.695L293.527 220H291.615L290.055 214.199H289.931L288.378 220H286.488ZM297.722 210.654C297.121 210.654 296.63 210.178 296.63 209.578C296.63 208.984 297.121 208.501 297.722 208.501C298.315 208.501 298.806 208.984 298.806 209.578C298.806 210.178 298.315 210.654 297.722 210.654ZM296.806 220V211.995H298.63V220H296.806ZM300.371 220V211.995H302.195V213.218H302.319C302.7 212.361 303.469 211.841 304.626 211.841C306.414 211.841 307.388 212.917 307.388 214.822V220H305.564V215.247C305.564 214.001 305.059 213.372 303.953 213.372C302.869 213.372 302.195 214.133 302.195 215.334V220H300.371ZM312.483 222.812C310.374 222.812 309.107 221.912 308.924 220.564L308.931 220.542H310.755L310.762 220.564C310.887 221.077 311.495 221.436 312.513 221.436C313.758 221.436 314.483 220.857 314.483 219.832V218.301H314.358C313.897 219.158 313.025 219.626 311.919 219.626C309.891 219.626 308.631 218.059 308.631 215.789V215.774C308.631 213.459 309.891 211.863 311.956 211.863C313.062 211.863 313.926 212.405 314.38 213.313H314.476V211.995H316.299V219.802C316.299 221.648 314.82 222.812 312.483 222.812ZM312.483 218.176C313.75 218.176 314.512 217.202 314.512 215.789V215.774C314.512 214.36 313.743 213.379 312.483 213.379C311.216 213.379 310.499 214.36 310.499 215.774V215.789C310.499 217.202 311.216 218.176 312.483 218.176ZM319.388 220.146C318.722 220.146 318.224 219.641 318.224 218.989C318.224 218.337 318.722 217.832 319.388 217.832C320.062 217.832 320.553 218.337 320.553 218.989C320.553 219.641 320.062 220.146 319.388 220.146Z" fill="#333333"/>
<path d="M145.078 245V236.545H146.104L150.691 243.125H150.785V236.545H151.828V245H150.803L146.215 238.443H146.121V245H145.078ZM155.971 245.111C154.535 245.111 153.797 244.268 153.797 242.773V238.684H154.816V242.527C154.816 243.664 155.227 244.209 156.234 244.209C157.348 244.209 157.939 243.529 157.939 242.422V238.684H158.959V245H157.939V244.057H157.846C157.535 244.73 156.896 245.111 155.971 245.111ZM160.863 245V238.684H161.883V239.621H161.977C162.217 238.959 162.809 238.572 163.664 238.572C163.857 238.572 164.074 238.596 164.174 238.613V239.604C163.963 239.568 163.77 239.545 163.547 239.545C162.574 239.545 161.883 240.16 161.883 241.086V245H160.863ZM167.795 245.047C166.494 245.047 165.949 244.566 165.949 243.359V239.527H164.953V238.684H165.949V237.049H167.004V238.684H168.387V239.527H167.004V243.102C167.004 243.846 167.262 244.145 167.918 244.145C168.1 244.145 168.199 244.139 168.387 244.121V244.988C168.188 245.023 167.994 245.047 167.795 245.047ZM172.025 245.111C170.59 245.111 169.852 244.268 169.852 242.773V238.684H170.871V242.527C170.871 243.664 171.281 244.209 172.289 244.209C173.402 244.209 173.994 243.529 173.994 242.422V238.684H175.014V245H173.994V244.057H173.9C173.59 244.73 172.951 245.111 172.025 245.111ZM176.918 245V238.684H177.938V239.621H178.031C178.271 238.959 178.863 238.572 179.719 238.572C179.912 238.572 180.129 238.596 180.229 238.613V239.604C180.018 239.568 179.824 239.545 179.602 239.545C178.629 239.545 177.938 240.16 177.938 241.086V245H176.918ZM183.891 245.111C182.086 245.111 180.996 243.846 180.996 241.865V241.859C180.996 239.908 182.109 238.572 183.826 238.572C185.543 238.572 186.586 239.85 186.586 241.736V242.135H182.039C182.068 243.441 182.789 244.203 183.914 244.203C184.77 244.203 185.297 243.799 185.467 243.418L185.49 243.365H186.51L186.498 243.412C186.281 244.268 185.379 245.111 183.891 245.111ZM183.82 239.48C182.883 239.48 182.168 240.119 182.057 241.32H185.549C185.443 240.072 184.752 239.48 183.82 239.48ZM192.082 237.465C191.695 237.465 191.379 237.148 191.379 236.762C191.379 236.375 191.695 236.059 192.082 236.059C192.469 236.059 192.785 236.375 192.785 236.762C192.785 237.148 192.469 237.465 192.082 237.465ZM191.566 245V238.684H192.586V245H191.566ZM196.752 245.047C195.451 245.047 194.906 244.566 194.906 243.359V239.527H193.91V238.684H194.906V237.049H195.961V238.684H197.344V239.527H195.961V243.102C195.961 243.846 196.219 244.145 196.875 244.145C197.057 244.145 197.156 244.139 197.344 244.121V244.988C197.145 245.023 196.951 245.047 196.752 245.047ZM203.461 245L201.691 238.684H202.711L203.953 243.734H204.047L205.459 238.684H206.426L207.838 243.734H207.932L209.174 238.684H210.188L208.418 245H207.393L205.98 240.113H205.887L204.48 245H203.461ZM212.074 237.465C211.688 237.465 211.371 237.148 211.371 236.762C211.371 236.375 211.688 236.059 212.074 236.059C212.461 236.059 212.777 236.375 212.777 236.762C212.777 237.148 212.461 237.465 212.074 237.465ZM211.559 245V238.684H212.578V245H211.559ZM216.744 245.047C215.443 245.047 214.898 244.566 214.898 243.359V239.527H213.902V238.684H214.898V237.049H215.953V238.684H217.336V239.527H215.953V243.102C215.953 243.846 216.211 244.145 216.867 244.145C217.049 244.145 217.148 244.139 217.336 244.121V244.988C217.137 245.023 216.943 245.047 216.744 245.047ZM218.918 245V236.176H219.938V239.633H220.031C220.348 238.965 220.939 238.572 221.871 238.572C223.289 238.572 224.08 239.41 224.08 240.91V245H223.061V241.156C223.061 240.02 222.592 239.475 221.584 239.475C220.576 239.475 219.938 240.154 219.938 241.262V245H218.918ZM229.84 247.215C229.705 247.215 229.529 247.203 229.389 247.18V246.342C229.512 246.365 229.67 246.371 229.811 246.371C230.391 246.371 230.742 246.107 230.971 245.381L231.088 245.006L228.75 238.684H229.84L231.574 243.881H231.668L233.396 238.684H234.469L232.002 245.387C231.48 246.805 230.959 247.215 229.84 247.215ZM238.178 245.111C236.379 245.111 235.266 243.869 235.266 241.848V241.836C235.266 239.809 236.379 238.572 238.178 238.572C239.977 238.572 241.09 239.809 241.09 241.836V241.848C241.09 243.869 239.977 245.111 238.178 245.111ZM238.178 244.209C239.373 244.209 240.047 243.336 240.047 241.848V241.836C240.047 240.342 239.373 239.475 238.178 239.475C236.982 239.475 236.309 240.342 236.309 241.836V241.848C236.309 243.336 236.982 244.209 238.178 244.209ZM244.787 245.111C243.352 245.111 242.613 244.268 242.613 242.773V238.684H243.633V242.527C243.633 243.664 244.043 244.209 245.051 244.209C246.164 244.209 246.756 243.529 246.756 242.422V238.684H247.775V245H246.756V244.057H246.662C246.352 244.73 245.713 245.111 244.787 245.111ZM249.68 245V238.684H250.699V239.621H250.793C251.033 238.959 251.625 238.572 252.48 238.572C252.674 238.572 252.891 238.596 252.99 238.613V239.604C252.779 239.568 252.586 239.545 252.363 239.545C251.391 239.545 250.699 240.16 250.699 241.086V245H249.68ZM258.047 245V239.527H256.998V238.684H258.047V237.98C258.047 236.721 258.68 236.117 259.881 236.117C260.127 236.117 260.35 236.135 260.561 236.176V236.99C260.438 236.967 260.268 236.961 260.086 236.961C259.359 236.961 259.066 237.318 259.066 238.01V238.684H260.502V239.527H259.066V245H258.047ZM264.299 245.111C262.5 245.111 261.387 243.869 261.387 241.848V241.836C261.387 239.809 262.5 238.572 264.299 238.572C266.098 238.572 267.211 239.809 267.211 241.836V241.848C267.211 243.869 266.098 245.111 264.299 245.111ZM264.299 244.209C265.494 244.209 266.168 243.336 266.168 241.848V241.836C266.168 240.342 265.494 239.475 264.299 239.475C263.104 239.475 262.43 240.342 262.43 241.836V241.848C262.43 243.336 263.104 244.209 264.299 244.209ZM271.377 245.111C269.607 245.111 268.477 243.828 268.477 241.824V241.812C268.477 239.85 269.602 238.572 271.371 238.572C272.906 238.572 273.826 239.457 274.014 240.582L274.02 240.617H273.006L273 240.6C272.842 239.979 272.279 239.475 271.371 239.475C270.234 239.475 269.52 240.389 269.52 241.812V241.824C269.52 243.277 270.246 244.209 271.371 244.209C272.221 244.209 272.76 243.834 272.994 243.131L273.006 243.096L274.014 243.09L274.002 243.154C273.744 244.297 272.895 245.111 271.377 245.111ZM277.623 245.111C276.188 245.111 275.449 244.268 275.449 242.773V238.684H276.469V242.527C276.469 243.664 276.879 244.209 277.887 244.209C279 244.209 279.592 243.529 279.592 242.422V238.684H280.611V245H279.592V244.057H279.498C279.188 244.73 278.549 245.111 277.623 245.111ZM284.684 245.111C283.277 245.111 282.311 244.432 282.193 243.389H283.236C283.406 243.916 283.91 244.262 284.719 244.262C285.568 244.262 286.172 243.857 286.172 243.283V243.271C286.172 242.844 285.85 242.545 285.07 242.357L284.092 242.123C282.908 241.842 282.375 241.326 282.375 240.418V240.412C282.375 239.363 283.383 238.572 284.725 238.572C286.049 238.572 286.969 239.234 287.109 240.266H286.107C285.973 239.768 285.48 239.422 284.719 239.422C283.969 239.422 283.418 239.809 283.418 240.365V240.377C283.418 240.805 283.734 241.074 284.479 241.256L285.451 241.49C286.641 241.777 287.215 242.293 287.215 243.195V243.207C287.215 244.332 286.119 245.111 284.684 245.111ZM289.629 245.059C289.213 245.059 288.867 244.713 288.867 244.297C288.867 243.875 289.213 243.535 289.629 243.535C290.051 243.535 290.391 243.875 290.391 244.297C290.391 244.713 290.051 245.059 289.629 245.059Z" fill="#ADADAD"/>
<path d="M56.5 91.0596C55.8067 91.8903 54.0653 93.896 52.646 95.2727C50.872 96.9936 47.9968 99.9013 47.1404 102.038C46.284 104.174 44.8769 108.328 47.5686 112.719C49.7219 116.232 53.686 116.24 55.3989 115.804H56.5V91.0596Z" fill="url(#paint0_linear_4049_3577)"/>
<path d="M56.5 91C57.1933 91.8308 58.9347 93.8365 60.354 95.2132C62.128 96.934 65.0032 99.8417 65.8596 101.978C66.716 104.114 68.1231 108.268 65.4314 112.659C63.2781 116.172 59.314 116.18 57.6011 115.745H56.5V91Z" fill="url(#paint1_linear_4049_3577)"/>
<path d="M113.5 84.0757C112.609 85.1391 110.37 87.7064 108.545 89.4685C106.264 91.6713 102.567 95.3931 101.466 98.1275C100.365 100.862 98.5561 106.179 102.017 111.8C104.785 116.296 109.882 116.306 112.084 115.749H113.5V84.0757Z" fill="url(#paint2_linear_4049_3577)"/>
<path d="M113.5 84C114.391 85.0634 116.63 87.6307 118.455 89.3929C120.736 91.5956 124.433 95.3174 125.534 98.0518C126.635 100.786 128.444 106.103 124.983 111.724C122.215 116.22 117.118 116.231 114.916 115.674H113.5V84Z" fill="url(#paint3_linear_4049_3577)"/>
<path d="M55.8203 175.141C54.0742 175.141 52.9434 174.168 52.832 172.832L52.8262 172.762H53.8398L53.8457 172.82C53.9277 173.652 54.6953 174.227 55.8203 174.227C56.9277 174.227 57.6836 173.605 57.6836 172.709V172.697C57.6836 171.66 56.9395 171.08 55.7559 171.08H54.6953V170.189H55.709C56.7168 170.189 57.4199 169.568 57.4199 168.725V168.713C57.4199 167.828 56.8398 167.318 55.8086 167.318C54.8125 167.318 54.1035 167.846 54.0156 168.701L54.0098 168.76H52.9961L53.002 168.701C53.1367 167.324 54.2266 166.404 55.8086 166.404C57.4199 166.404 58.4805 167.301 58.4805 168.584V168.596C58.4805 169.639 57.7422 170.354 56.6875 170.576V170.6C57.918 170.705 58.7559 171.473 58.7559 172.674V172.686C58.7559 174.098 57.5137 175.141 55.8203 175.141Z" fill="#ADADAD"/>
<path d="M55.7207 234.199C54.1445 234.199 53.0195 233.186 52.8965 231.832L52.8906 231.768H53.9043L53.9102 231.814C54.0098 232.623 54.7422 233.268 55.7324 233.268C56.8574 233.268 57.6309 232.465 57.6309 231.322V231.311C57.6309 230.186 56.8457 229.383 55.75 229.383C55.1875 229.383 54.707 229.553 54.3438 229.898C54.1973 230.039 54.0625 230.203 53.957 230.402H53.043L53.4883 225.545H58.1934V226.488H54.3203L54.0332 229.348H54.127C54.502 228.779 55.1641 228.469 55.9316 228.469C57.5195 228.469 58.6621 229.658 58.6621 231.293V231.305C58.6621 233.01 57.4375 234.199 55.7207 234.199Z" fill="#ADADAD"/>
<path d="M114.932 234.199C113.385 234.199 111.75 233.109 111.75 229.928V229.916C111.75 227.033 112.951 225.346 115.002 225.346C116.42 225.346 117.475 226.178 117.762 227.426L117.779 227.502H116.719L116.695 227.438C116.438 226.729 115.846 226.289 114.99 226.289C113.455 226.289 112.828 227.789 112.764 229.553C112.758 229.617 112.758 229.688 112.758 229.752H112.869C113.18 229.061 113.977 228.445 115.119 228.445C116.707 228.445 117.891 229.652 117.891 231.275V231.287C117.891 232.975 116.637 234.199 114.932 234.199ZM113.01 231.275C113.01 232.389 113.848 233.268 114.92 233.268C115.98 233.268 116.83 232.406 116.83 231.311V231.299C116.83 230.174 116.033 229.365 114.938 229.365C113.842 229.365 113.01 230.168 113.01 231.27V231.275Z" fill="#ADADAD"/>
<path d="M115.805 175V173.248H111.686V172.287C112.828 170.371 114.123 168.309 115.307 166.545H116.836V172.305H118.037V173.248H116.836V175H115.805ZM112.764 172.311H115.811V167.523H115.74C114.791 168.941 113.684 170.688 112.764 172.24V172.311Z" fill="#ADADAD"/>
<path d="M239.5 108.207C237.09 111.098 231.036 118.077 226.103 122.868C219.936 128.857 209.941 138.976 206.964 146.41C203.987 153.844 199.096 168.299 208.453 183.581C215.938 195.806 229.718 195.833 235.672 194.319H239.5V108.207Z" fill="url(#paint4_linear_4049_3577)"/>
<path d="M239.5 108C241.91 110.891 247.964 117.871 252.897 122.662C259.064 128.65 269.059 138.769 272.036 146.203C275.013 153.637 279.904 168.093 270.547 183.374C263.062 195.599 249.282 195.627 243.328 194.112H239.5V108Z" fill="url(#paint5_linear_4049_3577)"/>
</g>
<defs>
<filter id="filter0_d_4049_3577" x="0" y="0" width="359" height="279" filterUnits="userSpaceOnUse" color-interpolation-filters="sRGB">
<feFlood flood-opacity="0" result="BackgroundImageFix"/>
<feColorMatrix in="SourceAlpha" type="matrix" values="0 0 0 0 0 0 0 0 0 0 0 0 0 0 0 0 0 0 127 0" result="hardAlpha"/>
<feOffset dy="2"/>
<feGaussianBlur stdDeviation="6"/>
<feColorMatrix type="matrix" values="0 0 0 0 0.2 0 0 0 0 0.2 0 0 0 0 0.2 0 0 0 0.08 0"/>
<feBlend mode="normal" in2="BackgroundImageFix" result="effect1_dropShadow_4049_3577"/>
<feBlend mode="normal" in="SourceGraphic" in2="effect1_dropShadow_4049_3577" result="shape"/>
</filter>
<linearGradient id="paint0_linear_4049_3577" x1="51.25" y1="91.0596" x2="51.25" y2="116" gradientUnits="userSpaceOnUse">
<stop stop-color="#E5DED0"/>
<stop offset="1" stop-color="#83BB9E"/>
</linearGradient>
<linearGradient id="paint1_linear_4049_3577" x1="61.75" y1="91" x2="61.75" y2="115.941" gradientUnits="userSpaceOnUse">
<stop stop-color="#E5DED0"/>
<stop offset="1" stop-color="#83BB9E"/>
</linearGradient>
<linearGradient id="paint2_linear_4049_3577" x1="106.75" y1="84.0757" x2="106.75" y2="116" gradientUnits="userSpaceOnUse">
<stop stop-color="#E5DED0"/>
<stop offset="1" stop-color="#83BB9E"/>
</linearGradient>
<linearGradient id="paint3_linear_4049_3577" x1="120.25" y1="84" x2="120.25" y2="115.924" gradientUnits="userSpaceOnUse">
<stop stop-color="#E5DED0"/>
<stop offset="1" stop-color="#83BB9E"/>
</linearGradient>
<linearGradient id="paint4_linear_4049_3577" x1="221.25" y1="108.207" x2="221.25" y2="195" gradientUnits="userSpaceOnUse">
<stop stop-color="#E5DED0"/>
<stop offset="1" stop-color="#83BB9E"/>
</linearGradient>
<linearGradient id="paint5_linear_4049_3577" x1="257.75" y1="108" x2="257.75" y2="194.793" gradientUnits="userSpaceOnUse">
<stop stop-color="#E5DED0"/>
<stop offset="1" stop-color="#83BB9E"/>
</linearGradient>
</defs>
</svg>
