<svg width="359" height="279" viewBox="0 0 359 279" fill="none" xmlns="http://www.w3.org/2000/svg">
<g filter="url(#filter0_d_4049_3961)">
<g clip-path="url(#clip0_4049_3961)">
<rect x="12" y="10" width="335" height="255" rx="10" fill="white"/>
<path d="M37.3037 38V27.4312H39.4717L42.6504 35.561H42.7749L45.9463 27.4312H48.1143V38H46.415V30.4854H46.2832L43.3535 38H42.0645L39.1348 30.4854H39.0103V38H37.3037ZM53.4883 38.1611C51.0859 38.1611 49.6357 36.5938 49.6357 34.001V33.9863C49.6357 31.4155 51.1079 29.8408 53.4883 29.8408C55.876 29.8408 57.3408 31.4082 57.3408 33.9863V34.001C57.3408 36.5938 55.8833 38.1611 53.4883 38.1611ZM53.4883 36.6816C54.7554 36.6816 55.4731 35.6929 55.4731 34.0083V33.9937C55.4731 32.3091 54.748 31.313 53.4883 31.313C52.2212 31.313 51.4961 32.3091 51.4961 33.9937V34.0083C51.4961 35.6929 52.2212 36.6816 53.4883 36.6816ZM58.6719 38V29.9946H60.4956V31.2178H60.6201C61.001 30.3608 61.77 29.8408 62.9272 29.8408C64.7144 29.8408 65.6885 30.9175 65.6885 32.8218V38H63.8647V33.2466C63.8647 32.0015 63.3594 31.3716 62.2534 31.3716C61.1694 31.3716 60.4956 32.1333 60.4956 33.3345V38H58.6719ZM70.2275 38.1318C68.2207 38.1318 66.9463 36.5425 66.9463 34.0083V33.9937C66.9463 31.4448 68.1987 29.8628 70.2275 29.8628C71.3262 29.8628 72.2417 30.4048 72.6592 31.269H72.7837V26.8965H74.6147V38H72.7837V36.7476H72.6592C72.2197 37.6191 71.3555 38.1318 70.2275 38.1318ZM70.7988 36.5938C72.0439 36.5938 72.813 35.6123 72.813 34.0083V33.9937C72.813 32.3896 72.0366 31.4009 70.7988 31.4009C69.561 31.4009 68.7993 32.3823 68.7993 33.9937V34.0083C68.7993 35.6196 69.5537 36.5938 70.7988 36.5938ZM78.5898 38.1318C77.0664 38.1318 75.9604 37.1943 75.9604 35.7368V35.7222C75.9604 34.2939 77.0518 33.459 79 33.3418L81.0581 33.2173V32.5288C81.0581 31.7305 80.5381 31.291 79.5566 31.291C78.7217 31.291 78.1797 31.5913 77.9966 32.1187L77.9893 32.1479H76.2681L76.2754 32.082C76.4512 30.7344 77.7402 29.8408 79.6445 29.8408C81.7026 29.8408 82.8599 30.8369 82.8599 32.5288V38H81.0581V36.9014H80.9336C80.4941 37.6777 79.6445 38.1318 78.5898 38.1318ZM77.7622 35.6489C77.7622 36.3301 78.3408 36.7329 79.1465 36.7329C80.2451 36.7329 81.0581 36.0151 81.0581 35.063V34.4185L79.2563 34.5356C78.2383 34.6016 77.7622 34.9751 77.7622 35.6343V35.6489ZM85.1577 40.8125C84.938 40.8125 84.6816 40.8052 84.4619 40.7832V39.3843C84.6084 39.3989 84.8135 39.4062 85.0039 39.4062C85.751 39.4062 86.1978 39.0986 86.3955 38.3735L86.4907 38.0073L83.627 29.9946H85.6191L87.4868 36.2495H87.626L89.4863 29.9946H91.4053L88.5342 38.1685C87.8457 40.1753 86.9302 40.8125 85.1577 40.8125ZM91.1763 40.7905L91.8135 36.3887H93.6958L92.4214 40.7905H91.1763ZM99.5439 38V27.4312H103.506C106.648 27.4312 108.479 29.3501 108.479 32.6606V32.6753C108.479 36.0591 106.67 38 103.506 38H99.5439ZM101.434 36.4106H103.257C105.359 36.4106 106.553 35.0776 106.553 32.7046V32.6899C106.553 30.3682 105.33 29.0205 103.257 29.0205H101.434V36.4106ZM113.385 38.1611C111.004 38.1611 109.562 36.5645 109.562 34.0156V34.0083C109.562 31.4888 111.019 29.8408 113.297 29.8408C115.575 29.8408 116.981 31.4375 116.981 33.8545V34.4551H111.385C111.407 35.8906 112.184 36.7256 113.421 36.7256C114.41 36.7256 114.974 36.2275 115.15 35.8613L115.172 35.8101H116.908L116.886 35.876C116.629 36.9087 115.56 38.1611 113.385 38.1611ZM113.319 31.269C112.301 31.269 111.539 31.9575 111.4 33.2319H115.201C115.077 31.9209 114.337 31.269 113.319 31.269ZM121.74 38.1611C119.33 38.1611 117.909 36.6011 117.909 33.9863V33.9717C117.909 31.3862 119.323 29.8408 121.732 29.8408C123.791 29.8408 125.021 30.9834 125.226 32.6387V32.668H123.505L123.498 32.646C123.329 31.8696 122.736 31.313 121.74 31.313C120.495 31.313 119.762 32.2944 119.762 33.9717V33.9863C119.762 35.6855 120.502 36.6816 121.74 36.6816C122.685 36.6816 123.263 36.2495 123.49 35.4072L123.505 35.3779L125.226 35.3706L125.211 35.4292C124.948 37.0698 123.769 38.1611 121.74 38.1611ZM129.954 38V36.7256L133.425 33.1807C134.861 31.7305 135.264 31.1958 135.264 30.3828V30.3608C135.264 29.3867 134.597 28.6836 133.499 28.6836C132.378 28.6836 131.624 29.4233 131.624 30.5146L131.616 30.5439L129.858 30.5366L129.851 30.5146C129.851 28.5444 131.389 27.1675 133.594 27.1675C135.652 27.1675 137.131 28.4199 137.131 30.1997V30.2217C137.131 31.4229 136.553 32.375 134.626 34.228L132.51 36.2788V36.4326H137.292V38H129.954ZM142.71 38.2124C140.396 38.2124 138.88 36.9526 138.741 35.1436L138.733 35.0557H140.535L140.542 35.1362C140.645 36.0298 141.473 36.667 142.71 36.667C143.934 36.667 144.747 35.9858 144.747 35.0044V34.9897C144.747 33.8765 143.926 33.2612 142.571 33.2612H141.326V31.855H142.535C143.699 31.855 144.476 31.1958 144.476 30.2729V30.2583C144.476 29.2915 143.824 28.7202 142.696 28.7202C141.583 28.7202 140.813 29.3135 140.718 30.2583L140.711 30.3315H138.953L138.96 30.251C139.122 28.4199 140.564 27.2188 142.696 27.2188C144.871 27.2188 146.285 28.354 146.285 30.0093V30.0239C146.285 31.335 145.34 32.2065 144.073 32.4702V32.5068C145.625 32.6533 146.658 33.5762 146.658 35.041V35.0557C146.658 36.916 145.054 38.2124 142.71 38.2124Z" fill="#333333"/>
<path d="M37.0254 63V54.5449H38.7949V58.3418H38.9004L42.0234 54.5449H43.9922L40.9102 58.248L44.209 63H42.0879L39.6328 59.4082L38.7949 60.416V63H37.0254ZM47.707 63.1348C45.7441 63.1348 44.5547 61.8516 44.5547 59.7832V59.7773C44.5547 57.7266 45.7559 56.4082 47.6367 56.4082C49.5176 56.4082 50.6895 57.6973 50.6895 59.6484V60.1816H46.248C46.2656 61.2422 46.834 61.8574 47.7422 61.8574C48.4922 61.8574 48.9082 61.459 49.0254 61.2129L49.043 61.1777H50.6367L50.625 61.2363C50.4258 62.0449 49.5938 63.1348 47.707 63.1348ZM47.666 57.6914C46.9219 57.6914 46.3711 58.1953 46.2656 59.1094H49.0488C48.9434 58.1719 48.4102 57.6914 47.666 57.6914ZM54.9258 63.1348C52.9629 63.1348 51.7734 61.8516 51.7734 59.7832V59.7773C51.7734 57.7266 52.9746 56.4082 54.8555 56.4082C56.7363 56.4082 57.9082 57.6973 57.9082 59.6484V60.1816H53.4668C53.4844 61.2422 54.0527 61.8574 54.9609 61.8574C55.7109 61.8574 56.127 61.459 56.2441 61.2129L56.2617 61.1777H57.8555L57.8438 61.2363C57.6445 62.0449 56.8125 63.1348 54.9258 63.1348ZM54.8848 57.6914C54.1406 57.6914 53.5898 58.1953 53.4844 59.1094H56.2676C56.1621 58.1719 55.6289 57.6914 54.8848 57.6914ZM59.3086 65.1387V56.5488H61.0195V57.5449H61.125C61.459 56.8535 62.1445 56.4434 63.0586 56.4434C64.6699 56.4434 65.6777 57.709 65.6777 59.7656V59.7773C65.6777 61.8516 64.6934 63.0996 63.0586 63.0996C62.1738 63.0996 61.4531 62.6719 61.125 61.9688H61.0195V65.1387H59.3086ZM62.4727 61.6816C63.375 61.6816 63.9375 60.9609 63.9375 59.7773V59.7656C63.9375 58.582 63.3809 57.8613 62.4727 57.8613C61.5703 57.8613 61.002 58.582 61.002 59.7656V59.7773C61.002 60.9609 61.5762 61.6816 62.4727 61.6816ZM71.0449 55.5586C70.5176 55.5586 70.0781 55.1367 70.0781 54.6094C70.0781 54.0762 70.5176 53.6543 71.0449 53.6543C71.5723 53.6543 72.0059 54.0762 72.0059 54.6094C72.0059 55.1367 71.5723 55.5586 71.0449 55.5586ZM70.1836 63V56.5488H71.8945V63H70.1836ZM76.2949 63.0234C74.7246 63.0234 74.0918 62.5137 74.0918 61.2598V57.8379H73.0957V56.5488H74.0918V55.0078H75.8203V56.5488H77.1504V57.8379H75.8203V60.8672C75.8203 61.4473 76.0664 61.7051 76.6465 61.7051C76.8691 61.7051 76.9863 61.6934 77.1504 61.6758V62.9473C76.9395 62.9883 76.623 63.0234 76.2949 63.0234ZM83.8008 63.1348C82.3535 63.1348 81.6094 62.2559 81.6094 60.7207V56.5488H83.3203V60.3281C83.3203 61.2422 83.666 61.7168 84.4746 61.7168C85.3184 61.7168 85.7754 61.1484 85.7754 60.2754V56.5488H87.4863V63H85.7754V62.0039H85.6699C85.377 62.707 84.7207 63.1348 83.8008 63.1348ZM89.2031 65.1387V56.5488H90.9141V57.5449H91.0195C91.3535 56.8535 92.0391 56.4434 92.9531 56.4434C94.5645 56.4434 95.5723 57.709 95.5723 59.7656V59.7773C95.5723 61.8516 94.5879 63.0996 92.9531 63.0996C92.0684 63.0996 91.3477 62.6719 91.0195 61.9688H90.9141V65.1387H89.2031ZM92.3672 61.6816C93.2695 61.6816 93.832 60.9609 93.832 59.7773V59.7656C93.832 58.582 93.2754 57.8613 92.3672 57.8613C91.4648 57.8613 90.8965 58.582 90.8965 59.7656V59.7773C90.8965 60.9609 91.4707 61.6816 92.3672 61.6816ZM97.4707 60.2109L97.3184 54.5391H99.1934L99.0352 60.2109H97.4707ZM98.2559 63.1699C97.5996 63.1699 97.1895 62.7949 97.1895 62.1914C97.1895 61.582 97.5996 61.207 98.2559 61.207C98.918 61.207 99.3223 61.582 99.3223 62.1914C99.3223 62.7949 98.918 63.1699 98.2559 63.1699ZM106.852 63V59.8418L103.91 54.5449H105.826L107.689 58.1016H107.795L109.652 54.5449H111.568L108.621 59.8418V63H106.852ZM114.557 63.1348C112.57 63.1348 111.375 61.875 111.375 59.7773V59.7656C111.375 57.6855 112.588 56.4082 114.557 56.4082C116.525 56.4082 117.738 57.6797 117.738 59.7656V59.7773C117.738 61.8809 116.543 63.1348 114.557 63.1348ZM114.557 61.793C115.465 61.793 115.986 61.0488 115.986 59.7773V59.7656C115.986 58.5059 115.459 57.75 114.557 57.75C113.648 57.75 113.127 58.5059 113.127 59.7656V59.7773C113.127 61.0488 113.643 61.793 114.557 61.793ZM121.266 63.1348C119.818 63.1348 119.074 62.2559 119.074 60.7207V56.5488H120.785V60.3281C120.785 61.2422 121.131 61.7168 121.939 61.7168C122.783 61.7168 123.24 61.1484 123.24 60.2754V56.5488H124.951V63H123.24V62.0039H123.135C122.842 62.707 122.186 63.1348 121.266 63.1348ZM127.254 58.1719L127.084 54.5449H128.713L128.543 58.1719H127.254ZM132.527 63L130.283 56.5488H132.117L133.453 61.4004H133.559L134.883 56.5488H136.682L134.449 63H132.527ZM140.402 63.1348C138.439 63.1348 137.25 61.8516 137.25 59.7832V59.7773C137.25 57.7266 138.451 56.4082 140.332 56.4082C142.213 56.4082 143.385 57.6973 143.385 59.6484V60.1816H138.943C138.961 61.2422 139.529 61.8574 140.438 61.8574C141.188 61.8574 141.604 61.459 141.721 61.2129L141.738 61.1777H143.332L143.32 61.2363C143.121 62.0449 142.289 63.1348 140.402 63.1348ZM140.361 57.6914C139.617 57.6914 139.066 58.1953 138.961 59.1094H141.744C141.639 58.1719 141.105 57.6914 140.361 57.6914ZM147.879 63V56.5488H149.59V57.5566H149.695C149.971 56.8301 150.639 56.4082 151.482 56.4082C152.361 56.4082 153.012 56.8535 153.275 57.5977H153.381C153.674 56.8828 154.424 56.4082 155.326 56.4082C156.609 56.4082 157.412 57.2402 157.412 58.5703V63H155.701V58.998C155.701 58.2188 155.35 57.8262 154.635 57.8262C153.943 57.8262 153.498 58.3359 153.498 59.0332V63H151.787V58.9219C151.787 58.2305 151.395 57.8262 150.727 57.8262C150.059 57.8262 149.59 58.3711 149.59 59.1094V63H147.879ZM161.906 63.1348C159.943 63.1348 158.754 61.8516 158.754 59.7832V59.7773C158.754 57.7266 159.955 56.4082 161.836 56.4082C163.717 56.4082 164.889 57.6973 164.889 59.6484V60.1816H160.447C160.465 61.2422 161.033 61.8574 161.941 61.8574C162.691 61.8574 163.107 61.459 163.225 61.2129L163.242 61.1777H164.836L164.824 61.2363C164.625 62.0449 163.793 63.1348 161.906 63.1348ZM161.865 57.6914C161.121 57.6914 160.57 58.1953 160.465 59.1094H163.248C163.143 58.1719 162.609 57.6914 161.865 57.6914ZM168.592 63.0996C166.98 63.0996 165.973 61.8398 165.973 59.7773V59.7656C165.973 57.6914 166.957 56.4434 168.592 56.4434C169.477 56.4434 170.197 56.877 170.52 57.5801H170.625V54.082H172.336V63H170.625V61.998H170.52C170.186 62.6953 169.5 63.0996 168.592 63.0996ZM169.172 61.6816C170.08 61.6816 170.643 60.9668 170.643 59.7832V59.7715C170.643 58.5879 170.074 57.8613 169.172 57.8613C168.27 57.8613 167.713 58.5879 167.713 59.7656V59.7773C167.713 60.9668 168.27 61.6816 169.172 61.6816ZM174.979 55.5586C174.451 55.5586 174.012 55.1367 174.012 54.6094C174.012 54.0762 174.451 53.6543 174.979 53.6543C175.506 53.6543 175.939 54.0762 175.939 54.6094C175.939 55.1367 175.506 55.5586 174.979 55.5586ZM174.117 63V56.5488H175.828V63H174.117ZM180.229 63.0234C178.658 63.0234 178.025 62.5137 178.025 61.2598V57.8379H177.029V56.5488H178.025V55.0078H179.754V56.5488H181.084V57.8379H179.754V60.8672C179.754 61.4473 180 61.7051 180.58 61.7051C180.803 61.7051 180.92 61.6934 181.084 61.6758V62.9473C180.873 62.9883 180.557 63.0234 180.229 63.0234ZM184.266 63.0996C183.035 63.0996 182.162 62.3379 182.162 61.166V61.1543C182.162 59.9941 183.059 59.3145 184.664 59.2207L186.223 59.127V58.5938C186.223 58.0371 185.842 57.7207 185.139 57.7207C184.523 57.7207 184.131 57.9375 183.996 58.3184L183.984 58.3418H182.402L182.408 58.2891C182.543 57.1582 183.609 56.4082 185.232 56.4082C186.943 56.4082 187.91 57.2168 187.91 58.5938V63H186.223V62.1445H186.117C185.789 62.7422 185.109 63.0996 184.266 63.0996ZM183.832 61.0605C183.832 61.5527 184.248 61.8516 184.84 61.8516C185.631 61.8516 186.223 61.3301 186.223 60.6504V60.1758L184.922 60.2578C184.189 60.3047 183.832 60.5801 183.832 61.0488V61.0605ZM192.264 63.0234C190.693 63.0234 190.061 62.5137 190.061 61.2598V57.8379H189.064V56.5488H190.061V55.0078H191.789V56.5488H193.119V57.8379H191.789V60.8672C191.789 61.4473 192.035 61.7051 192.615 61.7051C192.838 61.7051 192.955 61.6934 193.119 61.6758V62.9473C192.908 62.9883 192.592 63.0234 192.264 63.0234ZM197.332 63.1348C195.369 63.1348 194.18 61.8516 194.18 59.7832V59.7773C194.18 57.7266 195.381 56.4082 197.262 56.4082C199.143 56.4082 200.314 57.6973 200.314 59.6484V60.1816H195.873C195.891 61.2422 196.459 61.8574 197.367 61.8574C198.117 61.8574 198.533 61.459 198.65 61.2129L198.668 61.1777H200.262L200.25 61.2363C200.051 62.0449 199.219 63.1348 197.332 63.1348ZM197.291 57.6914C196.547 57.6914 195.996 58.1953 195.891 59.1094H198.674C198.568 58.1719 198.035 57.6914 197.291 57.6914ZM204.018 63.0996C202.406 63.0996 201.398 61.8398 201.398 59.7773V59.7656C201.398 57.6914 202.383 56.4434 204.018 56.4434C204.902 56.4434 205.623 56.877 205.945 57.5801H206.051V54.082H207.762V63H206.051V61.998H205.945C205.611 62.6953 204.926 63.0996 204.018 63.0996ZM204.598 61.6816C205.506 61.6816 206.068 60.9668 206.068 59.7832V59.7715C206.068 58.5879 205.5 57.8613 204.598 57.8613C203.695 57.8613 203.139 58.5879 203.139 59.7656V59.7773C203.139 60.9668 203.695 61.6816 204.598 61.6816ZM213.123 63V57.8379H212.08V56.5488H213.123V55.9453C213.123 54.6621 213.779 54.0176 215.338 54.0176C215.684 54.0176 215.971 54.041 216.217 54.082V55.2246C216.111 55.207 215.93 55.1895 215.707 55.1895C215.045 55.1895 214.799 55.5 214.799 56.0625V56.5488H216.164V57.8379H214.834V63H213.123ZM220.166 63.1348C218.18 63.1348 216.984 61.875 216.984 59.7773V59.7656C216.984 57.6855 218.197 56.4082 220.166 56.4082C222.135 56.4082 223.348 57.6797 223.348 59.7656V59.7773C223.348 61.8809 222.152 63.1348 220.166 63.1348ZM220.166 61.793C221.074 61.793 221.596 61.0488 221.596 59.7773V59.7656C221.596 58.5059 221.068 57.75 220.166 57.75C219.258 57.75 218.736 58.5059 218.736 59.7656V59.7773C218.736 61.0488 219.252 61.793 220.166 61.793ZM224.742 63V56.5488H226.453V57.5508H226.559C226.764 56.8535 227.35 56.4434 228.188 56.4434C228.416 56.4434 228.656 56.4785 228.826 56.5254V58.0195C228.568 57.9609 228.305 57.9199 228.041 57.9199C227.068 57.9199 226.453 58.4766 226.453 59.3906V63H224.742ZM236.432 63.2168C234.469 63.2168 232.939 61.8281 232.939 58.8516V58.8398C232.939 56.0098 234.275 54.3281 236.438 54.3281C238.072 54.3281 239.291 55.2949 239.549 56.6191L239.561 56.6777H237.832L237.809 56.625C237.609 56.0977 237.129 55.7402 236.443 55.7402C235.219 55.7402 234.686 56.9414 234.621 58.4766C234.615 58.541 234.615 58.6055 234.615 58.6699H234.732C235.037 58.0137 235.746 57.4336 236.912 57.4336C238.559 57.4336 239.672 58.6055 239.672 60.2051V60.2168C239.672 61.9453 238.336 63.2168 236.432 63.2168ZM234.879 60.2402C234.879 61.1309 235.559 61.8164 236.42 61.8164C237.275 61.8164 237.961 61.1426 237.961 60.2754V60.2637C237.961 59.3789 237.316 58.7344 236.432 58.7344C235.559 58.7344 234.879 59.3613 234.879 60.2344V60.2402ZM246.662 63.0996C245.051 63.0996 244.043 61.8398 244.043 59.7773V59.7656C244.043 57.6914 245.027 56.4434 246.662 56.4434C247.547 56.4434 248.268 56.877 248.59 57.5801H248.695V54.082H250.406V63H248.695V61.998H248.59C248.256 62.6953 247.57 63.0996 246.662 63.0996ZM247.242 61.6816C248.15 61.6816 248.713 60.9668 248.713 59.7832V59.7715C248.713 58.5879 248.145 57.8613 247.242 57.8613C246.34 57.8613 245.783 58.5879 245.783 59.7656V59.7773C245.783 60.9668 246.34 61.6816 247.242 61.6816ZM253.934 63.0996C252.703 63.0996 251.83 62.3379 251.83 61.166V61.1543C251.83 59.9941 252.727 59.3145 254.332 59.2207L255.891 59.127V58.5938C255.891 58.0371 255.51 57.7207 254.807 57.7207C254.191 57.7207 253.799 57.9375 253.664 58.3184L253.652 58.3418H252.07L252.076 58.2891C252.211 57.1582 253.277 56.4082 254.9 56.4082C256.611 56.4082 257.578 57.2168 257.578 58.5938V63H255.891V62.1445H255.785C255.457 62.7422 254.777 63.0996 253.934 63.0996ZM253.5 61.0605C253.5 61.5527 253.916 61.8516 254.508 61.8516C255.299 61.8516 255.891 61.3301 255.891 60.6504V60.1758L254.59 60.2578C253.857 60.3047 253.5 60.5801 253.5 61.0488V61.0605ZM259.846 65.2734C259.646 65.2734 259.43 65.2676 259.23 65.2559V63.9668C259.348 63.9785 259.518 63.9844 259.676 63.9844C260.285 63.9844 260.637 63.75 260.76 63.2461L260.818 63L258.551 56.5488H260.432L261.785 61.4355H261.902L263.256 56.5488H265.061L262.863 62.9941C262.289 64.6992 261.439 65.2734 259.846 65.2734ZM268.641 63.1348C266.889 63.1348 265.893 62.3496 265.77 61.2422L265.764 61.2188H267.445L267.457 61.2422C267.592 61.6406 267.984 61.9277 268.658 61.9277C269.314 61.9277 269.76 61.6465 269.76 61.2188V61.207C269.76 60.8613 269.502 60.6445 268.846 60.498L267.768 60.2695C266.537 60.0059 265.928 59.4023 265.928 58.4355V58.4297C265.928 57.2168 267.006 56.4082 268.617 56.4082C270.311 56.4082 271.248 57.252 271.318 58.2891V58.3125H269.73L269.725 58.2832C269.631 57.9375 269.25 57.6152 268.611 57.6152C268.02 57.6152 267.598 57.8906 267.598 58.3242V58.3301C267.598 58.6758 267.838 58.875 268.506 59.0215L269.578 59.25C270.867 59.5254 271.471 60.0645 271.471 61.0195V61.0254C271.471 62.3027 270.293 63.1348 268.641 63.1348ZM274.102 63.1465C273.504 63.1465 273.07 62.707 273.07 62.127C273.07 61.5469 273.504 61.1133 274.102 61.1133C274.705 61.1133 275.133 61.5469 275.133 62.127C275.133 62.707 274.705 63.1465 274.102 63.1465Z" fill="#858585"/>
<path d="M56.0117 129V121.717H55.918L53.7676 123.275V122.162L56.0176 120.545H57.0664V129H56.0117Z" fill="#ADADAD"/>
<path d="M56.8203 187.141C55.0742 187.141 53.9434 186.168 53.832 184.832L53.8262 184.762H54.8398L54.8457 184.82C54.9277 185.652 55.6953 186.227 56.8203 186.227C57.9277 186.227 58.6836 185.605 58.6836 184.709V184.697C58.6836 183.66 57.9395 183.08 56.7559 183.08H55.6953V182.189H56.709C57.7168 182.189 58.4199 181.568 58.4199 180.725V180.713C58.4199 179.828 57.8398 179.318 56.8086 179.318C55.8125 179.318 55.1035 179.846 55.0156 180.701L55.0098 180.76H53.9961L54.002 180.701C54.1367 179.324 55.2266 178.404 56.8086 178.404C58.4199 178.404 59.4805 179.301 59.4805 180.584V180.596C59.4805 181.639 58.7422 182.354 57.6875 182.576V182.6C58.918 182.705 59.7559 183.473 59.7559 184.674V184.686C59.7559 186.098 58.5137 187.141 56.8203 187.141Z" fill="#ADADAD"/>
<path d="M56.7207 246.199C55.1445 246.199 54.0195 245.186 53.8965 243.832L53.8906 243.768H54.9043L54.9102 243.814C55.0098 244.623 55.7422 245.268 56.7324 245.268C57.8574 245.268 58.6309 244.465 58.6309 243.322V243.311C58.6309 242.186 57.8457 241.383 56.75 241.383C56.1875 241.383 55.707 241.553 55.3438 241.898C55.1973 242.039 55.0625 242.203 54.957 242.402H54.043L54.4883 237.545H59.1934V238.488H55.3203L55.0332 241.348H55.127C55.502 240.779 56.1641 240.469 56.9316 240.469C58.5195 240.469 59.6621 241.658 59.6621 243.293V243.305C59.6621 245.01 58.4375 246.199 56.7207 246.199Z" fill="#ADADAD"/>
<path d="M116.932 246.199C115.385 246.199 113.75 245.109 113.75 241.928V241.916C113.75 239.033 114.951 237.346 117.002 237.346C118.42 237.346 119.475 238.178 119.762 239.426L119.779 239.502H118.719L118.695 239.438C118.438 238.729 117.846 238.289 116.99 238.289C115.455 238.289 114.828 239.789 114.764 241.553C114.758 241.617 114.758 241.688 114.758 241.752H114.869C115.18 241.061 115.977 240.445 117.119 240.445C118.707 240.445 119.891 241.652 119.891 243.275V243.287C119.891 244.975 118.637 246.199 116.932 246.199ZM115.01 243.275C115.01 244.389 115.848 245.268 116.92 245.268C117.98 245.268 118.83 244.406 118.83 243.311V243.299C118.83 242.174 118.033 241.365 116.938 241.365C115.842 241.365 115.01 242.168 115.01 243.27V243.275Z" fill="#ADADAD"/>
<path d="M114.805 187V185.248H110.686V184.287C111.828 182.371 113.123 180.309 114.307 178.545H115.836V184.305H117.037V185.248H115.836V187H114.805ZM111.764 184.311H114.811V179.523H114.74C113.791 180.941 112.684 182.688 111.764 184.24V184.311Z" fill="#ADADAD"/>
<path d="M110.943 128V127.273L113.803 124.18C114.881 123.014 115.197 122.574 115.197 121.836V121.824C115.197 120.934 114.594 120.266 113.598 120.266C112.584 120.266 111.91 120.928 111.91 121.924L111.904 121.936L110.896 121.93L110.885 121.924C110.891 120.424 112.051 119.346 113.668 119.346C115.145 119.346 116.275 120.348 116.275 121.713V121.725C116.275 122.691 115.859 123.395 114.33 124.971L112.408 126.957V127.051H116.416V128H110.943Z" fill="#ADADAD"/>
<path d="M56.5 91.0596C55.8067 91.8903 54.0653 93.896 52.646 95.2727C50.872 96.9936 47.9968 99.9013 47.1404 102.038C46.284 104.174 44.8769 108.328 47.5686 112.719C49.7219 116.232 53.686 116.24 55.3989 115.804H56.5V91.0596Z" fill="url(#paint0_linear_4049_3961)"/>
<path d="M56.5 91C57.1933 91.8308 58.9347 93.8365 60.354 95.2132C62.128 96.934 65.0032 99.8417 65.8596 101.978C66.716 104.114 68.1231 108.268 65.4314 112.659C63.2781 116.172 59.314 116.18 57.6011 115.745H56.5V91Z" fill="url(#paint1_linear_4049_3961)"/>
<path d="M113.5 84.0757C112.609 85.1391 110.37 87.7064 108.545 89.4685C106.264 91.6713 102.567 95.3931 101.466 98.1275C100.365 100.862 98.5561 106.179 102.017 111.8C104.785 116.296 109.882 116.306 112.084 115.749H113.5V84.0757Z" fill="url(#paint2_linear_4049_3961)"/>
<path d="M113.5 84C114.391 85.0634 116.63 87.6307 118.455 89.3929C120.736 91.5956 124.433 95.3174 125.534 98.0518C126.635 100.786 128.444 106.103 124.983 111.724C122.215 116.22 117.118 116.231 114.916 115.674H113.5V84Z" fill="url(#paint3_linear_4049_3961)"/>
<path d="M113.865 142.078C112.971 143.173 110.724 145.818 108.893 147.633C106.603 149.901 102.894 153.735 101.788 156.551C100.683 159.368 98.8678 164.844 102.341 170.633C105.119 175.264 110.234 175.275 112.445 174.701H113.865V142.078Z" fill="url(#paint4_linear_4049_3961)"/>
<path d="M113.865 142C114.76 143.095 117.007 145.74 118.838 147.555C121.127 149.823 124.837 153.657 125.942 156.473C127.048 159.289 128.863 164.766 125.39 170.555C122.611 175.186 117.496 175.197 115.286 174.623H113.865V142Z" fill="url(#paint5_linear_4049_3961)"/>
<path d="M104.072 153.29C103.366 151.944 101.478 151.871 100.667 153.156C99.196 155.49 97.6152 158.122 97.3676 159.111C96.9158 160.915 96.5393 168.508 98.4218 170.763C100.304 173.019 102.111 174.898 104.898 175.424C107.684 175.95 109.491 176.402 112.578 175.424C114.773 174.729 108.564 161.846 104.072 153.29Z" fill="url(#paint6_linear_4049_3961)"/>
<path d="M122.934 153.26C123.639 151.922 125.509 151.853 126.305 153.139C127.784 155.529 129.383 158.272 129.632 159.258C130.084 161.047 130.461 168.573 128.578 170.809C126.696 173.045 124.889 174.908 122.102 175.429C119.316 175.951 117.509 176.398 114.422 175.429C112.226 174.74 118.441 161.781 122.934 153.26Z" fill="url(#paint7_linear_4049_3961)"/>
<path d="M113.657 151.793C112.845 152.532 110.868 154.251 109.46 155.218C107.7 156.426 105.195 162.268 105.059 163.208C104.924 164.148 104.586 175.764 113.657 175.629C120.914 175.522 122.729 167.304 122.729 163.208C121.916 161.037 119.831 156.399 117.99 155.218C116.148 154.036 114.334 152.443 113.657 151.793Z" fill="url(#paint8_linear_4049_3961)"/>
<path d="M56.6609 196.085C55.7165 197.274 53.3444 200.146 51.4112 202.117C48.9946 204.581 45.0781 208.744 43.9114 211.802C42.7448 214.861 40.8282 220.808 44.4948 227.095C47.428 232.124 52.8278 232.135 55.161 231.512H56.6609V196.085Z" fill="url(#paint9_linear_4049_3961)"/>
<path d="M56.661 196C57.6054 197.189 59.9775 200.061 61.9107 202.032C64.3273 204.496 68.2438 208.659 69.4105 211.717C70.5771 214.776 72.4937 220.723 68.8271 227.01C65.8939 232.039 60.4941 232.05 58.1609 231.427H56.661V196Z" fill="url(#paint10_linear_4049_3961)"/>
<path d="M46.2902 208.073C45.5901 206.696 43.661 206.623 42.8556 207.941C41.2957 210.495 39.5949 213.413 39.3318 214.5C38.8586 216.453 38.4644 224.673 40.4357 227.115C42.4071 229.557 44.2996 231.591 47.2172 232.161C50.1348 232.731 52.0273 233.219 55.2603 232.161C57.5696 231.405 50.9989 217.336 46.2902 208.073Z" fill="url(#paint11_linear_4049_3961)"/>
<path d="M66.3588 208.004C67.0605 206.644 68.9579 206.575 69.7515 207.883C71.3416 210.505 73.0951 213.57 73.3639 214.659C73.8419 216.595 74.2403 224.744 72.2484 227.164C70.2565 229.585 68.3443 231.602 65.3963 232.166C62.4483 232.731 60.5361 233.215 57.2694 232.166C54.9319 231.416 61.5993 217.226 66.3588 208.004Z" fill="url(#paint12_linear_4049_3961)"/>
<path d="M71.232 214.399C72.3653 213.357 74.1794 213.941 74.4657 215.443C75.0072 218.283 75.5356 221.511 75.4153 222.559C75.1975 224.457 72.8322 231.921 70.2347 233.452C67.6373 234.983 65.2462 236.177 62.4103 235.727C59.5744 235.277 57.6956 235.091 55.1128 233.085C53.2744 231.657 63.8803 221.157 71.232 214.399Z" fill="url(#paint13_linear_4049_3961)"/>
<path d="M40.768 214.251C39.6347 213.21 37.8206 213.793 37.5343 215.295C36.9928 218.135 36.4644 221.363 36.5847 222.411C36.8025 224.309 39.1678 231.773 41.7653 233.304C44.3627 234.835 46.7538 236.029 49.5897 235.579C52.4256 235.129 54.3044 234.943 56.8872 232.937C58.7256 231.509 48.1197 221.009 40.768 214.251Z" fill="url(#paint14_linear_4049_3961)"/>
<path d="M56.0195 207.741C55.105 208.565 52.8796 210.483 51.2944 211.562C49.3128 212.91 46.493 219.429 46.3406 220.477C46.1881 221.526 45.8071 234.488 56.0195 234.338C64.1895 234.218 66.2319 225.048 66.2319 220.477C65.3174 218.055 62.9701 212.88 60.8971 211.562C58.8241 210.243 56.7816 208.465 56.0195 207.741Z" fill="url(#paint15_linear_4049_3961)"/>
<path d="M116.549 195.082C115.63 196.233 113.321 199.013 111.44 200.921C109.088 203.306 105.277 207.335 104.141 210.296C103.006 213.256 101.141 219.013 104.709 225.098C107.564 229.967 112.818 229.978 115.089 229.375H116.549V195.082Z" fill="url(#paint16_linear_4049_3961)"/>
<path d="M116.549 195C117.468 196.151 119.776 198.931 121.657 200.839C124.009 203.224 127.821 207.253 128.956 210.214C130.091 213.174 131.956 218.931 128.388 225.016C125.534 229.885 120.279 229.896 118.008 229.293H116.549V195Z" fill="url(#paint17_linear_4049_3961)"/>
<path d="M130.763 204.084C131.772 203.286 133.219 203.759 133.643 204.968C134.75 208.121 136.089 212.238 136.112 213.505C136.149 215.537 134.638 223.694 132.008 225.605C129.377 227.515 126.924 229.046 123.743 228.889C120.561 228.732 118.47 228.747 115.34 226.916C113.013 225.556 121.859 211.121 130.763 204.084Z" fill="url(#paint18_linear_4049_3961)"/>
<path d="M102.089 203.975C101.08 203.177 99.6335 203.65 99.2087 204.859C98.1018 208.012 96.7631 212.129 96.7398 213.396C96.7025 215.428 98.2137 223.585 100.844 225.496C103.475 227.406 105.928 228.937 109.109 228.78C112.291 228.623 114.382 228.638 117.512 226.807C119.839 225.447 110.993 211.013 102.089 203.975Z" fill="url(#paint19_linear_4049_3961)"/>
<path d="M116.635 208.007C115.735 208.817 113.546 210.701 111.986 211.761C110.037 213.086 107.263 219.49 107.113 220.52C106.963 221.551 106.588 234.285 116.635 234.138C124.672 234.02 126.681 225.01 126.681 220.52C125.782 218.14 123.472 213.056 121.433 211.761C119.394 210.465 117.384 208.718 116.635 208.007Z" fill="url(#paint20_linear_4049_3961)"/>
<path d="M116.549 195.082C115.63 196.233 113.321 199.013 111.44 200.921C109.088 203.306 105.277 207.335 104.141 210.296C103.006 213.256 101.141 219.013 104.709 225.098C107.564 229.967 112.818 229.978 115.089 229.375H116.549V195.082Z" fill="url(#paint21_linear_4049_3961)"/>
<path d="M116.549 195C117.468 196.151 119.776 198.931 121.657 200.839C124.009 203.224 127.821 207.253 128.956 210.214C130.091 213.174 131.956 218.931 128.388 225.016C125.534 229.885 120.279 229.896 118.008 229.293H116.549V195Z" fill="url(#paint22_linear_4049_3961)"/>
<path d="M130.763 204.084C131.772 203.286 133.219 203.759 133.643 204.968C134.75 208.121 136.089 212.238 136.112 213.505C136.149 215.537 134.638 223.694 132.008 225.605C129.377 227.515 126.924 229.046 123.743 228.889C120.561 228.732 118.47 228.747 115.34 226.916C113.013 225.556 121.859 211.121 130.763 204.084Z" fill="url(#paint23_linear_4049_3961)"/>
<path d="M102.089 203.975C101.08 203.177 99.6335 203.65 99.2087 204.859C98.1018 208.012 96.7631 212.129 96.7398 213.396C96.7025 215.428 98.2137 223.585 100.844 225.496C103.475 227.406 105.928 228.937 109.109 228.78C112.291 228.623 114.382 228.638 117.512 226.807C119.839 225.447 110.993 211.013 102.089 203.975Z" fill="url(#paint24_linear_4049_3961)"/>
<path d="M116.635 208.007C115.735 208.817 113.546 210.701 111.986 211.761C110.037 213.086 107.263 219.49 107.113 220.52C106.963 221.551 106.588 234.285 116.635 234.138C124.672 234.02 126.681 225.01 126.681 220.52C125.782 218.14 123.472 213.056 121.433 211.761C119.394 210.465 117.384 208.718 116.635 208.007Z" fill="url(#paint25_linear_4049_3961)"/>
<path d="M136.298 217.978C137.709 217.031 139.553 218.162 139.316 219.835C138.911 222.685 138.403 225.715 137.99 226.708C137.184 228.642 132.647 236.023 129.798 237.225C126.949 238.426 124.395 239.31 121.963 238.425C119.532 237.54 117.885 237.07 116.181 234.611C114.992 232.894 127.477 223.901 136.298 217.978Z" fill="url(#paint26_linear_4049_3961)"/>
<path d="M96.0807 217.978C94.6702 217.031 92.8254 218.162 93.063 219.835C93.4677 222.685 93.9755 225.715 94.3891 226.708C95.1945 228.642 99.7319 236.023 102.581 237.225C105.43 238.426 107.984 239.31 110.415 238.425C112.847 237.54 114.494 237.07 116.198 234.611C117.387 232.894 104.901 223.901 96.0807 217.978Z" fill="url(#paint27_linear_4049_3961)"/>
<path d="M239.118 88.2002C236.884 91.0034 231.271 97.7711 226.697 102.416C220.979 108.223 211.712 118.034 208.952 125.242C206.191 132.451 201.656 146.467 210.332 161.284C217.272 173.137 230.049 173.164 235.569 171.695H239.118V88.2002Z" fill="url(#paint28_linear_4049_3961)"/>
<path d="M239.118 88C241.353 90.8032 246.966 97.5709 251.54 102.216C257.258 108.023 266.525 117.834 269.285 125.042C272.045 132.25 276.58 146.266 267.905 161.083C260.965 172.937 248.188 172.964 242.667 171.495H239.118V88Z" fill="url(#paint29_linear_4049_3961)"/>
<path d="M276.547 107.956C277.594 107.207 279.043 107.681 279.479 108.889C282.281 116.654 286.619 129.49 286.684 133.056C286.775 138.002 283.101 157.864 276.705 162.516C270.309 167.168 264.344 170.895 256.609 170.513C248.874 170.131 243.79 170.166 236.179 165.709C230.273 162.25 253.983 124.085 276.547 107.956Z" fill="url(#paint30_linear_4049_3961)"/>
<path d="M201.093 107.691C200.046 106.942 198.597 107.416 198.161 108.623C195.359 116.389 191.021 129.225 190.956 132.791C190.865 137.737 194.539 157.599 200.935 162.251C207.332 166.903 213.296 170.63 221.031 170.248C228.766 169.866 233.851 169.901 241.461 165.444C247.368 161.985 223.657 123.819 201.093 107.691Z" fill="url(#paint31_linear_4049_3961)"/>
<path d="M239.328 119.668C237.14 121.64 231.817 126.228 228.025 128.809C223.286 132.035 216.541 147.627 216.177 150.136C215.812 152.645 214.9 183.65 239.328 183.291C258.869 183.005 263.755 161.068 263.755 150.136C261.567 144.341 255.952 131.963 250.994 128.809C246.036 125.654 241.15 121.401 239.328 119.668Z" fill="url(#paint32_linear_4049_3961)"/>
<path d="M239.118 88.2002C236.884 91.0034 231.271 97.7711 226.697 102.416C220.979 108.223 211.712 118.034 208.952 125.242C206.191 132.451 201.656 146.467 210.332 161.284C217.272 173.137 230.049 173.164 235.569 171.695H239.118V88.2002Z" fill="url(#paint33_linear_4049_3961)"/>
<path d="M239.118 88C241.353 90.8032 246.966 97.5709 251.54 102.216C257.258 108.023 266.525 117.834 269.285 125.042C272.045 132.25 276.58 146.266 267.905 161.083C260.965 172.937 248.188 172.964 242.667 171.495H239.118V88Z" fill="url(#paint34_linear_4049_3961)"/>
<path d="M276.547 107.956C277.594 107.207 279.043 107.681 279.479 108.889C282.281 116.654 286.619 129.49 286.684 133.056C286.775 138.002 283.101 157.864 276.705 162.516C270.309 167.168 264.344 170.895 256.609 170.513C248.874 170.131 243.79 170.166 236.179 165.709C230.273 162.25 253.983 124.085 276.547 107.956Z" fill="url(#paint35_linear_4049_3961)"/>
<path d="M201.093 107.691C200.046 106.942 198.597 107.416 198.161 108.623C195.359 116.389 191.021 129.225 190.956 132.791C190.865 137.737 194.539 157.599 200.935 162.251C207.332 166.903 213.296 170.63 221.031 170.248C228.766 169.866 233.851 169.901 241.461 165.444C247.368 161.985 223.657 123.819 201.093 107.691Z" fill="url(#paint36_linear_4049_3961)"/>
<path d="M239.328 119.668C237.14 121.64 231.817 126.228 228.025 128.809C223.286 132.035 216.541 147.627 216.177 150.136C215.812 152.645 214.9 183.65 239.328 183.291C258.869 183.005 263.755 161.068 263.755 150.136C261.567 144.341 255.952 131.963 250.994 128.809C246.036 125.654 241.15 121.401 239.328 119.668Z" fill="url(#paint37_linear_4049_3961)"/>
<path d="M292.239 140.545C293.656 139.608 295.501 140.749 295.287 142.426C294.26 150.476 292.56 162.053 291.25 165.204C289.291 169.912 278.259 187.882 271.332 190.808C264.405 193.735 258.196 195.885 252.284 193.731C246.372 191.576 242.368 190.432 238.225 184.445C235.094 179.919 270.925 154.636 292.239 140.545Z" fill="url(#paint38_linear_4049_3961)"/>
<path d="M184.251 140.545C182.834 139.608 180.989 140.749 181.203 142.426C182.23 150.476 183.929 162.053 185.24 165.204C187.198 169.912 198.23 187.882 205.158 190.808C212.085 193.735 218.294 195.885 224.206 193.731C230.118 191.576 234.122 190.432 238.264 184.445C241.396 179.919 205.564 154.636 184.251 140.545Z" fill="url(#paint39_linear_4049_3961)"/>
<path d="M56.8434 143.074C56.003 144.105 53.8921 146.593 52.1718 148.302C50.0215 150.437 46.5364 154.045 45.4983 156.695C44.4602 159.346 42.7547 164.5 46.0173 169.949C48.6274 174.308 53.4324 174.318 55.5086 173.778H56.8434V143.074Z" fill="url(#paint40_linear_4049_3961)"/>
<path d="M56.8434 143C57.6837 144.031 59.7946 146.52 61.5149 148.228C63.6652 150.363 67.1503 153.971 68.1884 156.622C69.2265 159.272 70.932 164.427 67.6694 169.875C65.0593 174.234 60.2543 174.244 58.1781 173.704H56.8434V143Z" fill="url(#paint41_linear_4049_3961)"/>
<path d="M47.74 153.809C47.0352 152.462 45.1437 152.387 44.3354 153.675C42.9852 155.826 41.5718 158.198 41.3454 159.104C40.9209 160.802 40.5673 167.949 42.3357 170.071C44.104 172.194 45.8017 173.963 48.4189 174.458C51.0361 174.953 52.7338 175.378 55.634 174.458C57.6806 173.809 51.9514 161.862 47.74 153.809Z" fill="url(#paint42_linear_4049_3961)"/>
<path d="M65.2664 153.779C65.9702 152.439 67.8423 152.369 68.636 153.658C69.9947 155.865 71.4266 158.338 71.6546 159.243C72.0791 160.926 72.4327 168.01 70.6643 170.114C68.896 172.218 67.1983 173.972 64.5811 174.463C61.9639 174.954 60.2662 175.374 57.366 174.463C55.3183 173.819 61.0544 161.8 65.2664 153.779Z" fill="url(#paint43_linear_4049_3961)"/>
<path d="M159.226 220V215.833L155.52 209.431H157.585L160.105 213.965H160.229L162.749 209.431H164.814L161.108 215.833V220H159.226ZM168.05 220.161C165.647 220.161 164.197 218.594 164.197 216.001V215.986C164.197 213.416 165.669 211.841 168.05 211.841C170.438 211.841 171.902 213.408 171.902 215.986V216.001C171.902 218.594 170.445 220.161 168.05 220.161ZM168.05 218.682C169.317 218.682 170.035 217.693 170.035 216.008V215.994C170.035 214.309 169.31 213.313 168.05 213.313C166.783 213.313 166.058 214.309 166.058 215.994V216.008C166.058 217.693 166.783 218.682 168.05 218.682ZM175.885 220.161C174.083 220.161 173.16 219.077 173.16 217.173V211.995H174.984V216.755C174.984 217.993 175.445 218.623 176.544 218.623C177.723 218.623 178.353 217.861 178.353 216.66V211.995H180.177V220H178.353V218.784H178.229C177.855 219.641 177.042 220.161 175.885 220.161ZM181.903 220V211.995H183.727V213.225H183.852C184.123 212.368 184.855 211.863 185.91 211.863C186.188 211.863 186.474 211.899 186.649 211.951V213.584C186.356 213.525 186.056 213.481 185.741 213.481C184.525 213.481 183.727 214.207 183.727 215.349V220H181.903ZM191.216 220V208.896H193.04V220H191.216ZM198.304 220.161C195.901 220.161 194.451 218.594 194.451 216.001V215.986C194.451 213.416 195.923 211.841 198.304 211.841C200.691 211.841 202.156 213.408 202.156 215.986V216.001C202.156 218.594 200.699 220.161 198.304 220.161ZM198.304 218.682C199.571 218.682 200.289 217.693 200.289 216.008V215.994C200.289 214.309 199.563 213.313 198.304 213.313C197.037 213.313 196.312 214.309 196.312 215.994V216.008C196.312 217.693 197.037 218.682 198.304 218.682ZM206.637 220.037C204.798 220.037 204.044 219.421 204.044 217.876V213.408H202.799V211.995H204.044V210.032H205.897V211.995H207.589V213.408H205.897V217.444C205.897 218.242 206.212 218.579 206.974 218.579C207.23 218.579 207.369 218.572 207.589 218.55V219.956C207.325 220.007 206.988 220.037 206.637 220.037ZM211.557 220.161C209.755 220.161 208.832 219.077 208.832 217.173V211.995H210.656V216.755C210.656 217.993 211.117 218.623 212.216 218.623C213.395 218.623 214.025 217.861 214.025 216.66V211.995H215.849V220H214.025V218.784H213.9C213.527 219.641 212.714 220.161 211.557 220.161ZM220.6 220.161C218.564 220.161 217.333 219.224 217.18 217.869V217.854H218.989L218.996 217.869C219.187 218.425 219.721 218.813 220.629 218.813C221.538 218.813 222.167 218.403 222.167 217.803V217.788C222.167 217.319 221.816 217.012 220.937 216.814L219.641 216.521C218.117 216.184 217.392 215.466 217.392 214.287V214.28C217.392 212.837 218.71 211.841 220.6 211.841C222.548 211.841 223.713 212.808 223.83 214.104V214.119H222.116L222.109 214.097C221.977 213.591 221.45 213.181 220.593 213.181C219.78 213.181 219.194 213.577 219.194 214.177V214.185C219.194 214.653 219.531 214.939 220.395 215.137L221.691 215.422C223.259 215.774 223.999 216.44 223.999 217.605V217.62C223.999 219.143 222.57 220.161 220.6 220.161ZM228.836 220V211.995H230.66V213.218H230.784C231.165 212.361 231.934 211.841 233.091 211.841C234.878 211.841 235.853 212.917 235.853 214.822V220H234.029V215.247C234.029 214.001 233.523 213.372 232.417 213.372C231.333 213.372 230.66 214.133 230.66 215.334V220H228.836ZM240.934 220.161C238.553 220.161 237.11 218.564 237.11 216.016V216.008C237.11 213.489 238.568 211.841 240.846 211.841C243.124 211.841 244.53 213.438 244.53 215.854V216.455H238.934C238.956 217.891 239.732 218.726 240.97 218.726C241.959 218.726 242.523 218.228 242.699 217.861L242.721 217.81H244.457L244.435 217.876C244.178 218.909 243.109 220.161 240.934 220.161ZM240.868 213.269C239.85 213.269 239.088 213.958 238.949 215.232H242.75C242.625 213.921 241.886 213.269 240.868 213.269ZM248.036 220.132C246.513 220.132 245.407 219.194 245.407 217.737V217.722C245.407 216.294 246.498 215.459 248.446 215.342L250.504 215.217V214.529C250.504 213.73 249.984 213.291 249.003 213.291C248.168 213.291 247.626 213.591 247.443 214.119L247.436 214.148H245.714L245.722 214.082C245.897 212.734 247.187 211.841 249.091 211.841C251.149 211.841 252.306 212.837 252.306 214.529V220H250.504V218.901H250.38C249.94 219.678 249.091 220.132 248.036 220.132ZM247.208 217.649C247.208 218.33 247.787 218.733 248.593 218.733C249.691 218.733 250.504 218.015 250.504 217.063V216.418L248.703 216.536C247.685 216.602 247.208 216.975 247.208 217.634V217.649ZM253.996 220V211.995H255.82V213.225H255.944C256.215 212.368 256.948 211.863 258.002 211.863C258.281 211.863 258.566 211.899 258.742 211.951V213.584C258.449 213.525 258.149 213.481 257.834 213.481C256.618 213.481 255.82 214.207 255.82 215.349V220H253.996ZM262.585 220.161C260.549 220.161 259.319 219.224 259.165 217.869V217.854H260.974L260.981 217.869C261.172 218.425 261.707 218.813 262.615 218.813C263.523 218.813 264.153 218.403 264.153 217.803V217.788C264.153 217.319 263.801 217.012 262.922 216.814L261.626 216.521C260.103 216.184 259.377 215.466 259.377 214.287V214.28C259.377 212.837 260.696 211.841 262.585 211.841C264.534 211.841 265.698 212.808 265.815 214.104V214.119H264.102L264.094 214.097C263.962 213.591 263.435 213.181 262.578 213.181C261.765 213.181 261.179 213.577 261.179 214.177V214.185C261.179 214.653 261.516 214.939 262.38 215.137L263.677 215.422C265.244 215.774 265.984 216.44 265.984 217.605V217.62C265.984 219.143 264.556 220.161 262.585 220.161ZM275.274 220.132C274.154 220.132 273.282 219.619 272.843 218.748H272.718V220H270.895V208.896H272.718V213.269H272.843C273.26 212.405 274.176 211.863 275.274 211.863C277.303 211.863 278.563 213.445 278.563 215.994V216.008C278.563 218.542 277.281 220.132 275.274 220.132ZM274.703 218.594C275.948 218.594 276.703 217.62 276.703 216.008V215.994C276.703 214.382 275.948 213.401 274.703 213.401C273.465 213.401 272.696 214.39 272.696 215.994V216.008C272.696 217.612 273.465 218.594 274.703 218.594ZM279.96 220V208.896H281.784V220H279.96ZM287.048 220.161C284.646 220.161 283.195 218.594 283.195 216.001V215.986C283.195 213.416 284.667 211.841 287.048 211.841C289.436 211.841 290.9 213.408 290.9 215.986V216.001C290.9 218.594 289.443 220.161 287.048 220.161ZM287.048 218.682C288.315 218.682 289.033 217.693 289.033 216.008V215.994C289.033 214.309 288.308 213.313 287.048 213.313C285.781 213.313 285.056 214.309 285.056 215.994V216.008C285.056 217.693 285.781 218.682 287.048 218.682ZM295.688 220.161C293.286 220.161 291.836 218.594 291.836 216.001V215.986C291.836 213.416 293.308 211.841 295.688 211.841C298.076 211.841 299.541 213.408 299.541 215.986V216.001C299.541 218.594 298.083 220.161 295.688 220.161ZM295.688 218.682C296.956 218.682 297.673 217.693 297.673 216.008V215.994C297.673 214.309 296.948 213.313 295.688 213.313C294.421 213.313 293.696 214.309 293.696 215.994V216.008C293.696 217.693 294.421 218.682 295.688 218.682ZM300.872 220V211.995H302.696V213.24H302.82C303.165 212.346 303.97 211.841 305.018 211.841C306.102 211.841 306.893 212.397 307.237 213.284H307.361C307.75 212.412 308.672 211.841 309.786 211.841C311.397 211.841 312.364 212.83 312.364 214.492V220H310.54V214.939C310.54 213.899 310.064 213.372 309.09 213.372C308.138 213.372 307.522 214.082 307.522 214.998V220H305.699V214.807C305.699 213.921 305.149 213.372 304.256 213.372C303.355 213.372 302.696 214.133 302.696 215.129V220H300.872ZM315.379 220.146C314.713 220.146 314.215 219.641 314.215 218.989C314.215 218.337 314.713 217.832 315.379 217.832C316.053 217.832 316.544 218.337 316.544 218.989C316.544 219.641 316.053 220.146 315.379 220.146Z" fill="#333333"/>
<path d="M159.629 245.199C157.203 245.199 155.75 243.477 155.75 240.775V240.764C155.75 238.051 157.238 236.346 159.629 236.346C162.031 236.346 163.508 238.057 163.508 240.764V240.775C163.508 243.471 162.043 245.199 159.629 245.199ZM159.629 244.227C161.363 244.227 162.43 242.867 162.43 240.775V240.764C162.43 238.654 161.357 237.318 159.629 237.318C157.906 237.318 156.828 238.654 156.828 240.764V240.775C156.828 242.867 157.871 244.227 159.629 244.227ZM165.207 245V238.684H166.227V239.633H166.32C166.637 238.965 167.229 238.572 168.16 238.572C169.578 238.572 170.369 239.41 170.369 240.91V245H169.35V241.156C169.35 240.02 168.881 239.475 167.873 239.475C166.865 239.475 166.227 240.154 166.227 241.262V245H165.207ZM174.793 245.111C172.988 245.111 171.898 243.846 171.898 241.865V241.859C171.898 239.908 173.012 238.572 174.729 238.572C176.445 238.572 177.488 239.85 177.488 241.736V242.135H172.941C172.971 243.441 173.691 244.203 174.816 244.203C175.672 244.203 176.199 243.799 176.369 243.418L176.393 243.365H177.412L177.4 243.412C177.184 244.268 176.281 245.111 174.793 245.111ZM174.723 239.48C173.785 239.48 173.07 240.119 172.959 241.32H176.451C176.346 240.072 175.654 239.48 174.723 239.48ZM182.445 245V238.684H183.465V239.645H183.559C183.84 238.965 184.438 238.572 185.264 238.572C186.119 238.572 186.717 239.023 187.01 239.68H187.104C187.443 239.012 188.164 238.572 189.037 238.572C190.326 238.572 191.047 239.311 191.047 240.635V245H190.027V240.869C190.027 239.938 189.6 239.475 188.709 239.475C187.83 239.475 187.25 240.137 187.25 240.939V245H186.23V240.711C186.23 239.961 185.715 239.475 184.918 239.475C184.092 239.475 183.465 240.195 183.465 241.086V245H182.445ZM195.482 245.111C193.684 245.111 192.57 243.869 192.57 241.848V241.836C192.57 239.809 193.684 238.572 195.482 238.572C197.281 238.572 198.395 239.809 198.395 241.836V241.848C198.395 243.869 197.281 245.111 195.482 245.111ZM195.482 244.209C196.678 244.209 197.352 243.336 197.352 241.848V241.836C197.352 240.342 196.678 239.475 195.482 239.475C194.287 239.475 193.613 240.342 193.613 241.836V241.848C193.613 243.336 194.287 244.209 195.482 244.209ZM199.977 245V238.684H200.996V239.621H201.09C201.33 238.959 201.922 238.572 202.777 238.572C202.971 238.572 203.188 238.596 203.287 238.613V239.604C203.076 239.568 202.883 239.545 202.66 239.545C201.688 239.545 200.996 240.16 200.996 241.086V245H199.977ZM206.949 245.111C205.145 245.111 204.055 243.846 204.055 241.865V241.859C204.055 239.908 205.168 238.572 206.885 238.572C208.602 238.572 209.645 239.85 209.645 241.736V242.135H205.098C205.127 243.441 205.848 244.203 206.973 244.203C207.828 244.203 208.355 243.799 208.525 243.418L208.549 243.365H209.568L209.557 243.412C209.34 244.268 208.438 245.111 206.949 245.111ZM206.879 239.48C205.941 239.48 205.227 240.119 205.115 241.32H208.607C208.502 240.072 207.811 239.48 206.879 239.48ZM216.77 245.111C215.363 245.111 214.396 244.432 214.279 243.389H215.322C215.492 243.916 215.996 244.262 216.805 244.262C217.654 244.262 218.258 243.857 218.258 243.283V243.271C218.258 242.844 217.936 242.545 217.156 242.357L216.178 242.123C214.994 241.842 214.461 241.326 214.461 240.418V240.412C214.461 239.363 215.469 238.572 216.811 238.572C218.135 238.572 219.055 239.234 219.195 240.266H218.193C218.059 239.768 217.566 239.422 216.805 239.422C216.055 239.422 215.504 239.809 215.504 240.365V240.377C215.504 240.805 215.82 241.074 216.564 241.256L217.537 241.49C218.727 241.777 219.301 242.293 219.301 243.195V243.207C219.301 244.332 218.205 245.111 216.77 245.111ZM223.068 245.047C221.768 245.047 221.223 244.566 221.223 243.359V239.527H220.227V238.684H221.223V237.049H222.277V238.684H223.66V239.527H222.277V243.102C222.277 243.846 222.535 244.145 223.191 244.145C223.373 244.145 223.473 244.139 223.66 244.121V244.988C223.461 245.023 223.268 245.047 223.068 245.047ZM227.668 245.111C225.863 245.111 224.773 243.846 224.773 241.865V241.859C224.773 239.908 225.887 238.572 227.604 238.572C229.32 238.572 230.363 239.85 230.363 241.736V242.135H225.816C225.846 243.441 226.566 244.203 227.691 244.203C228.547 244.203 229.074 243.799 229.244 243.418L229.268 243.365H230.287L230.275 243.412C230.059 244.268 229.156 245.111 227.668 245.111ZM227.598 239.48C226.66 239.48 225.945 240.119 225.834 241.32H229.326C229.221 240.072 228.529 239.48 227.598 239.48ZM231.945 247.109V238.684H232.965V239.691H233.059C233.445 238.988 234.148 238.572 235.027 238.572C236.627 238.572 237.676 239.867 237.676 241.836V241.848C237.676 243.828 236.633 245.111 235.027 245.111C234.16 245.111 233.404 244.678 233.059 244.004H232.965V247.109H231.945ZM234.793 244.209C235.947 244.209 236.633 243.318 236.633 241.848V241.836C236.633 240.365 235.947 239.475 234.793 239.475C233.645 239.475 232.941 240.377 232.941 241.836V241.848C232.941 243.307 233.645 244.209 234.793 244.209ZM244.889 245.047C243.588 245.047 243.043 244.566 243.043 243.359V239.527H242.047V238.684H243.043V237.049H244.098V238.684H245.48V239.527H244.098V243.102C244.098 243.846 244.355 244.145 245.012 244.145C245.193 244.145 245.293 244.139 245.48 244.121V244.988C245.281 245.023 245.088 245.047 244.889 245.047ZM249.506 245.111C247.707 245.111 246.594 243.869 246.594 241.848V241.836C246.594 239.809 247.707 238.572 249.506 238.572C251.305 238.572 252.418 239.809 252.418 241.836V241.848C252.418 243.869 251.305 245.111 249.506 245.111ZM249.506 244.209C250.701 244.209 251.375 243.336 251.375 241.848V241.836C251.375 240.342 250.701 239.475 249.506 239.475C248.311 239.475 247.637 240.342 247.637 241.836V241.848C247.637 243.336 248.311 244.209 249.506 244.209ZM259.977 247.227C258.453 247.227 257.48 246.541 257.322 245.504L257.334 245.498H258.389L258.395 245.504C258.506 245.984 259.068 246.324 259.977 246.324C261.107 246.324 261.781 245.791 261.781 244.859V243.582H261.688C261.289 244.279 260.574 244.672 259.707 244.672C258.072 244.672 257.059 243.406 257.059 241.637V241.625C257.059 239.855 258.078 238.572 259.73 238.572C260.621 238.572 261.312 239.012 261.699 239.727H261.77V238.684H262.789V244.912C262.789 246.324 261.699 247.227 259.977 247.227ZM259.93 243.77C261.102 243.77 261.805 242.891 261.805 241.637V241.625C261.805 240.371 261.096 239.475 259.93 239.475C258.758 239.475 258.102 240.371 258.102 241.625V241.637C258.102 242.891 258.758 243.77 259.93 243.77ZM264.688 245V238.684H265.707V239.621H265.801C266.041 238.959 266.633 238.572 267.488 238.572C267.682 238.572 267.898 238.596 267.998 238.613V239.604C267.787 239.568 267.594 239.545 267.371 239.545C266.398 239.545 265.707 240.16 265.707 241.086V245H264.688ZM271.66 245.111C269.855 245.111 268.766 243.846 268.766 241.865V241.859C268.766 239.908 269.879 238.572 271.596 238.572C273.312 238.572 274.355 239.85 274.355 241.736V242.135H269.809C269.838 243.441 270.559 244.203 271.684 244.203C272.539 244.203 273.066 243.799 273.236 243.418L273.26 243.365H274.279L274.268 243.412C274.051 244.268 273.148 245.111 271.66 245.111ZM271.59 239.48C270.652 239.48 269.938 240.119 269.826 241.32H273.318C273.213 240.072 272.521 239.48 271.59 239.48ZM277.672 245.111C276.471 245.111 275.562 244.385 275.562 243.236V243.225C275.562 242.1 276.395 241.449 277.865 241.361L279.676 241.25V240.676C279.676 239.896 279.201 239.475 278.258 239.475C277.502 239.475 277.004 239.756 276.84 240.248L276.834 240.266H275.814L275.82 240.23C275.984 239.24 276.945 238.572 278.293 238.572C279.834 238.572 280.695 239.363 280.695 240.676V245H279.676V244.068H279.582C279.184 244.742 278.521 245.111 277.672 245.111ZM276.605 243.213C276.605 243.852 277.15 244.227 277.883 244.227C278.92 244.227 279.676 243.547 279.676 242.645V242.07L277.988 242.176C277.027 242.234 276.605 242.574 276.605 243.201V243.213ZM284.803 245.047C283.502 245.047 282.957 244.566 282.957 243.359V239.527H281.961V238.684H282.957V237.049H284.012V238.684H285.395V239.527H284.012V243.102C284.012 243.846 284.27 244.145 284.926 244.145C285.107 244.145 285.207 244.139 285.395 244.121V244.988C285.195 245.023 285.002 245.047 284.803 245.047ZM286.918 245V238.684H287.938V239.633H288.031C288.348 238.965 288.939 238.572 289.871 238.572C291.289 238.572 292.08 239.41 292.08 240.91V245H291.061V241.156C291.061 240.02 290.592 239.475 289.584 239.475C288.576 239.475 287.938 240.154 287.938 241.262V245H286.918ZM296.504 245.111C294.699 245.111 293.609 243.846 293.609 241.865V241.859C293.609 239.908 294.723 238.572 296.439 238.572C298.156 238.572 299.199 239.85 299.199 241.736V242.135H294.652C294.682 243.441 295.402 244.203 296.527 244.203C297.383 244.203 297.91 243.799 298.08 243.418L298.104 243.365H299.123L299.111 243.412C298.895 244.268 297.992 245.111 296.504 245.111ZM296.434 239.48C295.496 239.48 294.781 240.119 294.67 241.32H298.162C298.057 240.072 297.365 239.48 296.434 239.48ZM302.949 245.111C301.543 245.111 300.576 244.432 300.459 243.389H301.502C301.672 243.916 302.176 244.262 302.984 244.262C303.834 244.262 304.438 243.857 304.438 243.283V243.271C304.438 242.844 304.115 242.545 303.336 242.357L302.357 242.123C301.174 241.842 300.641 241.326 300.641 240.418V240.412C300.641 239.363 301.648 238.572 302.99 238.572C304.314 238.572 305.234 239.234 305.375 240.266H304.373C304.238 239.768 303.746 239.422 302.984 239.422C302.234 239.422 301.684 239.809 301.684 240.365V240.377C301.684 240.805 302 241.074 302.744 241.256L303.717 241.49C304.906 241.777 305.48 242.293 305.48 243.195V243.207C305.48 244.332 304.385 245.111 302.949 245.111ZM309.113 245.111C307.707 245.111 306.74 244.432 306.623 243.389H307.666C307.836 243.916 308.34 244.262 309.148 244.262C309.998 244.262 310.602 243.857 310.602 243.283V243.271C310.602 242.844 310.279 242.545 309.5 242.357L308.521 242.123C307.338 241.842 306.805 241.326 306.805 240.418V240.412C306.805 239.363 307.812 238.572 309.154 238.572C310.479 238.572 311.398 239.234 311.539 240.266H310.537C310.402 239.768 309.91 239.422 309.148 239.422C308.398 239.422 307.848 239.809 307.848 240.365V240.377C307.848 240.805 308.164 241.074 308.908 241.256L309.881 241.49C311.07 241.777 311.645 242.293 311.645 243.195V243.207C311.645 244.332 310.549 245.111 309.113 245.111ZM314.059 245.059C313.643 245.059 313.297 244.713 313.297 244.297C313.297 243.875 313.643 243.535 314.059 243.535C314.48 243.535 314.82 243.875 314.82 244.297C314.82 244.713 314.48 245.059 314.059 245.059Z" fill="#ADADAD"/>
</g>
</g>
<defs>
<filter id="filter0_d_4049_3961" x="0" y="0" width="359" height="279" filterUnits="userSpaceOnUse" color-interpolation-filters="sRGB">
<feFlood flood-opacity="0" result="BackgroundImageFix"/>
<feColorMatrix in="SourceAlpha" type="matrix" values="0 0 0 0 0 0 0 0 0 0 0 0 0 0 0 0 0 0 127 0" result="hardAlpha"/>
<feOffset dy="2"/>
<feGaussianBlur stdDeviation="6"/>
<feColorMatrix type="matrix" values="0 0 0 0 0.2 0 0 0 0 0.2 0 0 0 0 0.2 0 0 0 0.08 0"/>
<feBlend mode="normal" in2="BackgroundImageFix" result="effect1_dropShadow_4049_3961"/>
<feBlend mode="normal" in="SourceGraphic" in2="effect1_dropShadow_4049_3961" result="shape"/>
</filter>
<linearGradient id="paint0_linear_4049_3961" x1="51.25" y1="91.0596" x2="51.25" y2="116" gradientUnits="userSpaceOnUse">
<stop stop-color="#E5DED0"/>
<stop offset="1" stop-color="#83BB9E"/>
</linearGradient>
<linearGradient id="paint1_linear_4049_3961" x1="61.75" y1="91" x2="61.75" y2="115.941" gradientUnits="userSpaceOnUse">
<stop stop-color="#E5DED0"/>
<stop offset="1" stop-color="#83BB9E"/>
</linearGradient>
<linearGradient id="paint2_linear_4049_3961" x1="106.75" y1="84.0757" x2="106.75" y2="116" gradientUnits="userSpaceOnUse">
<stop stop-color="#E5DED0"/>
<stop offset="1" stop-color="#83BB9E"/>
</linearGradient>
<linearGradient id="paint3_linear_4049_3961" x1="120.25" y1="84" x2="120.25" y2="115.924" gradientUnits="userSpaceOnUse">
<stop stop-color="#E5DED0"/>
<stop offset="1" stop-color="#83BB9E"/>
</linearGradient>
<linearGradient id="paint4_linear_4049_3961" x1="107.091" y1="142.078" x2="106.377" y2="185.943" gradientUnits="userSpaceOnUse">
<stop stop-color="#F5EEE2"/>
<stop offset="0.385" stop-color="#F7B7B5"/>
<stop offset="0.715" stop-color="#C69191"/>
</linearGradient>
<linearGradient id="paint5_linear_4049_3961" x1="120.64" y1="142" x2="121.354" y2="185.865" gradientUnits="userSpaceOnUse">
<stop stop-color="#F5EEE2"/>
<stop offset="0.385" stop-color="#F7B7B5"/>
<stop offset="0.715" stop-color="#C69191"/>
</linearGradient>
<linearGradient id="paint6_linear_4049_3961" x1="105.017" y1="150.315" x2="105.017" y2="176" gradientUnits="userSpaceOnUse">
<stop offset="0.045" stop-color="#F5EEE2"/>
<stop offset="0.675" stop-color="#83BB9E"/>
<stop offset="1" stop-color="#4F706C"/>
</linearGradient>
<linearGradient id="paint7_linear_4049_3961" x1="121.983" y1="150.315" x2="121.983" y2="176" gradientUnits="userSpaceOnUse">
<stop offset="0.045" stop-color="#F5EEE2"/>
<stop offset="0.675" stop-color="#83BB9E"/>
<stop offset="1" stop-color="#4F706C"/>
</linearGradient>
<linearGradient id="paint8_linear_4049_3961" x1="113.873" y1="151.793" x2="113.873" y2="175.63" gradientUnits="userSpaceOnUse">
<stop stop-color="white"/>
<stop offset="0.275" stop-color="#F5EEE2"/>
<stop offset="0.57" stop-color="#E5DED0"/>
<stop offset="0.95" stop-color="#CEB7B7"/>
</linearGradient>
<linearGradient id="paint9_linear_4049_3961" x1="49.5095" y1="196.085" x2="48.7114" y2="243.72" gradientUnits="userSpaceOnUse">
<stop stop-color="#F5EEE2"/>
<stop offset="0.285" stop-color="#F7B7B5"/>
<stop offset="0.55" stop-color="#C69191"/>
</linearGradient>
<linearGradient id="paint10_linear_4049_3961" x1="63.8124" y1="196" x2="64.6105" y2="243.635" gradientUnits="userSpaceOnUse">
<stop stop-color="#F5EEE2"/>
<stop offset="0.285" stop-color="#F7B7B5"/>
<stop offset="0.55" stop-color="#C69191"/>
</linearGradient>
<linearGradient id="paint11_linear_4049_3961" x1="47.3422" y1="204.977" x2="46.9298" y2="242.079" gradientUnits="userSpaceOnUse">
<stop stop-color="#F5EEE2"/>
<stop offset="0.385" stop-color="#F7B7B5"/>
<stop offset="0.715" stop-color="#C69191"/>
</linearGradient>
<linearGradient id="paint12_linear_4049_3961" x1="65.27" y1="204.977" x2="65.6781" y2="242.079" gradientUnits="userSpaceOnUse">
<stop stop-color="#F5EEE2"/>
<stop offset="0.385" stop-color="#F7B7B5"/>
<stop offset="0.715" stop-color="#C69191"/>
</linearGradient>
<linearGradient id="paint13_linear_4049_3961" x1="71.3828" y1="211.213" x2="62.2945" y2="236.316" gradientUnits="userSpaceOnUse">
<stop stop-color="#F5EEE2"/>
<stop offset="0.485" stop-color="#83BB9E"/>
<stop offset="1" stop-color="#4F706C"/>
</linearGradient>
<linearGradient id="paint14_linear_4049_3961" x1="40.6172" y1="211.065" x2="49.7055" y2="236.168" gradientUnits="userSpaceOnUse">
<stop stop-color="#F5EEE2"/>
<stop offset="0.485" stop-color="#83BB9E"/>
<stop offset="1" stop-color="#4F706C"/>
</linearGradient>
<linearGradient id="paint15_linear_4049_3961" x1="56.2624" y1="207.741" x2="56.2624" y2="234.339" gradientUnits="userSpaceOnUse">
<stop offset="0.0099" stop-color="white"/>
<stop offset="0.01" stop-color="#F5EEE2"/>
<stop offset="0.242758" stop-color="#F5EEE2"/>
<stop offset="0.565" stop-color="#E5DED0"/>
<stop offset="0.95" stop-color="#CEB7B7"/>
</linearGradient>
<linearGradient id="paint16_linear_4049_3961" x1="109.589" y1="195.082" x2="109.589" y2="229.646" gradientUnits="userSpaceOnUse">
<stop stop-color="#FFDAD8"/>
<stop offset="1" stop-color="#96D35F"/>
</linearGradient>
<linearGradient id="paint17_linear_4049_3961" x1="123.508" y1="195" x2="123.508" y2="229.564" gradientUnits="userSpaceOnUse">
<stop stop-color="#FFDAD8"/>
<stop offset="1" stop-color="#96D35F"/>
</linearGradient>
<linearGradient id="paint18_linear_4049_3961" x1="129.953" y1="201.945" x2="123.489" y2="229.475" gradientUnits="userSpaceOnUse">
<stop stop-color="#FFDAD8"/>
<stop offset="1" stop-color="#96D35F"/>
</linearGradient>
<linearGradient id="paint19_linear_4049_3961" x1="102.899" y1="201.836" x2="109.363" y2="229.367" gradientUnits="userSpaceOnUse">
<stop stop-color="#FFDAD8"/>
<stop offset="1" stop-color="#96D35F"/>
</linearGradient>
<linearGradient id="paint20_linear_4049_3961" x1="116.874" y1="208.007" x2="116.874" y2="234.139" gradientUnits="userSpaceOnUse">
<stop stop-color="#FFDAD8"/>
<stop offset="1" stop-color="#96D35F"/>
</linearGradient>
<linearGradient id="paint21_linear_4049_3961" x1="109.589" y1="195.082" x2="108.821" y2="241.192" gradientUnits="userSpaceOnUse">
<stop offset="0.045" stop-color="#F5EEE2"/>
<stop offset="0.525" stop-color="#F7B7B5"/>
<stop offset="0.76" stop-color="#C69191"/>
</linearGradient>
<linearGradient id="paint22_linear_4049_3961" x1="123.508" y1="195" x2="124.277" y2="241.11" gradientUnits="userSpaceOnUse">
<stop offset="0.045" stop-color="#F5EEE2"/>
<stop offset="0.525" stop-color="#F7B7B5"/>
<stop offset="0.76" stop-color="#C69191"/>
</linearGradient>
<linearGradient id="paint23_linear_4049_3961" x1="129.953" y1="201.945" x2="121.712" y2="238.767" gradientUnits="userSpaceOnUse">
<stop stop-color="#F5EEE2"/>
<stop offset="0.275" stop-color="#F7B7B5"/>
<stop offset="0.63" stop-color="#C69191"/>
</linearGradient>
<linearGradient id="paint24_linear_4049_3961" x1="102.899" y1="201.836" x2="111.14" y2="238.658" gradientUnits="userSpaceOnUse">
<stop stop-color="#F5EEE2"/>
<stop offset="0.275" stop-color="#F7B7B5"/>
<stop offset="0.63" stop-color="#C69191"/>
</linearGradient>
<linearGradient id="paint25_linear_4049_3961" x1="116.874" y1="208.007" x2="116.874" y2="234.139" gradientUnits="userSpaceOnUse">
<stop offset="0.27002" stop-color="#F5EEE2"/>
<stop offset="0.43294" stop-color="#E5DED0"/>
<stop offset="0.95" stop-color="#CEB7B7"/>
</linearGradient>
<linearGradient id="paint26_linear_4049_3961" x1="137.959" y1="214.363" x2="121.689" y2="239.03" gradientUnits="userSpaceOnUse">
<stop stop-color="#F5EEE2"/>
<stop offset="0.485" stop-color="#83BB9E"/>
<stop offset="1" stop-color="#4F706C"/>
</linearGradient>
<linearGradient id="paint27_linear_4049_3961" x1="94.42" y1="214.363" x2="110.69" y2="239.03" gradientUnits="userSpaceOnUse">
<stop stop-color="#F5EEE2"/>
<stop offset="0.485" stop-color="#83BB9E"/>
<stop offset="1" stop-color="#4F706C"/>
</linearGradient>
<linearGradient id="paint28_linear_4049_3961" x1="222.197" y1="88.2002" x2="222.197" y2="172.356" gradientUnits="userSpaceOnUse">
<stop stop-color="#FFDAD8"/>
<stop offset="1" stop-color="#96D35F"/>
</linearGradient>
<linearGradient id="paint29_linear_4049_3961" x1="256.039" y1="88" x2="256.039" y2="172.156" gradientUnits="userSpaceOnUse">
<stop stop-color="#FFDAD8"/>
<stop offset="1" stop-color="#96D35F"/>
</linearGradient>
<linearGradient id="paint30_linear_4049_3961" x1="271.71" y1="104.91" x2="255.951" y2="171.931" gradientUnits="userSpaceOnUse">
<stop stop-color="#FFDAD8"/>
<stop offset="1" stop-color="#96D35F"/>
</linearGradient>
<linearGradient id="paint31_linear_4049_3961" x1="205.93" y1="104.645" x2="221.689" y2="171.665" gradientUnits="userSpaceOnUse">
<stop stop-color="#FFDAD8"/>
<stop offset="1" stop-color="#96D35F"/>
</linearGradient>
<linearGradient id="paint32_linear_4049_3961" x1="239.908" y1="119.668" x2="239.908" y2="183.294" gradientUnits="userSpaceOnUse">
<stop stop-color="#FFDAD8"/>
<stop offset="1" stop-color="#96D35F"/>
</linearGradient>
<linearGradient id="paint33_linear_4049_3961" x1="222.197" y1="88.2002" x2="220.324" y2="200.467" gradientUnits="userSpaceOnUse">
<stop offset="0.045" stop-color="#F5EEE2"/>
<stop offset="0.525" stop-color="#F7B7B5"/>
<stop offset="0.76" stop-color="#C69191"/>
</linearGradient>
<linearGradient id="paint34_linear_4049_3961" x1="256.039" y1="88" x2="257.913" y2="200.267" gradientUnits="userSpaceOnUse">
<stop offset="0.045" stop-color="#F5EEE2"/>
<stop offset="0.525" stop-color="#F7B7B5"/>
<stop offset="0.76" stop-color="#C69191"/>
</linearGradient>
<linearGradient id="paint35_linear_4049_3961" x1="271.71" y1="104.91" x2="251.619" y2="194.55" gradientUnits="userSpaceOnUse">
<stop stop-color="#F5EEE2"/>
<stop offset="0.275" stop-color="#F7B7B5"/>
<stop offset="0.63" stop-color="#C69191"/>
</linearGradient>
<linearGradient id="paint36_linear_4049_3961" x1="205.93" y1="104.645" x2="226.021" y2="194.285" gradientUnits="userSpaceOnUse">
<stop stop-color="#F5EEE2"/>
<stop offset="0.275" stop-color="#F7B7B5"/>
<stop offset="0.63" stop-color="#C69191"/>
</linearGradient>
<linearGradient id="paint37_linear_4049_3961" x1="239.908" y1="119.668" x2="239.908" y2="183.294" gradientUnits="userSpaceOnUse">
<stop offset="0.27002" stop-color="#F5EEE2"/>
<stop offset="0.43294" stop-color="#E5DED0"/>
<stop offset="0.95" stop-color="#CEB7B7"/>
</linearGradient>
<linearGradient id="paint38_linear_4049_3961" x1="291.174" y1="135.146" x2="251.538" y2="195.154" gradientUnits="userSpaceOnUse">
<stop stop-color="#F5EEE2"/>
<stop offset="0.485" stop-color="#83BB9E"/>
<stop offset="1" stop-color="#4F706C"/>
</linearGradient>
<linearGradient id="paint39_linear_4049_3961" x1="185.315" y1="135.146" x2="224.951" y2="195.154" gradientUnits="userSpaceOnUse">
<stop stop-color="#F5EEE2"/>
<stop offset="0.485" stop-color="#83BB9E"/>
<stop offset="1" stop-color="#4F706C"/>
</linearGradient>
<linearGradient id="paint40_linear_4049_3961" x1="50.4797" y1="143.074" x2="49.806" y2="184.359" gradientUnits="userSpaceOnUse">
<stop stop-color="#F5EEE2"/>
<stop offset="0.385" stop-color="#F7B7B5"/>
<stop offset="0.715" stop-color="#C69191"/>
</linearGradient>
<linearGradient id="paint41_linear_4049_3961" x1="63.207" y1="143" x2="63.8807" y2="184.285" gradientUnits="userSpaceOnUse">
<stop stop-color="#F5EEE2"/>
<stop offset="0.385" stop-color="#F7B7B5"/>
<stop offset="0.715" stop-color="#C69191"/>
</linearGradient>
<linearGradient id="paint42_linear_4049_3961" x1="48.5311" y1="150.826" x2="48.5311" y2="175" gradientUnits="userSpaceOnUse">
<stop stop-color="#F5EEE2"/>
<stop offset="1" stop-color="#83BB9E"/>
</linearGradient>
<linearGradient id="paint43_linear_4049_3961" x1="64.4689" y1="150.826" x2="64.4689" y2="175" gradientUnits="userSpaceOnUse">
<stop stop-color="#F5EEE2"/>
<stop offset="1" stop-color="#83BB9E"/>
</linearGradient>
<clipPath id="clip0_4049_3961">
<rect x="12" y="10" width="335" height="255" rx="10" fill="white"/>
</clipPath>
</defs>
</svg>
