<svg width="359" height="279" viewBox="0 0 359 279" fill="none" xmlns="http://www.w3.org/2000/svg">
<g filter="url(#filter0_d_4049_4042)">
<g clip-path="url(#clip0_4049_4042)">
<rect x="12" y="10" width="335" height="255" rx="10" fill="white"/>
<path d="M37.3037 38V27.4312H39.4717L42.6504 35.561H42.7749L45.9463 27.4312H48.1143V38H46.415V30.4854H46.2832L43.3535 38H42.0645L39.1348 30.4854H39.0103V38H37.3037ZM53.4883 38.1611C51.0859 38.1611 49.6357 36.5938 49.6357 34.001V33.9863C49.6357 31.4155 51.1079 29.8408 53.4883 29.8408C55.876 29.8408 57.3408 31.4082 57.3408 33.9863V34.001C57.3408 36.5938 55.8833 38.1611 53.4883 38.1611ZM53.4883 36.6816C54.7554 36.6816 55.4731 35.6929 55.4731 34.0083V33.9937C55.4731 32.3091 54.748 31.313 53.4883 31.313C52.2212 31.313 51.4961 32.3091 51.4961 33.9937V34.0083C51.4961 35.6929 52.2212 36.6816 53.4883 36.6816ZM58.6719 38V29.9946H60.4956V31.2178H60.6201C61.001 30.3608 61.77 29.8408 62.9272 29.8408C64.7144 29.8408 65.6885 30.9175 65.6885 32.8218V38H63.8647V33.2466C63.8647 32.0015 63.3594 31.3716 62.2534 31.3716C61.1694 31.3716 60.4956 32.1333 60.4956 33.3345V38H58.6719ZM70.2275 38.1318C68.2207 38.1318 66.9463 36.5425 66.9463 34.0083V33.9937C66.9463 31.4448 68.1987 29.8628 70.2275 29.8628C71.3262 29.8628 72.2417 30.4048 72.6592 31.269H72.7837V26.8965H74.6147V38H72.7837V36.7476H72.6592C72.2197 37.6191 71.3555 38.1318 70.2275 38.1318ZM70.7988 36.5938C72.0439 36.5938 72.813 35.6123 72.813 34.0083V33.9937C72.813 32.3896 72.0366 31.4009 70.7988 31.4009C69.561 31.4009 68.7993 32.3823 68.7993 33.9937V34.0083C68.7993 35.6196 69.5537 36.5938 70.7988 36.5938ZM78.5898 38.1318C77.0664 38.1318 75.9604 37.1943 75.9604 35.7368V35.7222C75.9604 34.2939 77.0518 33.459 79 33.3418L81.0581 33.2173V32.5288C81.0581 31.7305 80.5381 31.291 79.5566 31.291C78.7217 31.291 78.1797 31.5913 77.9966 32.1187L77.9893 32.1479H76.2681L76.2754 32.082C76.4512 30.7344 77.7402 29.8408 79.6445 29.8408C81.7026 29.8408 82.8599 30.8369 82.8599 32.5288V38H81.0581V36.9014H80.9336C80.4941 37.6777 79.6445 38.1318 78.5898 38.1318ZM77.7622 35.6489C77.7622 36.3301 78.3408 36.7329 79.1465 36.7329C80.2451 36.7329 81.0581 36.0151 81.0581 35.063V34.4185L79.2563 34.5356C78.2383 34.6016 77.7622 34.9751 77.7622 35.6343V35.6489ZM85.1577 40.8125C84.938 40.8125 84.6816 40.8052 84.4619 40.7832V39.3843C84.6084 39.3989 84.8135 39.4062 85.0039 39.4062C85.751 39.4062 86.1978 39.0986 86.3955 38.3735L86.4907 38.0073L83.627 29.9946H85.6191L87.4868 36.2495H87.626L89.4863 29.9946H91.4053L88.5342 38.1685C87.8457 40.1753 86.9302 40.8125 85.1577 40.8125ZM91.1763 40.7905L91.8135 36.3887H93.6958L92.4214 40.7905H91.1763ZM99.5439 38V27.4312H103.506C106.648 27.4312 108.479 29.3501 108.479 32.6606V32.6753C108.479 36.0591 106.67 38 103.506 38H99.5439ZM101.434 36.4106H103.257C105.359 36.4106 106.553 35.0776 106.553 32.7046V32.6899C106.553 30.3682 105.33 29.0205 103.257 29.0205H101.434V36.4106ZM113.385 38.1611C111.004 38.1611 109.562 36.5645 109.562 34.0156V34.0083C109.562 31.4888 111.019 29.8408 113.297 29.8408C115.575 29.8408 116.981 31.4375 116.981 33.8545V34.4551H111.385C111.407 35.8906 112.184 36.7256 113.421 36.7256C114.41 36.7256 114.974 36.2275 115.15 35.8613L115.172 35.8101H116.908L116.886 35.876C116.629 36.9087 115.56 38.1611 113.385 38.1611ZM113.319 31.269C112.301 31.269 111.539 31.9575 111.4 33.2319H115.201C115.077 31.9209 114.337 31.269 113.319 31.269ZM121.74 38.1611C119.33 38.1611 117.909 36.6011 117.909 33.9863V33.9717C117.909 31.3862 119.323 29.8408 121.732 29.8408C123.791 29.8408 125.021 30.9834 125.226 32.6387V32.668H123.505L123.498 32.646C123.329 31.8696 122.736 31.313 121.74 31.313C120.495 31.313 119.762 32.2944 119.762 33.9717V33.9863C119.762 35.6855 120.502 36.6816 121.74 36.6816C122.685 36.6816 123.263 36.2495 123.49 35.4072L123.505 35.3779L125.226 35.3706L125.211 35.4292C124.948 37.0698 123.769 38.1611 121.74 38.1611ZM129.954 38V36.7256L133.425 33.1807C134.861 31.7305 135.264 31.1958 135.264 30.3828V30.3608C135.264 29.3867 134.597 28.6836 133.499 28.6836C132.378 28.6836 131.624 29.4233 131.624 30.5146L131.616 30.5439L129.858 30.5366L129.851 30.5146C129.851 28.5444 131.389 27.1675 133.594 27.1675C135.652 27.1675 137.131 28.4199 137.131 30.1997V30.2217C137.131 31.4229 136.553 32.375 134.626 34.228L132.51 36.2788V36.4326H137.292V38H129.954ZM142.71 38.2124C140.396 38.2124 138.88 36.9526 138.741 35.1436L138.733 35.0557H140.535L140.542 35.1362C140.645 36.0298 141.473 36.667 142.71 36.667C143.934 36.667 144.747 35.9858 144.747 35.0044V34.9897C144.747 33.8765 143.926 33.2612 142.571 33.2612H141.326V31.855H142.535C143.699 31.855 144.476 31.1958 144.476 30.2729V30.2583C144.476 29.2915 143.824 28.7202 142.696 28.7202C141.583 28.7202 140.813 29.3135 140.718 30.2583L140.711 30.3315H138.953L138.96 30.251C139.122 28.4199 140.564 27.2188 142.696 27.2188C144.871 27.2188 146.285 28.354 146.285 30.0093V30.0239C146.285 31.335 145.34 32.2065 144.073 32.4702V32.5068C145.625 32.6533 146.658 33.5762 146.658 35.041V35.0557C146.658 36.916 145.054 38.2124 142.71 38.2124Z" fill="#333333"/>
<path d="M37.0254 63V54.5449H38.7949V58.3418H38.9004L42.0234 54.5449H43.9922L40.9102 58.248L44.209 63H42.0879L39.6328 59.4082L38.7949 60.416V63H37.0254ZM47.707 63.1348C45.7441 63.1348 44.5547 61.8516 44.5547 59.7832V59.7773C44.5547 57.7266 45.7559 56.4082 47.6367 56.4082C49.5176 56.4082 50.6895 57.6973 50.6895 59.6484V60.1816H46.248C46.2656 61.2422 46.834 61.8574 47.7422 61.8574C48.4922 61.8574 48.9082 61.459 49.0254 61.2129L49.043 61.1777H50.6367L50.625 61.2363C50.4258 62.0449 49.5938 63.1348 47.707 63.1348ZM47.666 57.6914C46.9219 57.6914 46.3711 58.1953 46.2656 59.1094H49.0488C48.9434 58.1719 48.4102 57.6914 47.666 57.6914ZM54.9258 63.1348C52.9629 63.1348 51.7734 61.8516 51.7734 59.7832V59.7773C51.7734 57.7266 52.9746 56.4082 54.8555 56.4082C56.7363 56.4082 57.9082 57.6973 57.9082 59.6484V60.1816H53.4668C53.4844 61.2422 54.0527 61.8574 54.9609 61.8574C55.7109 61.8574 56.127 61.459 56.2441 61.2129L56.2617 61.1777H57.8555L57.8438 61.2363C57.6445 62.0449 56.8125 63.1348 54.9258 63.1348ZM54.8848 57.6914C54.1406 57.6914 53.5898 58.1953 53.4844 59.1094H56.2676C56.1621 58.1719 55.6289 57.6914 54.8848 57.6914ZM59.3086 65.1387V56.5488H61.0195V57.5449H61.125C61.459 56.8535 62.1445 56.4434 63.0586 56.4434C64.6699 56.4434 65.6777 57.709 65.6777 59.7656V59.7773C65.6777 61.8516 64.6934 63.0996 63.0586 63.0996C62.1738 63.0996 61.4531 62.6719 61.125 61.9688H61.0195V65.1387H59.3086ZM62.4727 61.6816C63.375 61.6816 63.9375 60.9609 63.9375 59.7773V59.7656C63.9375 58.582 63.3809 57.8613 62.4727 57.8613C61.5703 57.8613 61.002 58.582 61.002 59.7656V59.7773C61.002 60.9609 61.5762 61.6816 62.4727 61.6816ZM71.0449 55.5586C70.5176 55.5586 70.0781 55.1367 70.0781 54.6094C70.0781 54.0762 70.5176 53.6543 71.0449 53.6543C71.5723 53.6543 72.0059 54.0762 72.0059 54.6094C72.0059 55.1367 71.5723 55.5586 71.0449 55.5586ZM70.1836 63V56.5488H71.8945V63H70.1836ZM76.2949 63.0234C74.7246 63.0234 74.0918 62.5137 74.0918 61.2598V57.8379H73.0957V56.5488H74.0918V55.0078H75.8203V56.5488H77.1504V57.8379H75.8203V60.8672C75.8203 61.4473 76.0664 61.7051 76.6465 61.7051C76.8691 61.7051 76.9863 61.6934 77.1504 61.6758V62.9473C76.9395 62.9883 76.623 63.0234 76.2949 63.0234ZM83.8008 63.1348C82.3535 63.1348 81.6094 62.2559 81.6094 60.7207V56.5488H83.3203V60.3281C83.3203 61.2422 83.666 61.7168 84.4746 61.7168C85.3184 61.7168 85.7754 61.1484 85.7754 60.2754V56.5488H87.4863V63H85.7754V62.0039H85.6699C85.377 62.707 84.7207 63.1348 83.8008 63.1348ZM89.2031 65.1387V56.5488H90.9141V57.5449H91.0195C91.3535 56.8535 92.0391 56.4434 92.9531 56.4434C94.5645 56.4434 95.5723 57.709 95.5723 59.7656V59.7773C95.5723 61.8516 94.5879 63.0996 92.9531 63.0996C92.0684 63.0996 91.3477 62.6719 91.0195 61.9688H90.9141V65.1387H89.2031ZM92.3672 61.6816C93.2695 61.6816 93.832 60.9609 93.832 59.7773V59.7656C93.832 58.582 93.2754 57.8613 92.3672 57.8613C91.4648 57.8613 90.8965 58.582 90.8965 59.7656V59.7773C90.8965 60.9609 91.4707 61.6816 92.3672 61.6816ZM97.4707 60.2109L97.3184 54.5391H99.1934L99.0352 60.2109H97.4707ZM98.2559 63.1699C97.5996 63.1699 97.1895 62.7949 97.1895 62.1914C97.1895 61.582 97.5996 61.207 98.2559 61.207C98.918 61.207 99.3223 61.582 99.3223 62.1914C99.3223 62.7949 98.918 63.1699 98.2559 63.1699ZM106.852 63V59.8418L103.91 54.5449H105.826L107.689 58.1016H107.795L109.652 54.5449H111.568L108.621 59.8418V63H106.852ZM114.557 63.1348C112.57 63.1348 111.375 61.875 111.375 59.7773V59.7656C111.375 57.6855 112.588 56.4082 114.557 56.4082C116.525 56.4082 117.738 57.6797 117.738 59.7656V59.7773C117.738 61.8809 116.543 63.1348 114.557 63.1348ZM114.557 61.793C115.465 61.793 115.986 61.0488 115.986 59.7773V59.7656C115.986 58.5059 115.459 57.75 114.557 57.75C113.648 57.75 113.127 58.5059 113.127 59.7656V59.7773C113.127 61.0488 113.643 61.793 114.557 61.793ZM121.266 63.1348C119.818 63.1348 119.074 62.2559 119.074 60.7207V56.5488H120.785V60.3281C120.785 61.2422 121.131 61.7168 121.939 61.7168C122.783 61.7168 123.24 61.1484 123.24 60.2754V56.5488H124.951V63H123.24V62.0039H123.135C122.842 62.707 122.186 63.1348 121.266 63.1348ZM127.254 58.1719L127.084 54.5449H128.713L128.543 58.1719H127.254ZM132.527 63L130.283 56.5488H132.117L133.453 61.4004H133.559L134.883 56.5488H136.682L134.449 63H132.527ZM140.402 63.1348C138.439 63.1348 137.25 61.8516 137.25 59.7832V59.7773C137.25 57.7266 138.451 56.4082 140.332 56.4082C142.213 56.4082 143.385 57.6973 143.385 59.6484V60.1816H138.943C138.961 61.2422 139.529 61.8574 140.438 61.8574C141.188 61.8574 141.604 61.459 141.721 61.2129L141.738 61.1777H143.332L143.32 61.2363C143.121 62.0449 142.289 63.1348 140.402 63.1348ZM140.361 57.6914C139.617 57.6914 139.066 58.1953 138.961 59.1094H141.744C141.639 58.1719 141.105 57.6914 140.361 57.6914ZM147.879 63V56.5488H149.59V57.5566H149.695C149.971 56.8301 150.639 56.4082 151.482 56.4082C152.361 56.4082 153.012 56.8535 153.275 57.5977H153.381C153.674 56.8828 154.424 56.4082 155.326 56.4082C156.609 56.4082 157.412 57.2402 157.412 58.5703V63H155.701V58.998C155.701 58.2188 155.35 57.8262 154.635 57.8262C153.943 57.8262 153.498 58.3359 153.498 59.0332V63H151.787V58.9219C151.787 58.2305 151.395 57.8262 150.727 57.8262C150.059 57.8262 149.59 58.3711 149.59 59.1094V63H147.879ZM161.906 63.1348C159.943 63.1348 158.754 61.8516 158.754 59.7832V59.7773C158.754 57.7266 159.955 56.4082 161.836 56.4082C163.717 56.4082 164.889 57.6973 164.889 59.6484V60.1816H160.447C160.465 61.2422 161.033 61.8574 161.941 61.8574C162.691 61.8574 163.107 61.459 163.225 61.2129L163.242 61.1777H164.836L164.824 61.2363C164.625 62.0449 163.793 63.1348 161.906 63.1348ZM161.865 57.6914C161.121 57.6914 160.57 58.1953 160.465 59.1094H163.248C163.143 58.1719 162.609 57.6914 161.865 57.6914ZM168.592 63.0996C166.98 63.0996 165.973 61.8398 165.973 59.7773V59.7656C165.973 57.6914 166.957 56.4434 168.592 56.4434C169.477 56.4434 170.197 56.877 170.52 57.5801H170.625V54.082H172.336V63H170.625V61.998H170.52C170.186 62.6953 169.5 63.0996 168.592 63.0996ZM169.172 61.6816C170.08 61.6816 170.643 60.9668 170.643 59.7832V59.7715C170.643 58.5879 170.074 57.8613 169.172 57.8613C168.27 57.8613 167.713 58.5879 167.713 59.7656V59.7773C167.713 60.9668 168.27 61.6816 169.172 61.6816ZM174.979 55.5586C174.451 55.5586 174.012 55.1367 174.012 54.6094C174.012 54.0762 174.451 53.6543 174.979 53.6543C175.506 53.6543 175.939 54.0762 175.939 54.6094C175.939 55.1367 175.506 55.5586 174.979 55.5586ZM174.117 63V56.5488H175.828V63H174.117ZM180.229 63.0234C178.658 63.0234 178.025 62.5137 178.025 61.2598V57.8379H177.029V56.5488H178.025V55.0078H179.754V56.5488H181.084V57.8379H179.754V60.8672C179.754 61.4473 180 61.7051 180.58 61.7051C180.803 61.7051 180.92 61.6934 181.084 61.6758V62.9473C180.873 62.9883 180.557 63.0234 180.229 63.0234ZM184.266 63.0996C183.035 63.0996 182.162 62.3379 182.162 61.166V61.1543C182.162 59.9941 183.059 59.3145 184.664 59.2207L186.223 59.127V58.5938C186.223 58.0371 185.842 57.7207 185.139 57.7207C184.523 57.7207 184.131 57.9375 183.996 58.3184L183.984 58.3418H182.402L182.408 58.2891C182.543 57.1582 183.609 56.4082 185.232 56.4082C186.943 56.4082 187.91 57.2168 187.91 58.5938V63H186.223V62.1445H186.117C185.789 62.7422 185.109 63.0996 184.266 63.0996ZM183.832 61.0605C183.832 61.5527 184.248 61.8516 184.84 61.8516C185.631 61.8516 186.223 61.3301 186.223 60.6504V60.1758L184.922 60.2578C184.189 60.3047 183.832 60.5801 183.832 61.0488V61.0605ZM192.264 63.0234C190.693 63.0234 190.061 62.5137 190.061 61.2598V57.8379H189.064V56.5488H190.061V55.0078H191.789V56.5488H193.119V57.8379H191.789V60.8672C191.789 61.4473 192.035 61.7051 192.615 61.7051C192.838 61.7051 192.955 61.6934 193.119 61.6758V62.9473C192.908 62.9883 192.592 63.0234 192.264 63.0234ZM197.332 63.1348C195.369 63.1348 194.18 61.8516 194.18 59.7832V59.7773C194.18 57.7266 195.381 56.4082 197.262 56.4082C199.143 56.4082 200.314 57.6973 200.314 59.6484V60.1816H195.873C195.891 61.2422 196.459 61.8574 197.367 61.8574C198.117 61.8574 198.533 61.459 198.65 61.2129L198.668 61.1777H200.262L200.25 61.2363C200.051 62.0449 199.219 63.1348 197.332 63.1348ZM197.291 57.6914C196.547 57.6914 195.996 58.1953 195.891 59.1094H198.674C198.568 58.1719 198.035 57.6914 197.291 57.6914ZM204.018 63.0996C202.406 63.0996 201.398 61.8398 201.398 59.7773V59.7656C201.398 57.6914 202.383 56.4434 204.018 56.4434C204.902 56.4434 205.623 56.877 205.945 57.5801H206.051V54.082H207.762V63H206.051V61.998H205.945C205.611 62.6953 204.926 63.0996 204.018 63.0996ZM204.598 61.6816C205.506 61.6816 206.068 60.9668 206.068 59.7832V59.7715C206.068 58.5879 205.5 57.8613 204.598 57.8613C203.695 57.8613 203.139 58.5879 203.139 59.7656V59.7773C203.139 60.9668 203.695 61.6816 204.598 61.6816ZM213.123 63V57.8379H212.08V56.5488H213.123V55.9453C213.123 54.6621 213.779 54.0176 215.338 54.0176C215.684 54.0176 215.971 54.041 216.217 54.082V55.2246C216.111 55.207 215.93 55.1895 215.707 55.1895C215.045 55.1895 214.799 55.5 214.799 56.0625V56.5488H216.164V57.8379H214.834V63H213.123ZM220.166 63.1348C218.18 63.1348 216.984 61.875 216.984 59.7773V59.7656C216.984 57.6855 218.197 56.4082 220.166 56.4082C222.135 56.4082 223.348 57.6797 223.348 59.7656V59.7773C223.348 61.8809 222.152 63.1348 220.166 63.1348ZM220.166 61.793C221.074 61.793 221.596 61.0488 221.596 59.7773V59.7656C221.596 58.5059 221.068 57.75 220.166 57.75C219.258 57.75 218.736 58.5059 218.736 59.7656V59.7773C218.736 61.0488 219.252 61.793 220.166 61.793ZM224.742 63V56.5488H226.453V57.5508H226.559C226.764 56.8535 227.35 56.4434 228.188 56.4434C228.416 56.4434 228.656 56.4785 228.826 56.5254V58.0195C228.568 57.9609 228.305 57.9199 228.041 57.9199C227.068 57.9199 226.453 58.4766 226.453 59.3906V63H224.742ZM233.438 63L237.041 56.0508V55.9512H232.775V54.5391H238.822V55.9688L235.289 63H233.438ZM245.713 63.0996C244.102 63.0996 243.094 61.8398 243.094 59.7773V59.7656C243.094 57.6914 244.078 56.4434 245.713 56.4434C246.598 56.4434 247.318 56.877 247.641 57.5801H247.746V54.082H249.457V63H247.746V61.998H247.641C247.307 62.6953 246.621 63.0996 245.713 63.0996ZM246.293 61.6816C247.201 61.6816 247.764 60.9668 247.764 59.7832V59.7715C247.764 58.5879 247.195 57.8613 246.293 57.8613C245.391 57.8613 244.834 58.5879 244.834 59.7656V59.7773C244.834 60.9668 245.391 61.6816 246.293 61.6816ZM252.984 63.0996C251.754 63.0996 250.881 62.3379 250.881 61.166V61.1543C250.881 59.9941 251.777 59.3145 253.383 59.2207L254.941 59.127V58.5938C254.941 58.0371 254.561 57.7207 253.857 57.7207C253.242 57.7207 252.85 57.9375 252.715 58.3184L252.703 58.3418H251.121L251.127 58.2891C251.262 57.1582 252.328 56.4082 253.951 56.4082C255.662 56.4082 256.629 57.2168 256.629 58.5938V63H254.941V62.1445H254.836C254.508 62.7422 253.828 63.0996 252.984 63.0996ZM252.551 61.0605C252.551 61.5527 252.967 61.8516 253.559 61.8516C254.35 61.8516 254.941 61.3301 254.941 60.6504V60.1758L253.641 60.2578C252.908 60.3047 252.551 60.5801 252.551 61.0488V61.0605ZM258.896 65.2734C258.697 65.2734 258.48 65.2676 258.281 65.2559V63.9668C258.398 63.9785 258.568 63.9844 258.727 63.9844C259.336 63.9844 259.688 63.75 259.811 63.2461L259.869 63L257.602 56.5488H259.482L260.836 61.4355H260.953L262.307 56.5488H264.111L261.914 62.9941C261.34 64.6992 260.49 65.2734 258.896 65.2734ZM267.691 63.1348C265.939 63.1348 264.943 62.3496 264.82 61.2422L264.814 61.2188H266.496L266.508 61.2422C266.643 61.6406 267.035 61.9277 267.709 61.9277C268.365 61.9277 268.811 61.6465 268.811 61.2188V61.207C268.811 60.8613 268.553 60.6445 267.896 60.498L266.818 60.2695C265.588 60.0059 264.979 59.4023 264.979 58.4355V58.4297C264.979 57.2168 266.057 56.4082 267.668 56.4082C269.361 56.4082 270.299 57.252 270.369 58.2891V58.3125H268.781L268.775 58.2832C268.682 57.9375 268.301 57.6152 267.662 57.6152C267.07 57.6152 266.648 57.8906 266.648 58.3242V58.3301C266.648 58.6758 266.889 58.875 267.557 59.0215L268.629 59.25C269.918 59.5254 270.521 60.0645 270.521 61.0195V61.0254C270.521 62.3027 269.344 63.1348 267.691 63.1348ZM273.152 63.1465C272.555 63.1465 272.121 62.707 272.121 62.127C272.121 61.5469 272.555 61.1133 273.152 61.1133C273.756 61.1133 274.184 61.5469 274.184 62.127C274.184 62.707 273.756 63.1465 273.152 63.1465Z" fill="#858585"/>
<path d="M56.0117 129V121.717H55.918L53.7676 123.275V122.162L56.0176 120.545H57.0664V129H56.0117Z" fill="#ADADAD"/>
<path d="M56.8203 187.141C55.0742 187.141 53.9434 186.168 53.832 184.832L53.8262 184.762H54.8398L54.8457 184.82C54.9277 185.652 55.6953 186.227 56.8203 186.227C57.9277 186.227 58.6836 185.605 58.6836 184.709V184.697C58.6836 183.66 57.9395 183.08 56.7559 183.08H55.6953V182.189H56.709C57.7168 182.189 58.4199 181.568 58.4199 180.725V180.713C58.4199 179.828 57.8398 179.318 56.8086 179.318C55.8125 179.318 55.1035 179.846 55.0156 180.701L55.0098 180.76H53.9961L54.002 180.701C54.1367 179.324 55.2266 178.404 56.8086 178.404C58.4199 178.404 59.4805 179.301 59.4805 180.584V180.596C59.4805 181.639 58.7422 182.354 57.6875 182.576V182.6C58.918 182.705 59.7559 183.473 59.7559 184.674V184.686C59.7559 186.098 58.5137 187.141 56.8203 187.141Z" fill="#ADADAD"/>
<path d="M56.7207 246.199C55.1445 246.199 54.0195 245.186 53.8965 243.832L53.8906 243.768H54.9043L54.9102 243.814C55.0098 244.623 55.7422 245.268 56.7324 245.268C57.8574 245.268 58.6309 244.465 58.6309 243.322V243.311C58.6309 242.186 57.8457 241.383 56.75 241.383C56.1875 241.383 55.707 241.553 55.3438 241.898C55.1973 242.039 55.0625 242.203 54.957 242.402H54.043L54.4883 237.545H59.1934V238.488H55.3203L55.0332 241.348H55.127C55.502 240.779 56.1641 240.469 56.9316 240.469C58.5195 240.469 59.6621 241.658 59.6621 243.293V243.305C59.6621 245.01 58.4375 246.199 56.7207 246.199Z" fill="#ADADAD"/>
<path d="M116.932 246.199C115.385 246.199 113.75 245.109 113.75 241.928V241.916C113.75 239.033 114.951 237.346 117.002 237.346C118.42 237.346 119.475 238.178 119.762 239.426L119.779 239.502H118.719L118.695 239.438C118.438 238.729 117.846 238.289 116.99 238.289C115.455 238.289 114.828 239.789 114.764 241.553C114.758 241.617 114.758 241.688 114.758 241.752H114.869C115.18 241.061 115.977 240.445 117.119 240.445C118.707 240.445 119.891 241.652 119.891 243.275V243.287C119.891 244.975 118.637 246.199 116.932 246.199ZM115.01 243.275C115.01 244.389 115.848 245.268 116.92 245.268C117.98 245.268 118.83 244.406 118.83 243.311V243.299C118.83 242.174 118.033 241.365 116.938 241.365C115.842 241.365 115.01 242.168 115.01 243.27V243.275Z" fill="#ADADAD"/>
<path d="M114.805 187V185.248H110.686V184.287C111.828 182.371 113.123 180.309 114.307 178.545H115.836V184.305H117.037V185.248H115.836V187H114.805ZM111.764 184.311H114.811V179.523H114.74C113.791 180.941 112.684 182.688 111.764 184.24V184.311Z" fill="#ADADAD"/>
<path d="M110.943 128V127.273L113.803 124.18C114.881 123.014 115.197 122.574 115.197 121.836V121.824C115.197 120.934 114.594 120.266 113.598 120.266C112.584 120.266 111.91 120.928 111.91 121.924L111.904 121.936L110.896 121.93L110.885 121.924C110.891 120.424 112.051 119.346 113.668 119.346C115.145 119.346 116.275 120.348 116.275 121.713V121.725C116.275 122.691 115.859 123.395 114.33 124.971L112.408 126.957V127.051H116.416V128H110.943Z" fill="#ADADAD"/>
<path d="M164.226 220V215.833L160.52 209.431H162.585L165.105 213.965H165.229L167.749 209.431H169.814L166.108 215.833V220H164.226ZM173.05 220.161C170.647 220.161 169.197 218.594 169.197 216.001V215.986C169.197 213.416 170.669 211.841 173.05 211.841C175.438 211.841 176.902 213.408 176.902 215.986V216.001C176.902 218.594 175.445 220.161 173.05 220.161ZM173.05 218.682C174.317 218.682 175.035 217.693 175.035 216.008V215.994C175.035 214.309 174.31 213.313 173.05 213.313C171.783 213.313 171.058 214.309 171.058 215.994V216.008C171.058 217.693 171.783 218.682 173.05 218.682ZM180.885 220.161C179.083 220.161 178.16 219.077 178.16 217.173V211.995H179.984V216.755C179.984 217.993 180.445 218.623 181.544 218.623C182.723 218.623 183.353 217.861 183.353 216.66V211.995H185.177V220H183.353V218.784H183.229C182.855 219.641 182.042 220.161 180.885 220.161ZM186.903 220V211.995H188.727V213.225H188.852C189.123 212.368 189.855 211.863 190.91 211.863C191.188 211.863 191.474 211.899 191.649 211.951V213.584C191.356 213.525 191.056 213.481 190.741 213.481C189.525 213.481 188.727 214.207 188.727 215.349V220H186.903ZM196.216 220V208.896H198.04V220H196.216ZM203.304 220.161C200.901 220.161 199.451 218.594 199.451 216.001V215.986C199.451 213.416 200.923 211.841 203.304 211.841C205.691 211.841 207.156 213.408 207.156 215.986V216.001C207.156 218.594 205.699 220.161 203.304 220.161ZM203.304 218.682C204.571 218.682 205.289 217.693 205.289 216.008V215.994C205.289 214.309 204.563 213.313 203.304 213.313C202.037 213.313 201.312 214.309 201.312 215.994V216.008C201.312 217.693 202.037 218.682 203.304 218.682ZM211.637 220.037C209.798 220.037 209.044 219.421 209.044 217.876V213.408H207.799V211.995H209.044V210.032H210.897V211.995H212.589V213.408H210.897V217.444C210.897 218.242 211.212 218.579 211.974 218.579C212.23 218.579 212.369 218.572 212.589 218.55V219.956C212.325 220.007 211.988 220.037 211.637 220.037ZM216.557 220.161C214.755 220.161 213.832 219.077 213.832 217.173V211.995H215.656V216.755C215.656 217.993 216.117 218.623 217.216 218.623C218.395 218.623 219.025 217.861 219.025 216.66V211.995H220.849V220H219.025V218.784H218.9C218.527 219.641 217.714 220.161 216.557 220.161ZM225.6 220.161C223.564 220.161 222.333 219.224 222.18 217.869V217.854H223.989L223.996 217.869C224.187 218.425 224.721 218.813 225.629 218.813C226.538 218.813 227.167 218.403 227.167 217.803V217.788C227.167 217.319 226.816 217.012 225.937 216.814L224.641 216.521C223.117 216.184 222.392 215.466 222.392 214.287V214.28C222.392 212.837 223.71 211.841 225.6 211.841C227.548 211.841 228.713 212.808 228.83 214.104V214.119H227.116L227.109 214.097C226.977 213.591 226.45 213.181 225.593 213.181C224.78 213.181 224.194 213.577 224.194 214.177V214.185C224.194 214.653 224.531 214.939 225.395 215.137L226.691 215.422C228.259 215.774 228.999 216.44 228.999 217.605V217.62C228.999 219.143 227.57 220.161 225.6 220.161ZM233.909 220V208.896H235.733V213.218H235.857C236.238 212.361 237.007 211.841 238.165 211.841C239.952 211.841 240.926 212.917 240.926 214.822V220H239.102V215.247C239.102 214.001 238.597 213.372 237.491 213.372C236.407 213.372 235.733 214.133 235.733 215.334V220H233.909ZM244.762 220.132C243.238 220.132 242.132 219.194 242.132 217.737V217.722C242.132 216.294 243.224 215.459 245.172 215.342L247.23 215.217V214.529C247.23 213.73 246.71 213.291 245.729 213.291C244.894 213.291 244.352 213.591 244.168 214.119L244.161 214.148H242.44L242.447 214.082C242.623 212.734 243.912 211.841 245.816 211.841C247.875 211.841 249.032 212.837 249.032 214.529V220H247.23V218.901H247.105C246.666 219.678 245.816 220.132 244.762 220.132ZM243.934 217.649C243.934 218.33 244.513 218.733 245.318 218.733C246.417 218.733 247.23 218.015 247.23 217.063V216.418L245.428 216.536C244.41 216.602 243.934 216.975 243.934 217.634V217.649ZM253.747 220.161C251.71 220.161 250.48 219.224 250.326 217.869V217.854H252.135L252.143 217.869C252.333 218.425 252.868 218.813 253.776 218.813C254.684 218.813 255.314 218.403 255.314 217.803V217.788C255.314 217.319 254.962 217.012 254.083 216.814L252.787 216.521C251.264 216.184 250.539 215.466 250.539 214.287V214.28C250.539 212.837 251.857 211.841 253.747 211.841C255.695 211.841 256.859 212.808 256.977 214.104V214.119H255.263L255.255 214.097C255.124 213.591 254.596 213.181 253.739 213.181C252.926 213.181 252.34 213.577 252.34 214.177V214.185C252.34 214.653 252.677 214.939 253.542 215.137L254.838 215.422C256.405 215.774 257.145 216.44 257.145 217.605V217.62C257.145 219.143 255.717 220.161 253.747 220.161ZM266.436 220.132C265.315 220.132 264.443 219.619 264.004 218.748H263.879V220H262.056V208.896H263.879V213.269H264.004C264.421 212.405 265.337 211.863 266.436 211.863C268.464 211.863 269.724 213.445 269.724 215.994V216.008C269.724 218.542 268.442 220.132 266.436 220.132ZM265.864 218.594C267.109 218.594 267.864 217.62 267.864 216.008V215.994C267.864 214.382 267.109 213.401 265.864 213.401C264.626 213.401 263.857 214.39 263.857 215.994V216.008C263.857 217.612 264.626 218.594 265.864 218.594ZM271.121 220V208.896H272.945V220H271.121ZM278.209 220.161C275.807 220.161 274.356 218.594 274.356 216.001V215.986C274.356 213.416 275.829 211.841 278.209 211.841C280.597 211.841 282.062 213.408 282.062 215.986V216.001C282.062 218.594 280.604 220.161 278.209 220.161ZM278.209 218.682C279.476 218.682 280.194 217.693 280.194 216.008V215.994C280.194 214.309 279.469 213.313 278.209 213.313C276.942 213.313 276.217 214.309 276.217 215.994V216.008C276.217 217.693 276.942 218.682 278.209 218.682ZM286.85 220.161C284.447 220.161 282.997 218.594 282.997 216.001V215.986C282.997 213.416 284.469 211.841 286.85 211.841C289.237 211.841 290.702 213.408 290.702 215.986V216.001C290.702 218.594 289.245 220.161 286.85 220.161ZM286.85 218.682C288.117 218.682 288.834 217.693 288.834 216.008V215.994C288.834 214.309 288.109 213.313 286.85 213.313C285.583 213.313 284.857 214.309 284.857 215.994V216.008C284.857 217.693 285.583 218.682 286.85 218.682ZM292.033 220V211.995H293.857V213.24H293.981C294.326 212.346 295.131 211.841 296.179 211.841C297.263 211.841 298.054 212.397 298.398 213.284H298.522C298.911 212.412 299.833 211.841 300.947 211.841C302.558 211.841 303.525 212.83 303.525 214.492V220H301.701V214.939C301.701 213.899 301.225 213.372 300.251 213.372C299.299 213.372 298.684 214.082 298.684 214.998V220H296.86V214.807C296.86 213.921 296.311 213.372 295.417 213.372C294.516 213.372 293.857 214.133 293.857 215.129V220H292.033ZM308.613 220.161C306.233 220.161 304.79 218.564 304.79 216.016V216.008C304.79 213.489 306.248 211.841 308.525 211.841C310.803 211.841 312.209 213.438 312.209 215.854V216.455H306.614C306.636 217.891 307.412 218.726 308.65 218.726C309.639 218.726 310.203 218.228 310.378 217.861L310.4 217.81H312.136L312.114 217.876C311.858 218.909 310.789 220.161 308.613 220.161ZM308.547 213.269C307.529 213.269 306.768 213.958 306.628 215.232H310.43C310.305 213.921 309.565 213.269 308.547 213.269ZM316.419 220.132C314.412 220.132 313.138 218.542 313.138 216.008V215.994C313.138 213.445 314.39 211.863 316.419 211.863C317.518 211.863 318.433 212.405 318.851 213.269H318.975V208.896H320.806V220H318.975V218.748H318.851C318.411 219.619 317.547 220.132 316.419 220.132ZM316.99 218.594C318.235 218.594 319.004 217.612 319.004 216.008V215.994C319.004 214.39 318.228 213.401 316.99 213.401C315.752 213.401 314.991 214.382 314.991 215.994V216.008C314.991 217.62 315.745 218.594 316.99 218.594ZM323.185 216.506L323.016 209.424H325.045L324.876 216.506H323.185ZM324.034 220.183C323.294 220.183 322.818 219.729 322.818 219.033C322.818 218.33 323.294 217.876 324.034 217.876C324.774 217.876 325.25 218.33 325.25 219.033C325.25 219.729 324.774 220.183 324.034 220.183Z" fill="#333333"/>
<path d="M164.482 245.199C162.186 245.199 160.75 243.5 160.75 240.781V240.77C160.75 238.045 162.18 236.346 164.477 236.346C166.258 236.346 167.646 237.465 167.898 239.088L167.893 239.1H166.832L166.826 239.088C166.545 238.004 165.643 237.318 164.477 237.318C162.854 237.318 161.834 238.654 161.834 240.77V240.781C161.834 242.896 162.854 244.227 164.482 244.227C165.66 244.227 166.557 243.623 166.82 242.65L166.832 242.639H167.898V242.65C167.617 244.197 166.281 245.199 164.482 245.199ZM172.117 245.111C170.312 245.111 169.223 243.846 169.223 241.865V241.859C169.223 239.908 170.336 238.572 172.053 238.572C173.77 238.572 174.812 239.85 174.812 241.736V242.135H170.266C170.295 243.441 171.016 244.203 172.141 244.203C172.996 244.203 173.523 243.799 173.693 243.418L173.717 243.365H174.736L174.725 243.412C174.508 244.268 173.605 245.111 172.117 245.111ZM172.047 239.48C171.109 239.48 170.395 240.119 170.283 241.32H173.775C173.67 240.072 172.979 239.48 172.047 239.48ZM176.453 245V236.176H177.473V245H176.453ZM182.008 245.111C180.203 245.111 179.113 243.846 179.113 241.865V241.859C179.113 239.908 180.227 238.572 181.943 238.572C183.66 238.572 184.703 239.85 184.703 241.736V242.135H180.156C180.186 243.441 180.906 244.203 182.031 244.203C182.887 244.203 183.414 243.799 183.584 243.418L183.607 243.365H184.627L184.615 243.412C184.398 244.268 183.496 245.111 182.008 245.111ZM181.938 239.48C181 239.48 180.285 240.119 180.174 241.32H183.666C183.561 240.072 182.869 239.48 181.938 239.48ZM189.426 245.111C188.547 245.111 187.844 244.695 187.457 243.992H187.363V245H186.344V236.176H187.363V239.68H187.457C187.803 239.006 188.559 238.572 189.426 238.572C191.031 238.572 192.074 239.855 192.074 241.836V241.848C192.074 243.816 191.025 245.111 189.426 245.111ZM189.191 244.209C190.346 244.209 191.031 243.318 191.031 241.848V241.836C191.031 240.365 190.346 239.475 189.191 239.475C188.043 239.475 187.34 240.377 187.34 241.836V241.848C187.34 243.307 188.043 244.209 189.191 244.209ZM193.656 245V238.684H194.676V239.621H194.77C195.01 238.959 195.602 238.572 196.457 238.572C196.65 238.572 196.867 238.596 196.967 238.613V239.604C196.756 239.568 196.562 239.545 196.34 239.545C195.367 239.545 194.676 240.16 194.676 241.086V245H193.656ZM199.961 245.111C198.76 245.111 197.852 244.385 197.852 243.236V243.225C197.852 242.1 198.684 241.449 200.154 241.361L201.965 241.25V240.676C201.965 239.896 201.49 239.475 200.547 239.475C199.791 239.475 199.293 239.756 199.129 240.248L199.123 240.266H198.104L198.109 240.23C198.273 239.24 199.234 238.572 200.582 238.572C202.123 238.572 202.984 239.363 202.984 240.676V245H201.965V244.068H201.871C201.473 244.742 200.811 245.111 199.961 245.111ZM198.895 243.213C198.895 243.852 199.439 244.227 200.172 244.227C201.209 244.227 201.965 243.547 201.965 242.645V242.07L200.277 242.176C199.316 242.234 198.895 242.574 198.895 243.201V243.213ZM207.092 245.047C205.791 245.047 205.246 244.566 205.246 243.359V239.527H204.25V238.684H205.246V237.049H206.301V238.684H207.684V239.527H206.301V243.102C206.301 243.846 206.559 244.145 207.215 244.145C207.396 244.145 207.496 244.139 207.684 244.121V244.988C207.484 245.023 207.291 245.047 207.092 245.047ZM211.691 245.111C209.887 245.111 208.797 243.846 208.797 241.865V241.859C208.797 239.908 209.91 238.572 211.627 238.572C213.344 238.572 214.387 239.85 214.387 241.736V242.135H209.84C209.869 243.441 210.59 244.203 211.715 244.203C212.57 244.203 213.098 243.799 213.268 243.418L213.291 243.365H214.311L214.299 243.412C214.082 244.268 213.18 245.111 211.691 245.111ZM211.621 239.48C210.684 239.48 209.969 240.119 209.857 241.32H213.35C213.244 240.072 212.553 239.48 211.621 239.48ZM221.078 245.111C219.877 245.111 218.969 244.385 218.969 243.236V243.225C218.969 242.1 219.801 241.449 221.271 241.361L223.082 241.25V240.676C223.082 239.896 222.607 239.475 221.664 239.475C220.908 239.475 220.41 239.756 220.246 240.248L220.24 240.266H219.221L219.227 240.23C219.391 239.24 220.352 238.572 221.699 238.572C223.24 238.572 224.102 239.363 224.102 240.676V245H223.082V244.068H222.988C222.59 244.742 221.928 245.111 221.078 245.111ZM220.012 243.213C220.012 243.852 220.557 244.227 221.289 244.227C222.326 244.227 223.082 243.547 223.082 242.645V242.07L221.395 242.176C220.434 242.234 220.012 242.574 220.012 243.201V243.213ZM225.965 245V238.684H226.984V239.633H227.078C227.395 238.965 227.986 238.572 228.918 238.572C230.336 238.572 231.127 239.41 231.127 240.91V245H230.107V241.156C230.107 240.02 229.639 239.475 228.631 239.475C227.623 239.475 226.984 240.154 226.984 241.262V245H225.965ZM235.305 245.111C233.705 245.111 232.656 243.816 232.656 241.848V241.836C232.656 239.855 233.699 238.572 235.305 238.572C236.172 238.572 236.928 239.006 237.273 239.68H237.367V236.176H238.387V245H237.367V243.992H237.273C236.887 244.695 236.184 245.111 235.305 245.111ZM235.539 244.209C236.688 244.209 237.391 243.307 237.391 241.848V241.836C237.391 240.377 236.688 239.475 235.539 239.475C234.385 239.475 233.699 240.365 233.699 241.836V241.848C233.699 243.318 234.385 244.209 235.539 244.209ZM243.777 245V236.176H244.797V241.443H244.891L247.621 238.684H248.857L246.104 241.338L249.039 245H247.756L245.389 242.029L244.797 242.604V245H243.777ZM252.52 245.111C250.715 245.111 249.625 243.846 249.625 241.865V241.859C249.625 239.908 250.738 238.572 252.455 238.572C254.172 238.572 255.215 239.85 255.215 241.736V242.135H250.668C250.697 243.441 251.418 244.203 252.543 244.203C253.398 244.203 253.926 243.799 254.096 243.418L254.119 243.365H255.139L255.127 243.412C254.91 244.268 254.008 245.111 252.52 245.111ZM252.449 239.48C251.512 239.48 250.797 240.119 250.686 241.32H254.178C254.072 240.072 253.381 239.48 252.449 239.48ZM259.375 245.111C257.57 245.111 256.48 243.846 256.48 241.865V241.859C256.48 239.908 257.594 238.572 259.311 238.572C261.027 238.572 262.07 239.85 262.07 241.736V242.135H257.523C257.553 243.441 258.273 244.203 259.398 244.203C260.254 244.203 260.781 243.799 260.951 243.418L260.975 243.365H261.994L261.982 243.412C261.766 244.268 260.863 245.111 259.375 245.111ZM259.305 239.48C258.367 239.48 257.652 240.119 257.541 241.32H261.033C260.928 240.072 260.236 239.48 259.305 239.48ZM263.652 247.109V238.684H264.672V239.691H264.766C265.152 238.988 265.855 238.572 266.734 238.572C268.334 238.572 269.383 239.867 269.383 241.836V241.848C269.383 243.828 268.34 245.111 266.734 245.111C265.867 245.111 265.111 244.678 264.766 244.004H264.672V247.109H263.652ZM266.5 244.209C267.654 244.209 268.34 243.318 268.34 241.848V241.836C268.34 240.365 267.654 239.475 266.5 239.475C265.352 239.475 264.648 240.377 264.648 241.836V241.848C264.648 243.307 265.352 244.209 266.5 244.209ZM276.953 247.227C275.43 247.227 274.457 246.541 274.299 245.504L274.311 245.498H275.365L275.371 245.504C275.482 245.984 276.045 246.324 276.953 246.324C278.084 246.324 278.758 245.791 278.758 244.859V243.582H278.664C278.266 244.279 277.551 244.672 276.684 244.672C275.049 244.672 274.035 243.406 274.035 241.637V241.625C274.035 239.855 275.055 238.572 276.707 238.572C277.598 238.572 278.289 239.012 278.676 239.727H278.746V238.684H279.766V244.912C279.766 246.324 278.676 247.227 276.953 247.227ZM276.906 243.77C278.078 243.77 278.781 242.891 278.781 241.637V241.625C278.781 240.371 278.072 239.475 276.906 239.475C275.734 239.475 275.078 240.371 275.078 241.625V241.637C275.078 242.891 275.734 243.77 276.906 243.77ZM281.664 245V238.684H282.684V239.621H282.777C283.018 238.959 283.609 238.572 284.465 238.572C284.658 238.572 284.875 238.596 284.975 238.613V239.604C284.764 239.568 284.57 239.545 284.348 239.545C283.375 239.545 282.684 240.16 282.684 241.086V245H281.664ZM288.654 245.111C286.855 245.111 285.742 243.869 285.742 241.848V241.836C285.742 239.809 286.855 238.572 288.654 238.572C290.453 238.572 291.566 239.809 291.566 241.836V241.848C291.566 243.869 290.453 245.111 288.654 245.111ZM288.654 244.209C289.85 244.209 290.523 243.336 290.523 241.848V241.836C290.523 240.342 289.85 239.475 288.654 239.475C287.459 239.475 286.785 240.342 286.785 241.836V241.848C286.785 243.336 287.459 244.209 288.654 244.209ZM294.133 245L292.363 238.684H293.383L294.625 243.734H294.719L296.131 238.684H297.098L298.51 243.734H298.604L299.846 238.684H300.859L299.09 245H298.064L296.652 240.113H296.559L295.152 245H294.133ZM302.746 237.465C302.359 237.465 302.043 237.148 302.043 236.762C302.043 236.375 302.359 236.059 302.746 236.059C303.133 236.059 303.449 236.375 303.449 236.762C303.449 237.148 303.133 237.465 302.746 237.465ZM302.23 245V238.684H303.25V245H302.23ZM305.172 245V238.684H306.191V239.633H306.285C306.602 238.965 307.193 238.572 308.125 238.572C309.543 238.572 310.334 239.41 310.334 240.91V245H309.314V241.156C309.314 240.02 308.846 239.475 307.838 239.475C306.83 239.475 306.191 240.154 306.191 241.262V245H305.172ZM314.781 247.227C313.258 247.227 312.285 246.541 312.127 245.504L312.139 245.498H313.193L313.199 245.504C313.311 245.984 313.873 246.324 314.781 246.324C315.912 246.324 316.586 245.791 316.586 244.859V243.582H316.492C316.094 244.279 315.379 244.672 314.512 244.672C312.877 244.672 311.863 243.406 311.863 241.637V241.625C311.863 239.855 312.883 238.572 314.535 238.572C315.426 238.572 316.117 239.012 316.504 239.727H316.574V238.684H317.594V244.912C317.594 246.324 316.504 247.227 314.781 247.227ZM314.734 243.77C315.906 243.77 316.609 242.891 316.609 241.637V241.625C316.609 240.371 315.9 239.475 314.734 239.475C313.562 239.475 312.906 240.371 312.906 241.625V241.637C312.906 242.891 313.562 243.77 314.734 243.77ZM320.324 245.059C319.908 245.059 319.562 244.713 319.562 244.297C319.562 243.875 319.908 243.535 320.324 243.535C320.746 243.535 321.086 243.875 321.086 244.297C321.086 244.713 320.746 245.059 320.324 245.059Z" fill="#ADADAD"/>
<g filter="url(#filter1_d_4049_4042)">
<path d="M239.532 107.622C237.799 109.819 233.446 115.124 229.898 118.765C225.463 123.316 218.275 131.006 216.134 136.655C213.994 142.305 210.476 153.291 217.205 164.904C222.588 174.195 232.498 174.216 236.779 173.065H239.532V107.622Z" fill="url(#paint0_linear_4049_4042)"/>
<path d="M239.532 107.465C241.265 109.662 245.618 114.967 249.166 118.608C253.601 123.159 260.789 130.849 262.93 136.499C265.071 142.148 268.588 153.134 261.859 164.747C256.476 174.038 246.567 174.059 242.285 172.908H239.532V107.465Z" fill="url(#paint1_linear_4049_4042)"/>
<path d="M239.969 82C237.573 84.4269 231.555 90.2862 226.65 94.3079C220.519 99.3351 210.583 107.829 207.624 114.07C204.664 120.31 199.802 132.445 209.103 145.273C216.545 155.535 230.244 155.558 236.163 154.287H239.969V82Z" fill="url(#paint2_linear_4049_4042)"/>
<path d="M239.969 82C242.388 84.4151 248.464 90.2459 253.416 94.2481C259.607 99.2509 269.639 107.704 272.628 113.914C275.616 120.125 280.526 132.2 271.133 144.966C263.62 155.178 249.788 155.201 243.811 153.936H239.969V82Z" fill="url(#paint3_linear_4049_4042)"/>
<path d="M226.098 86.2127C225.222 85.7503 224.156 86.0819 223.645 86.9321C221.281 90.8707 216.868 98.654 216.564 100.141C216.128 102.275 216.634 107.27 219.366 109.671C222.098 112.072 224.694 114.047 228.475 114.351C232.255 114.654 235.53 115.198 239.49 113.587C245.633 111.087 239.086 93.0642 226.098 86.2127Z" fill="#FFE2D6"/>
<path d="M252.611 86.1224C253.487 85.66 254.553 85.9916 255.064 86.8418C257.429 90.7803 261.842 98.5637 262.145 100.05C262.582 102.185 262.075 107.179 259.343 109.581C256.611 111.982 254.015 113.957 250.235 114.26C246.454 114.564 243.179 115.107 239.219 113.496C233.076 110.997 239.623 92.9739 252.611 86.1224Z" fill="#FFE2D6"/>
<path d="M239.616 90.4883C237.22 92.9152 231.202 98.7744 226.298 102.796C220.167 107.823 210.231 116.318 207.271 122.558C204.312 128.799 199.449 140.933 208.751 153.761C216.193 164.024 229.892 164.047 235.811 162.775H239.616V90.4883Z" fill="url(#paint4_linear_4049_4042)"/>
<path d="M239.616 90.4883C242.036 92.9034 248.112 98.7342 253.064 102.736C259.254 107.739 269.287 116.192 272.275 122.402C275.264 128.613 280.173 140.688 270.781 153.454C263.268 163.667 249.435 163.69 243.459 162.425H239.616V90.4883Z" fill="url(#paint5_linear_4049_4042)"/>
<path d="M269.084 94.1656C270.136 93.6773 271.346 94.263 271.672 95.3779C273.751 102.504 277.861 117.957 277.84 120.728C277.811 124.582 275.605 133.317 271.058 137.061C266.51 140.806 262.281 143.822 256.893 143.667C251.506 143.513 246.754 143.875 241.689 140.303C233.776 134.723 248.612 103.671 269.084 94.1656Z" fill="url(#paint6_linear_4049_4042)"/>
<path d="M208.052 94.213C207 93.7247 205.79 94.3104 205.464 95.4252C203.385 102.552 199.275 118.004 199.296 120.776C199.325 124.629 201.531 133.364 206.078 137.108C210.626 140.853 214.855 143.869 220.243 143.715C225.63 143.56 230.382 143.922 235.447 140.35C243.36 134.77 228.524 103.719 208.052 94.213Z" fill="url(#paint7_linear_4049_4042)"/>
<path d="M185.209 110.318C184.072 110.11 183.045 110.978 183.002 112.137C182.709 119.94 182.481 137.051 183.225 139.907C184.253 143.854 188.784 152.241 194.429 154.892C200.074 157.542 205.203 159.528 210.701 157.955C216.199 156.383 221.177 155.507 225.458 150.512C232.159 142.692 208.761 114.621 185.209 110.318Z" fill="url(#paint8_linear_4049_4042)"/>
<path d="M293.24 110.318C294.377 110.11 295.403 110.978 295.447 112.137C295.74 119.94 295.967 137.051 295.224 139.907C294.196 143.854 289.665 152.241 284.02 154.892C278.375 157.542 273.246 159.528 267.748 157.955C262.25 156.383 257.272 155.507 252.99 150.512C246.289 142.692 269.687 114.621 293.24 110.318Z" fill="url(#paint9_linear_4049_4042)"/>
<path d="M238.984 107.799C236.376 109.888 230.027 114.751 225.506 117.487C219.853 120.906 211.809 137.433 211.375 140.092C210.94 142.752 209.853 175.615 238.984 175.235C262.29 174.931 268.116 151.68 268.116 140.092C265.507 133.95 258.811 120.83 252.898 117.487C246.985 114.144 241.158 109.635 238.984 107.799Z" fill="url(#paint10_linear_4049_4042)"/>
<path d="M169.171 151.834C168.048 152.246 167.632 153.533 168.239 154.517C172.522 161.474 180.004 173.155 182.818 175.771C186.666 179.349 204.751 191.639 212.592 191.67C220.433 191.7 227.262 191.293 231.998 187.04C236.733 182.787 241.922 180.317 241.508 173.097C240.935 163.111 193.304 142.985 169.171 151.834Z" fill="url(#paint11_linear_4049_4042)"/>
<path d="M308.829 152.215C309.952 152.627 310.368 153.914 309.761 154.898C305.478 161.855 297.996 173.536 295.182 176.152C291.334 179.73 273.25 192.02 265.408 192.051C257.567 192.081 250.738 191.674 246.002 187.421C241.267 183.167 236.078 180.697 236.492 173.478C237.065 163.492 284.696 143.365 308.829 152.215Z" fill="url(#paint12_linear_4049_4042)"/>
</g>
<g filter="url(#filter2_i_4049_4042)">
<path d="M236.619 150L241.365 140.713V140.61H235.71V139.431H242.705V140.654L238.003 150H236.619Z" fill="#4F706C"/>
</g>
<path d="M56.5 91.0596C55.8067 91.8903 54.0653 93.896 52.646 95.2727C50.872 96.9936 47.9968 99.9013 47.1404 102.038C46.284 104.174 44.8769 108.328 47.5686 112.719C49.7219 116.232 53.686 116.24 55.3989 115.804H56.5V91.0596Z" fill="url(#paint13_linear_4049_4042)"/>
<path d="M56.5 91C57.1933 91.8308 58.9347 93.8365 60.354 95.2132C62.128 96.934 65.0032 99.8417 65.8596 101.978C66.716 104.114 68.1231 108.268 65.4314 112.659C63.2781 116.172 59.314 116.18 57.6011 115.745H56.5V91Z" fill="url(#paint14_linear_4049_4042)"/>
<path d="M113.5 84.0757C112.609 85.1391 110.37 87.7064 108.545 89.4685C106.264 91.6713 102.567 95.3931 101.466 98.1275C100.365 100.862 98.5561 106.179 102.017 111.8C104.785 116.296 109.882 116.306 112.084 115.749H113.5V84.0757Z" fill="url(#paint15_linear_4049_4042)"/>
<path d="M113.5 84C114.391 85.0634 116.63 87.6307 118.455 89.3929C120.736 91.5956 124.433 95.3174 125.534 98.0518C126.635 100.786 128.444 106.103 124.983 111.724C122.215 116.22 117.118 116.231 114.916 115.674H113.5V84Z" fill="url(#paint16_linear_4049_4042)"/>
<path d="M113.865 142.078C112.971 143.173 110.724 145.818 108.893 147.633C106.603 149.901 102.894 153.735 101.788 156.551C100.683 159.368 98.8678 164.844 102.341 170.633C105.119 175.264 110.234 175.275 112.445 174.701H113.865V142.078Z" fill="url(#paint17_linear_4049_4042)"/>
<path d="M113.865 142C114.76 143.095 117.007 145.74 118.838 147.555C121.127 149.823 124.837 153.657 125.942 156.473C127.048 159.289 128.863 164.766 125.39 170.555C122.611 175.186 117.496 175.197 115.286 174.623H113.865V142Z" fill="url(#paint18_linear_4049_4042)"/>
<path d="M104.072 153.29C103.366 151.944 101.478 151.871 100.667 153.156C99.196 155.49 97.6152 158.122 97.3676 159.111C96.9158 160.915 96.5393 168.508 98.4218 170.763C100.304 173.019 102.111 174.898 104.898 175.424C107.684 175.95 109.491 176.402 112.578 175.424C114.773 174.729 108.564 161.846 104.072 153.29Z" fill="url(#paint19_linear_4049_4042)"/>
<path d="M122.934 153.26C123.639 151.922 125.509 151.853 126.305 153.139C127.784 155.529 129.383 158.272 129.632 159.258C130.084 161.047 130.461 168.573 128.578 170.809C126.696 173.045 124.889 174.908 122.102 175.429C119.316 175.951 117.509 176.398 114.422 175.429C112.226 174.74 118.441 161.781 122.934 153.26Z" fill="url(#paint20_linear_4049_4042)"/>
<path d="M113.657 151.793C112.845 152.532 110.868 154.251 109.46 155.218C107.7 156.426 105.195 162.268 105.059 163.208C104.924 164.148 104.586 175.764 113.657 175.629C120.914 175.522 122.729 167.304 122.729 163.208C121.916 161.037 119.831 156.399 117.99 155.218C116.148 154.036 114.334 152.443 113.657 151.793Z" fill="url(#paint21_linear_4049_4042)"/>
<path d="M56.6609 196.085C55.7165 197.274 53.3444 200.146 51.4112 202.117C48.9946 204.581 45.0781 208.744 43.9114 211.802C42.7448 214.861 40.8282 220.808 44.4948 227.095C47.428 232.124 52.8278 232.135 55.161 231.512H56.6609V196.085Z" fill="url(#paint22_linear_4049_4042)"/>
<path d="M56.661 196C57.6054 197.189 59.9775 200.061 61.9107 202.032C64.3273 204.496 68.2438 208.659 69.4105 211.717C70.5771 214.776 72.4937 220.723 68.8271 227.01C65.8939 232.039 60.4941 232.05 58.1609 231.427H56.661V196Z" fill="url(#paint23_linear_4049_4042)"/>
<path d="M46.2902 208.073C45.5901 206.696 43.661 206.623 42.8556 207.941C41.2957 210.495 39.5949 213.413 39.3318 214.5C38.8586 216.453 38.4644 224.673 40.4357 227.115C42.4071 229.557 44.2996 231.591 47.2172 232.161C50.1348 232.731 52.0273 233.219 55.2603 232.161C57.5696 231.405 50.9989 217.336 46.2902 208.073Z" fill="url(#paint24_linear_4049_4042)"/>
<path d="M66.3588 208.004C67.0605 206.644 68.9579 206.575 69.7515 207.883C71.3416 210.505 73.0951 213.57 73.3639 214.659C73.8419 216.595 74.2403 224.744 72.2484 227.164C70.2565 229.585 68.3443 231.602 65.3963 232.166C62.4483 232.731 60.5361 233.215 57.2694 232.166C54.9319 231.416 61.5993 217.226 66.3588 208.004Z" fill="url(#paint25_linear_4049_4042)"/>
<path d="M71.232 214.399C72.3653 213.357 74.1794 213.941 74.4657 215.443C75.0072 218.283 75.5356 221.511 75.4153 222.559C75.1975 224.457 72.8322 231.921 70.2347 233.452C67.6373 234.983 65.2462 236.177 62.4103 235.727C59.5744 235.277 57.6956 235.091 55.1128 233.085C53.2744 231.657 63.8803 221.157 71.232 214.399Z" fill="url(#paint26_linear_4049_4042)"/>
<path d="M40.768 214.251C39.6347 213.21 37.8206 213.793 37.5343 215.295C36.9928 218.135 36.4644 221.363 36.5847 222.411C36.8025 224.309 39.1678 231.773 41.7653 233.304C44.3627 234.835 46.7538 236.029 49.5897 235.579C52.4256 235.129 54.3044 234.943 56.8872 232.937C58.7256 231.509 48.1197 221.009 40.768 214.251Z" fill="url(#paint27_linear_4049_4042)"/>
<path d="M56.0195 207.741C55.105 208.565 52.8796 210.483 51.2944 211.562C49.3128 212.91 46.493 219.429 46.3406 220.477C46.1881 221.526 45.8071 234.488 56.0195 234.338C64.1895 234.218 66.2319 225.048 66.2319 220.477C65.3174 218.055 62.9701 212.88 60.8971 211.562C58.8241 210.243 56.7816 208.465 56.0195 207.741Z" fill="url(#paint28_linear_4049_4042)"/>
<path d="M116.549 195.082C115.63 196.233 113.321 199.013 111.44 200.921C109.088 203.306 105.277 207.335 104.141 210.296C103.006 213.256 101.141 219.013 104.709 225.098C107.564 229.967 112.818 229.978 115.089 229.375H116.549V195.082Z" fill="url(#paint29_linear_4049_4042)"/>
<path d="M116.549 195C117.468 196.151 119.776 198.931 121.657 200.839C124.009 203.224 127.821 207.253 128.956 210.214C130.091 213.174 131.956 218.931 128.388 225.016C125.534 229.885 120.279 229.896 118.008 229.293H116.549V195Z" fill="url(#paint30_linear_4049_4042)"/>
<path d="M130.763 204.084C131.772 203.286 133.219 203.759 133.643 204.968C134.75 208.121 136.089 212.238 136.112 213.505C136.149 215.537 134.638 223.694 132.008 225.605C129.377 227.515 126.924 229.046 123.743 228.889C120.561 228.732 118.47 228.747 115.34 226.916C113.013 225.556 121.859 211.121 130.763 204.084Z" fill="url(#paint31_linear_4049_4042)"/>
<path d="M102.089 203.975C101.08 203.177 99.6335 203.65 99.2087 204.859C98.1018 208.012 96.7631 212.129 96.7398 213.396C96.7025 215.428 98.2137 223.585 100.844 225.496C103.475 227.406 105.928 228.937 109.109 228.78C112.291 228.623 114.382 228.638 117.512 226.807C119.839 225.447 110.993 211.013 102.089 203.975Z" fill="url(#paint32_linear_4049_4042)"/>
<path d="M116.635 208.007C115.735 208.817 113.546 210.701 111.986 211.761C110.037 213.086 107.263 219.49 107.113 220.52C106.963 221.551 106.588 234.285 116.635 234.138C124.672 234.02 126.681 225.01 126.681 220.52C125.782 218.14 123.472 213.056 121.433 211.761C119.394 210.465 117.384 208.718 116.635 208.007Z" fill="url(#paint33_linear_4049_4042)"/>
<path d="M116.549 195.082C115.63 196.233 113.321 199.013 111.44 200.921C109.088 203.306 105.277 207.335 104.141 210.296C103.006 213.256 101.141 219.013 104.709 225.098C107.564 229.967 112.818 229.978 115.089 229.375H116.549V195.082Z" fill="url(#paint34_linear_4049_4042)"/>
<path d="M116.549 195C117.468 196.151 119.776 198.931 121.657 200.839C124.009 203.224 127.821 207.253 128.956 210.214C130.091 213.174 131.956 218.931 128.388 225.016C125.534 229.885 120.279 229.896 118.008 229.293H116.549V195Z" fill="url(#paint35_linear_4049_4042)"/>
<path d="M130.763 204.084C131.772 203.286 133.219 203.759 133.643 204.968C134.75 208.121 136.089 212.238 136.112 213.505C136.149 215.537 134.638 223.694 132.008 225.605C129.377 227.515 126.924 229.046 123.743 228.889C120.561 228.732 118.47 228.747 115.34 226.916C113.013 225.556 121.859 211.121 130.763 204.084Z" fill="url(#paint36_linear_4049_4042)"/>
<path d="M102.089 203.975C101.08 203.177 99.6335 203.65 99.2087 204.859C98.1018 208.012 96.7631 212.129 96.7398 213.396C96.7025 215.428 98.2137 223.585 100.844 225.496C103.475 227.406 105.928 228.937 109.109 228.78C112.291 228.623 114.382 228.638 117.512 226.807C119.839 225.447 110.993 211.013 102.089 203.975Z" fill="url(#paint37_linear_4049_4042)"/>
<path d="M116.635 208.007C115.735 208.817 113.546 210.701 111.986 211.761C110.037 213.086 107.263 219.49 107.113 220.52C106.963 221.551 106.588 234.285 116.635 234.138C124.672 234.02 126.681 225.01 126.681 220.52C125.782 218.14 123.472 213.056 121.433 211.761C119.394 210.465 117.384 208.718 116.635 208.007Z" fill="url(#paint38_linear_4049_4042)"/>
<path d="M136.298 217.978C137.709 217.031 139.553 218.162 139.316 219.835C138.911 222.685 138.403 225.715 137.99 226.708C137.184 228.642 132.647 236.023 129.798 237.225C126.949 238.426 124.395 239.31 121.963 238.425C119.532 237.54 117.885 237.07 116.181 234.611C114.992 232.894 127.477 223.901 136.298 217.978Z" fill="url(#paint39_linear_4049_4042)"/>
<path d="M96.0807 217.978C94.6702 217.031 92.8254 218.162 93.063 219.835C93.4677 222.685 93.9755 225.715 94.3891 226.708C95.1945 228.642 99.7319 236.023 102.581 237.225C105.43 238.426 107.984 239.31 110.415 238.425C112.847 237.54 114.494 237.07 116.198 234.611C117.387 232.894 104.901 223.901 96.0807 217.978Z" fill="url(#paint40_linear_4049_4042)"/>
<path d="M56.8434 143.074C56.003 144.105 53.8921 146.593 52.1718 148.302C50.0215 150.437 46.5364 154.045 45.4983 156.695C44.4602 159.346 42.7547 164.5 46.0173 169.949C48.6274 174.308 53.4324 174.318 55.5086 173.778H56.8434V143.074Z" fill="url(#paint41_linear_4049_4042)"/>
<path d="M56.8434 143C57.6837 144.031 59.7946 146.52 61.5149 148.228C63.6652 150.363 67.1503 153.971 68.1884 156.622C69.2265 159.272 70.932 164.427 67.6694 169.875C65.0593 174.234 60.2543 174.244 58.1781 173.704H56.8434V143Z" fill="url(#paint42_linear_4049_4042)"/>
<path d="M47.74 153.809C47.0352 152.462 45.1437 152.387 44.3354 153.675C42.9852 155.826 41.5718 158.198 41.3454 159.104C40.9209 160.802 40.5673 167.949 42.3357 170.071C44.104 172.194 45.8017 173.963 48.4189 174.458C51.0361 174.953 52.7338 175.378 55.634 174.458C57.6806 173.809 51.9514 161.862 47.74 153.809Z" fill="url(#paint43_linear_4049_4042)"/>
<path d="M65.2664 153.779C65.9702 152.439 67.8423 152.369 68.636 153.658C69.9947 155.865 71.4266 158.338 71.6546 159.243C72.0791 160.926 72.4327 168.01 70.6643 170.114C68.896 172.218 67.1983 173.972 64.5811 174.463C61.9639 174.954 60.2662 175.374 57.366 174.463C55.3183 173.819 61.0544 161.8 65.2664 153.779Z" fill="url(#paint44_linear_4049_4042)"/>
</g>
</g>
<defs>
<filter id="filter0_d_4049_4042" x="0" y="0" width="359" height="279" filterUnits="userSpaceOnUse" color-interpolation-filters="sRGB">
<feFlood flood-opacity="0" result="BackgroundImageFix"/>
<feColorMatrix in="SourceAlpha" type="matrix" values="0 0 0 0 0 0 0 0 0 0 0 0 0 0 0 0 0 0 127 0" result="hardAlpha"/>
<feOffset dy="2"/>
<feGaussianBlur stdDeviation="6"/>
<feColorMatrix type="matrix" values="0 0 0 0 0.2 0 0 0 0 0.2 0 0 0 0 0.2 0 0 0 0.08 0"/>
<feBlend mode="normal" in2="BackgroundImageFix" result="effect1_dropShadow_4049_4042"/>
<feBlend mode="normal" in="SourceGraphic" in2="effect1_dropShadow_4049_4042" result="shape"/>
</filter>
<filter id="filter1_d_4049_4042" x="142.9" y="59.9" width="192.2" height="169.2" filterUnits="userSpaceOnUse" color-interpolation-filters="sRGB">
<feFlood flood-opacity="0" result="BackgroundImageFix"/>
<feColorMatrix in="SourceAlpha" type="matrix" values="0 0 0 0 0 0 0 0 0 0 0 0 0 0 0 0 0 0 127 0" result="hardAlpha"/>
<feOffset dy="2"/>
<feGaussianBlur stdDeviation="12.05"/>
<feComposite in2="hardAlpha" operator="out"/>
<feColorMatrix type="matrix" values="0 0 0 0 1 0 0 0 0 0.918171 0 0 0 0 0.590853 0 0 0 0.4 0"/>
<feBlend mode="normal" in2="BackgroundImageFix" result="effect1_dropShadow_4049_4042"/>
<feBlend mode="normal" in="SourceGraphic" in2="effect1_dropShadow_4049_4042" result="shape"/>
</filter>
<filter id="filter2_i_4049_4042" x="235.71" y="139.431" width="6.99463" height="14.5688" filterUnits="userSpaceOnUse" color-interpolation-filters="sRGB">
<feFlood flood-opacity="0" result="BackgroundImageFix"/>
<feBlend mode="normal" in="SourceGraphic" in2="BackgroundImageFix" result="shape"/>
<feColorMatrix in="SourceAlpha" type="matrix" values="0 0 0 0 0 0 0 0 0 0 0 0 0 0 0 0 0 0 127 0" result="hardAlpha"/>
<feOffset dy="4"/>
<feGaussianBlur stdDeviation="2"/>
<feComposite in2="hardAlpha" operator="arithmetic" k2="-1" k3="1"/>
<feColorMatrix type="matrix" values="0 0 0 0 0 0 0 0 0 0 0 0 0 0 0 0 0 0 0.25 0"/>
<feBlend mode="normal" in2="shape" result="effect1_innerShadow_4049_4042"/>
</filter>
<linearGradient id="paint0_linear_4049_4042" x1="226.408" y1="107.622" x2="226.408" y2="173.583" gradientUnits="userSpaceOnUse">
<stop stop-color="#FFDAD8"/>
<stop offset="1" stop-color="#96D35F"/>
</linearGradient>
<linearGradient id="paint1_linear_4049_4042" x1="252.656" y1="107.465" x2="252.656" y2="173.426" gradientUnits="userSpaceOnUse">
<stop stop-color="#FFDAD8"/>
<stop offset="1" stop-color="#96D35F"/>
</linearGradient>
<linearGradient id="paint2_linear_4049_4042" x1="221.826" y1="82" x2="220.516" y2="179.206" gradientUnits="userSpaceOnUse">
<stop stop-color="#F5EEE2"/>
<stop offset="0.15" stop-color="#F7B7B5"/>
<stop offset="0.3" stop-color="#C69191"/>
</linearGradient>
<linearGradient id="paint3_linear_4049_4042" x1="258.288" y1="82" x2="259.572" y2="178.735" gradientUnits="userSpaceOnUse">
<stop stop-color="#F5EEE2"/>
<stop offset="0.15" stop-color="#F7B7B5"/>
<stop offset="0.3" stop-color="#C69191"/>
</linearGradient>
<linearGradient id="paint4_linear_4049_4042" x1="221.473" y1="90.4883" x2="220.164" y2="187.695" gradientUnits="userSpaceOnUse">
<stop offset="0.105" stop-color="#F7B7B5"/>
<stop offset="0.315" stop-color="#C69191"/>
</linearGradient>
<linearGradient id="paint5_linear_4049_4042" x1="257.936" y1="90.4883" x2="259.22" y2="187.223" gradientUnits="userSpaceOnUse">
<stop offset="0.105" stop-color="#F7B7B5"/>
<stop offset="0.315" stop-color="#C69191"/>
</linearGradient>
<linearGradient id="paint6_linear_4049_4042" x1="267.008" y1="92.3618" x2="251.155" y2="162.272" gradientUnits="userSpaceOnUse">
<stop stop-color="#F5EEE2"/>
<stop offset="0.325" stop-color="#F7B7B5"/>
<stop offset="0.615" stop-color="#C69191"/>
</linearGradient>
<linearGradient id="paint7_linear_4049_4042" x1="210.128" y1="92.4092" x2="225.981" y2="162.319" gradientUnits="userSpaceOnUse">
<stop stop-color="#F5EEE2"/>
<stop offset="0.325" stop-color="#F7B7B5"/>
<stop offset="0.615" stop-color="#C69191"/>
</linearGradient>
<linearGradient id="paint8_linear_4049_4042" x1="187.01" y1="107.946" x2="221.523" y2="175.494" gradientUnits="userSpaceOnUse">
<stop stop-color="#F5EEE2"/>
<stop offset="0.385" stop-color="#F7B7B5"/>
<stop offset="0.715" stop-color="#C69191"/>
</linearGradient>
<linearGradient id="paint9_linear_4049_4042" x1="291.439" y1="107.946" x2="256.925" y2="175.494" gradientUnits="userSpaceOnUse">
<stop stop-color="#F5EEE2"/>
<stop offset="0.385" stop-color="#F7B7B5"/>
<stop offset="0.715" stop-color="#C69191"/>
</linearGradient>
<linearGradient id="paint10_linear_4049_4042" x1="239.677" y1="107.799" x2="239.677" y2="175.238" gradientUnits="userSpaceOnUse">
<stop offset="0.005" stop-color="white"/>
<stop offset="0.27002" stop-color="#F5EEE2"/>
<stop offset="0.43294" stop-color="#E5DED0"/>
<stop offset="0.95" stop-color="#CEB7B7"/>
</linearGradient>
<linearGradient id="paint11_linear_4049_4042" x1="170.847" y1="147.217" x2="233.053" y2="189.649" gradientUnits="userSpaceOnUse">
<stop stop-color="#F5EEE2"/>
<stop offset="0.485" stop-color="#83BB9E"/>
<stop offset="1" stop-color="#4F706C"/>
</linearGradient>
<linearGradient id="paint12_linear_4049_4042" x1="307.153" y1="147.598" x2="244.947" y2="190.03" gradientUnits="userSpaceOnUse">
<stop stop-color="#F5EEE2"/>
<stop offset="0.485" stop-color="#83BB9E"/>
<stop offset="1" stop-color="#4F706C"/>
</linearGradient>
<linearGradient id="paint13_linear_4049_4042" x1="51.25" y1="91.0596" x2="51.25" y2="116" gradientUnits="userSpaceOnUse">
<stop stop-color="#E5DED0"/>
<stop offset="1" stop-color="#83BB9E"/>
</linearGradient>
<linearGradient id="paint14_linear_4049_4042" x1="61.75" y1="91" x2="61.75" y2="115.941" gradientUnits="userSpaceOnUse">
<stop stop-color="#E5DED0"/>
<stop offset="1" stop-color="#83BB9E"/>
</linearGradient>
<linearGradient id="paint15_linear_4049_4042" x1="106.75" y1="84.0757" x2="106.75" y2="116" gradientUnits="userSpaceOnUse">
<stop stop-color="#E5DED0"/>
<stop offset="1" stop-color="#83BB9E"/>
</linearGradient>
<linearGradient id="paint16_linear_4049_4042" x1="120.25" y1="84" x2="120.25" y2="115.924" gradientUnits="userSpaceOnUse">
<stop stop-color="#E5DED0"/>
<stop offset="1" stop-color="#83BB9E"/>
</linearGradient>
<linearGradient id="paint17_linear_4049_4042" x1="107.091" y1="142.078" x2="106.377" y2="185.943" gradientUnits="userSpaceOnUse">
<stop stop-color="#F5EEE2"/>
<stop offset="0.385" stop-color="#F7B7B5"/>
<stop offset="0.715" stop-color="#C69191"/>
</linearGradient>
<linearGradient id="paint18_linear_4049_4042" x1="120.64" y1="142" x2="121.354" y2="185.865" gradientUnits="userSpaceOnUse">
<stop stop-color="#F5EEE2"/>
<stop offset="0.385" stop-color="#F7B7B5"/>
<stop offset="0.715" stop-color="#C69191"/>
</linearGradient>
<linearGradient id="paint19_linear_4049_4042" x1="105.017" y1="150.315" x2="105.017" y2="176" gradientUnits="userSpaceOnUse">
<stop offset="0.045" stop-color="#F5EEE2"/>
<stop offset="0.675" stop-color="#83BB9E"/>
<stop offset="1" stop-color="#4F706C"/>
</linearGradient>
<linearGradient id="paint20_linear_4049_4042" x1="121.983" y1="150.315" x2="121.983" y2="176" gradientUnits="userSpaceOnUse">
<stop offset="0.045" stop-color="#F5EEE2"/>
<stop offset="0.675" stop-color="#83BB9E"/>
<stop offset="1" stop-color="#4F706C"/>
</linearGradient>
<linearGradient id="paint21_linear_4049_4042" x1="113.873" y1="151.793" x2="113.873" y2="175.63" gradientUnits="userSpaceOnUse">
<stop stop-color="white"/>
<stop offset="0.275" stop-color="#F5EEE2"/>
<stop offset="0.57" stop-color="#E5DED0"/>
<stop offset="0.95" stop-color="#CEB7B7"/>
</linearGradient>
<linearGradient id="paint22_linear_4049_4042" x1="49.5095" y1="196.085" x2="48.7114" y2="243.72" gradientUnits="userSpaceOnUse">
<stop stop-color="#F5EEE2"/>
<stop offset="0.285" stop-color="#F7B7B5"/>
<stop offset="0.55" stop-color="#C69191"/>
</linearGradient>
<linearGradient id="paint23_linear_4049_4042" x1="63.8124" y1="196" x2="64.6105" y2="243.635" gradientUnits="userSpaceOnUse">
<stop stop-color="#F5EEE2"/>
<stop offset="0.285" stop-color="#F7B7B5"/>
<stop offset="0.55" stop-color="#C69191"/>
</linearGradient>
<linearGradient id="paint24_linear_4049_4042" x1="47.3422" y1="204.977" x2="46.9298" y2="242.079" gradientUnits="userSpaceOnUse">
<stop stop-color="#F5EEE2"/>
<stop offset="0.385" stop-color="#F7B7B5"/>
<stop offset="0.715" stop-color="#C69191"/>
</linearGradient>
<linearGradient id="paint25_linear_4049_4042" x1="65.27" y1="204.977" x2="65.6781" y2="242.079" gradientUnits="userSpaceOnUse">
<stop stop-color="#F5EEE2"/>
<stop offset="0.385" stop-color="#F7B7B5"/>
<stop offset="0.715" stop-color="#C69191"/>
</linearGradient>
<linearGradient id="paint26_linear_4049_4042" x1="71.3828" y1="211.213" x2="62.2945" y2="236.316" gradientUnits="userSpaceOnUse">
<stop stop-color="#F5EEE2"/>
<stop offset="0.485" stop-color="#83BB9E"/>
<stop offset="1" stop-color="#4F706C"/>
</linearGradient>
<linearGradient id="paint27_linear_4049_4042" x1="40.6172" y1="211.065" x2="49.7055" y2="236.168" gradientUnits="userSpaceOnUse">
<stop stop-color="#F5EEE2"/>
<stop offset="0.485" stop-color="#83BB9E"/>
<stop offset="1" stop-color="#4F706C"/>
</linearGradient>
<linearGradient id="paint28_linear_4049_4042" x1="56.2624" y1="207.741" x2="56.2624" y2="234.339" gradientUnits="userSpaceOnUse">
<stop offset="0.0099" stop-color="white"/>
<stop offset="0.01" stop-color="#F5EEE2"/>
<stop offset="0.242758" stop-color="#F5EEE2"/>
<stop offset="0.565" stop-color="#E5DED0"/>
<stop offset="0.95" stop-color="#CEB7B7"/>
</linearGradient>
<linearGradient id="paint29_linear_4049_4042" x1="109.589" y1="195.082" x2="109.589" y2="229.646" gradientUnits="userSpaceOnUse">
<stop stop-color="#FFDAD8"/>
<stop offset="1" stop-color="#96D35F"/>
</linearGradient>
<linearGradient id="paint30_linear_4049_4042" x1="123.508" y1="195" x2="123.508" y2="229.564" gradientUnits="userSpaceOnUse">
<stop stop-color="#FFDAD8"/>
<stop offset="1" stop-color="#96D35F"/>
</linearGradient>
<linearGradient id="paint31_linear_4049_4042" x1="129.953" y1="201.945" x2="123.489" y2="229.475" gradientUnits="userSpaceOnUse">
<stop stop-color="#FFDAD8"/>
<stop offset="1" stop-color="#96D35F"/>
</linearGradient>
<linearGradient id="paint32_linear_4049_4042" x1="102.899" y1="201.836" x2="109.363" y2="229.367" gradientUnits="userSpaceOnUse">
<stop stop-color="#FFDAD8"/>
<stop offset="1" stop-color="#96D35F"/>
</linearGradient>
<linearGradient id="paint33_linear_4049_4042" x1="116.874" y1="208.007" x2="116.874" y2="234.139" gradientUnits="userSpaceOnUse">
<stop stop-color="#FFDAD8"/>
<stop offset="1" stop-color="#96D35F"/>
</linearGradient>
<linearGradient id="paint34_linear_4049_4042" x1="109.589" y1="195.082" x2="108.821" y2="241.192" gradientUnits="userSpaceOnUse">
<stop offset="0.045" stop-color="#F5EEE2"/>
<stop offset="0.525" stop-color="#F7B7B5"/>
<stop offset="0.76" stop-color="#C69191"/>
</linearGradient>
<linearGradient id="paint35_linear_4049_4042" x1="123.508" y1="195" x2="124.277" y2="241.11" gradientUnits="userSpaceOnUse">
<stop offset="0.045" stop-color="#F5EEE2"/>
<stop offset="0.525" stop-color="#F7B7B5"/>
<stop offset="0.76" stop-color="#C69191"/>
</linearGradient>
<linearGradient id="paint36_linear_4049_4042" x1="129.953" y1="201.945" x2="121.712" y2="238.767" gradientUnits="userSpaceOnUse">
<stop stop-color="#F5EEE2"/>
<stop offset="0.275" stop-color="#F7B7B5"/>
<stop offset="0.63" stop-color="#C69191"/>
</linearGradient>
<linearGradient id="paint37_linear_4049_4042" x1="102.899" y1="201.836" x2="111.14" y2="238.658" gradientUnits="userSpaceOnUse">
<stop stop-color="#F5EEE2"/>
<stop offset="0.275" stop-color="#F7B7B5"/>
<stop offset="0.63" stop-color="#C69191"/>
</linearGradient>
<linearGradient id="paint38_linear_4049_4042" x1="116.874" y1="208.007" x2="116.874" y2="234.139" gradientUnits="userSpaceOnUse">
<stop offset="0.27002" stop-color="#F5EEE2"/>
<stop offset="0.43294" stop-color="#E5DED0"/>
<stop offset="0.95" stop-color="#CEB7B7"/>
</linearGradient>
<linearGradient id="paint39_linear_4049_4042" x1="137.959" y1="214.363" x2="121.689" y2="239.03" gradientUnits="userSpaceOnUse">
<stop stop-color="#F5EEE2"/>
<stop offset="0.485" stop-color="#83BB9E"/>
<stop offset="1" stop-color="#4F706C"/>
</linearGradient>
<linearGradient id="paint40_linear_4049_4042" x1="94.42" y1="214.363" x2="110.69" y2="239.03" gradientUnits="userSpaceOnUse">
<stop stop-color="#F5EEE2"/>
<stop offset="0.485" stop-color="#83BB9E"/>
<stop offset="1" stop-color="#4F706C"/>
</linearGradient>
<linearGradient id="paint41_linear_4049_4042" x1="50.4797" y1="143.074" x2="49.806" y2="184.359" gradientUnits="userSpaceOnUse">
<stop stop-color="#F5EEE2"/>
<stop offset="0.385" stop-color="#F7B7B5"/>
<stop offset="0.715" stop-color="#C69191"/>
</linearGradient>
<linearGradient id="paint42_linear_4049_4042" x1="63.207" y1="143" x2="63.8807" y2="184.285" gradientUnits="userSpaceOnUse">
<stop stop-color="#F5EEE2"/>
<stop offset="0.385" stop-color="#F7B7B5"/>
<stop offset="0.715" stop-color="#C69191"/>
</linearGradient>
<linearGradient id="paint43_linear_4049_4042" x1="48.5311" y1="150.826" x2="48.5311" y2="175" gradientUnits="userSpaceOnUse">
<stop stop-color="#F5EEE2"/>
<stop offset="1" stop-color="#83BB9E"/>
</linearGradient>
<linearGradient id="paint44_linear_4049_4042" x1="64.4689" y1="150.826" x2="64.4689" y2="175" gradientUnits="userSpaceOnUse">
<stop stop-color="#F5EEE2"/>
<stop offset="1" stop-color="#83BB9E"/>
</linearGradient>
<clipPath id="clip0_4049_4042">
<rect x="12" y="10" width="335" height="255" rx="10" fill="white"/>
</clipPath>
</defs>
</svg>
