<svg width="359" height="279" viewBox="0 0 359 279" fill="none" xmlns="http://www.w3.org/2000/svg">
<g filter="url(#filter0_d_4049_3880)">
<rect x="12" y="10" width="335" height="255" rx="10" fill="white"/>
<path d="M37.3037 38V27.4312H39.4717L42.6504 35.561H42.7749L45.9463 27.4312H48.1143V38H46.415V30.4854H46.2832L43.3535 38H42.0645L39.1348 30.4854H39.0103V38H37.3037ZM53.4883 38.1611C51.0859 38.1611 49.6357 36.5938 49.6357 34.001V33.9863C49.6357 31.4155 51.1079 29.8408 53.4883 29.8408C55.876 29.8408 57.3408 31.4082 57.3408 33.9863V34.001C57.3408 36.5938 55.8833 38.1611 53.4883 38.1611ZM53.4883 36.6816C54.7554 36.6816 55.4731 35.6929 55.4731 34.0083V33.9937C55.4731 32.3091 54.748 31.313 53.4883 31.313C52.2212 31.313 51.4961 32.3091 51.4961 33.9937V34.0083C51.4961 35.6929 52.2212 36.6816 53.4883 36.6816ZM58.6719 38V29.9946H60.4956V31.2178H60.6201C61.001 30.3608 61.77 29.8408 62.9272 29.8408C64.7144 29.8408 65.6885 30.9175 65.6885 32.8218V38H63.8647V33.2466C63.8647 32.0015 63.3594 31.3716 62.2534 31.3716C61.1694 31.3716 60.4956 32.1333 60.4956 33.3345V38H58.6719ZM70.2275 38.1318C68.2207 38.1318 66.9463 36.5425 66.9463 34.0083V33.9937C66.9463 31.4448 68.1987 29.8628 70.2275 29.8628C71.3262 29.8628 72.2417 30.4048 72.6592 31.269H72.7837V26.8965H74.6147V38H72.7837V36.7476H72.6592C72.2197 37.6191 71.3555 38.1318 70.2275 38.1318ZM70.7988 36.5938C72.0439 36.5938 72.813 35.6123 72.813 34.0083V33.9937C72.813 32.3896 72.0366 31.4009 70.7988 31.4009C69.561 31.4009 68.7993 32.3823 68.7993 33.9937V34.0083C68.7993 35.6196 69.5537 36.5938 70.7988 36.5938ZM78.5898 38.1318C77.0664 38.1318 75.9604 37.1943 75.9604 35.7368V35.7222C75.9604 34.2939 77.0518 33.459 79 33.3418L81.0581 33.2173V32.5288C81.0581 31.7305 80.5381 31.291 79.5566 31.291C78.7217 31.291 78.1797 31.5913 77.9966 32.1187L77.9893 32.1479H76.2681L76.2754 32.082C76.4512 30.7344 77.7402 29.8408 79.6445 29.8408C81.7026 29.8408 82.8599 30.8369 82.8599 32.5288V38H81.0581V36.9014H80.9336C80.4941 37.6777 79.6445 38.1318 78.5898 38.1318ZM77.7622 35.6489C77.7622 36.3301 78.3408 36.7329 79.1465 36.7329C80.2451 36.7329 81.0581 36.0151 81.0581 35.063V34.4185L79.2563 34.5356C78.2383 34.6016 77.7622 34.9751 77.7622 35.6343V35.6489ZM85.1577 40.8125C84.938 40.8125 84.6816 40.8052 84.4619 40.7832V39.3843C84.6084 39.3989 84.8135 39.4062 85.0039 39.4062C85.751 39.4062 86.1978 39.0986 86.3955 38.3735L86.4907 38.0073L83.627 29.9946H85.6191L87.4868 36.2495H87.626L89.4863 29.9946H91.4053L88.5342 38.1685C87.8457 40.1753 86.9302 40.8125 85.1577 40.8125ZM91.1763 40.7905L91.8135 36.3887H93.6958L92.4214 40.7905H91.1763ZM99.5439 38V27.4312H103.506C106.648 27.4312 108.479 29.3501 108.479 32.6606V32.6753C108.479 36.0591 106.67 38 103.506 38H99.5439ZM101.434 36.4106H103.257C105.359 36.4106 106.553 35.0776 106.553 32.7046V32.6899C106.553 30.3682 105.33 29.0205 103.257 29.0205H101.434V36.4106ZM113.385 38.1611C111.004 38.1611 109.562 36.5645 109.562 34.0156V34.0083C109.562 31.4888 111.019 29.8408 113.297 29.8408C115.575 29.8408 116.981 31.4375 116.981 33.8545V34.4551H111.385C111.407 35.8906 112.184 36.7256 113.421 36.7256C114.41 36.7256 114.974 36.2275 115.15 35.8613L115.172 35.8101H116.908L116.886 35.876C116.629 36.9087 115.56 38.1611 113.385 38.1611ZM113.319 31.269C112.301 31.269 111.539 31.9575 111.4 33.2319H115.201C115.077 31.9209 114.337 31.269 113.319 31.269ZM121.74 38.1611C119.33 38.1611 117.909 36.6011 117.909 33.9863V33.9717C117.909 31.3862 119.323 29.8408 121.732 29.8408C123.791 29.8408 125.021 30.9834 125.226 32.6387V32.668H123.505L123.498 32.646C123.329 31.8696 122.736 31.313 121.74 31.313C120.495 31.313 119.762 32.2944 119.762 33.9717V33.9863C119.762 35.6855 120.502 36.6816 121.74 36.6816C122.685 36.6816 123.263 36.2495 123.49 35.4072L123.505 35.3779L125.226 35.3706L125.211 35.4292C124.948 37.0698 123.769 38.1611 121.74 38.1611ZM129.954 38V36.7256L133.425 33.1807C134.861 31.7305 135.264 31.1958 135.264 30.3828V30.3608C135.264 29.3867 134.597 28.6836 133.499 28.6836C132.378 28.6836 131.624 29.4233 131.624 30.5146L131.616 30.5439L129.858 30.5366L129.851 30.5146C129.851 28.5444 131.389 27.1675 133.594 27.1675C135.652 27.1675 137.131 28.4199 137.131 30.1997V30.2217C137.131 31.4229 136.553 32.375 134.626 34.228L132.51 36.2788V36.4326H137.292V38H129.954ZM142.71 38.2124C140.396 38.2124 138.88 36.9526 138.741 35.1436L138.733 35.0557H140.535L140.542 35.1362C140.645 36.0298 141.473 36.667 142.71 36.667C143.934 36.667 144.747 35.9858 144.747 35.0044V34.9897C144.747 33.8765 143.926 33.2612 142.571 33.2612H141.326V31.855H142.535C143.699 31.855 144.476 31.1958 144.476 30.2729V30.2583C144.476 29.2915 143.824 28.7202 142.696 28.7202C141.583 28.7202 140.813 29.3135 140.718 30.2583L140.711 30.3315H138.953L138.96 30.251C139.122 28.4199 140.564 27.2188 142.696 27.2188C144.871 27.2188 146.285 28.354 146.285 30.0093V30.0239C146.285 31.335 145.34 32.2065 144.073 32.4702V32.5068C145.625 32.6533 146.658 33.5762 146.658 35.041V35.0557C146.658 36.916 145.054 38.2124 142.71 38.2124Z" fill="#333333"/>
<path d="M37.0254 63V54.5449H38.7949V58.3418H38.9004L42.0234 54.5449H43.9922L40.9102 58.248L44.209 63H42.0879L39.6328 59.4082L38.7949 60.416V63H37.0254ZM47.707 63.1348C45.7441 63.1348 44.5547 61.8516 44.5547 59.7832V59.7773C44.5547 57.7266 45.7559 56.4082 47.6367 56.4082C49.5176 56.4082 50.6895 57.6973 50.6895 59.6484V60.1816H46.248C46.2656 61.2422 46.834 61.8574 47.7422 61.8574C48.4922 61.8574 48.9082 61.459 49.0254 61.2129L49.043 61.1777H50.6367L50.625 61.2363C50.4258 62.0449 49.5938 63.1348 47.707 63.1348ZM47.666 57.6914C46.9219 57.6914 46.3711 58.1953 46.2656 59.1094H49.0488C48.9434 58.1719 48.4102 57.6914 47.666 57.6914ZM54.9258 63.1348C52.9629 63.1348 51.7734 61.8516 51.7734 59.7832V59.7773C51.7734 57.7266 52.9746 56.4082 54.8555 56.4082C56.7363 56.4082 57.9082 57.6973 57.9082 59.6484V60.1816H53.4668C53.4844 61.2422 54.0527 61.8574 54.9609 61.8574C55.7109 61.8574 56.127 61.459 56.2441 61.2129L56.2617 61.1777H57.8555L57.8438 61.2363C57.6445 62.0449 56.8125 63.1348 54.9258 63.1348ZM54.8848 57.6914C54.1406 57.6914 53.5898 58.1953 53.4844 59.1094H56.2676C56.1621 58.1719 55.6289 57.6914 54.8848 57.6914ZM59.3086 65.1387V56.5488H61.0195V57.5449H61.125C61.459 56.8535 62.1445 56.4434 63.0586 56.4434C64.6699 56.4434 65.6777 57.709 65.6777 59.7656V59.7773C65.6777 61.8516 64.6934 63.0996 63.0586 63.0996C62.1738 63.0996 61.4531 62.6719 61.125 61.9688H61.0195V65.1387H59.3086ZM62.4727 61.6816C63.375 61.6816 63.9375 60.9609 63.9375 59.7773V59.7656C63.9375 58.582 63.3809 57.8613 62.4727 57.8613C61.5703 57.8613 61.002 58.582 61.002 59.7656V59.7773C61.002 60.9609 61.5762 61.6816 62.4727 61.6816ZM71.0449 55.5586C70.5176 55.5586 70.0781 55.1367 70.0781 54.6094C70.0781 54.0762 70.5176 53.6543 71.0449 53.6543C71.5723 53.6543 72.0059 54.0762 72.0059 54.6094C72.0059 55.1367 71.5723 55.5586 71.0449 55.5586ZM70.1836 63V56.5488H71.8945V63H70.1836ZM76.2949 63.0234C74.7246 63.0234 74.0918 62.5137 74.0918 61.2598V57.8379H73.0957V56.5488H74.0918V55.0078H75.8203V56.5488H77.1504V57.8379H75.8203V60.8672C75.8203 61.4473 76.0664 61.7051 76.6465 61.7051C76.8691 61.7051 76.9863 61.6934 77.1504 61.6758V62.9473C76.9395 62.9883 76.623 63.0234 76.2949 63.0234ZM83.8008 63.1348C82.3535 63.1348 81.6094 62.2559 81.6094 60.7207V56.5488H83.3203V60.3281C83.3203 61.2422 83.666 61.7168 84.4746 61.7168C85.3184 61.7168 85.7754 61.1484 85.7754 60.2754V56.5488H87.4863V63H85.7754V62.0039H85.6699C85.377 62.707 84.7207 63.1348 83.8008 63.1348ZM89.2031 65.1387V56.5488H90.9141V57.5449H91.0195C91.3535 56.8535 92.0391 56.4434 92.9531 56.4434C94.5645 56.4434 95.5723 57.709 95.5723 59.7656V59.7773C95.5723 61.8516 94.5879 63.0996 92.9531 63.0996C92.0684 63.0996 91.3477 62.6719 91.0195 61.9688H90.9141V65.1387H89.2031ZM92.3672 61.6816C93.2695 61.6816 93.832 60.9609 93.832 59.7773V59.7656C93.832 58.582 93.2754 57.8613 92.3672 57.8613C91.4648 57.8613 90.8965 58.582 90.8965 59.7656V59.7773C90.8965 60.9609 91.4707 61.6816 92.3672 61.6816ZM97.4707 60.2109L97.3184 54.5391H99.1934L99.0352 60.2109H97.4707ZM98.2559 63.1699C97.5996 63.1699 97.1895 62.7949 97.1895 62.1914C97.1895 61.582 97.5996 61.207 98.2559 61.207C98.918 61.207 99.3223 61.582 99.3223 62.1914C99.3223 62.7949 98.918 63.1699 98.2559 63.1699ZM106.852 63V59.8418L103.91 54.5449H105.826L107.689 58.1016H107.795L109.652 54.5449H111.568L108.621 59.8418V63H106.852ZM114.557 63.1348C112.57 63.1348 111.375 61.875 111.375 59.7773V59.7656C111.375 57.6855 112.588 56.4082 114.557 56.4082C116.525 56.4082 117.738 57.6797 117.738 59.7656V59.7773C117.738 61.8809 116.543 63.1348 114.557 63.1348ZM114.557 61.793C115.465 61.793 115.986 61.0488 115.986 59.7773V59.7656C115.986 58.5059 115.459 57.75 114.557 57.75C113.648 57.75 113.127 58.5059 113.127 59.7656V59.7773C113.127 61.0488 113.643 61.793 114.557 61.793ZM121.266 63.1348C119.818 63.1348 119.074 62.2559 119.074 60.7207V56.5488H120.785V60.3281C120.785 61.2422 121.131 61.7168 121.939 61.7168C122.783 61.7168 123.24 61.1484 123.24 60.2754V56.5488H124.951V63H123.24V62.0039H123.135C122.842 62.707 122.186 63.1348 121.266 63.1348ZM127.254 58.1719L127.084 54.5449H128.713L128.543 58.1719H127.254ZM132.527 63L130.283 56.5488H132.117L133.453 61.4004H133.559L134.883 56.5488H136.682L134.449 63H132.527ZM140.402 63.1348C138.439 63.1348 137.25 61.8516 137.25 59.7832V59.7773C137.25 57.7266 138.451 56.4082 140.332 56.4082C142.213 56.4082 143.385 57.6973 143.385 59.6484V60.1816H138.943C138.961 61.2422 139.529 61.8574 140.438 61.8574C141.188 61.8574 141.604 61.459 141.721 61.2129L141.738 61.1777H143.332L143.32 61.2363C143.121 62.0449 142.289 63.1348 140.402 63.1348ZM140.361 57.6914C139.617 57.6914 139.066 58.1953 138.961 59.1094H141.744C141.639 58.1719 141.105 57.6914 140.361 57.6914ZM147.879 63V56.5488H149.59V57.5566H149.695C149.971 56.8301 150.639 56.4082 151.482 56.4082C152.361 56.4082 153.012 56.8535 153.275 57.5977H153.381C153.674 56.8828 154.424 56.4082 155.326 56.4082C156.609 56.4082 157.412 57.2402 157.412 58.5703V63H155.701V58.998C155.701 58.2188 155.35 57.8262 154.635 57.8262C153.943 57.8262 153.498 58.3359 153.498 59.0332V63H151.787V58.9219C151.787 58.2305 151.395 57.8262 150.727 57.8262C150.059 57.8262 149.59 58.3711 149.59 59.1094V63H147.879ZM161.906 63.1348C159.943 63.1348 158.754 61.8516 158.754 59.7832V59.7773C158.754 57.7266 159.955 56.4082 161.836 56.4082C163.717 56.4082 164.889 57.6973 164.889 59.6484V60.1816H160.447C160.465 61.2422 161.033 61.8574 161.941 61.8574C162.691 61.8574 163.107 61.459 163.225 61.2129L163.242 61.1777H164.836L164.824 61.2363C164.625 62.0449 163.793 63.1348 161.906 63.1348ZM161.865 57.6914C161.121 57.6914 160.57 58.1953 160.465 59.1094H163.248C163.143 58.1719 162.609 57.6914 161.865 57.6914ZM168.592 63.0996C166.98 63.0996 165.973 61.8398 165.973 59.7773V59.7656C165.973 57.6914 166.957 56.4434 168.592 56.4434C169.477 56.4434 170.197 56.877 170.52 57.5801H170.625V54.082H172.336V63H170.625V61.998H170.52C170.186 62.6953 169.5 63.0996 168.592 63.0996ZM169.172 61.6816C170.08 61.6816 170.643 60.9668 170.643 59.7832V59.7715C170.643 58.5879 170.074 57.8613 169.172 57.8613C168.27 57.8613 167.713 58.5879 167.713 59.7656V59.7773C167.713 60.9668 168.27 61.6816 169.172 61.6816ZM174.979 55.5586C174.451 55.5586 174.012 55.1367 174.012 54.6094C174.012 54.0762 174.451 53.6543 174.979 53.6543C175.506 53.6543 175.939 54.0762 175.939 54.6094C175.939 55.1367 175.506 55.5586 174.979 55.5586ZM174.117 63V56.5488H175.828V63H174.117ZM180.229 63.0234C178.658 63.0234 178.025 62.5137 178.025 61.2598V57.8379H177.029V56.5488H178.025V55.0078H179.754V56.5488H181.084V57.8379H179.754V60.8672C179.754 61.4473 180 61.7051 180.58 61.7051C180.803 61.7051 180.92 61.6934 181.084 61.6758V62.9473C180.873 62.9883 180.557 63.0234 180.229 63.0234ZM184.266 63.0996C183.035 63.0996 182.162 62.3379 182.162 61.166V61.1543C182.162 59.9941 183.059 59.3145 184.664 59.2207L186.223 59.127V58.5938C186.223 58.0371 185.842 57.7207 185.139 57.7207C184.523 57.7207 184.131 57.9375 183.996 58.3184L183.984 58.3418H182.402L182.408 58.2891C182.543 57.1582 183.609 56.4082 185.232 56.4082C186.943 56.4082 187.91 57.2168 187.91 58.5938V63H186.223V62.1445H186.117C185.789 62.7422 185.109 63.0996 184.266 63.0996ZM183.832 61.0605C183.832 61.5527 184.248 61.8516 184.84 61.8516C185.631 61.8516 186.223 61.3301 186.223 60.6504V60.1758L184.922 60.2578C184.189 60.3047 183.832 60.5801 183.832 61.0488V61.0605ZM192.264 63.0234C190.693 63.0234 190.061 62.5137 190.061 61.2598V57.8379H189.064V56.5488H190.061V55.0078H191.789V56.5488H193.119V57.8379H191.789V60.8672C191.789 61.4473 192.035 61.7051 192.615 61.7051C192.838 61.7051 192.955 61.6934 193.119 61.6758V62.9473C192.908 62.9883 192.592 63.0234 192.264 63.0234ZM197.332 63.1348C195.369 63.1348 194.18 61.8516 194.18 59.7832V59.7773C194.18 57.7266 195.381 56.4082 197.262 56.4082C199.143 56.4082 200.314 57.6973 200.314 59.6484V60.1816H195.873C195.891 61.2422 196.459 61.8574 197.367 61.8574C198.117 61.8574 198.533 61.459 198.65 61.2129L198.668 61.1777H200.262L200.25 61.2363C200.051 62.0449 199.219 63.1348 197.332 63.1348ZM197.291 57.6914C196.547 57.6914 195.996 58.1953 195.891 59.1094H198.674C198.568 58.1719 198.035 57.6914 197.291 57.6914ZM204.018 63.0996C202.406 63.0996 201.398 61.8398 201.398 59.7773V59.7656C201.398 57.6914 202.383 56.4434 204.018 56.4434C204.902 56.4434 205.623 56.877 205.945 57.5801H206.051V54.082H207.762V63H206.051V61.998H205.945C205.611 62.6953 204.926 63.0996 204.018 63.0996ZM204.598 61.6816C205.506 61.6816 206.068 60.9668 206.068 59.7832V59.7715C206.068 58.5879 205.5 57.8613 204.598 57.8613C203.695 57.8613 203.139 58.5879 203.139 59.7656V59.7773C203.139 60.9668 203.695 61.6816 204.598 61.6816ZM213.123 63V57.8379H212.08V56.5488H213.123V55.9453C213.123 54.6621 213.779 54.0176 215.338 54.0176C215.684 54.0176 215.971 54.041 216.217 54.082V55.2246C216.111 55.207 215.93 55.1895 215.707 55.1895C215.045 55.1895 214.799 55.5 214.799 56.0625V56.5488H216.164V57.8379H214.834V63H213.123ZM220.166 63.1348C218.18 63.1348 216.984 61.875 216.984 59.7773V59.7656C216.984 57.6855 218.197 56.4082 220.166 56.4082C222.135 56.4082 223.348 57.6797 223.348 59.7656V59.7773C223.348 61.8809 222.152 63.1348 220.166 63.1348ZM220.166 61.793C221.074 61.793 221.596 61.0488 221.596 59.7773V59.7656C221.596 58.5059 221.068 57.75 220.166 57.75C219.258 57.75 218.736 58.5059 218.736 59.7656V59.7773C218.736 61.0488 219.252 61.793 220.166 61.793ZM224.742 63V56.5488H226.453V57.5508H226.559C226.764 56.8535 227.35 56.4434 228.188 56.4434C228.416 56.4434 228.656 56.4785 228.826 56.5254V58.0195C228.568 57.9609 228.305 57.9199 228.041 57.9199C227.068 57.9199 226.453 58.4766 226.453 59.3906V63H224.742ZM236.268 63.2168C234.457 63.2168 233.262 62.1387 233.162 60.7266L233.156 60.6445H234.762L234.773 60.6855C234.896 61.3066 235.477 61.8047 236.273 61.8047C237.182 61.8047 237.814 61.166 237.814 60.2578V60.2461C237.814 59.3438 237.176 58.7168 236.279 58.7168C235.852 58.7168 235.488 58.8398 235.207 59.0801C235.049 59.209 234.908 59.3672 234.814 59.5488H233.297L233.689 54.5449H238.975V55.9512H235.066L234.855 58.3594H234.961C235.301 57.791 235.957 57.4395 236.766 57.4395C238.342 57.4395 239.479 58.5996 239.479 60.2109V60.2227C239.479 62.0039 238.166 63.2168 236.268 63.2168ZM246.428 63.0996C244.816 63.0996 243.809 61.8398 243.809 59.7773V59.7656C243.809 57.6914 244.793 56.4434 246.428 56.4434C247.312 56.4434 248.033 56.877 248.355 57.5801H248.461V54.082H250.172V63H248.461V61.998H248.355C248.021 62.6953 247.336 63.0996 246.428 63.0996ZM247.008 61.6816C247.916 61.6816 248.479 60.9668 248.479 59.7832V59.7715C248.479 58.5879 247.91 57.8613 247.008 57.8613C246.105 57.8613 245.549 58.5879 245.549 59.7656V59.7773C245.549 60.9668 246.105 61.6816 247.008 61.6816ZM253.699 63.0996C252.469 63.0996 251.596 62.3379 251.596 61.166V61.1543C251.596 59.9941 252.492 59.3145 254.098 59.2207L255.656 59.127V58.5938C255.656 58.0371 255.275 57.7207 254.572 57.7207C253.957 57.7207 253.564 57.9375 253.43 58.3184L253.418 58.3418H251.836L251.842 58.2891C251.977 57.1582 253.043 56.4082 254.666 56.4082C256.377 56.4082 257.344 57.2168 257.344 58.5938V63H255.656V62.1445H255.551C255.223 62.7422 254.543 63.0996 253.699 63.0996ZM253.266 61.0605C253.266 61.5527 253.682 61.8516 254.273 61.8516C255.064 61.8516 255.656 61.3301 255.656 60.6504V60.1758L254.355 60.2578C253.623 60.3047 253.266 60.5801 253.266 61.0488V61.0605ZM259.611 65.2734C259.412 65.2734 259.195 65.2676 258.996 65.2559V63.9668C259.113 63.9785 259.283 63.9844 259.441 63.9844C260.051 63.9844 260.402 63.75 260.525 63.2461L260.584 63L258.316 56.5488H260.197L261.551 61.4355H261.668L263.021 56.5488H264.826L262.629 62.9941C262.055 64.6992 261.205 65.2734 259.611 65.2734ZM268.406 63.1348C266.654 63.1348 265.658 62.3496 265.535 61.2422L265.529 61.2188H267.211L267.223 61.2422C267.357 61.6406 267.75 61.9277 268.424 61.9277C269.08 61.9277 269.525 61.6465 269.525 61.2188V61.207C269.525 60.8613 269.268 60.6445 268.611 60.498L267.533 60.2695C266.303 60.0059 265.693 59.4023 265.693 58.4355V58.4297C265.693 57.2168 266.771 56.4082 268.383 56.4082C270.076 56.4082 271.014 57.252 271.084 58.2891V58.3125H269.496L269.49 58.2832C269.396 57.9375 269.016 57.6152 268.377 57.6152C267.785 57.6152 267.363 57.8906 267.363 58.3242V58.3301C267.363 58.6758 267.604 58.875 268.271 59.0215L269.344 59.25C270.633 59.5254 271.236 60.0645 271.236 61.0195V61.0254C271.236 62.3027 270.059 63.1348 268.406 63.1348ZM273.867 63.1465C273.27 63.1465 272.836 62.707 272.836 62.127C272.836 61.5469 273.27 61.1133 273.867 61.1133C274.471 61.1133 274.898 61.5469 274.898 62.127C274.898 62.707 274.471 63.1465 273.867 63.1465Z" fill="#858585"/>
<path d="M56.0117 129V121.717H55.918L53.7676 123.275V122.162L56.0176 120.545H57.0664V129H56.0117Z" fill="#ADADAD"/>
<path d="M56.8203 187.141C55.0742 187.141 53.9434 186.168 53.832 184.832L53.8262 184.762H54.8398L54.8457 184.82C54.9277 185.652 55.6953 186.227 56.8203 186.227C57.9277 186.227 58.6836 185.605 58.6836 184.709V184.697C58.6836 183.66 57.9395 183.08 56.7559 183.08H55.6953V182.189H56.709C57.7168 182.189 58.4199 181.568 58.4199 180.725V180.713C58.4199 179.828 57.8398 179.318 56.8086 179.318C55.8125 179.318 55.1035 179.846 55.0156 180.701L55.0098 180.76H53.9961L54.002 180.701C54.1367 179.324 55.2266 178.404 56.8086 178.404C58.4199 178.404 59.4805 179.301 59.4805 180.584V180.596C59.4805 181.639 58.7422 182.354 57.6875 182.576V182.6C58.918 182.705 59.7559 183.473 59.7559 184.674V184.686C59.7559 186.098 58.5137 187.141 56.8203 187.141Z" fill="#ADADAD"/>
<path d="M56.7207 246.199C55.1445 246.199 54.0195 245.186 53.8965 243.832L53.8906 243.768H54.9043L54.9102 243.814C55.0098 244.623 55.7422 245.268 56.7324 245.268C57.8574 245.268 58.6309 244.465 58.6309 243.322V243.311C58.6309 242.186 57.8457 241.383 56.75 241.383C56.1875 241.383 55.707 241.553 55.3438 241.898C55.1973 242.039 55.0625 242.203 54.957 242.402H54.043L54.4883 237.545H59.1934V238.488H55.3203L55.0332 241.348H55.127C55.502 240.779 56.1641 240.469 56.9316 240.469C58.5195 240.469 59.6621 241.658 59.6621 243.293V243.305C59.6621 245.01 58.4375 246.199 56.7207 246.199Z" fill="#ADADAD"/>
<path d="M114.805 187V185.248H110.686V184.287C111.828 182.371 113.123 180.309 114.307 178.545H115.836V184.305H117.037V185.248H115.836V187H114.805ZM111.764 184.311H114.811V179.523H114.74C113.791 180.941 112.684 182.688 111.764 184.24V184.311Z" fill="#ADADAD"/>
<path d="M110.943 128V127.273L113.803 124.18C114.881 123.014 115.197 122.574 115.197 121.836V121.824C115.197 120.934 114.594 120.266 113.598 120.266C112.584 120.266 111.91 120.928 111.91 121.924L111.904 121.936L110.896 121.93L110.885 121.924C110.891 120.424 112.051 119.346 113.668 119.346C115.145 119.346 116.275 120.348 116.275 121.713V121.725C116.275 122.691 115.859 123.395 114.33 124.971L112.408 126.957V127.051H116.416V128H110.943Z" fill="#ADADAD"/>
<path d="M56.5 91.0596C55.8067 91.8903 54.0653 93.896 52.646 95.2727C50.872 96.9936 47.9968 99.9013 47.1404 102.038C46.284 104.174 44.8769 108.328 47.5686 112.719C49.7219 116.232 53.686 116.24 55.3989 115.804H56.5V91.0596Z" fill="url(#paint0_linear_4049_3880)"/>
<path d="M56.5 91C57.1933 91.8308 58.9347 93.8365 60.354 95.2132C62.128 96.934 65.0032 99.8417 65.8596 101.978C66.716 104.114 68.1231 108.268 65.4314 112.659C63.2781 116.172 59.314 116.18 57.6011 115.745H56.5V91Z" fill="url(#paint1_linear_4049_3880)"/>
<path d="M113.5 84.0757C112.609 85.1391 110.37 87.7064 108.545 89.4685C106.264 91.6713 102.567 95.3931 101.466 98.1275C100.365 100.862 98.5561 106.179 102.017 111.8C104.785 116.296 109.882 116.306 112.084 115.749H113.5V84.0757Z" fill="url(#paint2_linear_4049_3880)"/>
<path d="M113.5 84C114.391 85.0634 116.63 87.6307 118.455 89.3929C120.736 91.5956 124.433 95.3174 125.534 98.0518C126.635 100.786 128.444 106.103 124.983 111.724C122.215 116.22 117.118 116.231 114.916 115.674H113.5V84Z" fill="url(#paint3_linear_4049_3880)"/>
<path d="M113.865 142.078C112.971 143.173 110.724 145.818 108.893 147.633C106.603 149.901 102.894 153.735 101.788 156.551C100.683 159.368 98.8678 164.844 102.341 170.633C105.119 175.264 110.234 175.275 112.445 174.701H113.865V142.078Z" fill="url(#paint4_linear_4049_3880)"/>
<path d="M113.865 142C114.76 143.095 117.007 145.74 118.838 147.555C121.127 149.823 124.837 153.657 125.942 156.473C127.048 159.289 128.863 164.766 125.39 170.555C122.611 175.186 117.496 175.197 115.286 174.623H113.865V142Z" fill="url(#paint5_linear_4049_3880)"/>
<path d="M104.072 153.29C103.366 151.944 101.478 151.871 100.667 153.156C99.196 155.49 97.6152 158.122 97.3676 159.111C96.9158 160.915 96.5393 168.508 98.4218 170.763C100.304 173.019 102.111 174.898 104.898 175.424C107.684 175.95 109.491 176.402 112.578 175.424C114.773 174.729 108.564 161.846 104.072 153.29Z" fill="url(#paint6_linear_4049_3880)"/>
<path d="M122.934 153.26C123.639 151.922 125.509 151.853 126.305 153.139C127.784 155.529 129.383 158.272 129.632 159.258C130.084 161.047 130.461 168.573 128.578 170.809C126.696 173.045 124.889 174.908 122.102 175.429C119.316 175.951 117.509 176.398 114.422 175.429C112.226 174.74 118.441 161.781 122.934 153.26Z" fill="url(#paint7_linear_4049_3880)"/>
<path d="M113.657 151.793C112.845 152.532 110.868 154.251 109.46 155.218C107.7 156.426 105.195 162.268 105.059 163.208C104.924 164.148 104.586 175.764 113.657 175.629C120.914 175.522 122.729 167.304 122.729 163.208C121.916 161.037 119.831 156.399 117.99 155.218C116.148 154.036 114.334 152.443 113.657 151.793Z" fill="url(#paint8_linear_4049_3880)"/>
<path d="M56.6609 196.085C55.7165 197.274 53.3444 200.146 51.4112 202.117C48.9946 204.581 45.0781 208.744 43.9114 211.802C42.7448 214.861 40.8282 220.808 44.4948 227.095C47.428 232.124 52.8278 232.135 55.161 231.512H56.6609V196.085Z" fill="url(#paint9_linear_4049_3880)"/>
<path d="M56.661 196C57.6054 197.189 59.9775 200.061 61.9107 202.032C64.3273 204.496 68.2438 208.659 69.4105 211.717C70.5771 214.776 72.4937 220.723 68.8271 227.01C65.8939 232.039 60.4941 232.05 58.1609 231.427H56.661V196Z" fill="url(#paint10_linear_4049_3880)"/>
<path d="M46.2902 208.073C45.5901 206.696 43.661 206.623 42.8556 207.941C41.2957 210.495 39.5949 213.413 39.3318 214.5C38.8586 216.453 38.4644 224.673 40.4357 227.115C42.4071 229.557 44.2996 231.591 47.2172 232.161C50.1348 232.731 52.0273 233.219 55.2603 232.161C57.5696 231.405 50.9989 217.336 46.2902 208.073Z" fill="url(#paint11_linear_4049_3880)"/>
<path d="M66.3588 208.004C67.0605 206.644 68.9579 206.575 69.7515 207.883C71.3416 210.505 73.0951 213.57 73.3639 214.659C73.8419 216.595 74.2403 224.744 72.2484 227.164C70.2565 229.585 68.3443 231.602 65.3963 232.166C62.4483 232.731 60.5361 233.215 57.2694 232.166C54.9319 231.416 61.5993 217.226 66.3588 208.004Z" fill="url(#paint12_linear_4049_3880)"/>
<path d="M71.232 214.399C72.3653 213.357 74.1794 213.941 74.4657 215.443C75.0072 218.283 75.5356 221.511 75.4153 222.559C75.1975 224.457 72.8322 231.921 70.2347 233.452C67.6373 234.983 65.2462 236.177 62.4103 235.727C59.5744 235.277 57.6956 235.091 55.1128 233.085C53.2744 231.657 63.8803 221.157 71.232 214.399Z" fill="url(#paint13_linear_4049_3880)"/>
<path d="M40.768 214.251C39.6347 213.21 37.8206 213.793 37.5343 215.295C36.9928 218.135 36.4644 221.363 36.5847 222.411C36.8025 224.309 39.1678 231.773 41.7653 233.304C44.3627 234.835 46.7538 236.029 49.5897 235.579C52.4256 235.129 54.3044 234.943 56.8872 232.937C58.7256 231.509 48.1197 221.009 40.768 214.251Z" fill="url(#paint14_linear_4049_3880)"/>
<path d="M56.0195 207.741C55.105 208.565 52.8796 210.483 51.2944 211.562C49.3128 212.91 46.493 219.429 46.3406 220.477C46.1881 221.526 45.8071 234.488 56.0195 234.338C64.1895 234.218 66.2319 225.048 66.2319 220.477C65.3174 218.055 62.9701 212.88 60.8971 211.562C58.8241 210.243 56.7816 208.465 56.0195 207.741Z" fill="url(#paint15_linear_4049_3880)"/>
<path d="M241.239 86.2231C238.754 89.3488 232.515 96.895 227.429 102.075C221.073 108.549 210.77 119.489 207.702 127.526C204.633 135.564 199.592 151.192 209.236 167.714C216.952 180.931 231.156 180.96 237.293 179.323H241.239V86.2231Z" fill="url(#paint16_linear_4049_3880)"/>
<path d="M241.238 86C243.723 89.1257 249.962 96.6719 255.048 101.852C261.404 108.326 271.707 119.266 274.775 127.303C277.844 135.341 282.885 150.969 273.241 167.49C265.525 180.707 251.321 180.737 245.184 179.1H241.238V86Z" fill="url(#paint17_linear_4049_3880)"/>
<path d="M211.363 112.669C210.653 111.298 208.73 111.234 207.913 112.545C203.339 119.881 196.523 131.036 195.655 134.616C194.411 139.749 193.374 161.351 198.559 167.768C203.745 174.184 208.723 179.531 216.397 181.028C224.072 182.525 229.05 183.809 237.554 181.028C244.067 178.899 223.726 136.546 211.363 112.669Z" fill="url(#paint18_linear_4049_3880)"/>
<path d="M269.328 112.599C270.041 111.246 271.937 111.185 272.748 112.482C277.37 119.876 284.295 131.475 285.174 135.034C286.432 140.122 287.48 161.537 282.24 167.897C277.001 174.258 271.971 179.558 264.216 181.043C256.462 182.527 251.432 183.799 242.839 181.043C236.254 178.93 256.838 136.309 269.328 112.599Z" fill="url(#paint19_linear_4049_3880)"/>
<path d="M283.728 130.561C284.87 129.53 286.68 130.118 286.988 131.615C288.662 139.775 290.969 152.327 290.571 155.795C289.998 160.783 283.776 180.398 276.943 184.421C270.111 188.444 263.821 191.581 256.362 190.399C248.902 189.216 243.96 188.727 237.166 183.456C231.97 179.424 264.566 147.869 283.728 130.561Z" fill="url(#paint20_linear_4049_3880)"/>
<path d="M195.272 130.172C194.13 129.14 192.32 129.728 192.012 131.225C190.338 139.386 188.031 151.938 188.429 155.405C189.002 160.393 195.224 180.008 202.057 184.031C208.889 188.055 215.179 191.192 222.638 190.009C230.098 188.826 235.04 188.338 241.834 183.066C247.03 179.034 214.434 147.479 195.272 130.172Z" fill="url(#paint21_linear_4049_3880)"/>
<path d="M239.551 116.854C237.146 119.019 231.292 124.06 227.122 126.895C221.91 130.439 214.492 147.568 214.091 150.324C213.691 153.081 212.688 187.142 239.551 186.749C261.042 186.434 266.414 162.335 266.414 150.324C264.009 143.958 257.834 130.36 252.381 126.895C246.929 123.43 241.556 118.757 239.551 116.854Z" fill="url(#paint22_linear_4049_3880)"/>
<path d="M56.8434 143.074C56.003 144.105 53.8921 146.593 52.1718 148.302C50.0215 150.437 46.5364 154.045 45.4983 156.695C44.4602 159.346 42.7547 164.5 46.0173 169.949C48.6274 174.308 53.4324 174.318 55.5086 173.778H56.8434V143.074Z" fill="url(#paint23_linear_4049_3880)"/>
<path d="M56.8434 143C57.6837 144.031 59.7946 146.52 61.5149 148.228C63.6652 150.363 67.1503 153.971 68.1884 156.622C69.2265 159.272 70.932 164.427 67.6694 169.875C65.0593 174.234 60.2543 174.244 58.1781 173.704H56.8434V143Z" fill="url(#paint24_linear_4049_3880)"/>
<path d="M47.74 153.809C47.0352 152.462 45.1437 152.387 44.3354 153.675C42.9852 155.826 41.5718 158.198 41.3454 159.104C40.9209 160.802 40.5673 167.949 42.3357 170.071C44.104 172.194 45.8017 173.963 48.4189 174.458C51.0361 174.953 52.7338 175.378 55.634 174.458C57.6806 173.809 51.9514 161.862 47.74 153.809Z" fill="url(#paint25_linear_4049_3880)"/>
<path d="M65.2664 153.779C65.9702 152.439 67.8423 152.369 68.636 153.658C69.9947 155.865 71.4266 158.338 71.6546 159.243C72.0791 160.926 72.4327 168.01 70.6643 170.114C68.896 172.218 67.1983 173.972 64.5811 174.463C61.9639 174.954 60.2662 175.374 57.366 174.463C55.3183 173.819 61.0544 161.8 65.2664 153.779Z" fill="url(#paint26_linear_4049_3880)"/>
<path d="M114.932 234.199C113.385 234.199 111.75 233.109 111.75 229.928V229.916C111.75 227.033 112.951 225.346 115.002 225.346C116.42 225.346 117.475 226.178 117.762 227.426L117.779 227.502H116.719L116.695 227.438C116.438 226.729 115.846 226.289 114.99 226.289C113.455 226.289 112.828 227.789 112.764 229.553C112.758 229.617 112.758 229.688 112.758 229.752H112.869C113.18 229.061 113.977 228.445 115.119 228.445C116.707 228.445 117.891 229.652 117.891 231.275V231.287C117.891 232.975 116.637 234.199 114.932 234.199ZM113.01 231.275C113.01 232.389 113.848 233.268 114.92 233.268C115.98 233.268 116.83 232.406 116.83 231.311V231.299C116.83 230.174 116.033 229.365 114.938 229.365C113.842 229.365 113.01 230.168 113.01 231.27V231.275Z" fill="#ADADAD"/>
<path d="M148.226 220V215.833L144.52 209.431H146.585L149.105 213.965H149.229L151.749 209.431H153.814L150.108 215.833V220H148.226ZM157.05 220.161C154.647 220.161 153.197 218.594 153.197 216.001V215.986C153.197 213.416 154.669 211.841 157.05 211.841C159.438 211.841 160.902 213.408 160.902 215.986V216.001C160.902 218.594 159.445 220.161 157.05 220.161ZM157.05 218.682C158.317 218.682 159.035 217.693 159.035 216.008V215.994C159.035 214.309 158.31 213.313 157.05 213.313C155.783 213.313 155.058 214.309 155.058 215.994V216.008C155.058 217.693 155.783 218.682 157.05 218.682ZM164.885 220.161C163.083 220.161 162.16 219.077 162.16 217.173V211.995H163.984V216.755C163.984 217.993 164.445 218.623 165.544 218.623C166.723 218.623 167.353 217.861 167.353 216.66V211.995H169.177V220H167.353V218.784H167.229C166.855 219.641 166.042 220.161 164.885 220.161ZM170.903 220V211.995H172.727V213.225H172.852C173.123 212.368 173.855 211.863 174.91 211.863C175.188 211.863 175.474 211.899 175.649 211.951V213.584C175.356 213.525 175.056 213.481 174.741 213.481C173.525 213.481 172.727 214.207 172.727 215.349V220H170.903ZM180.216 220V208.896H182.04V220H180.216ZM187.304 220.161C184.901 220.161 183.451 218.594 183.451 216.001V215.986C183.451 213.416 184.923 211.841 187.304 211.841C189.691 211.841 191.156 213.408 191.156 215.986V216.001C191.156 218.594 189.699 220.161 187.304 220.161ZM187.304 218.682C188.571 218.682 189.289 217.693 189.289 216.008V215.994C189.289 214.309 188.563 213.313 187.304 213.313C186.037 213.313 185.312 214.309 185.312 215.994V216.008C185.312 217.693 186.037 218.682 187.304 218.682ZM195.637 220.037C193.798 220.037 193.044 219.421 193.044 217.876V213.408H191.799V211.995H193.044V210.032H194.897V211.995H196.589V213.408H194.897V217.444C194.897 218.242 195.212 218.579 195.974 218.579C196.23 218.579 196.369 218.572 196.589 218.55V219.956C196.325 220.007 195.988 220.037 195.637 220.037ZM200.557 220.161C198.755 220.161 197.832 219.077 197.832 217.173V211.995H199.656V216.755C199.656 217.993 200.117 218.623 201.216 218.623C202.395 218.623 203.025 217.861 203.025 216.66V211.995H204.849V220H203.025V218.784H202.9C202.527 219.641 201.714 220.161 200.557 220.161ZM209.6 220.161C207.564 220.161 206.333 219.224 206.18 217.869V217.854H207.989L207.996 217.869C208.187 218.425 208.721 218.813 209.629 218.813C210.538 218.813 211.167 218.403 211.167 217.803V217.788C211.167 217.319 210.816 217.012 209.937 216.814L208.641 216.521C207.117 216.184 206.392 215.466 206.392 214.287V214.28C206.392 212.837 207.71 211.841 209.6 211.841C211.548 211.841 212.713 212.808 212.83 214.104V214.119H211.116L211.109 214.097C210.977 213.591 210.45 213.181 209.593 213.181C208.78 213.181 208.194 213.577 208.194 214.177V214.185C208.194 214.653 208.531 214.939 209.395 215.137L210.691 215.422C212.259 215.774 212.999 216.44 212.999 217.605V217.62C212.999 219.143 211.57 220.161 209.6 220.161ZM218.773 210.654C218.173 210.654 217.682 210.178 217.682 209.578C217.682 208.984 218.173 208.501 218.773 208.501C219.367 208.501 219.857 208.984 219.857 209.578C219.857 210.178 219.367 210.654 218.773 210.654ZM217.858 220V211.995H219.682V220H217.858ZM224.448 220.161C222.412 220.161 221.181 219.224 221.027 217.869V217.854H222.836L222.844 217.869C223.034 218.425 223.569 218.813 224.477 218.813C225.385 218.813 226.015 218.403 226.015 217.803V217.788C226.015 217.319 225.664 217.012 224.785 216.814L223.488 216.521C221.965 216.184 221.24 215.466 221.24 214.287V214.28C221.24 212.837 222.558 211.841 224.448 211.841C226.396 211.841 227.561 212.808 227.678 214.104V214.119H225.964L225.957 214.097C225.825 213.591 225.297 213.181 224.44 213.181C223.627 213.181 223.042 213.577 223.042 214.177V214.185C223.042 214.653 223.378 214.939 224.243 215.137L225.539 215.422C227.106 215.774 227.846 216.44 227.846 217.605V217.62C227.846 219.143 226.418 220.161 224.448 220.161ZM235.833 220.037C233.995 220.037 233.24 219.421 233.24 217.876V213.408H231.995V211.995H233.24V210.032H235.093V211.995H236.785V213.408H235.093V217.444C235.093 218.242 235.408 218.579 236.17 218.579C236.426 218.579 236.565 218.572 236.785 218.55V219.956C236.521 220.007 236.185 220.037 235.833 220.037ZM238.175 220V208.896H239.999V213.218H240.123C240.504 212.361 241.273 211.841 242.43 211.841C244.217 211.841 245.191 212.917 245.191 214.822V220H243.368V215.247C243.368 214.001 242.862 213.372 241.756 213.372C240.672 213.372 239.999 214.133 239.999 215.334V220H238.175ZM246.845 220V211.995H248.668V213.225H248.793C249.064 212.368 249.796 211.863 250.851 211.863C251.129 211.863 251.415 211.899 251.591 211.951V213.584C251.298 213.525 250.998 213.481 250.683 213.481C249.467 213.481 248.668 214.207 248.668 215.349V220H246.845ZM253.522 210.654C252.922 210.654 252.431 210.178 252.431 209.578C252.431 208.984 252.922 208.501 253.522 208.501C254.116 208.501 254.606 208.984 254.606 209.578C254.606 210.178 254.116 210.654 253.522 210.654ZM252.607 220V211.995H254.431V220H252.607ZM258.325 220L255.476 211.995H257.424L259.277 218.22H259.402L261.24 211.995H263.159L260.325 220H258.325ZM265.135 210.654C264.534 210.654 264.043 210.178 264.043 209.578C264.043 208.984 264.534 208.501 265.135 208.501C265.728 208.501 266.219 208.984 266.219 209.578C266.219 210.178 265.728 210.654 265.135 210.654ZM264.219 220V211.995H266.043V220H264.219ZM267.784 220V211.995H269.608V213.218H269.732C270.113 212.361 270.882 211.841 272.04 211.841C273.827 211.841 274.801 212.917 274.801 214.822V220H272.977V215.247C272.977 214.001 272.472 213.372 271.366 213.372C270.282 213.372 269.608 214.133 269.608 215.334V220H267.784ZM279.896 222.812C277.787 222.812 276.52 221.912 276.337 220.564L276.344 220.542H278.168L278.175 220.564C278.3 221.077 278.908 221.436 279.926 221.436C281.171 221.436 281.896 220.857 281.896 219.832V218.301H281.771C281.31 219.158 280.438 219.626 279.333 219.626C277.304 219.626 276.044 218.059 276.044 215.789V215.774C276.044 213.459 277.304 211.863 279.369 211.863C280.475 211.863 281.339 212.405 281.793 213.313H281.889V211.995H283.712V219.802C283.712 221.648 282.233 222.812 279.896 222.812ZM279.896 218.176C281.164 218.176 281.925 217.202 281.925 215.789V215.774C281.925 214.36 281.156 213.379 279.896 213.379C278.629 213.379 277.912 214.36 277.912 215.774V215.789C277.912 217.202 278.629 218.176 279.896 218.176ZM286.801 220.146C286.135 220.146 285.637 219.641 285.637 218.989C285.637 218.337 286.135 217.832 286.801 217.832C287.475 217.832 287.966 218.337 287.966 218.989C287.966 219.641 287.475 220.146 286.801 220.146Z" fill="#333333"/>
<path d="M148.582 245.199C146.244 245.199 144.75 243.477 144.75 240.775V240.764C144.75 238.098 146.268 236.346 148.582 236.346C150.457 236.346 151.775 237.4 152.109 239.006L152.121 239.064H151.055L151.037 239.006C150.691 237.916 149.842 237.318 148.582 237.318C146.906 237.318 145.828 238.666 145.828 240.764V240.775C145.828 242.902 146.889 244.227 148.588 244.227C150.1 244.227 151.119 243.26 151.119 241.83V241.625H148.746V240.699H152.174V241.73C152.174 243.816 150.744 245.199 148.582 245.199ZM153.914 245V238.684H154.934V239.621H155.027C155.268 238.959 155.859 238.572 156.715 238.572C156.908 238.572 157.125 238.596 157.225 238.613V239.604C157.014 239.568 156.82 239.545 156.598 239.545C155.625 239.545 154.934 240.16 154.934 241.086V245H153.914ZM160.904 245.111C159.105 245.111 157.992 243.869 157.992 241.848V241.836C157.992 239.809 159.105 238.572 160.904 238.572C162.703 238.572 163.816 239.809 163.816 241.836V241.848C163.816 243.869 162.703 245.111 160.904 245.111ZM160.904 244.209C162.1 244.209 162.773 243.336 162.773 241.848V241.836C162.773 240.342 162.1 239.475 160.904 239.475C159.709 239.475 159.035 240.342 159.035 241.836V241.848C159.035 243.336 159.709 244.209 160.904 244.209ZM166.383 245L164.613 238.684H165.633L166.875 243.734H166.969L168.381 238.684H169.348L170.76 243.734H170.854L172.096 238.684H173.109L171.34 245H170.314L168.902 240.113H168.809L167.402 245H166.383ZM176.701 245.047C175.4 245.047 174.855 244.566 174.855 243.359V239.527H173.859V238.684H174.855V237.049H175.91V238.684H177.293V239.527H175.91V243.102C175.91 243.846 176.168 244.145 176.824 244.145C177.006 244.145 177.105 244.139 177.293 244.121V244.988C177.094 245.023 176.9 245.047 176.701 245.047ZM178.875 245V236.176H179.895V239.633H179.988C180.305 238.965 180.896 238.572 181.828 238.572C183.246 238.572 184.037 239.41 184.037 240.91V245H183.018V241.156C183.018 240.02 182.549 239.475 181.541 239.475C180.533 239.475 179.895 240.154 179.895 241.262V245H178.875ZM191.842 245.111C190.072 245.111 188.941 243.828 188.941 241.824V241.812C188.941 239.85 190.066 238.572 191.836 238.572C193.371 238.572 194.291 239.457 194.479 240.582L194.484 240.617H193.471L193.465 240.6C193.307 239.979 192.744 239.475 191.836 239.475C190.699 239.475 189.984 240.389 189.984 241.812V241.824C189.984 243.277 190.711 244.209 191.836 244.209C192.686 244.209 193.225 243.834 193.459 243.131L193.471 243.096L194.479 243.09L194.467 243.154C194.209 244.297 193.359 245.111 191.842 245.111ZM198.568 245.111C196.77 245.111 195.656 243.869 195.656 241.848V241.836C195.656 239.809 196.77 238.572 198.568 238.572C200.367 238.572 201.48 239.809 201.48 241.836V241.848C201.48 243.869 200.367 245.111 198.568 245.111ZM198.568 244.209C199.764 244.209 200.438 243.336 200.438 241.848V241.836C200.438 240.342 199.764 239.475 198.568 239.475C197.373 239.475 196.699 240.342 196.699 241.836V241.848C196.699 243.336 197.373 244.209 198.568 244.209ZM203.062 245V238.684H204.082V239.645H204.176C204.457 238.965 205.055 238.572 205.881 238.572C206.736 238.572 207.334 239.023 207.627 239.68H207.721C208.061 239.012 208.781 238.572 209.654 238.572C210.943 238.572 211.664 239.311 211.664 240.635V245H210.645V240.869C210.645 239.938 210.217 239.475 209.326 239.475C208.447 239.475 207.867 240.137 207.867 240.939V245H206.848V240.711C206.848 239.961 206.332 239.475 205.535 239.475C204.709 239.475 204.082 240.195 204.082 241.086V245H203.062ZM216.082 245.111C214.277 245.111 213.188 243.846 213.188 241.865V241.859C213.188 239.908 214.301 238.572 216.018 238.572C217.734 238.572 218.777 239.85 218.777 241.736V242.135H214.23C214.26 243.441 214.98 244.203 216.105 244.203C216.961 244.203 217.488 243.799 217.658 243.418L217.682 243.365H218.701L218.689 243.412C218.473 244.268 217.57 245.111 216.082 245.111ZM216.012 239.48C215.074 239.48 214.359 240.119 214.248 241.32H217.74C217.635 240.072 216.943 239.48 216.012 239.48ZM222.527 245.111C221.121 245.111 220.154 244.432 220.037 243.389H221.08C221.25 243.916 221.754 244.262 222.562 244.262C223.412 244.262 224.016 243.857 224.016 243.283V243.271C224.016 242.844 223.693 242.545 222.914 242.357L221.936 242.123C220.752 241.842 220.219 241.326 220.219 240.418V240.412C220.219 239.363 221.227 238.572 222.568 238.572C223.893 238.572 224.812 239.234 224.953 240.266H223.951C223.816 239.768 223.324 239.422 222.562 239.422C221.812 239.422 221.262 239.809 221.262 240.365V240.377C221.262 240.805 221.578 241.074 222.322 241.256L223.295 241.49C224.484 241.777 225.059 242.293 225.059 243.195V243.207C225.059 244.332 223.963 245.111 222.527 245.111ZM231.234 245L229.465 238.684H230.484L231.727 243.734H231.82L233.232 238.684H234.199L235.611 243.734H235.705L236.947 238.684H237.961L236.191 245H235.166L233.754 240.113H233.66L232.254 245H231.234ZM239.848 237.465C239.461 237.465 239.145 237.148 239.145 236.762C239.145 236.375 239.461 236.059 239.848 236.059C240.234 236.059 240.551 236.375 240.551 236.762C240.551 237.148 240.234 237.465 239.848 237.465ZM239.332 245V238.684H240.352V245H239.332ZM244.518 245.047C243.217 245.047 242.672 244.566 242.672 243.359V239.527H241.676V238.684H242.672V237.049H243.727V238.684H245.109V239.527H243.727V243.102C243.727 243.846 243.984 244.145 244.641 244.145C244.822 244.145 244.922 244.139 245.109 244.121V244.988C244.91 245.023 244.717 245.047 244.518 245.047ZM246.691 245V236.176H247.711V239.633H247.805C248.121 238.965 248.713 238.572 249.645 238.572C251.062 238.572 251.854 239.41 251.854 240.91V245H250.834V241.156C250.834 240.02 250.365 239.475 249.357 239.475C248.35 239.475 247.711 240.154 247.711 241.262V245H246.691ZM259.658 245.111C257.889 245.111 256.758 243.828 256.758 241.824V241.812C256.758 239.85 257.883 238.572 259.652 238.572C261.188 238.572 262.107 239.457 262.295 240.582L262.301 240.617H261.287L261.281 240.6C261.123 239.979 260.561 239.475 259.652 239.475C258.516 239.475 257.801 240.389 257.801 241.812V241.824C257.801 243.277 258.527 244.209 259.652 244.209C260.502 244.209 261.041 243.834 261.275 243.131L261.287 243.096L262.295 243.09L262.283 243.154C262.025 244.297 261.176 245.111 259.658 245.111ZM266.385 245.111C264.586 245.111 263.473 243.869 263.473 241.848V241.836C263.473 239.809 264.586 238.572 266.385 238.572C268.184 238.572 269.297 239.809 269.297 241.836V241.848C269.297 243.869 268.184 245.111 266.385 245.111ZM266.385 244.209C267.58 244.209 268.254 243.336 268.254 241.848V241.836C268.254 240.342 267.58 239.475 266.385 239.475C265.189 239.475 264.516 240.342 264.516 241.836V241.848C264.516 243.336 265.189 244.209 266.385 244.209ZM270.879 245V238.684H271.898V239.633H271.992C272.309 238.965 272.9 238.572 273.832 238.572C275.25 238.572 276.041 239.41 276.041 240.91V245H275.021V241.156C275.021 240.02 274.553 239.475 273.545 239.475C272.537 239.475 271.898 240.154 271.898 241.262V245H270.879ZM280.055 245.111C278.648 245.111 277.682 244.432 277.564 243.389H278.607C278.777 243.916 279.281 244.262 280.09 244.262C280.939 244.262 281.543 243.857 281.543 243.283V243.271C281.543 242.844 281.221 242.545 280.441 242.357L279.463 242.123C278.279 241.842 277.746 241.326 277.746 240.418V240.412C277.746 239.363 278.754 238.572 280.096 238.572C281.42 238.572 282.34 239.234 282.48 240.266H281.479C281.344 239.768 280.852 239.422 280.09 239.422C279.34 239.422 278.789 239.809 278.789 240.365V240.377C278.789 240.805 279.105 241.074 279.85 241.256L280.822 241.49C282.012 241.777 282.586 242.293 282.586 243.195V243.207C282.586 244.332 281.49 245.111 280.055 245.111ZM284.707 237.465C284.32 237.465 284.004 237.148 284.004 236.762C284.004 236.375 284.32 236.059 284.707 236.059C285.094 236.059 285.41 236.375 285.41 236.762C285.41 237.148 285.094 237.465 284.707 237.465ZM284.191 245V238.684H285.211V245H284.191ZM289.301 245.111C287.895 245.111 286.928 244.432 286.811 243.389H287.854C288.023 243.916 288.527 244.262 289.336 244.262C290.186 244.262 290.789 243.857 290.789 243.283V243.271C290.789 242.844 290.467 242.545 289.688 242.357L288.709 242.123C287.525 241.842 286.992 241.326 286.992 240.418V240.412C286.992 239.363 288 238.572 289.342 238.572C290.666 238.572 291.586 239.234 291.727 240.266H290.725C290.59 239.768 290.098 239.422 289.336 239.422C288.586 239.422 288.035 239.809 288.035 240.365V240.377C288.035 240.805 288.352 241.074 289.096 241.256L290.068 241.49C291.258 241.777 291.832 242.293 291.832 243.195V243.207C291.832 244.332 290.736 245.111 289.301 245.111ZM295.6 245.047C294.299 245.047 293.754 244.566 293.754 243.359V239.527H292.758V238.684H293.754V237.049H294.809V238.684H296.191V239.527H294.809V243.102C294.809 243.846 295.066 244.145 295.723 244.145C295.904 244.145 296.004 244.139 296.191 244.121V244.988C295.992 245.023 295.799 245.047 295.6 245.047ZM300.199 245.111C298.395 245.111 297.305 243.846 297.305 241.865V241.859C297.305 239.908 298.418 238.572 300.135 238.572C301.852 238.572 302.895 239.85 302.895 241.736V242.135H298.348C298.377 243.441 299.098 244.203 300.223 244.203C301.078 244.203 301.605 243.799 301.775 243.418L301.799 243.365H302.818L302.807 243.412C302.59 244.268 301.688 245.111 300.199 245.111ZM300.129 239.48C299.191 239.48 298.477 240.119 298.365 241.32H301.857C301.752 240.072 301.061 239.48 300.129 239.48ZM304.477 245V238.684H305.496V239.633H305.59C305.906 238.965 306.498 238.572 307.43 238.572C308.848 238.572 309.639 239.41 309.639 240.91V245H308.619V241.156C308.619 240.02 308.15 239.475 307.143 239.475C306.135 239.475 305.496 240.154 305.496 241.262V245H304.477ZM314.068 245.111C312.299 245.111 311.168 243.828 311.168 241.824V241.812C311.168 239.85 312.293 238.572 314.062 238.572C315.598 238.572 316.518 239.457 316.705 240.582L316.711 240.617H315.697L315.691 240.6C315.533 239.979 314.971 239.475 314.062 239.475C312.926 239.475 312.211 240.389 312.211 241.812V241.824C312.211 243.277 312.938 244.209 314.062 244.209C314.912 244.209 315.451 243.834 315.686 243.131L315.697 243.096L316.705 243.09L316.693 243.154C316.436 244.297 315.586 245.111 314.068 245.111ZM318.738 247.215C318.604 247.215 318.428 247.203 318.287 247.18V246.342C318.41 246.365 318.568 246.371 318.709 246.371C319.289 246.371 319.641 246.107 319.869 245.381L319.986 245.006L317.648 238.684H318.738L320.473 243.881H320.566L322.295 238.684H323.367L320.9 245.387C320.379 246.805 319.857 247.215 318.738 247.215ZM324.668 245.059C324.252 245.059 323.906 244.713 323.906 244.297C323.906 243.875 324.252 243.535 324.668 243.535C325.09 243.535 325.43 243.875 325.43 244.297C325.43 244.713 325.09 245.059 324.668 245.059Z" fill="#ADADAD"/>
</g>
<defs>
<filter id="filter0_d_4049_3880" x="0" y="0" width="359" height="279" filterUnits="userSpaceOnUse" color-interpolation-filters="sRGB">
<feFlood flood-opacity="0" result="BackgroundImageFix"/>
<feColorMatrix in="SourceAlpha" type="matrix" values="0 0 0 0 0 0 0 0 0 0 0 0 0 0 0 0 0 0 127 0" result="hardAlpha"/>
<feOffset dy="2"/>
<feGaussianBlur stdDeviation="6"/>
<feColorMatrix type="matrix" values="0 0 0 0 0.2 0 0 0 0 0.2 0 0 0 0 0.2 0 0 0 0.08 0"/>
<feBlend mode="normal" in2="BackgroundImageFix" result="effect1_dropShadow_4049_3880"/>
<feBlend mode="normal" in="SourceGraphic" in2="effect1_dropShadow_4049_3880" result="shape"/>
</filter>
<linearGradient id="paint0_linear_4049_3880" x1="51.25" y1="91.0596" x2="51.25" y2="116" gradientUnits="userSpaceOnUse">
<stop stop-color="#E5DED0"/>
<stop offset="1" stop-color="#83BB9E"/>
</linearGradient>
<linearGradient id="paint1_linear_4049_3880" x1="61.75" y1="91" x2="61.75" y2="115.941" gradientUnits="userSpaceOnUse">
<stop stop-color="#E5DED0"/>
<stop offset="1" stop-color="#83BB9E"/>
</linearGradient>
<linearGradient id="paint2_linear_4049_3880" x1="106.75" y1="84.0757" x2="106.75" y2="116" gradientUnits="userSpaceOnUse">
<stop stop-color="#E5DED0"/>
<stop offset="1" stop-color="#83BB9E"/>
</linearGradient>
<linearGradient id="paint3_linear_4049_3880" x1="120.25" y1="84" x2="120.25" y2="115.924" gradientUnits="userSpaceOnUse">
<stop stop-color="#E5DED0"/>
<stop offset="1" stop-color="#83BB9E"/>
</linearGradient>
<linearGradient id="paint4_linear_4049_3880" x1="107.091" y1="142.078" x2="106.377" y2="185.943" gradientUnits="userSpaceOnUse">
<stop stop-color="#F5EEE2"/>
<stop offset="0.385" stop-color="#F7B7B5"/>
<stop offset="0.715" stop-color="#C69191"/>
</linearGradient>
<linearGradient id="paint5_linear_4049_3880" x1="120.64" y1="142" x2="121.354" y2="185.865" gradientUnits="userSpaceOnUse">
<stop stop-color="#F5EEE2"/>
<stop offset="0.385" stop-color="#F7B7B5"/>
<stop offset="0.715" stop-color="#C69191"/>
</linearGradient>
<linearGradient id="paint6_linear_4049_3880" x1="105.017" y1="150.315" x2="105.017" y2="176" gradientUnits="userSpaceOnUse">
<stop offset="0.045" stop-color="#F5EEE2"/>
<stop offset="0.675" stop-color="#83BB9E"/>
<stop offset="1" stop-color="#4F706C"/>
</linearGradient>
<linearGradient id="paint7_linear_4049_3880" x1="121.983" y1="150.315" x2="121.983" y2="176" gradientUnits="userSpaceOnUse">
<stop offset="0.045" stop-color="#F5EEE2"/>
<stop offset="0.675" stop-color="#83BB9E"/>
<stop offset="1" stop-color="#4F706C"/>
</linearGradient>
<linearGradient id="paint8_linear_4049_3880" x1="113.873" y1="151.793" x2="113.873" y2="175.63" gradientUnits="userSpaceOnUse">
<stop stop-color="white"/>
<stop offset="0.275" stop-color="#F5EEE2"/>
<stop offset="0.57" stop-color="#E5DED0"/>
<stop offset="0.95" stop-color="#CEB7B7"/>
</linearGradient>
<linearGradient id="paint9_linear_4049_3880" x1="49.5095" y1="196.085" x2="48.7114" y2="243.72" gradientUnits="userSpaceOnUse">
<stop stop-color="#F5EEE2"/>
<stop offset="0.285" stop-color="#F7B7B5"/>
<stop offset="0.55" stop-color="#C69191"/>
</linearGradient>
<linearGradient id="paint10_linear_4049_3880" x1="63.8124" y1="196" x2="64.6105" y2="243.635" gradientUnits="userSpaceOnUse">
<stop stop-color="#F5EEE2"/>
<stop offset="0.285" stop-color="#F7B7B5"/>
<stop offset="0.55" stop-color="#C69191"/>
</linearGradient>
<linearGradient id="paint11_linear_4049_3880" x1="47.3422" y1="204.977" x2="46.9298" y2="242.079" gradientUnits="userSpaceOnUse">
<stop stop-color="#F5EEE2"/>
<stop offset="0.385" stop-color="#F7B7B5"/>
<stop offset="0.715" stop-color="#C69191"/>
</linearGradient>
<linearGradient id="paint12_linear_4049_3880" x1="65.27" y1="204.977" x2="65.6781" y2="242.079" gradientUnits="userSpaceOnUse">
<stop stop-color="#F5EEE2"/>
<stop offset="0.385" stop-color="#F7B7B5"/>
<stop offset="0.715" stop-color="#C69191"/>
</linearGradient>
<linearGradient id="paint13_linear_4049_3880" x1="71.3828" y1="211.213" x2="62.2945" y2="236.316" gradientUnits="userSpaceOnUse">
<stop stop-color="#F5EEE2"/>
<stop offset="0.485" stop-color="#83BB9E"/>
<stop offset="1" stop-color="#4F706C"/>
</linearGradient>
<linearGradient id="paint14_linear_4049_3880" x1="40.6172" y1="211.065" x2="49.7055" y2="236.168" gradientUnits="userSpaceOnUse">
<stop stop-color="#F5EEE2"/>
<stop offset="0.485" stop-color="#83BB9E"/>
<stop offset="1" stop-color="#4F706C"/>
</linearGradient>
<linearGradient id="paint15_linear_4049_3880" x1="56.2624" y1="207.741" x2="56.2624" y2="234.339" gradientUnits="userSpaceOnUse">
<stop offset="0.0099" stop-color="white"/>
<stop offset="0.01" stop-color="#F5EEE2"/>
<stop offset="0.242758" stop-color="#F5EEE2"/>
<stop offset="0.565" stop-color="#E5DED0"/>
<stop offset="0.95" stop-color="#CEB7B7"/>
</linearGradient>
<linearGradient id="paint16_linear_4049_3880" x1="222.427" y1="86.2231" x2="220.332" y2="211.404" gradientUnits="userSpaceOnUse">
<stop stop-color="#F5EEE2"/>
<stop offset="0.285" stop-color="#F7B7B5"/>
<stop offset="0.55" stop-color="#C69191"/>
</linearGradient>
<linearGradient id="paint17_linear_4049_3880" x1="260.05" y1="86" x2="262.145" y2="211.181" gradientUnits="userSpaceOnUse">
<stop stop-color="#F5EEE2"/>
<stop offset="0.285" stop-color="#F7B7B5"/>
<stop offset="0.55" stop-color="#C69191"/>
</linearGradient>
<linearGradient id="paint18_linear_4049_3880" x1="216.726" y1="109.591" x2="215.644" y2="207.092" gradientUnits="userSpaceOnUse">
<stop stop-color="#F5EEE2"/>
<stop offset="0.385" stop-color="#F7B7B5"/>
<stop offset="0.715" stop-color="#C69191"/>
</linearGradient>
<linearGradient id="paint19_linear_4049_3880" x1="263.884" y1="109.591" x2="264.955" y2="207.093" gradientUnits="userSpaceOnUse">
<stop stop-color="#F5EEE2"/>
<stop offset="0.385" stop-color="#F7B7B5"/>
<stop offset="0.715" stop-color="#C69191"/>
</linearGradient>
<linearGradient id="paint20_linear_4049_3880" x1="279.964" y1="125.98" x2="256.098" y2="191.962" gradientUnits="userSpaceOnUse">
<stop stop-color="#F5EEE2"/>
<stop offset="0.485" stop-color="#83BB9E"/>
<stop offset="1" stop-color="#4F706C"/>
</linearGradient>
<linearGradient id="paint21_linear_4049_3880" x1="199.036" y1="125.59" x2="222.902" y2="191.572" gradientUnits="userSpaceOnUse">
<stop stop-color="#F5EEE2"/>
<stop offset="0.485" stop-color="#83BB9E"/>
<stop offset="1" stop-color="#4F706C"/>
</linearGradient>
<linearGradient id="paint22_linear_4049_3880" x1="240.19" y1="116.854" x2="240.19" y2="186.752" gradientUnits="userSpaceOnUse">
<stop offset="0.0099" stop-color="white"/>
<stop offset="0.01" stop-color="#F5EEE2"/>
<stop offset="0.242758" stop-color="#F5EEE2"/>
<stop offset="0.565" stop-color="#E5DED0"/>
<stop offset="0.95" stop-color="#CEB7B7"/>
</linearGradient>
<linearGradient id="paint23_linear_4049_3880" x1="50.4797" y1="143.074" x2="49.806" y2="184.359" gradientUnits="userSpaceOnUse">
<stop stop-color="#F5EEE2"/>
<stop offset="0.385" stop-color="#F7B7B5"/>
<stop offset="0.715" stop-color="#C69191"/>
</linearGradient>
<linearGradient id="paint24_linear_4049_3880" x1="63.207" y1="143" x2="63.8807" y2="184.285" gradientUnits="userSpaceOnUse">
<stop stop-color="#F5EEE2"/>
<stop offset="0.385" stop-color="#F7B7B5"/>
<stop offset="0.715" stop-color="#C69191"/>
</linearGradient>
<linearGradient id="paint25_linear_4049_3880" x1="48.5311" y1="150.826" x2="48.5311" y2="175" gradientUnits="userSpaceOnUse">
<stop stop-color="#F5EEE2"/>
<stop offset="1" stop-color="#83BB9E"/>
</linearGradient>
<linearGradient id="paint26_linear_4049_3880" x1="64.4689" y1="150.826" x2="64.4689" y2="175" gradientUnits="userSpaceOnUse">
<stop stop-color="#F5EEE2"/>
<stop offset="1" stop-color="#83BB9E"/>
</linearGradient>
</defs>
</svg>
