<svg width="359" height="279" viewBox="0 0 359 279" fill="none" xmlns="http://www.w3.org/2000/svg">
<g filter="url(#filter0_d_4049_3799)">
<rect x="12" y="10" width="335" height="255" rx="10" fill="white"/>
<path d="M37.3037 38V27.4312H39.4717L42.6504 35.561H42.7749L45.9463 27.4312H48.1143V38H46.415V30.4854H46.2832L43.3535 38H42.0645L39.1348 30.4854H39.0103V38H37.3037ZM53.4883 38.1611C51.0859 38.1611 49.6357 36.5938 49.6357 34.001V33.9863C49.6357 31.4155 51.1079 29.8408 53.4883 29.8408C55.876 29.8408 57.3408 31.4082 57.3408 33.9863V34.001C57.3408 36.5938 55.8833 38.1611 53.4883 38.1611ZM53.4883 36.6816C54.7554 36.6816 55.4731 35.6929 55.4731 34.0083V33.9937C55.4731 32.3091 54.748 31.313 53.4883 31.313C52.2212 31.313 51.4961 32.3091 51.4961 33.9937V34.0083C51.4961 35.6929 52.2212 36.6816 53.4883 36.6816ZM58.6719 38V29.9946H60.4956V31.2178H60.6201C61.001 30.3608 61.77 29.8408 62.9272 29.8408C64.7144 29.8408 65.6885 30.9175 65.6885 32.8218V38H63.8647V33.2466C63.8647 32.0015 63.3594 31.3716 62.2534 31.3716C61.1694 31.3716 60.4956 32.1333 60.4956 33.3345V38H58.6719ZM70.2275 38.1318C68.2207 38.1318 66.9463 36.5425 66.9463 34.0083V33.9937C66.9463 31.4448 68.1987 29.8628 70.2275 29.8628C71.3262 29.8628 72.2417 30.4048 72.6592 31.269H72.7837V26.8965H74.6147V38H72.7837V36.7476H72.6592C72.2197 37.6191 71.3555 38.1318 70.2275 38.1318ZM70.7988 36.5938C72.0439 36.5938 72.813 35.6123 72.813 34.0083V33.9937C72.813 32.3896 72.0366 31.4009 70.7988 31.4009C69.561 31.4009 68.7993 32.3823 68.7993 33.9937V34.0083C68.7993 35.6196 69.5537 36.5938 70.7988 36.5938ZM78.5898 38.1318C77.0664 38.1318 75.9604 37.1943 75.9604 35.7368V35.7222C75.9604 34.2939 77.0518 33.459 79 33.3418L81.0581 33.2173V32.5288C81.0581 31.7305 80.5381 31.291 79.5566 31.291C78.7217 31.291 78.1797 31.5913 77.9966 32.1187L77.9893 32.1479H76.2681L76.2754 32.082C76.4512 30.7344 77.7402 29.8408 79.6445 29.8408C81.7026 29.8408 82.8599 30.8369 82.8599 32.5288V38H81.0581V36.9014H80.9336C80.4941 37.6777 79.6445 38.1318 78.5898 38.1318ZM77.7622 35.6489C77.7622 36.3301 78.3408 36.7329 79.1465 36.7329C80.2451 36.7329 81.0581 36.0151 81.0581 35.063V34.4185L79.2563 34.5356C78.2383 34.6016 77.7622 34.9751 77.7622 35.6343V35.6489ZM85.1577 40.8125C84.938 40.8125 84.6816 40.8052 84.4619 40.7832V39.3843C84.6084 39.3989 84.8135 39.4062 85.0039 39.4062C85.751 39.4062 86.1978 39.0986 86.3955 38.3735L86.4907 38.0073L83.627 29.9946H85.6191L87.4868 36.2495H87.626L89.4863 29.9946H91.4053L88.5342 38.1685C87.8457 40.1753 86.9302 40.8125 85.1577 40.8125ZM91.1763 40.7905L91.8135 36.3887H93.6958L92.4214 40.7905H91.1763ZM99.5439 38V27.4312H103.506C106.648 27.4312 108.479 29.3501 108.479 32.6606V32.6753C108.479 36.0591 106.67 38 103.506 38H99.5439ZM101.434 36.4106H103.257C105.359 36.4106 106.553 35.0776 106.553 32.7046V32.6899C106.553 30.3682 105.33 29.0205 103.257 29.0205H101.434V36.4106ZM113.385 38.1611C111.004 38.1611 109.562 36.5645 109.562 34.0156V34.0083C109.562 31.4888 111.019 29.8408 113.297 29.8408C115.575 29.8408 116.981 31.4375 116.981 33.8545V34.4551H111.385C111.407 35.8906 112.184 36.7256 113.421 36.7256C114.41 36.7256 114.974 36.2275 115.15 35.8613L115.172 35.8101H116.908L116.886 35.876C116.629 36.9087 115.56 38.1611 113.385 38.1611ZM113.319 31.269C112.301 31.269 111.539 31.9575 111.4 33.2319H115.201C115.077 31.9209 114.337 31.269 113.319 31.269ZM121.74 38.1611C119.33 38.1611 117.909 36.6011 117.909 33.9863V33.9717C117.909 31.3862 119.323 29.8408 121.732 29.8408C123.791 29.8408 125.021 30.9834 125.226 32.6387V32.668H123.505L123.498 32.646C123.329 31.8696 122.736 31.313 121.74 31.313C120.495 31.313 119.762 32.2944 119.762 33.9717V33.9863C119.762 35.6855 120.502 36.6816 121.74 36.6816C122.685 36.6816 123.263 36.2495 123.49 35.4072L123.505 35.3779L125.226 35.3706L125.211 35.4292C124.948 37.0698 123.769 38.1611 121.74 38.1611ZM129.954 38V36.7256L133.425 33.1807C134.861 31.7305 135.264 31.1958 135.264 30.3828V30.3608C135.264 29.3867 134.597 28.6836 133.499 28.6836C132.378 28.6836 131.624 29.4233 131.624 30.5146L131.616 30.5439L129.858 30.5366L129.851 30.5146C129.851 28.5444 131.389 27.1675 133.594 27.1675C135.652 27.1675 137.131 28.4199 137.131 30.1997V30.2217C137.131 31.4229 136.553 32.375 134.626 34.228L132.51 36.2788V36.4326H137.292V38H129.954ZM142.71 38.2124C140.396 38.2124 138.88 36.9526 138.741 35.1436L138.733 35.0557H140.535L140.542 35.1362C140.645 36.0298 141.473 36.667 142.71 36.667C143.934 36.667 144.747 35.9858 144.747 35.0044V34.9897C144.747 33.8765 143.926 33.2612 142.571 33.2612H141.326V31.855H142.535C143.699 31.855 144.476 31.1958 144.476 30.2729V30.2583C144.476 29.2915 143.824 28.7202 142.696 28.7202C141.583 28.7202 140.813 29.3135 140.718 30.2583L140.711 30.3315H138.953L138.96 30.251C139.122 28.4199 140.564 27.2188 142.696 27.2188C144.871 27.2188 146.285 28.354 146.285 30.0093V30.0239C146.285 31.335 145.34 32.2065 144.073 32.4702V32.5068C145.625 32.6533 146.658 33.5762 146.658 35.041V35.0557C146.658 36.916 145.054 38.2124 142.71 38.2124Z" fill="#333333"/>
<path d="M37.0254 63V54.5449H38.7949V58.3418H38.9004L42.0234 54.5449H43.9922L40.9102 58.248L44.209 63H42.0879L39.6328 59.4082L38.7949 60.416V63H37.0254ZM47.707 63.1348C45.7441 63.1348 44.5547 61.8516 44.5547 59.7832V59.7773C44.5547 57.7266 45.7559 56.4082 47.6367 56.4082C49.5176 56.4082 50.6895 57.6973 50.6895 59.6484V60.1816H46.248C46.2656 61.2422 46.834 61.8574 47.7422 61.8574C48.4922 61.8574 48.9082 61.459 49.0254 61.2129L49.043 61.1777H50.6367L50.625 61.2363C50.4258 62.0449 49.5938 63.1348 47.707 63.1348ZM47.666 57.6914C46.9219 57.6914 46.3711 58.1953 46.2656 59.1094H49.0488C48.9434 58.1719 48.4102 57.6914 47.666 57.6914ZM54.9258 63.1348C52.9629 63.1348 51.7734 61.8516 51.7734 59.7832V59.7773C51.7734 57.7266 52.9746 56.4082 54.8555 56.4082C56.7363 56.4082 57.9082 57.6973 57.9082 59.6484V60.1816H53.4668C53.4844 61.2422 54.0527 61.8574 54.9609 61.8574C55.7109 61.8574 56.127 61.459 56.2441 61.2129L56.2617 61.1777H57.8555L57.8438 61.2363C57.6445 62.0449 56.8125 63.1348 54.9258 63.1348ZM54.8848 57.6914C54.1406 57.6914 53.5898 58.1953 53.4844 59.1094H56.2676C56.1621 58.1719 55.6289 57.6914 54.8848 57.6914ZM59.3086 65.1387V56.5488H61.0195V57.5449H61.125C61.459 56.8535 62.1445 56.4434 63.0586 56.4434C64.6699 56.4434 65.6777 57.709 65.6777 59.7656V59.7773C65.6777 61.8516 64.6934 63.0996 63.0586 63.0996C62.1738 63.0996 61.4531 62.6719 61.125 61.9688H61.0195V65.1387H59.3086ZM62.4727 61.6816C63.375 61.6816 63.9375 60.9609 63.9375 59.7773V59.7656C63.9375 58.582 63.3809 57.8613 62.4727 57.8613C61.5703 57.8613 61.002 58.582 61.002 59.7656V59.7773C61.002 60.9609 61.5762 61.6816 62.4727 61.6816ZM71.0449 55.5586C70.5176 55.5586 70.0781 55.1367 70.0781 54.6094C70.0781 54.0762 70.5176 53.6543 71.0449 53.6543C71.5723 53.6543 72.0059 54.0762 72.0059 54.6094C72.0059 55.1367 71.5723 55.5586 71.0449 55.5586ZM70.1836 63V56.5488H71.8945V63H70.1836ZM76.2949 63.0234C74.7246 63.0234 74.0918 62.5137 74.0918 61.2598V57.8379H73.0957V56.5488H74.0918V55.0078H75.8203V56.5488H77.1504V57.8379H75.8203V60.8672C75.8203 61.4473 76.0664 61.7051 76.6465 61.7051C76.8691 61.7051 76.9863 61.6934 77.1504 61.6758V62.9473C76.9395 62.9883 76.623 63.0234 76.2949 63.0234ZM83.8008 63.1348C82.3535 63.1348 81.6094 62.2559 81.6094 60.7207V56.5488H83.3203V60.3281C83.3203 61.2422 83.666 61.7168 84.4746 61.7168C85.3184 61.7168 85.7754 61.1484 85.7754 60.2754V56.5488H87.4863V63H85.7754V62.0039H85.6699C85.377 62.707 84.7207 63.1348 83.8008 63.1348ZM89.2031 65.1387V56.5488H90.9141V57.5449H91.0195C91.3535 56.8535 92.0391 56.4434 92.9531 56.4434C94.5645 56.4434 95.5723 57.709 95.5723 59.7656V59.7773C95.5723 61.8516 94.5879 63.0996 92.9531 63.0996C92.0684 63.0996 91.3477 62.6719 91.0195 61.9688H90.9141V65.1387H89.2031ZM92.3672 61.6816C93.2695 61.6816 93.832 60.9609 93.832 59.7773V59.7656C93.832 58.582 93.2754 57.8613 92.3672 57.8613C91.4648 57.8613 90.8965 58.582 90.8965 59.7656V59.7773C90.8965 60.9609 91.4707 61.6816 92.3672 61.6816ZM97.4707 60.2109L97.3184 54.5391H99.1934L99.0352 60.2109H97.4707ZM98.2559 63.1699C97.5996 63.1699 97.1895 62.7949 97.1895 62.1914C97.1895 61.582 97.5996 61.207 98.2559 61.207C98.918 61.207 99.3223 61.582 99.3223 62.1914C99.3223 62.7949 98.918 63.1699 98.2559 63.1699ZM106.852 63V59.8418L103.91 54.5449H105.826L107.689 58.1016H107.795L109.652 54.5449H111.568L108.621 59.8418V63H106.852ZM114.557 63.1348C112.57 63.1348 111.375 61.875 111.375 59.7773V59.7656C111.375 57.6855 112.588 56.4082 114.557 56.4082C116.525 56.4082 117.738 57.6797 117.738 59.7656V59.7773C117.738 61.8809 116.543 63.1348 114.557 63.1348ZM114.557 61.793C115.465 61.793 115.986 61.0488 115.986 59.7773V59.7656C115.986 58.5059 115.459 57.75 114.557 57.75C113.648 57.75 113.127 58.5059 113.127 59.7656V59.7773C113.127 61.0488 113.643 61.793 114.557 61.793ZM121.266 63.1348C119.818 63.1348 119.074 62.2559 119.074 60.7207V56.5488H120.785V60.3281C120.785 61.2422 121.131 61.7168 121.939 61.7168C122.783 61.7168 123.24 61.1484 123.24 60.2754V56.5488H124.951V63H123.24V62.0039H123.135C122.842 62.707 122.186 63.1348 121.266 63.1348ZM127.254 58.1719L127.084 54.5449H128.713L128.543 58.1719H127.254ZM132.527 63L130.283 56.5488H132.117L133.453 61.4004H133.559L134.883 56.5488H136.682L134.449 63H132.527ZM140.402 63.1348C138.439 63.1348 137.25 61.8516 137.25 59.7832V59.7773C137.25 57.7266 138.451 56.4082 140.332 56.4082C142.213 56.4082 143.385 57.6973 143.385 59.6484V60.1816H138.943C138.961 61.2422 139.529 61.8574 140.438 61.8574C141.188 61.8574 141.604 61.459 141.721 61.2129L141.738 61.1777H143.332L143.32 61.2363C143.121 62.0449 142.289 63.1348 140.402 63.1348ZM140.361 57.6914C139.617 57.6914 139.066 58.1953 138.961 59.1094H141.744C141.639 58.1719 141.105 57.6914 140.361 57.6914ZM147.879 63V56.5488H149.59V57.5566H149.695C149.971 56.8301 150.639 56.4082 151.482 56.4082C152.361 56.4082 153.012 56.8535 153.275 57.5977H153.381C153.674 56.8828 154.424 56.4082 155.326 56.4082C156.609 56.4082 157.412 57.2402 157.412 58.5703V63H155.701V58.998C155.701 58.2188 155.35 57.8262 154.635 57.8262C153.943 57.8262 153.498 58.3359 153.498 59.0332V63H151.787V58.9219C151.787 58.2305 151.395 57.8262 150.727 57.8262C150.059 57.8262 149.59 58.3711 149.59 59.1094V63H147.879ZM161.906 63.1348C159.943 63.1348 158.754 61.8516 158.754 59.7832V59.7773C158.754 57.7266 159.955 56.4082 161.836 56.4082C163.717 56.4082 164.889 57.6973 164.889 59.6484V60.1816H160.447C160.465 61.2422 161.033 61.8574 161.941 61.8574C162.691 61.8574 163.107 61.459 163.225 61.2129L163.242 61.1777H164.836L164.824 61.2363C164.625 62.0449 163.793 63.1348 161.906 63.1348ZM161.865 57.6914C161.121 57.6914 160.57 58.1953 160.465 59.1094H163.248C163.143 58.1719 162.609 57.6914 161.865 57.6914ZM168.592 63.0996C166.98 63.0996 165.973 61.8398 165.973 59.7773V59.7656C165.973 57.6914 166.957 56.4434 168.592 56.4434C169.477 56.4434 170.197 56.877 170.52 57.5801H170.625V54.082H172.336V63H170.625V61.998H170.52C170.186 62.6953 169.5 63.0996 168.592 63.0996ZM169.172 61.6816C170.08 61.6816 170.643 60.9668 170.643 59.7832V59.7715C170.643 58.5879 170.074 57.8613 169.172 57.8613C168.27 57.8613 167.713 58.5879 167.713 59.7656V59.7773C167.713 60.9668 168.27 61.6816 169.172 61.6816ZM174.979 55.5586C174.451 55.5586 174.012 55.1367 174.012 54.6094C174.012 54.0762 174.451 53.6543 174.979 53.6543C175.506 53.6543 175.939 54.0762 175.939 54.6094C175.939 55.1367 175.506 55.5586 174.979 55.5586ZM174.117 63V56.5488H175.828V63H174.117ZM180.229 63.0234C178.658 63.0234 178.025 62.5137 178.025 61.2598V57.8379H177.029V56.5488H178.025V55.0078H179.754V56.5488H181.084V57.8379H179.754V60.8672C179.754 61.4473 180 61.7051 180.58 61.7051C180.803 61.7051 180.92 61.6934 181.084 61.6758V62.9473C180.873 62.9883 180.557 63.0234 180.229 63.0234ZM184.266 63.0996C183.035 63.0996 182.162 62.3379 182.162 61.166V61.1543C182.162 59.9941 183.059 59.3145 184.664 59.2207L186.223 59.127V58.5938C186.223 58.0371 185.842 57.7207 185.139 57.7207C184.523 57.7207 184.131 57.9375 183.996 58.3184L183.984 58.3418H182.402L182.408 58.2891C182.543 57.1582 183.609 56.4082 185.232 56.4082C186.943 56.4082 187.91 57.2168 187.91 58.5938V63H186.223V62.1445H186.117C185.789 62.7422 185.109 63.0996 184.266 63.0996ZM183.832 61.0605C183.832 61.5527 184.248 61.8516 184.84 61.8516C185.631 61.8516 186.223 61.3301 186.223 60.6504V60.1758L184.922 60.2578C184.189 60.3047 183.832 60.5801 183.832 61.0488V61.0605ZM192.264 63.0234C190.693 63.0234 190.061 62.5137 190.061 61.2598V57.8379H189.064V56.5488H190.061V55.0078H191.789V56.5488H193.119V57.8379H191.789V60.8672C191.789 61.4473 192.035 61.7051 192.615 61.7051C192.838 61.7051 192.955 61.6934 193.119 61.6758V62.9473C192.908 62.9883 192.592 63.0234 192.264 63.0234ZM197.332 63.1348C195.369 63.1348 194.18 61.8516 194.18 59.7832V59.7773C194.18 57.7266 195.381 56.4082 197.262 56.4082C199.143 56.4082 200.314 57.6973 200.314 59.6484V60.1816H195.873C195.891 61.2422 196.459 61.8574 197.367 61.8574C198.117 61.8574 198.533 61.459 198.65 61.2129L198.668 61.1777H200.262L200.25 61.2363C200.051 62.0449 199.219 63.1348 197.332 63.1348ZM197.291 57.6914C196.547 57.6914 195.996 58.1953 195.891 59.1094H198.674C198.568 58.1719 198.035 57.6914 197.291 57.6914ZM204.018 63.0996C202.406 63.0996 201.398 61.8398 201.398 59.7773V59.7656C201.398 57.6914 202.383 56.4434 204.018 56.4434C204.902 56.4434 205.623 56.877 205.945 57.5801H206.051V54.082H207.762V63H206.051V61.998H205.945C205.611 62.6953 204.926 63.0996 204.018 63.0996ZM204.598 61.6816C205.506 61.6816 206.068 60.9668 206.068 59.7832V59.7715C206.068 58.5879 205.5 57.8613 204.598 57.8613C203.695 57.8613 203.139 58.5879 203.139 59.7656V59.7773C203.139 60.9668 203.695 61.6816 204.598 61.6816ZM213.123 63V57.8379H212.08V56.5488H213.123V55.9453C213.123 54.6621 213.779 54.0176 215.338 54.0176C215.684 54.0176 215.971 54.041 216.217 54.082V55.2246C216.111 55.207 215.93 55.1895 215.707 55.1895C215.045 55.1895 214.799 55.5 214.799 56.0625V56.5488H216.164V57.8379H214.834V63H213.123ZM220.166 63.1348C218.18 63.1348 216.984 61.875 216.984 59.7773V59.7656C216.984 57.6855 218.197 56.4082 220.166 56.4082C222.135 56.4082 223.348 57.6797 223.348 59.7656V59.7773C223.348 61.8809 222.152 63.1348 220.166 63.1348ZM220.166 61.793C221.074 61.793 221.596 61.0488 221.596 59.7773V59.7656C221.596 58.5059 221.068 57.75 220.166 57.75C219.258 57.75 218.736 58.5059 218.736 59.7656V59.7773C218.736 61.0488 219.252 61.793 220.166 61.793ZM224.742 63V56.5488H226.453V57.5508H226.559C226.764 56.8535 227.35 56.4434 228.188 56.4434C228.416 56.4434 228.656 56.4785 228.826 56.5254V58.0195C228.568 57.9609 228.305 57.9199 228.041 57.9199C227.068 57.9199 226.453 58.4766 226.453 59.3906V63H224.742ZM236.982 63V61.4473H232.84V60.0586C233.912 58.1543 235.061 56.2793 236.186 54.5449H238.67V60.0293H239.771V61.4473H238.67V63H236.982ZM234.434 60.0762H237.018V55.8867H236.924C236.104 57.1465 235.195 58.6172 234.434 59.9824V60.0762ZM246.709 63.0996C245.098 63.0996 244.09 61.8398 244.09 59.7773V59.7656C244.09 57.6914 245.074 56.4434 246.709 56.4434C247.594 56.4434 248.314 56.877 248.637 57.5801H248.742V54.082H250.453V63H248.742V61.998H248.637C248.303 62.6953 247.617 63.0996 246.709 63.0996ZM247.289 61.6816C248.197 61.6816 248.76 60.9668 248.76 59.7832V59.7715C248.76 58.5879 248.191 57.8613 247.289 57.8613C246.387 57.8613 245.83 58.5879 245.83 59.7656V59.7773C245.83 60.9668 246.387 61.6816 247.289 61.6816ZM253.98 63.0996C252.75 63.0996 251.877 62.3379 251.877 61.166V61.1543C251.877 59.9941 252.773 59.3145 254.379 59.2207L255.938 59.127V58.5938C255.938 58.0371 255.557 57.7207 254.854 57.7207C254.238 57.7207 253.846 57.9375 253.711 58.3184L253.699 58.3418H252.117L252.123 58.2891C252.258 57.1582 253.324 56.4082 254.947 56.4082C256.658 56.4082 257.625 57.2168 257.625 58.5938V63H255.938V62.1445H255.832C255.504 62.7422 254.824 63.0996 253.98 63.0996ZM253.547 61.0605C253.547 61.5527 253.963 61.8516 254.555 61.8516C255.346 61.8516 255.938 61.3301 255.938 60.6504V60.1758L254.637 60.2578C253.904 60.3047 253.547 60.5801 253.547 61.0488V61.0605ZM259.893 65.2734C259.693 65.2734 259.477 65.2676 259.277 65.2559V63.9668C259.395 63.9785 259.564 63.9844 259.723 63.9844C260.332 63.9844 260.684 63.75 260.807 63.2461L260.865 63L258.598 56.5488H260.479L261.832 61.4355H261.949L263.303 56.5488H265.107L262.91 62.9941C262.336 64.6992 261.486 65.2734 259.893 65.2734ZM268.688 63.1348C266.936 63.1348 265.939 62.3496 265.816 61.2422L265.811 61.2188H267.492L267.504 61.2422C267.639 61.6406 268.031 61.9277 268.705 61.9277C269.361 61.9277 269.807 61.6465 269.807 61.2188V61.207C269.807 60.8613 269.549 60.6445 268.893 60.498L267.814 60.2695C266.584 60.0059 265.975 59.4023 265.975 58.4355V58.4297C265.975 57.2168 267.053 56.4082 268.664 56.4082C270.357 56.4082 271.295 57.252 271.365 58.2891V58.3125H269.777L269.771 58.2832C269.678 57.9375 269.297 57.6152 268.658 57.6152C268.066 57.6152 267.645 57.8906 267.645 58.3242V58.3301C267.645 58.6758 267.885 58.875 268.553 59.0215L269.625 59.25C270.914 59.5254 271.518 60.0645 271.518 61.0195V61.0254C271.518 62.3027 270.34 63.1348 268.688 63.1348ZM274.148 63.1465C273.551 63.1465 273.117 62.707 273.117 62.127C273.117 61.5469 273.551 61.1133 274.148 61.1133C274.752 61.1133 275.18 61.5469 275.18 62.127C275.18 62.707 274.752 63.1465 274.148 63.1465Z" fill="#858585"/>
<path d="M56.0117 129V121.717H55.918L53.7676 123.275V122.162L56.0176 120.545H57.0664V129H56.0117Z" fill="#ADADAD"/>
<path d="M56.8203 187.141C55.0742 187.141 53.9434 186.168 53.832 184.832L53.8262 184.762H54.8398L54.8457 184.82C54.9277 185.652 55.6953 186.227 56.8203 186.227C57.9277 186.227 58.6836 185.605 58.6836 184.709V184.697C58.6836 183.66 57.9395 183.08 56.7559 183.08H55.6953V182.189H56.709C57.7168 182.189 58.4199 181.568 58.4199 180.725V180.713C58.4199 179.828 57.8398 179.318 56.8086 179.318C55.8125 179.318 55.1035 179.846 55.0156 180.701L55.0098 180.76H53.9961L54.002 180.701C54.1367 179.324 55.2266 178.404 56.8086 178.404C58.4199 178.404 59.4805 179.301 59.4805 180.584V180.596C59.4805 181.639 58.7422 182.354 57.6875 182.576V182.6C58.918 182.705 59.7559 183.473 59.7559 184.674V184.686C59.7559 186.098 58.5137 187.141 56.8203 187.141Z" fill="#ADADAD"/>
<path d="M114.805 187V185.248H110.686V184.287C111.828 182.371 113.123 180.309 114.307 178.545H115.836V184.305H117.037V185.248H115.836V187H114.805ZM111.764 184.311H114.811V179.523H114.74C113.791 180.941 112.684 182.688 111.764 184.24V184.311Z" fill="#ADADAD"/>
<path d="M110.943 128V127.273L113.803 124.18C114.881 123.014 115.197 122.574 115.197 121.836V121.824C115.197 120.934 114.594 120.266 113.598 120.266C112.584 120.266 111.91 120.928 111.91 121.924L111.904 121.936L110.896 121.93L110.885 121.924C110.891 120.424 112.051 119.346 113.668 119.346C115.145 119.346 116.275 120.348 116.275 121.713V121.725C116.275 122.691 115.859 123.395 114.33 124.971L112.408 126.957V127.051H116.416V128H110.943Z" fill="#ADADAD"/>
<path d="M56.5 91.0596C55.8067 91.8903 54.0653 93.896 52.646 95.2727C50.872 96.9936 47.9968 99.9013 47.1404 102.038C46.284 104.174 44.8769 108.328 47.5686 112.719C49.7219 116.232 53.686 116.24 55.3989 115.804H56.5V91.0596Z" fill="url(#paint0_linear_4049_3799)"/>
<path d="M56.5 91C57.1933 91.8308 58.9347 93.8365 60.354 95.2132C62.128 96.934 65.0032 99.8417 65.8596 101.978C66.716 104.114 68.1231 108.268 65.4314 112.659C63.2781 116.172 59.314 116.18 57.6011 115.745H56.5V91Z" fill="url(#paint1_linear_4049_3799)"/>
<path d="M113.5 84.0757C112.609 85.1391 110.37 87.7064 108.545 89.4685C106.264 91.6713 102.567 95.3931 101.466 98.1275C100.365 100.862 98.5561 106.179 102.017 111.8C104.785 116.296 109.882 116.306 112.084 115.749H113.5V84.0757Z" fill="url(#paint2_linear_4049_3799)"/>
<path d="M113.5 84C114.391 85.0634 116.63 87.6307 118.455 89.3929C120.736 91.5956 124.433 95.3174 125.534 98.0518C126.635 100.786 128.444 106.103 124.983 111.724C122.215 116.22 117.118 116.231 114.916 115.674H113.5V84Z" fill="url(#paint3_linear_4049_3799)"/>
<path d="M113.865 142.078C112.971 143.173 110.724 145.818 108.893 147.633C106.603 149.901 102.894 153.735 101.788 156.551C100.683 159.368 98.8678 164.844 102.341 170.633C105.119 175.264 110.234 175.275 112.445 174.701H113.865V142.078Z" fill="url(#paint4_linear_4049_3799)"/>
<path d="M113.865 142C114.76 143.095 117.007 145.74 118.838 147.555C121.127 149.823 124.837 153.657 125.942 156.473C127.048 159.289 128.863 164.766 125.39 170.555C122.611 175.186 117.496 175.197 115.286 174.623H113.865V142Z" fill="url(#paint5_linear_4049_3799)"/>
<path d="M104.072 153.29C103.366 151.944 101.478 151.871 100.667 153.156C99.196 155.49 97.6152 158.122 97.3676 159.111C96.9158 160.915 96.5393 168.508 98.4218 170.763C100.304 173.019 102.111 174.898 104.898 175.424C107.684 175.95 109.491 176.402 112.578 175.424C114.773 174.729 108.564 161.846 104.072 153.29Z" fill="url(#paint6_linear_4049_3799)"/>
<path d="M122.934 153.26C123.639 151.922 125.509 151.853 126.305 153.139C127.784 155.529 129.383 158.272 129.632 159.258C130.084 161.047 130.461 168.573 128.578 170.809C126.696 173.045 124.889 174.908 122.102 175.429C119.316 175.951 117.509 176.398 114.422 175.429C112.226 174.74 118.441 161.781 122.934 153.26Z" fill="url(#paint7_linear_4049_3799)"/>
<path d="M113.657 151.793C112.845 152.532 110.868 154.251 109.46 155.218C107.7 156.426 105.195 162.268 105.059 163.208C104.924 164.148 104.586 175.764 113.657 175.629C120.914 175.522 122.729 167.304 122.729 163.208C121.916 161.037 119.831 156.399 117.99 155.218C116.148 154.036 114.334 152.443 113.657 151.793Z" fill="url(#paint8_linear_4049_3799)"/>
<path d="M240.619 87.2388C237.881 90.589 231.003 98.6773 225.399 104.229C218.392 111.169 207.038 122.895 203.656 131.509C200.273 140.124 194.717 156.875 205.347 174.583C213.851 188.75 229.506 188.782 236.27 187.027H240.619V87.2388Z" fill="url(#paint9_linear_4049_3799)"/>
<path d="M240.619 87C243.357 90.3502 250.234 98.4386 255.839 103.99C262.845 110.93 274.199 122.656 277.582 131.271C280.964 139.885 286.52 156.636 275.89 174.345C267.387 188.511 251.732 188.543 244.967 186.788H240.619V87Z" fill="url(#paint10_linear_4049_3799)"/>
<path d="M207.39 115.393C206.672 114.054 204.791 113.987 203.968 115.263C198.888 123.141 191.104 135.433 190.125 139.339C188.742 144.858 187.59 168.083 193.352 174.981C199.113 181.88 204.644 187.628 213.171 189.238C221.698 190.848 227.229 192.227 236.678 189.238C243.948 186.938 221.107 140.998 207.39 115.393Z" fill="url(#paint11_linear_4049_3799)"/>
<path d="M271.615 115.362C272.333 114.031 274.2 113.965 275.016 115.238C280.096 123.17 287.895 135.913 288.875 139.788C290.258 145.259 291.41 168.282 285.648 175.12C279.887 181.959 274.356 187.658 265.829 189.253C257.302 190.849 251.771 192.217 242.322 189.253C235.051 186.973 257.898 140.791 271.615 115.362Z" fill="url(#paint12_linear_4049_3799)"/>
<path d="M239.981 116.957C237.495 119.216 231.444 124.473 227.135 127.431C221.747 131.128 214.081 148.996 213.667 151.871C213.252 154.746 212.216 190.277 239.981 189.866C262.193 189.537 267.746 164.399 267.746 151.871C265.259 145.23 258.878 131.046 253.242 127.431C247.606 123.816 242.053 118.942 239.981 116.957Z" fill="url(#paint13_linear_4049_3799)"/>
<path d="M56.8434 143.074C56.003 144.105 53.8921 146.593 52.1718 148.302C50.0215 150.437 46.5364 154.045 45.4983 156.695C44.4602 159.346 42.7547 164.5 46.0173 169.949C48.6274 174.308 53.4324 174.318 55.5086 173.778H56.8434V143.074Z" fill="url(#paint14_linear_4049_3799)"/>
<path d="M56.8434 143C57.6837 144.031 59.7946 146.52 61.5149 148.228C63.6652 150.363 67.1503 153.971 68.1884 156.622C69.2265 159.272 70.932 164.427 67.6694 169.875C65.0593 174.234 60.2543 174.244 58.1781 173.704H56.8434V143Z" fill="url(#paint15_linear_4049_3799)"/>
<path d="M47.74 153.809C47.0352 152.462 45.1437 152.387 44.3354 153.675C42.9852 155.826 41.5718 158.198 41.3454 159.104C40.9209 160.802 40.5673 167.949 42.3357 170.071C44.104 172.194 45.8017 173.963 48.4189 174.458C51.0361 174.953 52.7338 175.378 55.634 174.458C57.6806 173.809 51.9514 161.862 47.74 153.809Z" fill="url(#paint16_linear_4049_3799)"/>
<path d="M65.2664 153.779C65.9702 152.439 67.8423 152.369 68.636 153.658C69.9947 155.865 71.4266 158.338 71.6546 159.243C72.0791 160.926 72.4327 168.01 70.6643 170.114C68.896 172.218 67.1983 173.972 64.5811 174.463C61.9639 174.954 60.2662 175.374 57.366 174.463C55.3183 173.819 61.0544 161.8 65.2664 153.779Z" fill="url(#paint17_linear_4049_3799)"/>
<path d="M55.7207 234.199C54.1445 234.199 53.0195 233.186 52.8965 231.832L52.8906 231.768H53.9043L53.9102 231.814C54.0098 232.623 54.7422 233.268 55.7324 233.268C56.8574 233.268 57.6309 232.465 57.6309 231.322V231.311C57.6309 230.186 56.8457 229.383 55.75 229.383C55.1875 229.383 54.707 229.553 54.3438 229.898C54.1973 230.039 54.0625 230.203 53.957 230.402H53.043L53.4883 225.545H58.1934V226.488H54.3203L54.0332 229.348H54.127C54.502 228.779 55.1641 228.469 55.9316 228.469C57.5195 228.469 58.6621 229.658 58.6621 231.293V231.305C58.6621 233.01 57.4375 234.199 55.7207 234.199Z" fill="#ADADAD"/>
<path d="M114.932 234.199C113.385 234.199 111.75 233.109 111.75 229.928V229.916C111.75 227.033 112.951 225.346 115.002 225.346C116.42 225.346 117.475 226.178 117.762 227.426L117.779 227.502H116.719L116.695 227.438C116.438 226.729 115.846 226.289 114.99 226.289C113.455 226.289 112.828 227.789 112.764 229.553C112.758 229.617 112.758 229.688 112.758 229.752H112.869C113.18 229.061 113.977 228.445 115.119 228.445C116.707 228.445 117.891 229.652 117.891 231.275V231.287C117.891 232.975 116.637 234.199 114.932 234.199ZM113.01 231.275C113.01 232.389 113.848 233.268 114.92 233.268C115.98 233.268 116.83 232.406 116.83 231.311V231.299C116.83 230.174 116.033 229.365 114.938 229.365C113.842 229.365 113.01 230.168 113.01 231.27V231.275Z" fill="#ADADAD"/>
<path d="M148.226 220V215.833L144.52 209.431H146.585L149.105 213.965H149.229L151.749 209.431H153.814L150.108 215.833V220H148.226ZM157.05 220.161C154.647 220.161 153.197 218.594 153.197 216.001V215.986C153.197 213.416 154.669 211.841 157.05 211.841C159.438 211.841 160.902 213.408 160.902 215.986V216.001C160.902 218.594 159.445 220.161 157.05 220.161ZM157.05 218.682C158.317 218.682 159.035 217.693 159.035 216.008V215.994C159.035 214.309 158.31 213.313 157.05 213.313C155.783 213.313 155.058 214.309 155.058 215.994V216.008C155.058 217.693 155.783 218.682 157.05 218.682ZM164.885 220.161C163.083 220.161 162.16 219.077 162.16 217.173V211.995H163.984V216.755C163.984 217.993 164.445 218.623 165.544 218.623C166.723 218.623 167.353 217.861 167.353 216.66V211.995H169.177V220H167.353V218.784H167.229C166.855 219.641 166.042 220.161 164.885 220.161ZM170.903 220V211.995H172.727V213.225H172.852C173.123 212.368 173.855 211.863 174.91 211.863C175.188 211.863 175.474 211.899 175.649 211.951V213.584C175.356 213.525 175.056 213.481 174.741 213.481C173.525 213.481 172.727 214.207 172.727 215.349V220H170.903ZM180.216 220V208.896H182.04V220H180.216ZM187.304 220.161C184.901 220.161 183.451 218.594 183.451 216.001V215.986C183.451 213.416 184.923 211.841 187.304 211.841C189.691 211.841 191.156 213.408 191.156 215.986V216.001C191.156 218.594 189.699 220.161 187.304 220.161ZM187.304 218.682C188.571 218.682 189.289 217.693 189.289 216.008V215.994C189.289 214.309 188.563 213.313 187.304 213.313C186.037 213.313 185.312 214.309 185.312 215.994V216.008C185.312 217.693 186.037 218.682 187.304 218.682ZM195.637 220.037C193.798 220.037 193.044 219.421 193.044 217.876V213.408H191.799V211.995H193.044V210.032H194.897V211.995H196.589V213.408H194.897V217.444C194.897 218.242 195.212 218.579 195.974 218.579C196.23 218.579 196.369 218.572 196.589 218.55V219.956C196.325 220.007 195.988 220.037 195.637 220.037ZM200.557 220.161C198.755 220.161 197.832 219.077 197.832 217.173V211.995H199.656V216.755C199.656 217.993 200.117 218.623 201.216 218.623C202.395 218.623 203.025 217.861 203.025 216.66V211.995H204.849V220H203.025V218.784H202.9C202.527 219.641 201.714 220.161 200.557 220.161ZM209.6 220.161C207.564 220.161 206.333 219.224 206.18 217.869V217.854H207.989L207.996 217.869C208.187 218.425 208.721 218.813 209.629 218.813C210.538 218.813 211.167 218.403 211.167 217.803V217.788C211.167 217.319 210.816 217.012 209.937 216.814L208.641 216.521C207.117 216.184 206.392 215.466 206.392 214.287V214.28C206.392 212.837 207.71 211.841 209.6 211.841C211.548 211.841 212.713 212.808 212.83 214.104V214.119H211.116L211.109 214.097C210.977 213.591 210.45 213.181 209.593 213.181C208.78 213.181 208.194 213.577 208.194 214.177V214.185C208.194 214.653 208.531 214.939 209.395 215.137L210.691 215.422C212.259 215.774 212.999 216.44 212.999 217.605V217.62C212.999 219.143 211.57 220.161 209.6 220.161ZM218.773 210.654C218.173 210.654 217.682 210.178 217.682 209.578C217.682 208.984 218.173 208.501 218.773 208.501C219.367 208.501 219.857 208.984 219.857 209.578C219.857 210.178 219.367 210.654 218.773 210.654ZM217.858 220V211.995H219.682V220H217.858ZM224.448 220.161C222.412 220.161 221.181 219.224 221.027 217.869V217.854H222.836L222.844 217.869C223.034 218.425 223.569 218.813 224.477 218.813C225.385 218.813 226.015 218.403 226.015 217.803V217.788C226.015 217.319 225.664 217.012 224.785 216.814L223.488 216.521C221.965 216.184 221.24 215.466 221.24 214.287V214.28C221.24 212.837 222.558 211.841 224.448 211.841C226.396 211.841 227.561 212.808 227.678 214.104V214.119H225.964L225.957 214.097C225.825 213.591 225.297 213.181 224.44 213.181C223.627 213.181 223.042 213.577 223.042 214.177V214.185C223.042 214.653 223.378 214.939 224.243 215.137L225.539 215.422C227.106 215.774 227.846 216.44 227.846 217.605V217.62C227.846 219.143 226.418 220.161 224.448 220.161ZM236.141 220.161C233.738 220.161 232.288 218.594 232.288 216.001V215.986C232.288 213.416 233.76 211.841 236.141 211.841C238.528 211.841 239.993 213.408 239.993 215.986V216.001C239.993 218.594 238.536 220.161 236.141 220.161ZM236.141 218.682C237.408 218.682 238.125 217.693 238.125 216.008V215.994C238.125 214.309 237.4 213.313 236.141 213.313C234.874 213.313 234.148 214.309 234.148 215.994V216.008C234.148 217.693 234.874 218.682 236.141 218.682ZM241.324 222.659V211.995H243.148V213.247H243.272C243.712 212.375 244.583 211.863 245.704 211.863C247.711 211.863 248.993 213.459 248.993 215.994V216.008C248.993 218.557 247.733 220.132 245.704 220.132C244.605 220.132 243.69 219.59 243.272 218.726H243.148V222.659H241.324ZM245.133 218.594C246.378 218.594 247.132 217.612 247.132 216.008V215.994C247.132 214.382 246.378 213.401 245.133 213.401C243.895 213.401 243.126 214.382 243.126 215.986V216.001C243.126 217.605 243.895 218.594 245.133 218.594ZM253.759 220.161C251.378 220.161 249.936 218.564 249.936 216.016V216.008C249.936 213.489 251.393 211.841 253.671 211.841C255.949 211.841 257.355 213.438 257.355 215.854V216.455H251.759C251.781 217.891 252.558 218.726 253.795 218.726C254.784 218.726 255.348 218.228 255.524 217.861L255.546 217.81H257.282L257.26 217.876C257.003 218.909 255.934 220.161 253.759 220.161ZM253.693 213.269C252.675 213.269 251.913 213.958 251.774 215.232H255.575C255.451 213.921 254.711 213.269 253.693 213.269ZM258.679 220V211.995H260.502V213.218H260.627C261.008 212.361 261.777 211.841 262.934 211.841C264.721 211.841 265.695 212.917 265.695 214.822V220H263.872V215.247C263.872 214.001 263.366 213.372 262.26 213.372C261.176 213.372 260.502 214.133 260.502 215.334V220H258.679ZM268.286 210.654C267.686 210.654 267.195 210.178 267.195 209.578C267.195 208.984 267.686 208.501 268.286 208.501C268.879 208.501 269.37 208.984 269.37 209.578C269.37 210.178 268.879 210.654 268.286 210.654ZM267.371 220V211.995H269.194V220H267.371ZM270.936 220V211.995H272.759V213.218H272.884C273.265 212.361 274.034 211.841 275.191 211.841C276.978 211.841 277.952 212.917 277.952 214.822V220H276.128V215.247C276.128 214.001 275.623 213.372 274.517 213.372C273.433 213.372 272.759 214.133 272.759 215.334V220H270.936ZM283.048 222.812C280.938 222.812 279.671 221.912 279.488 220.564L279.496 220.542H281.319L281.327 220.564C281.451 221.077 282.059 221.436 283.077 221.436C284.322 221.436 285.047 220.857 285.047 219.832V218.301H284.923C284.461 219.158 283.59 219.626 282.484 219.626C280.455 219.626 279.195 218.059 279.195 215.789V215.774C279.195 213.459 280.455 211.863 282.521 211.863C283.626 211.863 284.491 212.405 284.945 213.313H285.04V211.995H286.864V219.802C286.864 221.648 285.384 222.812 283.048 222.812ZM283.048 218.176C284.315 218.176 285.077 217.202 285.077 215.789V215.774C285.077 214.36 284.308 213.379 283.048 213.379C281.781 213.379 281.063 214.36 281.063 215.774V215.789C281.063 217.202 281.781 218.176 283.048 218.176ZM289.953 220.146C289.286 220.146 288.788 219.641 288.788 218.989C288.788 218.337 289.286 217.832 289.953 217.832C290.626 217.832 291.117 218.337 291.117 218.989C291.117 219.641 290.626 220.146 289.953 220.146Z" fill="#333333"/>
<path d="M145.078 245V236.545H150.316V237.494H146.133V240.207H150.1V241.145H146.133V244.051H150.316V245H145.078ZM153.832 245.111C152.631 245.111 151.723 244.385 151.723 243.236V243.225C151.723 242.1 152.555 241.449 154.025 241.361L155.836 241.25V240.676C155.836 239.896 155.361 239.475 154.418 239.475C153.662 239.475 153.164 239.756 153 240.248L152.994 240.266H151.975L151.98 240.23C152.145 239.24 153.105 238.572 154.453 238.572C155.994 238.572 156.855 239.363 156.855 240.676V245H155.836V244.068H155.742C155.344 244.742 154.682 245.111 153.832 245.111ZM152.766 243.213C152.766 243.852 153.311 244.227 154.043 244.227C155.08 244.227 155.836 243.547 155.836 242.645V242.07L154.148 242.176C153.188 242.234 152.766 242.574 152.766 243.201V243.213ZM161.303 245.111C159.533 245.111 158.402 243.828 158.402 241.824V241.812C158.402 239.85 159.527 238.572 161.297 238.572C162.832 238.572 163.752 239.457 163.939 240.582L163.945 240.617H162.932L162.926 240.6C162.768 239.979 162.205 239.475 161.297 239.475C160.16 239.475 159.445 240.389 159.445 241.812V241.824C159.445 243.277 160.172 244.209 161.297 244.209C162.146 244.209 162.686 243.834 162.92 243.131L162.932 243.096L163.939 243.09L163.928 243.154C163.67 244.297 162.82 245.111 161.303 245.111ZM165.492 245V236.176H166.512V239.633H166.605C166.922 238.965 167.514 238.572 168.445 238.572C169.863 238.572 170.654 239.41 170.654 240.91V245H169.635V241.156C169.635 240.02 169.166 239.475 168.158 239.475C167.15 239.475 166.512 240.154 166.512 241.262V245H165.492ZM178.207 245.111C176.607 245.111 175.559 243.816 175.559 241.848V241.836C175.559 239.855 176.602 238.572 178.207 238.572C179.074 238.572 179.83 239.006 180.176 239.68H180.27V236.176H181.289V245H180.27V243.992H180.176C179.789 244.695 179.086 245.111 178.207 245.111ZM178.441 244.209C179.59 244.209 180.293 243.307 180.293 241.848V241.836C180.293 240.377 179.59 239.475 178.441 239.475C177.287 239.475 176.602 240.365 176.602 241.836V241.848C176.602 243.318 177.287 244.209 178.441 244.209ZM184.98 245.111C183.779 245.111 182.871 244.385 182.871 243.236V243.225C182.871 242.1 183.703 241.449 185.174 241.361L186.984 241.25V240.676C186.984 239.896 186.51 239.475 185.566 239.475C184.811 239.475 184.312 239.756 184.148 240.248L184.143 240.266H183.123L183.129 240.23C183.293 239.24 184.254 238.572 185.602 238.572C187.143 238.572 188.004 239.363 188.004 240.676V245H186.984V244.068H186.891C186.492 244.742 185.83 245.111 184.98 245.111ZM183.914 243.213C183.914 243.852 184.459 244.227 185.191 244.227C186.229 244.227 186.984 243.547 186.984 242.645V242.07L185.297 242.176C184.336 242.234 183.914 242.574 183.914 243.201V243.213ZM190.172 247.215C190.037 247.215 189.861 247.203 189.721 247.18V246.342C189.844 246.365 190.002 246.371 190.143 246.371C190.723 246.371 191.074 246.107 191.303 245.381L191.42 245.006L189.082 238.684H190.172L191.906 243.881H192L193.729 238.684H194.801L192.334 245.387C191.812 246.805 191.291 247.215 190.172 247.215ZM202.664 245.111C201.785 245.111 201.082 244.695 200.695 243.992H200.602V245H199.582V236.176H200.602V239.68H200.695C201.041 239.006 201.797 238.572 202.664 238.572C204.27 238.572 205.312 239.855 205.312 241.836V241.848C205.312 243.816 204.264 245.111 202.664 245.111ZM202.43 244.209C203.584 244.209 204.27 243.318 204.27 241.848V241.836C204.27 240.365 203.584 239.475 202.43 239.475C201.281 239.475 200.578 240.377 200.578 241.836V241.848C200.578 243.307 201.281 244.209 202.43 244.209ZM206.895 245V238.684H207.914V239.621H208.008C208.248 238.959 208.84 238.572 209.695 238.572C209.889 238.572 210.105 238.596 210.205 238.613V239.604C209.994 239.568 209.801 239.545 209.578 239.545C208.605 239.545 207.914 240.16 207.914 241.086V245H206.895ZM212.004 237.465C211.617 237.465 211.301 237.148 211.301 236.762C211.301 236.375 211.617 236.059 212.004 236.059C212.391 236.059 212.707 236.375 212.707 236.762C212.707 237.148 212.391 237.465 212.004 237.465ZM211.488 245V238.684H212.508V245H211.488ZM214.43 245V238.684H215.449V239.633H215.543C215.859 238.965 216.451 238.572 217.383 238.572C218.801 238.572 219.592 239.41 219.592 240.91V245H218.572V241.156C218.572 240.02 218.104 239.475 217.096 239.475C216.088 239.475 215.449 240.154 215.449 241.262V245H214.43ZM224.039 247.227C222.516 247.227 221.543 246.541 221.385 245.504L221.396 245.498H222.451L222.457 245.504C222.568 245.984 223.131 246.324 224.039 246.324C225.17 246.324 225.844 245.791 225.844 244.859V243.582H225.75C225.352 244.279 224.637 244.672 223.77 244.672C222.135 244.672 221.121 243.406 221.121 241.637V241.625C221.121 239.855 222.141 238.572 223.793 238.572C224.684 238.572 225.375 239.012 225.762 239.727H225.832V238.684H226.852V244.912C226.852 246.324 225.762 247.227 224.039 247.227ZM223.992 243.77C225.164 243.77 225.867 242.891 225.867 241.637V241.625C225.867 240.371 225.158 239.475 223.992 239.475C222.82 239.475 222.164 240.371 222.164 241.625V241.637C222.164 242.891 222.82 243.77 223.992 243.77ZM230.918 245.111C229.512 245.111 228.545 244.432 228.428 243.389H229.471C229.641 243.916 230.145 244.262 230.953 244.262C231.803 244.262 232.406 243.857 232.406 243.283V243.271C232.406 242.844 232.084 242.545 231.305 242.357L230.326 242.123C229.143 241.842 228.609 241.326 228.609 240.418V240.412C228.609 239.363 229.617 238.572 230.959 238.572C232.283 238.572 233.203 239.234 233.344 240.266H232.342C232.207 239.768 231.715 239.422 230.953 239.422C230.203 239.422 229.652 239.809 229.652 240.365V240.377C229.652 240.805 229.969 241.074 230.713 241.256L231.686 241.49C232.875 241.777 233.449 242.293 233.449 243.195V243.207C233.449 244.332 232.354 245.111 230.918 245.111ZM238.406 245V238.684H239.426V239.633H239.52C239.836 238.965 240.428 238.572 241.359 238.572C242.777 238.572 243.568 239.41 243.568 240.91V245H242.549V241.156C242.549 240.02 242.08 239.475 241.072 239.475C240.064 239.475 239.426 240.154 239.426 241.262V245H238.406ZM247.992 245.111C246.188 245.111 245.098 243.846 245.098 241.865V241.859C245.098 239.908 246.211 238.572 247.928 238.572C249.645 238.572 250.688 239.85 250.688 241.736V242.135H246.141C246.17 243.441 246.891 244.203 248.016 244.203C248.871 244.203 249.398 243.799 249.568 243.418L249.592 243.365H250.611L250.6 243.412C250.383 244.268 249.48 245.111 247.992 245.111ZM247.922 239.48C246.984 239.48 246.27 240.119 246.158 241.32H249.65C249.545 240.072 248.854 239.48 247.922 239.48ZM253.488 245L251.719 238.684H252.738L253.98 243.734H254.074L255.486 238.684H256.453L257.865 243.734H257.959L259.201 238.684H260.215L258.445 245H257.42L256.008 240.113H255.914L254.508 245H253.488ZM267.105 245.111C265.699 245.111 264.732 244.432 264.615 243.389H265.658C265.828 243.916 266.332 244.262 267.141 244.262C267.99 244.262 268.594 243.857 268.594 243.283V243.271C268.594 242.844 268.271 242.545 267.492 242.357L266.514 242.123C265.33 241.842 264.797 241.326 264.797 240.418V240.412C264.797 239.363 265.805 238.572 267.146 238.572C268.471 238.572 269.391 239.234 269.531 240.266H268.529C268.395 239.768 267.902 239.422 267.141 239.422C266.391 239.422 265.84 239.809 265.84 240.365V240.377C265.84 240.805 266.156 241.074 266.9 241.256L267.873 241.49C269.062 241.777 269.637 242.293 269.637 243.195V243.207C269.637 244.332 268.541 245.111 267.105 245.111ZM273.404 245.047C272.104 245.047 271.559 244.566 271.559 243.359V239.527H270.562V238.684H271.559V237.049H272.613V238.684H273.996V239.527H272.613V243.102C272.613 243.846 272.871 244.145 273.527 244.145C273.709 244.145 273.809 244.139 273.996 244.121V244.988C273.797 245.023 273.604 245.047 273.404 245.047ZM275.52 245V238.684H276.539V239.621H276.633C276.873 238.959 277.465 238.572 278.32 238.572C278.514 238.572 278.73 238.596 278.83 238.613V239.604C278.619 239.568 278.426 239.545 278.203 239.545C277.23 239.545 276.539 240.16 276.539 241.086V245H275.52ZM282.492 245.111C280.688 245.111 279.598 243.846 279.598 241.865V241.859C279.598 239.908 280.711 238.572 282.428 238.572C284.145 238.572 285.188 239.85 285.188 241.736V242.135H280.641C280.67 243.441 281.391 244.203 282.516 244.203C283.371 244.203 283.898 243.799 284.068 243.418L284.092 243.365H285.111L285.1 243.412C284.883 244.268 283.98 245.111 282.492 245.111ZM282.422 239.48C281.484 239.48 280.77 240.119 280.658 241.32H284.15C284.045 240.072 283.354 239.48 282.422 239.48ZM286.77 245V238.684H287.789V239.633H287.883C288.199 238.965 288.791 238.572 289.723 238.572C291.141 238.572 291.932 239.41 291.932 240.91V245H290.912V241.156C290.912 240.02 290.443 239.475 289.436 239.475C288.428 239.475 287.789 240.154 287.789 241.262V245H286.77ZM296.379 247.227C294.855 247.227 293.883 246.541 293.725 245.504L293.736 245.498H294.791L294.797 245.504C294.908 245.984 295.471 246.324 296.379 246.324C297.51 246.324 298.184 245.791 298.184 244.859V243.582H298.09C297.691 244.279 296.977 244.672 296.109 244.672C294.475 244.672 293.461 243.406 293.461 241.637V241.625C293.461 239.855 294.48 238.572 296.133 238.572C297.023 238.572 297.715 239.012 298.102 239.727H298.172V238.684H299.191V244.912C299.191 246.324 298.102 247.227 296.379 247.227ZM296.332 243.77C297.504 243.77 298.207 242.891 298.207 241.637V241.625C298.207 240.371 297.498 239.475 296.332 239.475C295.16 239.475 294.504 240.371 294.504 241.625V241.637C294.504 242.891 295.16 243.77 296.332 243.77ZM303.334 245.047C302.033 245.047 301.488 244.566 301.488 243.359V239.527H300.492V238.684H301.488V237.049H302.543V238.684H303.926V239.527H302.543V243.102C302.543 243.846 302.801 244.145 303.457 244.145C303.639 244.145 303.738 244.139 303.926 244.121V244.988C303.727 245.023 303.533 245.047 303.334 245.047ZM305.508 245V236.176H306.527V239.633H306.621C306.938 238.965 307.529 238.572 308.461 238.572C309.879 238.572 310.67 239.41 310.67 240.91V245H309.65V241.156C309.65 240.02 309.182 239.475 308.174 239.475C307.166 239.475 306.527 240.154 306.527 241.262V245H305.508ZM313.348 245.059C312.932 245.059 312.586 244.713 312.586 244.297C312.586 243.875 312.932 243.535 313.348 243.535C313.77 243.535 314.109 243.875 314.109 244.297C314.109 244.713 313.77 245.059 313.348 245.059Z" fill="#ADADAD"/>
</g>
<defs>
<filter id="filter0_d_4049_3799" x="0" y="0" width="359" height="279" filterUnits="userSpaceOnUse" color-interpolation-filters="sRGB">
<feFlood flood-opacity="0" result="BackgroundImageFix"/>
<feColorMatrix in="SourceAlpha" type="matrix" values="0 0 0 0 0 0 0 0 0 0 0 0 0 0 0 0 0 0 127 0" result="hardAlpha"/>
<feOffset dy="2"/>
<feGaussianBlur stdDeviation="6"/>
<feColorMatrix type="matrix" values="0 0 0 0 0.2 0 0 0 0 0.2 0 0 0 0 0.2 0 0 0 0.08 0"/>
<feBlend mode="normal" in2="BackgroundImageFix" result="effect1_dropShadow_4049_3799"/>
<feBlend mode="normal" in="SourceGraphic" in2="effect1_dropShadow_4049_3799" result="shape"/>
</filter>
<linearGradient id="paint0_linear_4049_3799" x1="51.25" y1="91.0596" x2="51.25" y2="116" gradientUnits="userSpaceOnUse">
<stop stop-color="#E5DED0"/>
<stop offset="1" stop-color="#83BB9E"/>
</linearGradient>
<linearGradient id="paint1_linear_4049_3799" x1="61.75" y1="91" x2="61.75" y2="115.941" gradientUnits="userSpaceOnUse">
<stop stop-color="#E5DED0"/>
<stop offset="1" stop-color="#83BB9E"/>
</linearGradient>
<linearGradient id="paint2_linear_4049_3799" x1="106.75" y1="84.0757" x2="106.75" y2="116" gradientUnits="userSpaceOnUse">
<stop stop-color="#E5DED0"/>
<stop offset="1" stop-color="#83BB9E"/>
</linearGradient>
<linearGradient id="paint3_linear_4049_3799" x1="120.25" y1="84" x2="120.25" y2="115.924" gradientUnits="userSpaceOnUse">
<stop stop-color="#E5DED0"/>
<stop offset="1" stop-color="#83BB9E"/>
</linearGradient>
<linearGradient id="paint4_linear_4049_3799" x1="107.091" y1="142.078" x2="106.377" y2="185.943" gradientUnits="userSpaceOnUse">
<stop stop-color="#F5EEE2"/>
<stop offset="0.385" stop-color="#F7B7B5"/>
<stop offset="0.715" stop-color="#C69191"/>
</linearGradient>
<linearGradient id="paint5_linear_4049_3799" x1="120.64" y1="142" x2="121.354" y2="185.865" gradientUnits="userSpaceOnUse">
<stop stop-color="#F5EEE2"/>
<stop offset="0.385" stop-color="#F7B7B5"/>
<stop offset="0.715" stop-color="#C69191"/>
</linearGradient>
<linearGradient id="paint6_linear_4049_3799" x1="105.017" y1="150.315" x2="105.017" y2="176" gradientUnits="userSpaceOnUse">
<stop offset="0.045" stop-color="#F5EEE2"/>
<stop offset="0.675" stop-color="#83BB9E"/>
<stop offset="1" stop-color="#4F706C"/>
</linearGradient>
<linearGradient id="paint7_linear_4049_3799" x1="121.983" y1="150.315" x2="121.983" y2="176" gradientUnits="userSpaceOnUse">
<stop offset="0.045" stop-color="#F5EEE2"/>
<stop offset="0.675" stop-color="#83BB9E"/>
<stop offset="1" stop-color="#4F706C"/>
</linearGradient>
<linearGradient id="paint8_linear_4049_3799" x1="113.873" y1="151.793" x2="113.873" y2="175.63" gradientUnits="userSpaceOnUse">
<stop stop-color="white"/>
<stop offset="0.275" stop-color="#F5EEE2"/>
<stop offset="0.57" stop-color="#E5DED0"/>
<stop offset="0.95" stop-color="#CEB7B7"/>
</linearGradient>
<linearGradient id="paint9_linear_4049_3799" x1="219.885" y1="87.2388" x2="217.701" y2="221.415" gradientUnits="userSpaceOnUse">
<stop stop-color="#F5EEE2"/>
<stop offset="0.385" stop-color="#F7B7B5"/>
<stop offset="0.715" stop-color="#C69191"/>
</linearGradient>
<linearGradient id="paint10_linear_4049_3799" x1="261.352" y1="87" x2="263.536" y2="221.176" gradientUnits="userSpaceOnUse">
<stop stop-color="#F5EEE2"/>
<stop offset="0.385" stop-color="#F7B7B5"/>
<stop offset="0.715" stop-color="#C69191"/>
</linearGradient>
<linearGradient id="paint11_linear_4049_3799" x1="213.537" y1="112.435" x2="213.537" y2="191" gradientUnits="userSpaceOnUse">
<stop offset="0.045" stop-color="#F5EEE2"/>
<stop offset="0.675" stop-color="#83BB9E"/>
<stop offset="1" stop-color="#4F706C"/>
</linearGradient>
<linearGradient id="paint12_linear_4049_3799" x1="265.463" y1="112.435" x2="265.463" y2="191" gradientUnits="userSpaceOnUse">
<stop offset="0.045" stop-color="#F5EEE2"/>
<stop offset="0.675" stop-color="#83BB9E"/>
<stop offset="1" stop-color="#4F706C"/>
</linearGradient>
<linearGradient id="paint13_linear_4049_3799" x1="240.641" y1="116.957" x2="240.641" y2="189.87" gradientUnits="userSpaceOnUse">
<stop stop-color="white"/>
<stop offset="0.275" stop-color="#F5EEE2"/>
<stop offset="0.57" stop-color="#E5DED0"/>
<stop offset="0.95" stop-color="#CEB7B7"/>
</linearGradient>
<linearGradient id="paint14_linear_4049_3799" x1="50.4797" y1="143.074" x2="49.806" y2="184.359" gradientUnits="userSpaceOnUse">
<stop stop-color="#F5EEE2"/>
<stop offset="0.385" stop-color="#F7B7B5"/>
<stop offset="0.715" stop-color="#C69191"/>
</linearGradient>
<linearGradient id="paint15_linear_4049_3799" x1="63.207" y1="143" x2="63.8807" y2="184.285" gradientUnits="userSpaceOnUse">
<stop stop-color="#F5EEE2"/>
<stop offset="0.385" stop-color="#F7B7B5"/>
<stop offset="0.715" stop-color="#C69191"/>
</linearGradient>
<linearGradient id="paint16_linear_4049_3799" x1="48.5311" y1="150.826" x2="48.5311" y2="175" gradientUnits="userSpaceOnUse">
<stop stop-color="#F5EEE2"/>
<stop offset="1" stop-color="#83BB9E"/>
</linearGradient>
<linearGradient id="paint17_linear_4049_3799" x1="64.4689" y1="150.826" x2="64.4689" y2="175" gradientUnits="userSpaceOnUse">
<stop stop-color="#F5EEE2"/>
<stop offset="1" stop-color="#83BB9E"/>
</linearGradient>
</defs>
</svg>
