<svg width="359" height="279" viewBox="0 0 359 279" fill="none" xmlns="http://www.w3.org/2000/svg">
<g filter="url(#filter0_d_4048_3575)">
<rect x="12" y="10" width="335" height="255" rx="10" fill="white"/>
<path d="M37.3037 38V27.4312H39.4717L42.6504 35.561H42.7749L45.9463 27.4312H48.1143V38H46.415V30.4854H46.2832L43.3535 38H42.0645L39.1348 30.4854H39.0103V38H37.3037ZM53.4883 38.1611C51.0859 38.1611 49.6357 36.5938 49.6357 34.001V33.9863C49.6357 31.4155 51.1079 29.8408 53.4883 29.8408C55.876 29.8408 57.3408 31.4082 57.3408 33.9863V34.001C57.3408 36.5938 55.8833 38.1611 53.4883 38.1611ZM53.4883 36.6816C54.7554 36.6816 55.4731 35.6929 55.4731 34.0083V33.9937C55.4731 32.3091 54.748 31.313 53.4883 31.313C52.2212 31.313 51.4961 32.3091 51.4961 33.9937V34.0083C51.4961 35.6929 52.2212 36.6816 53.4883 36.6816ZM58.6719 38V29.9946H60.4956V31.2178H60.6201C61.001 30.3608 61.77 29.8408 62.9272 29.8408C64.7144 29.8408 65.6885 30.9175 65.6885 32.8218V38H63.8647V33.2466C63.8647 32.0015 63.3594 31.3716 62.2534 31.3716C61.1694 31.3716 60.4956 32.1333 60.4956 33.3345V38H58.6719ZM70.2275 38.1318C68.2207 38.1318 66.9463 36.5425 66.9463 34.0083V33.9937C66.9463 31.4448 68.1987 29.8628 70.2275 29.8628C71.3262 29.8628 72.2417 30.4048 72.6592 31.269H72.7837V26.8965H74.6147V38H72.7837V36.7476H72.6592C72.2197 37.6191 71.3555 38.1318 70.2275 38.1318ZM70.7988 36.5938C72.0439 36.5938 72.813 35.6123 72.813 34.0083V33.9937C72.813 32.3896 72.0366 31.4009 70.7988 31.4009C69.561 31.4009 68.7993 32.3823 68.7993 33.9937V34.0083C68.7993 35.6196 69.5537 36.5938 70.7988 36.5938ZM78.5898 38.1318C77.0664 38.1318 75.9604 37.1943 75.9604 35.7368V35.7222C75.9604 34.2939 77.0518 33.459 79 33.3418L81.0581 33.2173V32.5288C81.0581 31.7305 80.5381 31.291 79.5566 31.291C78.7217 31.291 78.1797 31.5913 77.9966 32.1187L77.9893 32.1479H76.2681L76.2754 32.082C76.4512 30.7344 77.7402 29.8408 79.6445 29.8408C81.7026 29.8408 82.8599 30.8369 82.8599 32.5288V38H81.0581V36.9014H80.9336C80.4941 37.6777 79.6445 38.1318 78.5898 38.1318ZM77.7622 35.6489C77.7622 36.3301 78.3408 36.7329 79.1465 36.7329C80.2451 36.7329 81.0581 36.0151 81.0581 35.063V34.4185L79.2563 34.5356C78.2383 34.6016 77.7622 34.9751 77.7622 35.6343V35.6489ZM85.1577 40.8125C84.938 40.8125 84.6816 40.8052 84.4619 40.7832V39.3843C84.6084 39.3989 84.8135 39.4062 85.0039 39.4062C85.751 39.4062 86.1978 39.0986 86.3955 38.3735L86.4907 38.0073L83.627 29.9946H85.6191L87.4868 36.2495H87.626L89.4863 29.9946H91.4053L88.5342 38.1685C87.8457 40.1753 86.9302 40.8125 85.1577 40.8125ZM91.1763 40.7905L91.8135 36.3887H93.6958L92.4214 40.7905H91.1763ZM99.5439 38V27.4312H103.506C106.648 27.4312 108.479 29.3501 108.479 32.6606V32.6753C108.479 36.0591 106.67 38 103.506 38H99.5439ZM101.434 36.4106H103.257C105.359 36.4106 106.553 35.0776 106.553 32.7046V32.6899C106.553 30.3682 105.33 29.0205 103.257 29.0205H101.434V36.4106ZM113.385 38.1611C111.004 38.1611 109.562 36.5645 109.562 34.0156V34.0083C109.562 31.4888 111.019 29.8408 113.297 29.8408C115.575 29.8408 116.981 31.4375 116.981 33.8545V34.4551H111.385C111.407 35.8906 112.184 36.7256 113.421 36.7256C114.41 36.7256 114.974 36.2275 115.15 35.8613L115.172 35.8101H116.908L116.886 35.876C116.629 36.9087 115.56 38.1611 113.385 38.1611ZM113.319 31.269C112.301 31.269 111.539 31.9575 111.4 33.2319H115.201C115.077 31.9209 114.337 31.269 113.319 31.269ZM121.74 38.1611C119.33 38.1611 117.909 36.6011 117.909 33.9863V33.9717C117.909 31.3862 119.323 29.8408 121.732 29.8408C123.791 29.8408 125.021 30.9834 125.226 32.6387V32.668H123.505L123.498 32.646C123.329 31.8696 122.736 31.313 121.74 31.313C120.495 31.313 119.762 32.2944 119.762 33.9717V33.9863C119.762 35.6855 120.502 36.6816 121.74 36.6816C122.685 36.6816 123.263 36.2495 123.49 35.4072L123.505 35.3779L125.226 35.3706L125.211 35.4292C124.948 37.0698 123.769 38.1611 121.74 38.1611ZM129.954 38V36.7256L133.425 33.1807C134.861 31.7305 135.264 31.1958 135.264 30.3828V30.3608C135.264 29.3867 134.597 28.6836 133.499 28.6836C132.378 28.6836 131.624 29.4233 131.624 30.5146L131.616 30.5439L129.858 30.5366L129.851 30.5146C129.851 28.5444 131.389 27.1675 133.594 27.1675C135.652 27.1675 137.131 28.4199 137.131 30.1997V30.2217C137.131 31.4229 136.553 32.375 134.626 34.228L132.51 36.2788V36.4326H137.292V38H129.954ZM142.71 38.2124C140.396 38.2124 138.88 36.9526 138.741 35.1436L138.733 35.0557H140.535L140.542 35.1362C140.645 36.0298 141.473 36.667 142.71 36.667C143.934 36.667 144.747 35.9858 144.747 35.0044V34.9897C144.747 33.8765 143.926 33.2612 142.571 33.2612H141.326V31.855H142.535C143.699 31.855 144.476 31.1958 144.476 30.2729V30.2583C144.476 29.2915 143.824 28.7202 142.696 28.7202C141.583 28.7202 140.813 29.3135 140.718 30.2583L140.711 30.3315H138.953L138.96 30.251C139.122 28.4199 140.564 27.2188 142.696 27.2188C144.871 27.2188 146.285 28.354 146.285 30.0093V30.0239C146.285 31.335 145.34 32.2065 144.073 32.4702V32.5068C145.625 32.6533 146.658 33.5762 146.658 35.041V35.0557C146.658 36.916 145.054 38.2124 142.71 38.2124Z" fill="#333333"/>
<path d="M40.7051 63.2168C38.1914 63.2168 36.6504 61.5234 36.6504 58.7695V58.7578C36.6504 56.0449 38.2031 54.3281 40.6641 54.3281C42.6621 54.3281 44.1211 55.4766 44.373 57.1641L44.3848 57.2227H42.627L42.6152 57.1641C42.375 56.3262 41.6543 55.8281 40.6641 55.8281C39.2988 55.8281 38.4551 56.9414 38.4551 58.7402V58.752C38.4551 60.5859 39.3398 61.7168 40.7344 61.7168C41.8945 61.7168 42.6914 61.0078 42.7266 59.9414L42.7324 59.7832H40.9043V58.4941H44.4551V59.5664C44.4551 61.8105 43.0137 63.2168 40.7051 63.2168ZM45.9844 63V56.5488H47.6953V57.5508H47.8008C48.0059 56.8535 48.5918 56.4434 49.4297 56.4434C49.6582 56.4434 49.8984 56.4785 50.0684 56.5254V58.0195C49.8105 57.9609 49.5469 57.9199 49.2832 57.9199C48.3105 57.9199 47.6953 58.4766 47.6953 59.3906V63H45.9844ZM53.8945 63.1348C51.9316 63.1348 50.7422 61.8516 50.7422 59.7832V59.7773C50.7422 57.7266 51.9434 56.4082 53.8242 56.4082C55.7051 56.4082 56.877 57.6973 56.877 59.6484V60.1816H52.4355C52.4531 61.2422 53.0215 61.8574 53.9297 61.8574C54.6797 61.8574 55.0957 61.459 55.2129 61.2129L55.2305 61.1777H56.8242L56.8125 61.2363C56.6133 62.0449 55.7812 63.1348 53.8945 63.1348ZM53.8535 57.6914C53.1094 57.6914 52.5586 58.1953 52.4531 59.1094H55.2363C55.1309 58.1719 54.5977 57.6914 53.8535 57.6914ZM60.0352 63.0996C58.8047 63.0996 57.9316 62.3379 57.9316 61.166V61.1543C57.9316 59.9941 58.8281 59.3145 60.4336 59.2207L61.9922 59.127V58.5938C61.9922 58.0371 61.6113 57.7207 60.9082 57.7207C60.293 57.7207 59.9004 57.9375 59.7656 58.3184L59.7539 58.3418H58.1719L58.1777 58.2891C58.3125 57.1582 59.3789 56.4082 61.002 56.4082C62.7129 56.4082 63.6797 57.2168 63.6797 58.5938V63H61.9922V62.1445H61.8867C61.5586 62.7422 60.8789 63.0996 60.0352 63.0996ZM59.6016 61.0605C59.6016 61.5527 60.0176 61.8516 60.6094 61.8516C61.4004 61.8516 61.9922 61.3301 61.9922 60.6504V60.1758L60.6914 60.2578C59.959 60.3047 59.6016 60.5801 59.6016 61.0488V61.0605ZM68.0332 63.0234C66.4629 63.0234 65.8301 62.5137 65.8301 61.2598V57.8379H64.834V56.5488H65.8301V55.0078H67.5586V56.5488H68.8887V57.8379H67.5586V60.8672C67.5586 61.4473 67.8047 61.7051 68.3848 61.7051C68.6074 61.7051 68.7246 61.6934 68.8887 61.6758V62.9473C68.6777 62.9883 68.3613 63.0234 68.0332 63.0234ZM75.9727 63.1348C74.2207 63.1348 73.2246 62.3496 73.1016 61.2422L73.0957 61.2188H74.7773L74.7891 61.2422C74.9238 61.6406 75.3164 61.9277 75.9902 61.9277C76.6465 61.9277 77.0918 61.6465 77.0918 61.2188V61.207C77.0918 60.8613 76.834 60.6445 76.1777 60.498L75.0996 60.2695C73.8691 60.0059 73.2598 59.4023 73.2598 58.4355V58.4297C73.2598 57.2168 74.3379 56.4082 75.9492 56.4082C77.6426 56.4082 78.5801 57.252 78.6504 58.2891V58.3125H77.0625L77.0566 58.2832C76.9629 57.9375 76.582 57.6152 75.9434 57.6152C75.3516 57.6152 74.9297 57.8906 74.9297 58.3242V58.3301C74.9297 58.6758 75.1699 58.875 75.8379 59.0215L76.9102 59.25C78.1992 59.5254 78.8027 60.0645 78.8027 61.0195V61.0254C78.8027 62.3027 77.625 63.1348 75.9727 63.1348ZM82.8457 63.0234C81.2754 63.0234 80.6426 62.5137 80.6426 61.2598V57.8379H79.6465V56.5488H80.6426V55.0078H82.3711V56.5488H83.7012V57.8379H82.3711V60.8672C82.3711 61.4473 82.6172 61.7051 83.1973 61.7051C83.4199 61.7051 83.5371 61.6934 83.7012 61.6758V62.9473C83.4902 62.9883 83.1738 63.0234 82.8457 63.0234ZM86.8828 63.0996C85.6523 63.0996 84.7793 62.3379 84.7793 61.166V61.1543C84.7793 59.9941 85.6758 59.3145 87.2812 59.2207L88.8398 59.127V58.5938C88.8398 58.0371 88.459 57.7207 87.7559 57.7207C87.1406 57.7207 86.748 57.9375 86.6133 58.3184L86.6016 58.3418H85.0195L85.0254 58.2891C85.1602 57.1582 86.2266 56.4082 87.8496 56.4082C89.5605 56.4082 90.5273 57.2168 90.5273 58.5938V63H88.8398V62.1445H88.7344C88.4062 62.7422 87.7266 63.0996 86.8828 63.0996ZM86.4492 61.0605C86.4492 61.5527 86.8652 61.8516 87.457 61.8516C88.248 61.8516 88.8398 61.3301 88.8398 60.6504V60.1758L87.5391 60.2578C86.8066 60.3047 86.4492 60.5801 86.4492 61.0488V61.0605ZM92.2031 63V56.5488H93.9141V57.5508H94.0195C94.2246 56.8535 94.8105 56.4434 95.6484 56.4434C95.877 56.4434 96.1172 56.4785 96.2871 56.5254V58.0195C96.0293 57.9609 95.7656 57.9199 95.502 57.9199C94.5293 57.9199 93.9141 58.4766 93.9141 59.3906V63H92.2031ZM100.26 63.0234C98.6895 63.0234 98.0566 62.5137 98.0566 61.2598V57.8379H97.0605V56.5488H98.0566V55.0078H99.7852V56.5488H101.115V57.8379H99.7852V60.8672C99.7852 61.4473 100.031 61.7051 100.611 61.7051C100.834 61.7051 100.951 61.6934 101.115 61.6758V62.9473C100.904 62.9883 100.588 63.0234 100.26 63.0234ZM103.037 60.2109L102.885 54.5391H104.76L104.602 60.2109H103.037ZM103.822 63.1699C103.166 63.1699 102.756 62.7949 102.756 62.1914C102.756 61.582 103.166 61.207 103.822 61.207C104.484 61.207 104.889 61.582 104.889 62.1914C104.889 62.7949 104.484 63.1699 103.822 63.1699ZM112.418 63V59.8418L109.477 54.5449H111.393L113.256 58.1016H113.361L115.219 54.5449H117.135L114.188 59.8418V63H112.418ZM120.123 63.1348C118.137 63.1348 116.941 61.875 116.941 59.7773V59.7656C116.941 57.6855 118.154 56.4082 120.123 56.4082C122.092 56.4082 123.305 57.6797 123.305 59.7656V59.7773C123.305 61.8809 122.109 63.1348 120.123 63.1348ZM120.123 61.793C121.031 61.793 121.553 61.0488 121.553 59.7773V59.7656C121.553 58.5059 121.025 57.75 120.123 57.75C119.215 57.75 118.693 58.5059 118.693 59.7656V59.7773C118.693 61.0488 119.209 61.793 120.123 61.793ZM126.832 63.1348C125.385 63.1348 124.641 62.2559 124.641 60.7207V56.5488H126.352V60.3281C126.352 61.2422 126.697 61.7168 127.506 61.7168C128.35 61.7168 128.807 61.1484 128.807 60.2754V56.5488H130.518V63H128.807V62.0039H128.701C128.408 62.707 127.752 63.1348 126.832 63.1348ZM132.82 58.1719L132.65 54.5449H134.279L134.109 58.1719H132.82ZM138.094 63L135.85 56.5488H137.684L139.02 61.4004H139.125L140.449 56.5488H142.248L140.016 63H138.094ZM145.969 63.1348C144.006 63.1348 142.816 61.8516 142.816 59.7832V59.7773C142.816 57.7266 144.018 56.4082 145.898 56.4082C147.779 56.4082 148.951 57.6973 148.951 59.6484V60.1816H144.51C144.527 61.2422 145.096 61.8574 146.004 61.8574C146.754 61.8574 147.17 61.459 147.287 61.2129L147.305 61.1777H148.898L148.887 61.2363C148.688 62.0449 147.855 63.1348 145.969 63.1348ZM145.928 57.6914C145.184 57.6914 144.633 58.1953 144.527 59.1094H147.311C147.205 58.1719 146.672 57.6914 145.928 57.6914ZM153.445 63V56.5488H155.156V57.5566H155.262C155.537 56.8301 156.205 56.4082 157.049 56.4082C157.928 56.4082 158.578 56.8535 158.842 57.5977H158.947C159.24 56.8828 159.99 56.4082 160.893 56.4082C162.176 56.4082 162.979 57.2402 162.979 58.5703V63H161.268V58.998C161.268 58.2188 160.916 57.8262 160.201 57.8262C159.51 57.8262 159.064 58.3359 159.064 59.0332V63H157.354V58.9219C157.354 58.2305 156.961 57.8262 156.293 57.8262C155.625 57.8262 155.156 58.3711 155.156 59.1094V63H153.445ZM167.473 63.1348C165.51 63.1348 164.32 61.8516 164.32 59.7832V59.7773C164.32 57.7266 165.521 56.4082 167.402 56.4082C169.283 56.4082 170.455 57.6973 170.455 59.6484V60.1816H166.014C166.031 61.2422 166.6 61.8574 167.508 61.8574C168.258 61.8574 168.674 61.459 168.791 61.2129L168.809 61.1777H170.402L170.391 61.2363C170.191 62.0449 169.359 63.1348 167.473 63.1348ZM167.432 57.6914C166.688 57.6914 166.137 58.1953 166.031 59.1094H168.814C168.709 58.1719 168.176 57.6914 167.432 57.6914ZM174.158 63.0996C172.547 63.0996 171.539 61.8398 171.539 59.7773V59.7656C171.539 57.6914 172.523 56.4434 174.158 56.4434C175.043 56.4434 175.764 56.877 176.086 57.5801H176.191V54.082H177.902V63H176.191V61.998H176.086C175.752 62.6953 175.066 63.0996 174.158 63.0996ZM174.738 61.6816C175.646 61.6816 176.209 60.9668 176.209 59.7832V59.7715C176.209 58.5879 175.641 57.8613 174.738 57.8613C173.836 57.8613 173.279 58.5879 173.279 59.7656V59.7773C173.279 60.9668 173.836 61.6816 174.738 61.6816ZM180.545 55.5586C180.018 55.5586 179.578 55.1367 179.578 54.6094C179.578 54.0762 180.018 53.6543 180.545 53.6543C181.072 53.6543 181.506 54.0762 181.506 54.6094C181.506 55.1367 181.072 55.5586 180.545 55.5586ZM179.684 63V56.5488H181.395V63H179.684ZM185.795 63.0234C184.225 63.0234 183.592 62.5137 183.592 61.2598V57.8379H182.596V56.5488H183.592V55.0078H185.32V56.5488H186.65V57.8379H185.32V60.8672C185.32 61.4473 185.566 61.7051 186.146 61.7051C186.369 61.7051 186.486 61.6934 186.65 61.6758V62.9473C186.439 62.9883 186.123 63.0234 185.795 63.0234ZM189.832 63.0996C188.602 63.0996 187.729 62.3379 187.729 61.166V61.1543C187.729 59.9941 188.625 59.3145 190.23 59.2207L191.789 59.127V58.5938C191.789 58.0371 191.408 57.7207 190.705 57.7207C190.09 57.7207 189.697 57.9375 189.562 58.3184L189.551 58.3418H187.969L187.975 58.2891C188.109 57.1582 189.176 56.4082 190.799 56.4082C192.51 56.4082 193.477 57.2168 193.477 58.5938V63H191.789V62.1445H191.684C191.355 62.7422 190.676 63.0996 189.832 63.0996ZM189.398 61.0605C189.398 61.5527 189.814 61.8516 190.406 61.8516C191.197 61.8516 191.789 61.3301 191.789 60.6504V60.1758L190.488 60.2578C189.756 60.3047 189.398 60.5801 189.398 61.0488V61.0605ZM197.83 63.0234C196.26 63.0234 195.627 62.5137 195.627 61.2598V57.8379H194.631V56.5488H195.627V55.0078H197.355V56.5488H198.686V57.8379H197.355V60.8672C197.355 61.4473 197.602 61.7051 198.182 61.7051C198.404 61.7051 198.521 61.6934 198.686 61.6758V62.9473C198.475 62.9883 198.158 63.0234 197.83 63.0234ZM202.898 63.1348C200.936 63.1348 199.746 61.8516 199.746 59.7832V59.7773C199.746 57.7266 200.947 56.4082 202.828 56.4082C204.709 56.4082 205.881 57.6973 205.881 59.6484V60.1816H201.439C201.457 61.2422 202.025 61.8574 202.934 61.8574C203.684 61.8574 204.1 61.459 204.217 61.2129L204.234 61.1777H205.828L205.816 61.2363C205.617 62.0449 204.785 63.1348 202.898 63.1348ZM202.857 57.6914C202.113 57.6914 201.562 58.1953 201.457 59.1094H204.24C204.135 58.1719 203.602 57.6914 202.857 57.6914ZM209.584 63.0996C207.973 63.0996 206.965 61.8398 206.965 59.7773V59.7656C206.965 57.6914 207.949 56.4434 209.584 56.4434C210.469 56.4434 211.189 56.877 211.512 57.5801H211.617V54.082H213.328V63H211.617V61.998H211.512C211.178 62.6953 210.492 63.0996 209.584 63.0996ZM210.164 61.6816C211.072 61.6816 211.635 60.9668 211.635 59.7832V59.7715C211.635 58.5879 211.066 57.8613 210.164 57.8613C209.262 57.8613 208.705 58.5879 208.705 59.7656V59.7773C208.705 60.9668 209.262 61.6816 210.164 61.6816ZM218.689 63V57.8379H217.646V56.5488H218.689V55.9453C218.689 54.6621 219.346 54.0176 220.904 54.0176C221.25 54.0176 221.537 54.041 221.783 54.082V55.2246C221.678 55.207 221.496 55.1895 221.273 55.1895C220.611 55.1895 220.365 55.5 220.365 56.0625V56.5488H221.73V57.8379H220.4V63H218.689ZM225.732 63.1348C223.746 63.1348 222.551 61.875 222.551 59.7773V59.7656C222.551 57.6855 223.764 56.4082 225.732 56.4082C227.701 56.4082 228.914 57.6797 228.914 59.7656V59.7773C228.914 61.8809 227.719 63.1348 225.732 63.1348ZM225.732 61.793C226.641 61.793 227.162 61.0488 227.162 59.7773V59.7656C227.162 58.5059 226.635 57.75 225.732 57.75C224.824 57.75 224.303 58.5059 224.303 59.7656V59.7773C224.303 61.0488 224.818 61.793 225.732 61.793ZM230.309 63V56.5488H232.02V57.5508H232.125C232.33 56.8535 232.916 56.4434 233.754 56.4434C233.982 56.4434 234.223 56.4785 234.393 56.5254V58.0195C234.135 57.9609 233.871 57.9199 233.607 57.9199C232.635 57.9199 232.02 58.4766 232.02 59.3906V63H230.309ZM240.697 63V56.2148H240.592L238.518 57.6562V56.0625L240.703 54.5449H242.467V63H240.697ZM250.166 63.0996C248.555 63.0996 247.547 61.8398 247.547 59.7773V59.7656C247.547 57.6914 248.531 56.4434 250.166 56.4434C251.051 56.4434 251.771 56.877 252.094 57.5801H252.199V54.082H253.91V63H252.199V61.998H252.094C251.76 62.6953 251.074 63.0996 250.166 63.0996ZM250.746 61.6816C251.654 61.6816 252.217 60.9668 252.217 59.7832V59.7715C252.217 58.5879 251.648 57.8613 250.746 57.8613C249.844 57.8613 249.287 58.5879 249.287 59.7656V59.7773C249.287 60.9668 249.844 61.6816 250.746 61.6816ZM257.438 63.0996C256.207 63.0996 255.334 62.3379 255.334 61.166V61.1543C255.334 59.9941 256.23 59.3145 257.836 59.2207L259.395 59.127V58.5938C259.395 58.0371 259.014 57.7207 258.311 57.7207C257.695 57.7207 257.303 57.9375 257.168 58.3184L257.156 58.3418H255.574L255.58 58.2891C255.715 57.1582 256.781 56.4082 258.404 56.4082C260.115 56.4082 261.082 57.2168 261.082 58.5938V63H259.395V62.1445H259.289C258.961 62.7422 258.281 63.0996 257.438 63.0996ZM257.004 61.0605C257.004 61.5527 257.42 61.8516 258.012 61.8516C258.803 61.8516 259.395 61.3301 259.395 60.6504V60.1758L258.094 60.2578C257.361 60.3047 257.004 60.5801 257.004 61.0488V61.0605ZM263.35 65.2734C263.15 65.2734 262.934 65.2676 262.734 65.2559V63.9668C262.852 63.9785 263.021 63.9844 263.18 63.9844C263.789 63.9844 264.141 63.75 264.264 63.2461L264.322 63L262.055 56.5488H263.936L265.289 61.4355H265.406L266.76 56.5488H268.564L266.367 62.9941C265.793 64.6992 264.943 65.2734 263.35 65.2734ZM270.164 63.1465C269.566 63.1465 269.133 62.707 269.133 62.127C269.133 61.5469 269.566 61.1133 270.164 61.1133C270.768 61.1133 271.195 61.5469 271.195 62.127C271.195 62.707 270.768 63.1465 270.164 63.1465Z" fill="#858585"/>
<path d="M56.0117 129V121.717H55.918L53.7676 123.275V122.162L56.0176 120.545H57.0664V129H56.0117Z" fill="#ADADAD"/>
<path d="M55.8203 175.141C54.0742 175.141 52.9434 174.168 52.832 172.832L52.8262 172.762H53.8398L53.8457 172.82C53.9277 173.652 54.6953 174.227 55.8203 174.227C56.9277 174.227 57.6836 173.605 57.6836 172.709V172.697C57.6836 171.66 56.9395 171.08 55.7559 171.08H54.6953V170.189H55.709C56.7168 170.189 57.4199 169.568 57.4199 168.725V168.713C57.4199 167.828 56.8398 167.318 55.8086 167.318C54.8125 167.318 54.1035 167.846 54.0156 168.701L54.0098 168.76H52.9961L53.002 168.701C53.1367 167.324 54.2266 166.404 55.8086 166.404C57.4199 166.404 58.4805 167.301 58.4805 168.584V168.596C58.4805 169.639 57.7422 170.354 56.6875 170.576V170.6C57.918 170.705 58.7559 171.473 58.7559 172.674V172.686C58.7559 174.098 57.5137 175.141 55.8203 175.141Z" fill="#ADADAD"/>
<path d="M55.7207 234.199C54.1445 234.199 53.0195 233.186 52.8965 231.832L52.8906 231.768H53.9043L53.9102 231.814C54.0098 232.623 54.7422 233.268 55.7324 233.268C56.8574 233.268 57.6309 232.465 57.6309 231.322V231.311C57.6309 230.186 56.8457 229.383 55.75 229.383C55.1875 229.383 54.707 229.553 54.3438 229.898C54.1973 230.039 54.0625 230.203 53.957 230.402H53.043L53.4883 225.545H58.1934V226.488H54.3203L54.0332 229.348H54.127C54.502 228.779 55.1641 228.469 55.9316 228.469C57.5195 228.469 58.6621 229.658 58.6621 231.293V231.305C58.6621 233.01 57.4375 234.199 55.7207 234.199Z" fill="#ADADAD"/>
<path d="M114.932 234.199C113.385 234.199 111.75 233.109 111.75 229.928V229.916C111.75 227.033 112.951 225.346 115.002 225.346C116.42 225.346 117.475 226.178 117.762 227.426L117.779 227.502H116.719L116.695 227.438C116.438 226.729 115.846 226.289 114.99 226.289C113.455 226.289 112.828 227.789 112.764 229.553C112.758 229.617 112.758 229.688 112.758 229.752H112.869C113.18 229.061 113.977 228.445 115.119 228.445C116.707 228.445 117.891 229.652 117.891 231.275V231.287C117.891 232.975 116.637 234.199 114.932 234.199ZM113.01 231.275C113.01 232.389 113.848 233.268 114.92 233.268C115.98 233.268 116.83 232.406 116.83 231.311V231.299C116.83 230.174 116.033 229.365 114.938 229.365C113.842 229.365 113.01 230.168 113.01 231.27V231.275Z" fill="#ADADAD"/>
<path d="M115.805 175V173.248H111.686V172.287C112.828 170.371 114.123 168.309 115.307 166.545H116.836V172.305H118.037V173.248H116.836V175H115.805ZM112.764 172.311H115.811V167.523H115.74C114.791 168.941 113.684 170.688 112.764 172.24V172.311Z" fill="#ADADAD"/>
<path d="M111.943 108V107.273L114.803 104.18C115.881 103.014 116.197 102.574 116.197 101.836V101.824C116.197 100.934 115.594 100.266 114.598 100.266C113.584 100.266 112.91 100.928 112.91 101.924L112.904 101.936L111.896 101.93L111.885 101.924C111.891 100.424 113.051 99.3457 114.668 99.3457C116.145 99.3457 117.275 100.348 117.275 101.713V101.725C117.275 102.691 116.859 103.395 115.33 104.971L113.408 106.957V107.051H117.416V108H111.943Z" fill="#ADADAD"/>
<path d="M56.5 91.0596C55.8067 91.8903 54.0653 93.896 52.646 95.2727C50.872 96.9936 47.9968 99.9013 47.1404 102.038C46.284 104.174 44.8769 108.328 47.5686 112.719C49.7219 116.232 53.686 116.24 55.3989 115.804H56.5V91.0596Z" fill="url(#paint0_linear_4048_3575)"/>
<path d="M56.5 91C57.1933 91.8308 58.9347 93.8365 60.354 95.2132C62.128 96.934 65.0032 99.8417 65.8596 101.978C66.716 104.114 68.1231 108.268 65.4314 112.659C63.2781 116.172 59.314 116.18 57.6011 115.745H56.5V91Z" fill="url(#paint1_linear_4048_3575)"/>
<path d="M239.5 125.166C237.552 127.492 232.66 133.108 228.672 136.963C223.688 141.781 215.61 149.923 213.204 155.904C210.798 161.886 206.845 173.516 214.407 185.812C220.457 195.648 231.594 195.67 236.406 194.452H239.5V125.166Z" fill="url(#paint2_linear_4048_3575)"/>
<path d="M239.5 125C241.448 127.326 246.34 132.942 250.328 136.797C255.312 141.615 263.39 149.757 265.796 155.738C268.202 161.72 272.155 173.35 264.593 185.646C258.543 195.482 247.406 195.504 242.594 194.286H239.5V125Z" fill="url(#paint3_linear_4048_3575)"/>
<path d="M143.226 223V218.833L139.52 212.431H141.585L144.105 216.965H144.229L146.749 212.431H148.814L145.108 218.833V223H143.226ZM152.05 223.161C149.647 223.161 148.197 221.594 148.197 219.001V218.986C148.197 216.416 149.669 214.841 152.05 214.841C154.438 214.841 155.902 216.408 155.902 218.986V219.001C155.902 221.594 154.445 223.161 152.05 223.161ZM152.05 221.682C153.317 221.682 154.035 220.693 154.035 219.008V218.994C154.035 217.309 153.31 216.313 152.05 216.313C150.783 216.313 150.058 217.309 150.058 218.994V219.008C150.058 220.693 150.783 221.682 152.05 221.682ZM159.885 223.161C158.083 223.161 157.16 222.077 157.16 220.173V214.995H158.984V219.755C158.984 220.993 159.445 221.623 160.544 221.623C161.723 221.623 162.353 220.861 162.353 219.66V214.995H164.177V223H162.353V221.784H162.229C161.855 222.641 161.042 223.161 159.885 223.161ZM165.903 223V214.995H167.727V216.225H167.852C168.123 215.368 168.855 214.863 169.91 214.863C170.188 214.863 170.474 214.899 170.649 214.951V216.584C170.356 216.525 170.056 216.481 169.741 216.481C168.525 216.481 167.727 217.207 167.727 218.349V223H165.903ZM178.167 223.161C176.131 223.161 174.901 222.224 174.747 220.869V220.854H176.556L176.563 220.869C176.754 221.425 177.289 221.813 178.197 221.813C179.105 221.813 179.735 221.403 179.735 220.803V220.788C179.735 220.319 179.383 220.012 178.504 219.814L177.208 219.521C175.685 219.184 174.959 218.466 174.959 217.287V217.28C174.959 215.837 176.278 214.841 178.167 214.841C180.116 214.841 181.28 215.808 181.397 217.104V217.119H179.684L179.676 217.097C179.544 216.591 179.017 216.181 178.16 216.181C177.347 216.181 176.761 216.577 176.761 217.177V217.185C176.761 217.653 177.098 217.939 177.962 218.137L179.259 218.422C180.826 218.774 181.566 219.44 181.566 220.605V220.62C181.566 222.143 180.138 223.161 178.167 223.161ZM186.332 223.161C183.952 223.161 182.509 221.564 182.509 219.016V219.008C182.509 216.489 183.966 214.841 186.244 214.841C188.522 214.841 189.928 216.438 189.928 218.854V219.455H184.333C184.354 220.891 185.131 221.726 186.369 221.726C187.357 221.726 187.921 221.228 188.097 220.861L188.119 220.81H189.855L189.833 220.876C189.577 221.909 188.507 223.161 186.332 223.161ZM186.266 216.269C185.248 216.269 184.486 216.958 184.347 218.232H188.148C188.024 216.921 187.284 216.269 186.266 216.269ZM194.68 223.161C192.299 223.161 190.856 221.564 190.856 219.016V219.008C190.856 216.489 192.314 214.841 194.592 214.841C196.87 214.841 198.276 216.438 198.276 218.854V219.455H192.68C192.702 220.891 193.479 221.726 194.716 221.726C195.705 221.726 196.269 221.228 196.445 220.861L196.467 220.81H198.203L198.181 220.876C197.924 221.909 196.855 223.161 194.68 223.161ZM194.614 216.269C193.596 216.269 192.834 216.958 192.695 218.232H196.496C196.372 216.921 195.632 216.269 194.614 216.269ZM202.485 223.132C200.479 223.132 199.204 221.542 199.204 219.008V218.994C199.204 216.445 200.457 214.863 202.485 214.863C203.584 214.863 204.5 215.405 204.917 216.269H205.042V211.896H206.873V223H205.042V221.748H204.917C204.478 222.619 203.613 223.132 202.485 223.132ZM203.057 221.594C204.302 221.594 205.071 220.612 205.071 219.008V218.994C205.071 217.39 204.294 216.401 203.057 216.401C201.819 216.401 201.057 217.382 201.057 218.994V219.008C201.057 220.62 201.812 221.594 203.057 221.594ZM213.102 213.654C212.501 213.654 212.01 213.178 212.01 212.578C212.01 211.984 212.501 211.501 213.102 211.501C213.695 211.501 214.186 211.984 214.186 212.578C214.186 213.178 213.695 213.654 213.102 213.654ZM212.186 223V214.995H214.01V223H212.186ZM218.776 223.161C216.74 223.161 215.509 222.224 215.355 220.869V220.854H217.165L217.172 220.869C217.362 221.425 217.897 221.813 218.805 221.813C219.713 221.813 220.343 221.403 220.343 220.803V220.788C220.343 220.319 219.992 220.012 219.113 219.814L217.816 219.521C216.293 219.184 215.568 218.466 215.568 217.287V217.28C215.568 215.837 216.886 214.841 218.776 214.841C220.724 214.841 221.889 215.808 222.006 217.104V217.119H220.292L220.285 217.097C220.153 216.591 219.625 216.181 218.769 216.181C217.956 216.181 217.37 216.577 217.37 217.177V217.185C217.37 217.653 217.707 217.939 218.571 218.137L219.867 218.422C221.435 218.774 222.174 219.44 222.174 220.605V220.62C222.174 222.143 220.746 223.161 218.776 223.161ZM227.012 225.659V214.995H228.835V216.247H228.96C229.399 215.375 230.271 214.863 231.392 214.863C233.398 214.863 234.68 216.459 234.68 218.994V219.008C234.68 221.557 233.42 223.132 231.392 223.132C230.293 223.132 229.377 222.59 228.96 221.726H228.835V225.659H227.012ZM230.82 221.594C232.065 221.594 232.82 220.612 232.82 219.008V218.994C232.82 217.382 232.065 216.401 230.82 216.401C229.583 216.401 228.813 217.382 228.813 218.986V219.001C228.813 220.605 229.583 221.594 230.82 221.594ZM236.092 223V211.896H237.916V223H236.092ZM241.905 223.132C240.382 223.132 239.276 222.194 239.276 220.737V220.722C239.276 219.294 240.367 218.459 242.315 218.342L244.374 218.217V217.529C244.374 216.73 243.854 216.291 242.872 216.291C242.037 216.291 241.495 216.591 241.312 217.119L241.305 217.148H239.583L239.591 217.082C239.767 215.734 241.056 214.841 242.96 214.841C245.018 214.841 246.175 215.837 246.175 217.529V223H244.374V221.901H244.249C243.81 222.678 242.96 223.132 241.905 223.132ZM241.078 220.649C241.078 221.33 241.656 221.733 242.462 221.733C243.561 221.733 244.374 221.015 244.374 220.063V219.418L242.572 219.536C241.554 219.602 241.078 219.975 241.078 220.634V220.649ZM247.865 223V214.995H249.689V216.218H249.813C250.194 215.361 250.963 214.841 252.121 214.841C253.908 214.841 254.882 215.917 254.882 217.822V223H253.058V218.247C253.058 217.001 252.553 216.372 251.447 216.372C250.363 216.372 249.689 217.133 249.689 218.334V223H247.865ZM259.685 223.037C257.846 223.037 257.092 222.421 257.092 220.876V216.408H255.847V214.995H257.092V213.032H258.945V214.995H260.637V216.408H258.945V220.444C258.945 221.242 259.26 221.579 260.021 221.579C260.278 221.579 260.417 221.572 260.637 221.55V222.956C260.373 223.007 260.036 223.037 259.685 223.037ZM265.308 223.161C262.927 223.161 261.484 221.564 261.484 219.016V219.008C261.484 216.489 262.942 214.841 265.22 214.841C267.498 214.841 268.904 216.438 268.904 218.854V219.455H263.308C263.33 220.891 264.106 221.726 265.344 221.726C266.333 221.726 266.897 221.228 267.073 220.861L267.095 220.81H268.831L268.809 220.876C268.552 221.909 267.483 223.161 265.308 223.161ZM265.242 216.269C264.224 216.269 263.462 216.958 263.323 218.232H267.124C267 216.921 266.26 216.269 265.242 216.269ZM273.113 223.132C271.106 223.132 269.832 221.542 269.832 219.008V218.994C269.832 216.445 271.084 214.863 273.113 214.863C274.212 214.863 275.127 215.405 275.545 216.269H275.669V211.896H277.5V223H275.669V221.748H275.545C275.105 222.619 274.241 223.132 273.113 223.132ZM273.685 221.594C274.93 221.594 275.699 220.612 275.699 219.008V218.994C275.699 217.39 274.922 216.401 273.685 216.401C272.447 216.401 271.685 217.382 271.685 218.994V219.008C271.685 220.62 272.439 221.594 273.685 221.594ZM280.648 223.146C279.981 223.146 279.483 222.641 279.483 221.989C279.483 221.337 279.981 220.832 280.648 220.832C281.322 220.832 281.812 221.337 281.812 221.989C281.812 222.641 281.322 223.146 280.648 223.146Z" fill="#333333"/>
<path d="M139.988 248V240.25H144.79V241.12H140.955V243.606H144.591V244.466H140.955V247.13H144.79V248H139.988ZM148.127 248L145.984 242.21H146.972L148.557 246.979H148.643L150.227 242.21H151.215L149.072 248H148.127ZM154.665 248.102C153.011 248.102 152.012 246.942 152.012 245.126V245.121C152.012 243.333 153.032 242.108 154.606 242.108C156.18 242.108 157.136 243.279 157.136 245.008V245.374H152.968C152.995 246.571 153.655 247.27 154.687 247.27C155.471 247.27 155.954 246.899 156.11 246.55L156.132 246.501H157.066L157.055 246.544C156.857 247.329 156.029 248.102 154.665 248.102ZM154.601 242.94C153.741 242.94 153.086 243.526 152.984 244.627H156.185C156.089 243.483 155.455 242.94 154.601 242.94ZM158.652 248V242.21H159.587V243.069H159.673C159.893 242.462 160.435 242.108 161.219 242.108C161.397 242.108 161.595 242.129 161.687 242.146V243.053C161.493 243.021 161.316 243 161.112 243C160.22 243 159.587 243.563 159.587 244.412V248H158.652ZM163.455 250.03C163.332 250.03 163.171 250.02 163.042 249.998V249.23C163.155 249.251 163.3 249.257 163.429 249.257C163.96 249.257 164.283 249.015 164.492 248.349L164.599 248.005L162.456 242.21H163.455L165.045 246.974H165.131L166.716 242.21H167.699L165.437 248.354C164.959 249.654 164.481 250.03 163.455 250.03ZM171.057 248.043C169.865 248.043 169.365 247.603 169.365 246.496V242.983H168.452V242.21H169.365V240.711H170.332V242.21H171.6V242.983H170.332V246.26C170.332 246.942 170.568 247.216 171.17 247.216C171.336 247.216 171.428 247.21 171.6 247.194V247.989C171.417 248.021 171.24 248.043 171.057 248.043ZM173.116 248V239.911H174.05V243.08H174.136C174.426 242.468 174.969 242.108 175.823 242.108C177.123 242.108 177.848 242.876 177.848 244.251V248H176.913V244.477C176.913 243.435 176.483 242.935 175.56 242.935C174.636 242.935 174.05 243.558 174.05 244.573V248H173.116ZM180.1 241.093C179.745 241.093 179.455 240.803 179.455 240.448C179.455 240.094 179.745 239.804 180.1 239.804C180.454 239.804 180.744 240.094 180.744 240.448C180.744 240.803 180.454 241.093 180.1 241.093ZM179.627 248V242.21H180.562V248H179.627ZM182.389 248V242.21H183.324V243.08H183.41C183.7 242.468 184.242 242.108 185.096 242.108C186.396 242.108 187.121 242.876 187.121 244.251V248H186.187V244.477C186.187 243.435 185.757 242.935 184.833 242.935C183.909 242.935 183.324 243.558 183.324 244.573V248H182.389ZM191.264 250.041C189.867 250.041 188.976 249.413 188.831 248.462L188.842 248.457H189.808L189.814 248.462C189.916 248.902 190.431 249.214 191.264 249.214C192.301 249.214 192.918 248.725 192.918 247.871V246.7H192.832C192.467 247.339 191.812 247.699 191.017 247.699C189.518 247.699 188.589 246.539 188.589 244.917V244.906C188.589 243.284 189.524 242.108 191.038 242.108C191.855 242.108 192.489 242.511 192.843 243.166H192.907V242.21H193.842V247.919C193.842 249.214 192.843 250.041 191.264 250.041ZM191.221 246.872C192.295 246.872 192.94 246.066 192.94 244.917V244.906C192.94 243.757 192.29 242.935 191.221 242.935C190.147 242.935 189.545 243.757 189.545 244.906V244.917C189.545 246.066 190.147 246.872 191.221 246.872ZM200.795 248.102C199.506 248.102 198.62 247.479 198.513 246.523H199.469C199.624 247.006 200.086 247.323 200.828 247.323C201.606 247.323 202.16 246.953 202.16 246.426V246.416C202.16 246.023 201.864 245.75 201.15 245.578L200.253 245.363C199.168 245.105 198.679 244.632 198.679 243.8V243.794C198.679 242.833 199.603 242.108 200.833 242.108C202.047 242.108 202.89 242.715 203.019 243.66H202.101C201.977 243.204 201.526 242.887 200.828 242.887C200.14 242.887 199.635 243.241 199.635 243.751V243.762C199.635 244.154 199.925 244.401 200.607 244.568L201.499 244.783C202.589 245.046 203.116 245.519 203.116 246.346V246.356C203.116 247.388 202.111 248.102 200.795 248.102ZM206.635 248.043C205.443 248.043 204.943 247.603 204.943 246.496V242.983H204.03V242.21H204.943V240.711H205.91V242.21H207.178V242.983H205.91V246.26C205.91 246.942 206.146 247.216 206.748 247.216C206.915 247.216 207.006 247.21 207.178 247.194V247.989C206.995 248.021 206.818 248.043 206.635 248.043ZM210.23 248.102C209.129 248.102 208.296 247.436 208.296 246.383V246.373C208.296 245.341 209.059 244.745 210.407 244.665L212.067 244.562V244.036C212.067 243.322 211.632 242.935 210.767 242.935C210.074 242.935 209.618 243.193 209.467 243.644L209.462 243.66H208.527L208.533 243.628C208.683 242.72 209.564 242.108 210.799 242.108C212.212 242.108 213.002 242.833 213.002 244.036V248H212.067V247.146H211.981C211.616 247.764 211.009 248.102 210.23 248.102ZM209.253 246.362C209.253 246.947 209.752 247.291 210.423 247.291C211.374 247.291 212.067 246.668 212.067 245.841V245.314L210.52 245.411C209.639 245.465 209.253 245.776 209.253 246.351V246.362ZM214.776 248V242.21H215.71V243.069H215.796C216.016 242.462 216.559 242.108 217.343 242.108C217.52 242.108 217.719 242.129 217.81 242.146V243.053C217.617 243.021 217.44 243 217.236 243C216.344 243 215.71 243.563 215.71 244.412V248H214.776ZM221.196 248.043C220.003 248.043 219.504 247.603 219.504 246.496V242.983H218.591V242.21H219.504V240.711H220.47V242.21H221.738V242.983H220.47V246.26C220.47 246.942 220.707 247.216 221.308 247.216C221.475 247.216 221.566 247.21 221.738 247.194V247.989C221.555 248.021 221.378 248.043 221.196 248.043ZM225.08 248.102C223.791 248.102 222.905 247.479 222.798 246.523H223.754C223.91 247.006 224.371 247.323 225.113 247.323C225.891 247.323 226.445 246.953 226.445 246.426V246.416C226.445 246.023 226.149 245.75 225.435 245.578L224.538 245.363C223.453 245.105 222.964 244.632 222.964 243.8V243.794C222.964 242.833 223.888 242.108 225.118 242.108C226.332 242.108 227.175 242.715 227.304 243.66H226.386C226.262 243.204 225.811 242.887 225.113 242.887C224.425 242.887 223.92 243.241 223.92 243.751V243.762C223.92 244.154 224.21 244.401 224.892 244.568L225.784 244.783C226.874 245.046 227.401 245.519 227.401 246.346V246.356C227.401 247.388 226.396 248.102 225.08 248.102ZM233.194 248L231.572 242.21H232.506L233.645 246.84H233.731L235.025 242.21H235.912L237.206 246.84H237.292L238.431 242.21H239.36L237.738 248H236.798L235.503 243.521H235.417L234.128 248H233.194ZM241.155 241.093C240.801 241.093 240.511 240.803 240.511 240.448C240.511 240.094 240.801 239.804 241.155 239.804C241.51 239.804 241.8 240.094 241.8 240.448C241.8 240.803 241.51 241.093 241.155 241.093ZM240.683 248V242.21H241.617V248H240.683ZM245.502 248.043C244.31 248.043 243.81 247.603 243.81 246.496V242.983H242.897V242.21H243.81V240.711H244.777V242.21H246.045V242.983H244.777V246.26C244.777 246.942 245.013 247.216 245.615 247.216C245.781 247.216 245.873 247.21 246.045 247.194V247.989C245.862 248.021 245.685 248.043 245.502 248.043ZM247.561 248V239.911H248.495V243.08H248.581C248.871 242.468 249.414 242.108 250.268 242.108C251.568 242.108 252.293 242.876 252.293 244.251V248H251.358V244.477C251.358 243.435 250.928 242.935 250.005 242.935C249.081 242.935 248.495 243.558 248.495 244.573V248H247.561ZM258.8 248.102C257.699 248.102 256.867 247.436 256.867 246.383V246.373C256.867 245.341 257.629 244.745 258.977 244.665L260.637 244.562V244.036C260.637 243.322 260.202 242.935 259.337 242.935C258.644 242.935 258.188 243.193 258.038 243.644L258.032 243.66H257.098L257.103 243.628C257.253 242.72 258.134 242.108 259.37 242.108C260.782 242.108 261.572 242.833 261.572 244.036V248H260.637V247.146H260.551C260.186 247.764 259.579 248.102 258.8 248.102ZM257.823 246.362C257.823 246.947 258.322 247.291 258.994 247.291C259.944 247.291 260.637 246.668 260.637 245.841V245.314L259.09 245.411C258.209 245.465 257.823 245.776 257.823 246.351V246.362ZM268.493 248.102C267.204 248.102 266.317 247.479 266.21 246.523H267.166C267.322 247.006 267.784 247.323 268.525 247.323C269.304 247.323 269.857 246.953 269.857 246.426V246.416C269.857 246.023 269.562 245.75 268.847 245.578L267.95 245.363C266.865 245.105 266.377 244.632 266.377 243.8V243.794C266.377 242.833 267.3 242.108 268.53 242.108C269.744 242.108 270.588 242.715 270.716 243.66H269.798C269.674 243.204 269.223 242.887 268.525 242.887C267.838 242.887 267.333 243.241 267.333 243.751V243.762C267.333 244.154 267.623 244.401 268.305 244.568L269.196 244.783C270.287 245.046 270.813 245.519 270.813 246.346V246.356C270.813 247.388 269.809 248.102 268.493 248.102ZM272.823 241.093C272.469 241.093 272.179 240.803 272.179 240.448C272.179 240.094 272.469 239.804 272.823 239.804C273.178 239.804 273.468 240.094 273.468 240.448C273.468 240.803 273.178 241.093 272.823 241.093ZM272.351 248V242.21H273.285V248H272.351ZM275.113 248V242.21H276.048V243.08H276.134C276.424 242.468 276.966 242.108 277.82 242.108C279.12 242.108 279.845 242.876 279.845 244.251V248H278.91V244.477C278.91 243.435 278.481 242.935 277.557 242.935C276.633 242.935 276.048 243.558 276.048 244.573V248H275.113ZM283.988 250.041C282.591 250.041 281.7 249.413 281.555 248.462L281.565 248.457H282.532L282.537 248.462C282.64 248.902 283.155 249.214 283.988 249.214C285.024 249.214 285.642 248.725 285.642 247.871V246.7H285.556C285.191 247.339 284.536 247.699 283.741 247.699C282.242 247.699 281.313 246.539 281.313 244.917V244.906C281.313 243.284 282.247 242.108 283.762 242.108C284.578 242.108 285.212 242.511 285.567 243.166H285.631V242.21H286.566V247.919C286.566 249.214 285.567 250.041 283.988 250.041ZM283.945 246.872C285.019 246.872 285.663 246.066 285.663 244.917V244.906C285.663 243.757 285.014 242.935 283.945 242.935C282.87 242.935 282.269 243.757 282.269 244.906V244.917C282.269 246.066 282.87 246.872 283.945 246.872ZM288.426 248V239.911H289.36V248H288.426ZM293.584 248.102C291.929 248.102 290.93 246.942 290.93 245.126V245.121C290.93 243.333 291.951 242.108 293.524 242.108C295.098 242.108 296.054 243.279 296.054 245.008V245.374H291.886C291.913 246.571 292.574 247.27 293.605 247.27C294.389 247.27 294.873 246.899 295.028 246.55L295.05 246.501H295.984L295.974 246.544C295.775 247.329 294.948 248.102 293.584 248.102ZM293.519 242.94C292.66 242.94 292.004 243.526 291.902 244.627H295.104C295.007 243.483 294.373 242.94 293.519 242.94ZM302.717 248.102C301.428 248.102 300.542 247.479 300.435 246.523H301.391C301.547 247.006 302.008 247.323 302.75 247.323C303.529 247.323 304.082 246.953 304.082 246.426V246.416C304.082 246.023 303.786 245.75 303.072 245.578L302.175 245.363C301.09 245.105 300.601 244.632 300.601 243.8V243.794C300.601 242.833 301.525 242.108 302.755 242.108C303.969 242.108 304.812 242.715 304.941 243.66H304.023C303.899 243.204 303.448 242.887 302.75 242.887C302.062 242.887 301.557 243.241 301.557 243.751V243.762C301.557 244.154 301.847 244.401 302.529 244.568L303.421 244.783C304.511 245.046 305.038 245.519 305.038 246.346V246.356C305.038 247.388 304.033 248.102 302.717 248.102ZM308.557 248.043C307.365 248.043 306.865 247.603 306.865 246.496V242.983H305.952V242.21H306.865V240.711H307.832V242.21H309.1V242.983H307.832V246.26C307.832 246.942 308.069 247.216 308.67 247.216C308.837 247.216 308.928 247.21 309.1 247.194V247.989C308.917 248.021 308.74 248.043 308.557 248.043ZM312.84 248.102C311.185 248.102 310.186 246.942 310.186 245.126V245.121C310.186 243.333 311.207 242.108 312.781 242.108C314.354 242.108 315.31 243.279 315.31 245.008V245.374H311.142C311.169 246.571 311.83 247.27 312.861 247.27C313.645 247.27 314.129 246.899 314.285 246.55L314.306 246.501H315.241L315.23 246.544C315.031 247.329 314.204 248.102 312.84 248.102ZM312.775 242.94C311.916 242.94 311.261 243.526 311.159 244.627H314.36C314.263 243.483 313.629 242.94 312.775 242.94ZM316.827 249.934V242.21H317.761V243.134H317.847C318.202 242.489 318.846 242.108 319.652 242.108C321.118 242.108 322.08 243.295 322.08 245.1V245.11C322.08 246.926 321.123 248.102 319.652 248.102C318.857 248.102 318.164 247.705 317.847 247.087H317.761V249.934H316.827ZM319.437 247.275C320.495 247.275 321.123 246.458 321.123 245.11V245.1C321.123 243.751 320.495 242.935 319.437 242.935C318.384 242.935 317.74 243.762 317.74 245.1V245.11C317.74 246.448 318.384 247.275 319.437 247.275ZM324.262 248.054C323.88 248.054 323.564 247.737 323.564 247.355C323.564 246.969 323.88 246.657 324.262 246.657C324.648 246.657 324.96 246.969 324.96 247.355C324.96 247.737 324.648 248.054 324.262 248.054Z" fill="#ADADAD"/>
</g>
<defs>
<filter id="filter0_d_4048_3575" x="0" y="0" width="359" height="279" filterUnits="userSpaceOnUse" color-interpolation-filters="sRGB">
<feFlood flood-opacity="0" result="BackgroundImageFix"/>
<feColorMatrix in="SourceAlpha" type="matrix" values="0 0 0 0 0 0 0 0 0 0 0 0 0 0 0 0 0 0 127 0" result="hardAlpha"/>
<feOffset dy="2"/>
<feGaussianBlur stdDeviation="6"/>
<feColorMatrix type="matrix" values="0 0 0 0 0.2 0 0 0 0 0.2 0 0 0 0 0.2 0 0 0 0.08 0"/>
<feBlend mode="normal" in2="BackgroundImageFix" result="effect1_dropShadow_4048_3575"/>
<feBlend mode="normal" in="SourceGraphic" in2="effect1_dropShadow_4048_3575" result="shape"/>
</filter>
<linearGradient id="paint0_linear_4048_3575" x1="51.25" y1="91.0596" x2="51.25" y2="116" gradientUnits="userSpaceOnUse">
<stop stop-color="#E5DED0"/>
<stop offset="1" stop-color="#83BB9E"/>
</linearGradient>
<linearGradient id="paint1_linear_4048_3575" x1="61.75" y1="91" x2="61.75" y2="115.941" gradientUnits="userSpaceOnUse">
<stop stop-color="#E5DED0"/>
<stop offset="1" stop-color="#83BB9E"/>
</linearGradient>
<linearGradient id="paint2_linear_4048_3575" x1="224.75" y1="125.166" x2="224.75" y2="195" gradientUnits="userSpaceOnUse">
<stop stop-color="#E5DED0"/>
<stop offset="1" stop-color="#83BB9E"/>
</linearGradient>
<linearGradient id="paint3_linear_4048_3575" x1="254.25" y1="125" x2="254.25" y2="194.834" gradientUnits="userSpaceOnUse">
<stop stop-color="#E5DED0"/>
<stop offset="1" stop-color="#83BB9E"/>
</linearGradient>
</defs>
</svg>
