<svg width="2050" height="1159" viewBox="0 0 2050 1159" fill="none" xmlns="http://www.w3.org/2000/svg">
<path d="M63 42C63 40.8954 63.8954 40 65 40H1244C1245.1 40 1246 40.8954 1246 42V1117C1246 1118.1 1245.1 1119 1244 1119H65C63.8954 1119 63 1118.1 63 1117V42Z" fill="white"/>
<path d="M65 41H1244V39H65V41ZM1245 42V1117H1247V42H1245ZM1244 1118H65V1120H1244V1118ZM64 1117V42H62V1117H64ZM65 1118C64.4477 1118 64 1117.55 64 1117H62C62 1118.66 63.3432 1120 65 1120V1118ZM1245 1117C1245 1117.55 1244.55 1118 1244 1118V1120C1245.66 1120 1247 1118.66 1247 1117H1245ZM1244 41C1244.55 41 1245 41.4477 1245 42H1247C1247 40.3431 1245.66 39 1244 39V41ZM65 39C63.3431 39 62 40.3432 62 42H64C64 41.4477 64.4477 41 65 41V39Z" fill="white" fill-opacity="0.1"/>
<path d="M339.678 249.196C340.505 248.914 341.42 249.213 341.886 249.953C348.565 260.563 343.966 271.484 345 277C346.342 284.16 363.277 323.839 349.377 329.102C335.476 334.365 322.375 338.391 304.193 336.084C286.01 333.776 274.123 332.673 255.301 324.512C240.381 318.042 289.457 266.335 339.678 249.196Z" fill="url(#paint0_linear_17_2)"/>
<path d="M188.89 263.462C188.062 263.183 187.158 263.486 186.627 264.18C178.609 274.662 165.044 283.686 164.008 289.208C162.666 296.368 190.6 328.237 204.5 333.5C218.4 338.763 207.625 338.756 225.807 336.448C243.99 334.141 255.877 333.038 274.699 324.877C289.619 318.407 239.136 280.353 188.89 263.462Z" fill="url(#paint1_linear_17_2)"/>
<path d="M265.416 261C261.334 264.036 251.401 271.103 244.325 275.078C235.48 280.047 222.894 304.063 222.213 307.927C221.533 311.792 219.832 359.547 265.416 358.995C301.883 358.554 295 331.339 295 314.5C290.918 305.575 296.44 279.937 287.187 275.078C277.935 270.22 268.818 263.668 265.416 261Z" fill="url(#paint2_linear_17_2)"/>
<path d="M384.929 272.077C386.356 271.159 388.095 272.298 387.618 273.927C382.658 290.886 360.675 317.074 357.5 324.757C353.188 335.191 333.751 361.772 318.5 368.257C303.249 374.742 301.262 388.838 288.246 384.064C275.23 379.289 268.414 370.753 259.294 357.486C252.185 347.144 338.595 301.897 384.929 272.077Z" fill="url(#paint3_linear_17_2)"/>
<path d="M115.961 267.463C114.302 267.646 114.18 269.521 115.661 270.293C146.869 286.555 176.681 307.376 180 315.409C184.311 325.843 192.812 348.25 208.063 354.735C236 366.615 250.484 363.274 263.5 358.5C276.516 353.725 237.43 318.805 228.5 305.41C215.475 285.873 137.971 265.038 115.961 267.463Z" fill="url(#paint4_linear_17_2)"/>
<path d="M696.678 249.196C697.505 248.914 698.42 249.213 698.886 249.953C705.565 260.563 700.966 271.484 702 277C703.342 284.16 720.277 323.839 706.377 329.102C692.476 334.365 679.375 338.391 661.193 336.084C643.01 333.776 631.123 332.673 612.301 324.512C597.381 318.042 646.457 266.335 696.678 249.196Z" fill="url(#paint5_linear_17_2)"/>
<path d="M545.89 263.462C545.062 263.183 544.158 263.486 543.627 264.18C535.609 274.662 522.044 283.686 521.008 289.208C519.666 296.368 547.6 328.237 561.5 333.5C575.4 338.763 564.625 338.756 582.807 336.448C600.99 334.141 612.877 333.038 631.699 324.877C646.619 318.407 596.136 280.353 545.89 263.462Z" fill="url(#paint6_linear_17_2)"/>
<path d="M622.416 261C618.334 264.036 608.401 271.103 601.325 275.078C592.48 280.047 579.894 304.063 579.213 307.927C578.533 311.792 576.832 359.547 622.416 358.995C658.883 358.554 652 331.339 652 314.5C647.918 305.575 653.44 279.937 644.187 275.078C634.935 270.22 625.818 263.668 622.416 261Z" fill="url(#paint7_linear_17_2)"/>
<path d="M741.929 272.077C743.356 271.159 745.095 272.298 744.618 273.927C739.658 290.886 717.675 317.074 714.5 324.757C710.188 335.191 690.751 361.772 675.5 368.257C660.249 374.742 658.262 388.838 645.246 384.064C632.23 379.289 625.414 370.753 616.294 357.486C609.185 347.144 695.595 301.897 741.929 272.077Z" fill="url(#paint8_linear_17_2)"/>
<path d="M472.961 267.463C471.302 267.646 471.18 269.521 472.661 270.293C503.869 286.555 533.681 307.376 537 315.409C541.311 325.843 549.812 348.25 565.063 354.735C593 366.615 607.484 363.274 620.5 358.5C633.516 353.725 594.43 318.805 585.5 305.41C572.475 285.873 494.971 265.038 472.961 267.463Z" fill="url(#paint9_linear_17_2)"/>
<g filter="url(#filter0_d_17_2)">
<path d="M999.679 207.609C995.839 212.463 986.196 224.183 978.336 232.227C968.512 242.283 952.589 259.273 947.847 271.755C943.104 284.238 935.312 308.509 950.218 334.168C962.143 354.695 984.095 354.741 993.581 352.198H999.679V207.609Z" fill="url(#paint10_linear_17_2)"/>
<path d="M999.679 207.263C1003.52 212.117 1013.16 223.837 1021.02 231.881C1030.85 241.936 1046.77 258.926 1051.51 271.409C1056.25 283.891 1064.05 308.163 1049.14 333.822C1037.21 354.348 1015.26 354.395 1005.78 351.852H999.679V207.263Z" fill="url(#paint11_linear_17_2)"/>
<path d="M1000.65 151C995.338 156.362 982.007 169.307 971.141 178.193C957.56 189.3 935.549 208.067 928.993 221.855C922.436 235.643 911.665 262.453 932.271 290.795C948.756 313.468 979.103 313.52 992.216 310.711H1000.65V151Z" fill="url(#paint12_linear_17_2)"/>
<path d="M1000.65 151C1006 156.336 1019.47 169.219 1030.44 178.061C1044.15 189.114 1066.37 207.79 1072.99 221.511C1079.61 235.232 1090.49 261.912 1069.68 290.116C1053.04 312.68 1022.4 312.731 1009.16 309.936H1000.65V151Z" fill="url(#paint13_linear_17_2)"/>
<path d="M968.045 159.366C967.152 158.939 966.09 159.264 965.572 160.108C960.749 167.967 949.521 187.551 948.798 191.08C947.832 195.796 948.953 206.831 955.005 212.136C961.057 217.441 966.809 221.804 975.183 222.475C983.558 223.146 990.813 224.347 999.586 220.787C1013.49 215.146 998.054 173.717 968.045 159.366Z" fill="#FFE2D6"/>
<path d="M1030.53 159.167C1031.42 158.74 1032.48 159.064 1033 159.908C1037.82 167.768 1049.05 187.352 1049.77 190.88C1050.74 195.597 1049.62 206.631 1043.57 211.936C1037.51 217.241 1031.76 221.604 1023.39 222.275C1015.01 222.947 1007.76 224.147 998.985 220.588C985.084 214.947 1000.52 173.518 1030.53 159.167Z" fill="#FFE2D6"/>
<path d="M999.865 169.754C994.558 175.116 981.226 188.062 970.361 196.947C956.78 208.054 934.769 226.821 928.212 240.609C921.656 254.397 910.884 281.207 931.49 309.549C947.975 332.223 978.323 332.274 991.436 329.465H999.865V169.754Z" fill="url(#paint14_linear_17_2)"/>
<path d="M999.865 169.754C1005.22 175.09 1018.69 187.973 1029.66 196.815C1043.37 207.868 1065.59 226.544 1072.21 240.265C1078.83 253.986 1089.71 280.666 1068.9 308.871C1052.26 331.434 1021.62 331.485 1008.38 328.69H999.865V169.754Z" fill="url(#paint15_linear_17_2)"/>
<path d="M1067.54 176.821C1068.6 176.371 1069.8 176.942 1070.14 178.052C1074.41 192.318 1084.59 230.093 1084.54 236.567C1084.48 245.08 1079.59 264.379 1069.52 272.652C1059.44 280.925 1050.07 287.588 1038.14 287.248C1026.2 286.907 1015.68 287.706 1004.46 279.815C986.621 267.271 1020.96 196.463 1067.54 176.821Z" fill="url(#paint16_linear_17_2)"/>
<path d="M927.55 176.925C926.483 176.475 925.284 177.046 924.951 178.156C920.671 192.422 910.496 230.198 910.545 236.671C910.609 245.184 915.496 264.483 925.57 272.756C935.644 281.029 945.013 287.693 956.947 287.352C968.882 287.011 979.408 287.81 990.629 279.919C1008.46 267.375 974.126 196.567 927.55 176.925Z" fill="url(#paint17_linear_17_2)"/>
<path d="M876.769 213.14C875.625 212.97 874.606 213.815 874.555 214.972C873.86 230.635 873.206 272.288 874.943 278.938C877.22 287.66 887.258 306.191 899.763 312.046C912.268 317.901 923.63 322.289 935.809 318.815C947.989 315.341 959.017 313.406 968.501 302.369C983.589 284.81 929.793 221.024 876.769 213.14Z" fill="url(#paint18_linear_17_2)"/>
<path d="M1121.22 213.14C1122.37 212.97 1123.39 213.815 1123.44 214.972C1124.13 230.635 1124.79 272.288 1123.05 278.938C1120.77 287.66 1110.74 306.191 1098.23 312.046C1085.73 317.901 1074.36 322.289 1062.18 318.815C1050 315.341 1038.98 313.406 1029.49 302.369C1014.4 284.81 1068.2 221.024 1121.22 213.14Z" fill="url(#paint19_linear_17_2)"/>
<path d="M998.465 208C992.686 212.617 978.623 223.361 968.606 229.405C956.084 236.959 938.265 273.473 937.302 279.349C936.339 285.224 933.931 357.832 998.465 356.993C1050.09 356.321 1063 304.95 1063 279.349C1057.22 265.778 1042.39 236.791 1029.29 229.405C1016.19 222.018 1003.28 212.057 998.465 208Z" fill="url(#paint20_linear_17_2)"/>
<path d="M841.284 306.279C840.179 306.741 839.773 308.013 840.377 308.998C849.552 323.96 867.497 352.108 874.04 358.176C882.566 366.082 922.628 393.236 939.998 393.304C957.368 393.371 972.497 392.471 982.987 383.074C993.478 373.677 1004.97 368.22 1004.06 352.27C1002.77 329.854 893.867 284.31 841.284 306.279Z" fill="url(#paint21_linear_17_2)"/>
<path d="M1155.72 307.121C1156.82 307.583 1157.23 308.854 1156.62 309.84C1147.45 324.802 1129.5 352.95 1122.96 359.018C1114.43 366.923 1074.37 394.078 1057 394.145C1039.63 394.212 1024.5 393.312 1014.01 383.915C1003.52 374.519 992.026 369.061 992.944 353.111C994.235 330.695 1103.13 285.152 1155.72 307.121Z" fill="url(#paint22_linear_17_2)"/>
</g>
<g filter="url(#filter1_d_17_2)">
<path d="M262.679 522.609C258.839 527.463 249.196 539.183 241.336 547.227C231.512 557.283 215.589 574.273 210.847 586.755C206.104 599.238 198.312 623.509 213.218 649.168C225.143 669.695 247.095 669.741 256.581 667.198H262.679V522.609Z" fill="url(#paint23_linear_17_2)"/>
<path d="M262.679 522.263C266.518 527.117 276.162 538.837 284.021 546.881C293.846 556.936 309.768 573.926 314.511 586.409C319.254 598.891 327.045 623.163 312.139 648.822C300.215 669.348 278.262 669.395 268.777 666.852H262.679V522.263Z" fill="url(#paint24_linear_17_2)"/>
<path d="M263.646 466C258.338 471.362 245.007 484.307 234.141 493.193C220.56 504.3 198.549 523.067 191.993 536.855C185.436 550.643 174.665 577.453 195.271 605.795C211.756 628.468 242.103 628.52 255.216 625.711H263.646V466Z" fill="url(#paint25_linear_17_2)"/>
<path d="M263.646 466C269.005 471.336 282.466 484.219 293.436 493.061C307.15 504.114 329.374 522.79 335.995 536.511C342.615 550.232 353.491 576.912 332.684 605.116C316.039 627.68 285.398 627.731 272.157 624.936H263.646V466Z" fill="url(#paint26_linear_17_2)"/>
<path d="M231.045 474.366C230.152 473.939 229.09 474.264 228.572 475.108C223.749 482.967 212.521 502.551 211.798 506.08C210.832 510.796 211.953 521.831 218.005 527.136C224.057 532.441 229.809 536.804 238.183 537.475C246.558 538.146 253.813 539.347 262.586 535.787C276.487 530.146 261.054 488.717 231.045 474.366Z" fill="#FFE2D6"/>
<path d="M293.527 474.167C294.419 473.74 295.482 474.064 295.999 474.908C300.822 482.768 312.051 502.352 312.773 505.88C313.74 510.597 312.619 521.631 306.566 526.936C300.514 532.241 294.763 536.604 286.388 537.275C278.014 537.947 270.758 539.147 261.985 535.588C248.084 529.947 263.517 488.518 293.527 474.167Z" fill="#FFE2D6"/>
<path d="M262.865 484.754C257.558 490.116 244.226 503.062 233.361 511.947C219.78 523.054 197.769 541.821 191.212 555.609C184.656 569.397 173.884 596.207 194.49 624.549C210.975 647.223 241.323 647.274 254.436 644.465H262.865V484.754Z" fill="url(#paint27_linear_17_2)"/>
<path d="M262.865 484.754C268.225 490.09 281.686 502.973 292.656 511.815C306.369 522.868 328.594 541.544 335.214 555.265C341.834 568.986 352.71 595.666 331.904 623.871C315.259 646.434 284.617 646.485 271.377 643.69H262.865V484.754Z" fill="url(#paint28_linear_17_2)"/>
<path d="M330.536 491.821C331.603 491.371 332.802 491.942 333.135 493.052C337.415 507.318 347.59 545.093 347.541 551.567C347.477 560.08 342.59 579.379 332.516 587.652C322.442 595.925 313.073 602.588 301.139 602.248C289.204 601.907 278.678 602.706 267.457 594.815C249.621 582.271 283.96 511.463 330.536 491.821Z" fill="url(#paint29_linear_17_2)"/>
<path d="M190.55 491.925C189.483 491.475 188.284 492.046 187.951 493.156C183.671 507.422 173.496 545.198 173.545 551.671C173.609 560.184 178.496 579.483 188.57 587.756C198.644 596.029 208.013 602.693 219.947 602.352C231.882 602.011 242.408 602.81 253.629 594.919C271.465 582.375 237.126 511.567 190.55 491.925Z" fill="url(#paint30_linear_17_2)"/>
<path d="M139.769 528.14C138.625 527.97 137.606 528.815 137.555 529.972C136.86 545.635 136.206 587.288 137.943 593.938C140.22 602.66 150.258 621.191 162.763 627.046C175.268 632.901 186.63 637.289 198.809 633.815C210.989 630.341 222.017 628.406 231.501 617.369C246.589 599.81 192.793 536.024 139.769 528.14Z" fill="url(#paint31_linear_17_2)"/>
<path d="M384.224 528.14C385.368 527.97 386.387 528.815 386.439 529.972C387.134 545.635 387.787 587.288 386.051 593.938C383.773 602.66 373.736 621.191 361.231 627.046C348.726 632.901 337.364 637.289 325.184 633.815C313.005 630.341 301.977 628.406 292.492 617.369C277.404 599.81 331.2 536.024 384.224 528.14Z" fill="url(#paint32_linear_17_2)"/>
<path d="M261.465 523C255.686 527.617 241.623 538.361 231.606 544.405C219.084 551.959 201.265 588.473 200.302 594.349C199.339 600.224 196.931 672.832 261.465 671.993C313.093 671.321 326 619.95 326 594.349C320.221 580.778 305.387 551.791 292.288 544.405C279.188 537.018 266.281 527.057 261.465 523Z" fill="url(#paint33_linear_17_2)"/>
<path d="M104.284 621.279C103.179 621.741 102.773 623.013 103.377 623.998C112.552 638.96 130.497 667.108 137.04 673.176C145.566 681.082 185.628 708.236 202.998 708.304C220.368 708.371 235.497 707.471 245.987 698.074C256.478 688.677 267.974 683.22 267.056 667.27C265.765 644.854 156.867 599.31 104.284 621.279Z" fill="url(#paint34_linear_17_2)"/>
<path d="M418.716 622.121C419.821 622.583 420.227 623.854 419.623 624.84C410.448 639.802 392.503 667.95 385.96 674.018C377.434 681.923 337.372 709.078 320.002 709.145C302.632 709.212 287.503 708.312 277.013 698.915C266.522 689.519 255.026 684.061 255.944 668.111C257.235 645.695 366.133 600.152 418.716 622.121Z" fill="url(#paint35_linear_17_2)"/>
</g>
<g filter="url(#filter2_d_17_2)">
<path d="M623.679 522.609C619.839 527.463 610.196 539.183 602.336 547.227C592.512 557.283 576.589 574.273 571.847 586.755C567.104 599.238 559.312 623.509 574.218 649.168C586.143 669.695 608.095 669.741 617.581 667.198H623.679V522.609Z" fill="url(#paint36_linear_17_2)"/>
<path d="M623.679 522.263C627.518 527.117 637.162 538.837 645.021 546.881C654.846 556.936 670.768 573.926 675.511 586.409C680.254 598.891 688.045 623.163 673.139 648.822C661.215 669.348 639.262 669.395 629.777 666.852H623.679V522.263Z" fill="url(#paint37_linear_17_2)"/>
<path d="M624.646 466C619.338 471.362 606.007 484.307 595.141 493.193C581.56 504.3 559.549 523.067 552.993 536.855C546.436 550.643 535.665 577.453 556.271 605.795C572.756 628.468 603.103 628.52 616.216 625.711H624.646V466Z" fill="url(#paint38_linear_17_2)"/>
<path d="M624.646 466C630.005 471.336 643.466 484.219 654.436 493.061C668.15 504.114 690.374 522.79 696.995 536.511C703.615 550.232 714.491 576.912 693.684 605.116C677.039 627.68 646.398 627.731 633.157 624.936H624.646V466Z" fill="url(#paint39_linear_17_2)"/>
<path d="M592.045 474.366C591.152 473.939 590.09 474.264 589.572 475.108C584.749 482.967 573.521 502.551 572.798 506.08C571.832 510.796 572.953 521.831 579.005 527.136C585.057 532.441 590.809 536.804 599.183 537.475C607.558 538.146 614.813 539.347 623.586 535.787C637.487 530.146 622.054 488.717 592.045 474.366Z" fill="#FFE2D6"/>
<path d="M654.527 474.167C655.419 473.74 656.482 474.064 656.999 474.908C661.822 482.768 673.051 502.352 673.773 505.88C674.74 510.597 673.619 521.631 667.566 526.936C661.514 532.241 655.763 536.604 647.388 537.275C639.014 537.947 631.758 539.147 622.985 535.588C609.084 529.947 624.517 488.518 654.527 474.167Z" fill="#FFE2D6"/>
<path d="M623.865 484.754C618.558 490.116 605.226 503.062 594.361 511.947C580.78 523.054 558.769 541.821 552.212 555.609C545.656 569.397 534.884 596.207 555.49 624.549C571.975 647.223 602.323 647.274 615.436 644.465H623.865V484.754Z" fill="url(#paint40_linear_17_2)"/>
<path d="M623.865 484.754C629.225 490.09 642.686 502.973 653.656 511.815C667.369 522.868 689.594 541.544 696.214 555.265C702.834 568.986 713.71 595.666 692.904 623.871C676.259 646.434 645.617 646.485 632.377 643.69H623.865V484.754Z" fill="url(#paint41_linear_17_2)"/>
<path d="M691.536 491.821C692.603 491.371 693.802 491.942 694.135 493.052C698.415 507.318 708.59 545.093 708.541 551.567C708.477 560.08 703.59 579.379 693.516 587.652C683.442 595.925 674.073 602.588 662.139 602.248C650.204 601.907 639.678 602.706 628.457 594.815C610.621 582.271 644.96 511.463 691.536 491.821Z" fill="url(#paint42_linear_17_2)"/>
<path d="M551.55 491.925C550.483 491.475 549.284 492.046 548.951 493.156C544.671 507.422 534.496 545.198 534.545 551.671C534.609 560.184 539.496 579.483 549.57 587.756C559.644 596.029 569.013 602.693 580.947 602.352C592.882 602.011 603.408 602.81 614.629 594.919C632.465 582.375 598.126 511.567 551.55 491.925Z" fill="url(#paint43_linear_17_2)"/>
<path d="M500.769 528.14C499.625 527.97 498.606 528.815 498.555 529.972C497.86 545.635 497.206 587.288 498.943 593.938C501.22 602.66 511.258 621.191 523.763 627.046C536.268 632.901 547.63 637.289 559.809 633.815C571.989 630.341 583.017 628.406 592.501 617.369C607.589 599.81 553.793 536.024 500.769 528.14Z" fill="url(#paint44_linear_17_2)"/>
<path d="M745.224 528.14C746.368 527.97 747.387 528.815 747.439 529.972C748.134 545.635 748.787 587.288 747.051 593.938C744.773 602.66 734.736 621.191 722.231 627.046C709.726 632.901 698.364 637.289 686.184 633.815C674.005 630.341 662.977 628.406 653.492 617.369C638.404 599.81 692.2 536.024 745.224 528.14Z" fill="url(#paint45_linear_17_2)"/>
<path d="M622.465 523C616.686 527.617 602.623 538.361 592.606 544.405C580.084 551.959 562.265 588.473 561.302 594.349C560.339 600.224 557.931 672.832 622.465 671.993C674.093 671.321 687 619.95 687 594.349C681.221 580.778 666.387 551.791 653.288 544.405C640.188 537.018 627.281 527.057 622.465 523Z" fill="url(#paint46_linear_17_2)"/>
<path d="M465.284 621.279C464.179 621.741 463.773 623.013 464.377 623.998C473.552 638.96 491.497 667.108 498.04 673.176C506.566 681.082 546.628 708.236 563.998 708.304C581.368 708.371 596.497 707.471 606.987 698.074C617.478 688.677 628.974 683.22 628.056 667.27C626.765 644.854 517.867 599.31 465.284 621.279Z" fill="url(#paint47_linear_17_2)"/>
<path d="M779.716 622.121C780.821 622.583 781.227 623.854 780.623 624.84C771.448 639.802 753.503 667.95 746.96 674.018C738.434 681.923 698.372 709.078 681.002 709.145C663.632 709.212 648.503 708.312 638.013 698.915C627.522 689.519 616.026 684.061 616.944 668.111C618.235 645.695 727.133 600.152 779.716 622.121Z" fill="url(#paint48_linear_17_2)"/>
</g>
<g filter="url(#filter3_d_17_2)">
<path d="M1005.68 522.609C1001.84 527.463 992.196 539.183 984.336 547.227C974.512 557.283 958.589 574.273 953.847 586.755C949.104 599.238 941.312 623.509 956.218 649.168C968.143 669.695 990.095 669.741 999.581 667.198H1005.68V522.609Z" fill="url(#paint49_linear_17_2)"/>
<path d="M1005.68 522.263C1009.52 527.117 1019.16 538.837 1027.02 546.881C1036.85 556.936 1052.77 573.926 1057.51 586.409C1062.25 598.891 1070.05 623.163 1055.14 648.822C1043.21 669.348 1021.26 669.395 1011.78 666.852H1005.68V522.263Z" fill="url(#paint50_linear_17_2)"/>
<path d="M1006.65 466C1001.34 471.362 988.007 484.307 977.141 493.193C963.56 504.3 941.549 523.067 934.993 536.855C928.436 550.643 917.665 577.453 938.271 605.795C954.756 628.468 985.103 628.52 998.216 625.711H1006.65V466Z" fill="url(#paint51_linear_17_2)"/>
<path d="M1006.65 466C1012 471.336 1025.47 484.219 1036.44 493.061C1050.15 504.114 1072.37 522.79 1078.99 536.511C1085.61 550.232 1096.49 576.912 1075.68 605.116C1059.04 627.68 1028.4 627.731 1015.16 624.936H1006.65V466Z" fill="url(#paint52_linear_17_2)"/>
<path d="M974.045 474.366C973.152 473.939 972.09 474.264 971.572 475.108C966.749 482.967 955.521 502.551 954.798 506.08C953.832 510.796 954.953 521.831 961.005 527.136C967.057 532.441 972.809 536.804 981.183 537.475C989.558 538.146 996.813 539.347 1005.59 535.787C1019.49 530.146 1004.05 488.717 974.045 474.366Z" fill="#FFE2D6"/>
<path d="M1036.53 474.167C1037.42 473.74 1038.48 474.064 1039 474.908C1043.82 482.768 1055.05 502.352 1055.77 505.88C1056.74 510.597 1055.62 521.631 1049.57 526.936C1043.51 532.241 1037.76 536.604 1029.39 537.275C1021.01 537.947 1013.76 539.147 1004.99 535.588C991.084 529.947 1006.52 488.518 1036.53 474.167Z" fill="#FFE2D6"/>
<path d="M1005.87 484.754C1000.56 490.116 987.226 503.062 976.361 511.947C962.78 523.054 940.769 541.821 934.212 555.609C927.656 569.397 916.884 596.207 937.49 624.549C953.975 647.223 984.323 647.274 997.436 644.465H1005.87V484.754Z" fill="url(#paint53_linear_17_2)"/>
<path d="M1005.87 484.754C1011.22 490.09 1024.69 502.973 1035.66 511.815C1049.37 522.868 1071.59 541.544 1078.21 555.265C1084.83 568.986 1095.71 595.666 1074.9 623.871C1058.26 646.434 1027.62 646.485 1014.38 643.69H1005.87V484.754Z" fill="url(#paint54_linear_17_2)"/>
<path d="M1073.54 491.821C1074.6 491.371 1075.8 491.942 1076.14 493.052C1080.41 507.318 1090.59 545.093 1090.54 551.567C1090.48 560.08 1085.59 579.379 1075.52 587.652C1065.44 595.925 1056.07 602.588 1044.14 602.248C1032.2 601.907 1021.68 602.706 1010.46 594.815C992.621 582.271 1026.96 511.463 1073.54 491.821Z" fill="url(#paint55_linear_17_2)"/>
<path d="M933.55 491.925C932.483 491.475 931.284 492.046 930.951 493.156C926.671 507.422 916.496 545.198 916.545 551.671C916.609 560.184 921.496 579.483 931.57 587.756C941.644 596.029 951.013 602.693 962.947 602.352C974.882 602.011 985.408 602.81 996.629 594.919C1014.46 582.375 980.126 511.567 933.55 491.925Z" fill="url(#paint56_linear_17_2)"/>
<path d="M882.769 528.14C881.625 527.97 880.606 528.815 880.555 529.972C879.86 545.635 879.206 587.288 880.943 593.938C883.22 602.66 893.258 621.191 905.763 627.046C918.268 632.901 929.63 637.289 941.809 633.815C953.989 630.341 965.017 628.406 974.501 617.369C989.589 599.81 935.793 536.024 882.769 528.14Z" fill="url(#paint57_linear_17_2)"/>
<path d="M1127.22 528.14C1128.37 527.97 1129.39 528.815 1129.44 529.972C1130.13 545.635 1130.79 587.288 1129.05 593.938C1126.77 602.66 1116.74 621.191 1104.23 627.046C1091.73 632.901 1080.36 637.289 1068.18 633.815C1056 630.341 1044.98 628.406 1035.49 617.369C1020.4 599.81 1074.2 536.024 1127.22 528.14Z" fill="url(#paint58_linear_17_2)"/>
<path d="M1004.47 523C998.686 527.617 984.623 538.361 974.606 544.405C962.084 551.959 944.265 588.473 943.302 594.349C942.339 600.224 939.931 672.832 1004.47 671.993C1056.09 671.321 1069 619.95 1069 594.349C1063.22 580.778 1048.39 551.791 1035.29 544.405C1022.19 537.018 1009.28 527.057 1004.47 523Z" fill="url(#paint59_linear_17_2)"/>
<path d="M847.284 621.279C846.179 621.741 845.773 623.013 846.377 623.998C855.552 638.96 873.497 667.108 880.04 673.176C888.566 681.082 928.628 708.236 945.998 708.304C963.368 708.371 978.497 707.471 988.987 698.074C999.478 688.677 1010.97 683.22 1010.06 667.27C1008.77 644.854 899.867 599.31 847.284 621.279Z" fill="url(#paint60_linear_17_2)"/>
<path d="M1161.72 622.121C1162.82 622.583 1163.23 623.854 1162.62 624.84C1153.45 639.802 1135.5 667.95 1128.96 674.018C1120.43 681.923 1080.37 709.078 1063 709.145C1045.63 709.212 1030.5 708.312 1020.01 698.915C1009.52 689.519 998.026 684.061 998.944 668.111C1000.23 645.695 1109.13 600.152 1161.72 622.121Z" fill="url(#paint61_linear_17_2)"/>
</g>
<g filter="url(#filter4_d_17_2)">
<path d="M223.679 837.609C219.839 842.463 210.196 854.183 202.336 862.227C192.512 872.283 176.589 889.273 171.847 901.755C167.104 914.238 159.312 938.509 174.218 964.168C186.143 984.695 208.095 984.741 217.581 982.198H223.679V837.609Z" fill="url(#paint62_linear_17_2)"/>
<path d="M223.679 837.263C227.518 842.117 237.162 853.837 245.021 861.881C254.846 871.936 270.768 888.926 275.511 901.409C280.254 913.891 288.045 938.163 273.139 963.822C261.215 984.348 239.262 984.395 229.777 981.852H223.679V837.263Z" fill="url(#paint63_linear_17_2)"/>
<path d="M224.646 781C219.338 786.362 206.007 799.307 195.141 808.193C181.56 819.3 159.549 838.067 152.993 851.855C146.436 865.643 135.665 892.453 156.271 920.795C172.756 943.468 203.103 943.52 216.216 940.711H224.646V781Z" fill="url(#paint64_linear_17_2)"/>
<path d="M224.646 781C230.005 786.336 243.466 799.219 254.436 808.061C268.15 819.114 290.374 837.79 296.995 851.511C303.615 865.232 314.491 891.912 293.684 920.116C277.039 942.68 246.398 942.731 233.157 939.936H224.646V781Z" fill="url(#paint65_linear_17_2)"/>
<path d="M192.045 789.366C191.152 788.939 190.09 789.264 189.572 790.108C184.749 797.967 173.521 817.551 172.798 821.08C171.832 825.796 172.953 836.831 179.005 842.136C185.057 847.441 190.809 851.804 199.183 852.475C207.558 853.146 214.813 854.347 223.586 850.787C237.487 845.146 222.054 803.717 192.045 789.366Z" fill="#F3D7A6"/>
<path d="M254.527 789.167C255.419 788.74 256.482 789.064 256.999 789.908C261.822 797.768 273.051 817.352 273.773 820.88C274.74 825.597 273.619 836.631 267.566 841.936C261.514 847.241 255.763 851.604 247.388 852.275C239.014 852.947 231.758 854.147 222.985 850.588C209.084 844.947 224.517 803.518 254.527 789.167Z" fill="#F3D7A6"/>
<path d="M223.865 799.754C218.558 805.116 205.226 818.062 194.361 826.947C180.78 838.054 158.769 856.821 152.212 870.609C145.656 884.397 134.884 911.207 155.49 939.549C171.975 962.223 202.323 962.274 215.436 959.465H223.865V799.754Z" fill="url(#paint66_linear_17_2)"/>
<path d="M223.865 799.754C229.225 805.09 242.686 817.973 253.656 826.815C267.369 837.868 289.594 856.544 296.214 870.265C302.834 883.986 313.71 910.666 292.904 938.871C276.259 961.434 245.617 961.485 232.377 958.69H223.865V799.754Z" fill="url(#paint67_linear_17_2)"/>
<path d="M291.536 806.821C292.603 806.371 293.802 806.942 294.135 808.052C298.415 822.318 308.59 860.093 308.541 866.567C308.477 875.08 303.59 894.379 293.516 902.652C283.442 910.925 274.073 917.588 262.139 917.248C250.204 916.907 239.678 917.706 228.457 909.815C210.621 897.271 244.96 826.463 291.536 806.821Z" fill="url(#paint68_linear_17_2)"/>
<path d="M151.55 806.925C150.483 806.475 149.284 807.046 148.951 808.156C144.671 822.422 134.496 860.198 134.545 866.671C134.609 875.184 139.496 894.483 149.57 902.756C159.644 911.029 169.013 917.693 180.947 917.352C192.882 917.011 203.408 917.81 214.629 909.919C232.465 897.375 198.126 826.567 151.55 806.925Z" fill="url(#paint69_linear_17_2)"/>
<path d="M100.769 843.14C99.6254 842.97 98.6062 843.815 98.5549 844.972C97.8599 860.635 97.2063 902.288 98.9429 908.938C101.22 917.66 111.258 936.191 123.763 942.046C136.268 947.901 147.63 952.289 159.809 948.815C171.989 945.341 183.017 943.406 192.501 932.369C207.589 914.81 153.793 851.024 100.769 843.14Z" fill="url(#paint70_linear_17_2)"/>
<path d="M345.224 843.14C346.368 842.97 347.387 843.815 347.439 844.972C348.134 860.635 348.787 902.288 347.051 908.938C344.773 917.66 334.736 936.191 322.231 942.046C309.726 947.901 298.364 952.289 286.184 948.815C274.005 945.341 262.977 943.406 253.492 932.369C238.404 914.81 292.2 851.024 345.224 843.14Z" fill="url(#paint71_linear_17_2)"/>
<path d="M222.465 838C216.686 842.617 202.623 853.361 192.606 859.405C180.084 866.959 162.265 903.473 161.302 909.349C160.339 915.224 157.931 987.832 222.465 986.993C274.093 986.321 287 934.95 287 909.349C281.221 895.778 266.387 866.791 253.288 859.405C240.188 852.018 227.281 842.057 222.465 838Z" fill="url(#paint72_linear_17_2)"/>
<path d="M65.2843 936.279C64.1791 936.741 63.7728 938.013 64.3769 938.998C73.5516 953.96 91.4966 982.108 98.0402 988.176C106.566 996.082 146.628 1023.24 163.998 1023.3C181.368 1023.37 196.497 1022.47 206.987 1013.07C217.478 1003.68 228.974 998.22 228.056 982.27C226.765 959.854 117.867 914.31 65.2843 936.279Z" fill="url(#paint73_linear_17_2)"/>
<path d="M379.716 937.121C380.821 937.583 381.227 938.854 380.623 939.84C371.448 954.802 353.503 982.95 346.96 989.018C338.434 996.923 298.372 1024.08 281.002 1024.15C263.632 1024.21 248.503 1023.31 238.013 1013.92C227.522 1004.52 216.026 999.061 216.944 983.111C218.235 960.695 327.133 915.152 379.716 937.121Z" fill="url(#paint74_linear_17_2)"/>
</g>
<g filter="url(#filter5_d_17_2)">
<path d="M626.679 837.609C622.839 842.463 613.196 854.183 605.336 862.227C595.512 872.283 579.589 889.273 574.847 901.755C570.104 914.238 562.312 938.509 577.218 964.168C589.143 984.695 611.095 984.741 620.581 982.198H626.679V837.609Z" fill="url(#paint75_linear_17_2)"/>
<path d="M626.679 837.263C630.518 842.117 640.162 853.837 648.021 861.881C657.846 871.936 673.768 888.926 678.511 901.409C683.254 913.891 691.045 938.163 676.139 963.822C664.215 984.348 642.262 984.395 632.777 981.852H626.679V837.263Z" fill="url(#paint76_linear_17_2)"/>
<path d="M627.646 781C622.338 786.362 609.007 799.307 598.141 808.193C584.56 819.3 562.549 838.067 555.993 851.855C549.436 865.643 538.665 892.453 559.271 920.795C575.756 943.468 606.103 943.52 619.216 940.711H627.646V781Z" fill="url(#paint77_linear_17_2)"/>
<path d="M627.646 781C633.005 786.336 646.466 799.219 657.436 808.061C671.15 819.114 693.374 837.79 699.995 851.511C706.615 865.232 717.491 891.912 696.684 920.116C680.039 942.68 649.398 942.731 636.157 939.936H627.646V781Z" fill="url(#paint78_linear_17_2)"/>
<path d="M595.045 789.366C594.152 788.939 593.09 789.264 592.572 790.108C587.749 797.967 576.521 817.551 575.798 821.08C574.832 825.796 575.953 836.831 582.005 842.136C588.057 847.441 593.809 851.804 602.183 852.475C610.558 853.146 617.813 854.347 626.586 850.787C640.487 845.146 625.054 803.717 595.045 789.366Z" fill="#F3D7A6"/>
<path d="M657.527 789.167C658.419 788.74 659.482 789.064 659.999 789.908C664.822 797.768 676.051 817.352 676.773 820.88C677.74 825.597 676.619 836.631 670.566 841.936C664.514 847.241 658.763 851.604 650.388 852.275C642.014 852.947 634.758 854.147 625.985 850.588C612.084 844.947 627.517 803.518 657.527 789.167Z" fill="#F3D7A6"/>
<path d="M626.865 799.754C621.558 805.116 608.226 818.062 597.361 826.947C583.78 838.054 561.769 856.821 555.212 870.609C548.656 884.397 537.884 911.207 558.49 939.549C574.975 962.223 605.323 962.274 618.436 959.465H626.865V799.754Z" fill="url(#paint79_linear_17_2)"/>
<path d="M626.865 799.754C632.225 805.09 645.686 817.973 656.656 826.815C670.369 837.868 692.594 856.544 699.214 870.265C705.834 883.986 716.71 910.666 695.904 938.871C679.259 961.434 648.617 961.485 635.377 958.69H626.865V799.754Z" fill="url(#paint80_linear_17_2)"/>
<path d="M694.536 806.821C695.603 806.371 696.802 806.942 697.135 808.052C701.415 822.318 711.59 860.093 711.541 866.567C711.477 875.08 706.59 894.379 696.516 902.652C686.442 910.925 677.073 917.588 665.139 917.248C653.204 916.907 642.678 917.706 631.457 909.815C613.621 897.271 647.96 826.463 694.536 806.821Z" fill="url(#paint81_linear_17_2)"/>
<path d="M554.55 806.925C553.483 806.475 552.284 807.046 551.951 808.156C547.671 822.422 537.496 860.198 537.545 866.671C537.609 875.184 542.496 894.483 552.57 902.756C562.644 911.029 572.013 917.693 583.947 917.352C595.882 917.011 606.408 917.81 617.629 909.919C635.465 897.375 601.126 826.567 554.55 806.925Z" fill="url(#paint82_linear_17_2)"/>
<path d="M503.769 843.14C502.625 842.97 501.606 843.815 501.555 844.972C500.86 860.635 500.206 902.288 501.943 908.938C504.22 917.66 514.258 936.191 526.763 942.046C539.268 947.901 550.63 952.289 562.809 948.815C574.989 945.341 586.017 943.406 595.501 932.369C610.589 914.81 556.793 851.024 503.769 843.14Z" fill="url(#paint83_linear_17_2)"/>
<path d="M748.224 843.14C749.368 842.97 750.387 843.815 750.439 844.972C751.134 860.635 751.787 902.288 750.051 908.938C747.773 917.66 737.736 936.191 725.231 942.046C712.726 947.901 701.364 952.289 689.184 948.815C677.005 945.341 665.977 943.406 656.492 932.369C641.404 914.81 695.2 851.024 748.224 843.14Z" fill="url(#paint84_linear_17_2)"/>
<path d="M625.465 838C619.686 842.617 605.623 853.361 595.606 859.405C583.084 866.959 565.265 903.473 564.302 909.349C563.339 915.224 560.931 987.832 625.465 986.993C677.093 986.321 690 934.95 690 909.349C684.221 895.778 669.387 866.791 656.288 859.405C643.188 852.018 630.281 842.057 625.465 838Z" fill="url(#paint85_linear_17_2)"/>
<path d="M468.284 936.279C467.179 936.741 466.773 938.013 467.377 938.998C476.552 953.96 494.497 982.108 501.04 988.176C509.566 996.082 549.628 1023.24 566.998 1023.3C584.368 1023.37 599.497 1022.47 609.987 1013.07C620.478 1003.68 631.974 998.22 631.056 982.27C629.765 959.854 520.867 914.31 468.284 936.279Z" fill="url(#paint86_linear_17_2)"/>
<path d="M782.716 937.121C783.821 937.583 784.227 938.854 783.623 939.84C774.448 954.802 756.503 982.95 749.96 989.018C741.434 996.923 701.372 1024.08 684.002 1024.15C666.632 1024.21 651.503 1023.31 641.013 1013.92C630.522 1004.52 619.026 999.061 619.944 983.111C621.235 960.695 730.133 915.152 782.716 937.121Z" fill="url(#paint87_linear_17_2)"/>
</g>
<g filter="url(#filter6_d_17_2)">
<path d="M1029.68 837.609C1025.84 842.463 1016.2 854.183 1008.34 862.227C998.512 872.283 982.589 889.273 977.847 901.755C973.104 914.238 965.312 938.509 980.218 964.168C992.143 984.695 1014.1 984.741 1023.58 982.198H1029.68V837.609Z" fill="url(#paint88_linear_17_2)"/>
<path d="M1029.68 837.263C1033.52 842.117 1043.16 853.837 1051.02 861.881C1060.85 871.936 1076.77 888.926 1081.51 901.409C1086.25 913.891 1094.05 938.163 1079.14 963.822C1067.21 984.348 1045.26 984.395 1035.78 981.852H1029.68V837.263Z" fill="url(#paint89_linear_17_2)"/>
<path d="M1030.65 781C1025.34 786.362 1012.01 799.307 1001.14 808.193C987.56 819.3 965.549 838.067 958.993 851.855C952.436 865.643 941.665 892.453 962.271 920.795C978.756 943.468 1009.1 943.52 1022.22 940.711H1030.65V781Z" fill="url(#paint90_linear_17_2)"/>
<path d="M1030.65 781C1036 786.336 1049.47 799.219 1060.44 808.061C1074.15 819.114 1096.37 837.79 1102.99 851.511C1109.61 865.232 1120.49 891.912 1099.68 920.116C1083.04 942.68 1052.4 942.731 1039.16 939.936H1030.65V781Z" fill="url(#paint91_linear_17_2)"/>
<path d="M998.045 789.366C997.152 788.939 996.09 789.264 995.572 790.108C990.749 797.967 979.521 817.551 978.798 821.08C977.832 825.796 978.953 836.831 985.005 842.136C991.057 847.441 996.809 851.804 1005.18 852.475C1013.56 853.146 1020.81 854.347 1029.59 850.787C1043.49 845.146 1028.05 803.717 998.045 789.366Z" fill="#F3D7A6"/>
<path d="M1060.53 789.167C1061.42 788.74 1062.48 789.064 1063 789.908C1067.82 797.768 1079.05 817.352 1079.77 820.88C1080.74 825.597 1079.62 836.631 1073.57 841.936C1067.51 847.241 1061.76 851.604 1053.39 852.275C1045.01 852.947 1037.76 854.147 1028.99 850.588C1015.08 844.947 1030.52 803.518 1060.53 789.167Z" fill="#F3D7A6"/>
<path d="M1029.87 799.754C1024.56 805.116 1011.23 818.062 1000.36 826.947C986.78 838.054 964.769 856.821 958.212 870.609C951.656 884.397 940.884 911.207 961.49 939.549C977.975 962.223 1008.32 962.274 1021.44 959.465H1029.87V799.754Z" fill="url(#paint92_linear_17_2)"/>
<path d="M1029.87 799.754C1035.22 805.09 1048.69 817.973 1059.66 826.815C1073.37 837.868 1095.59 856.544 1102.21 870.265C1108.83 883.986 1119.71 910.666 1098.9 938.871C1082.26 961.434 1051.62 961.485 1038.38 958.69H1029.87V799.754Z" fill="url(#paint93_linear_17_2)"/>
<path d="M1097.54 806.821C1098.6 806.371 1099.8 806.942 1100.14 808.052C1104.41 822.318 1114.59 860.093 1114.54 866.567C1114.48 875.08 1109.59 894.379 1099.52 902.652C1089.44 910.925 1080.07 917.588 1068.14 917.248C1056.2 916.907 1045.68 917.706 1034.46 909.815C1016.62 897.271 1050.96 826.463 1097.54 806.821Z" fill="url(#paint94_linear_17_2)"/>
<path d="M957.55 806.925C956.483 806.475 955.284 807.046 954.951 808.156C950.671 822.422 940.496 860.198 940.545 866.671C940.609 875.184 945.496 894.483 955.57 902.756C965.644 911.029 975.013 917.693 986.947 917.352C998.882 917.011 1009.41 917.81 1020.63 909.919C1038.46 897.375 1004.13 826.567 957.55 806.925Z" fill="url(#paint95_linear_17_2)"/>
<path d="M906.769 843.14C905.625 842.97 904.606 843.815 904.555 844.972C903.86 860.635 903.206 902.288 904.943 908.938C907.22 917.66 917.258 936.191 929.763 942.046C942.268 947.901 953.63 952.289 965.809 948.815C977.989 945.341 989.017 943.406 998.501 932.369C1013.59 914.81 959.793 851.024 906.769 843.14Z" fill="url(#paint96_linear_17_2)"/>
<path d="M1151.22 843.14C1152.37 842.97 1153.39 843.815 1153.44 844.972C1154.13 860.635 1154.79 902.288 1153.05 908.938C1150.77 917.66 1140.74 936.191 1128.23 942.046C1115.73 947.901 1104.36 952.289 1092.18 948.815C1080 945.341 1068.98 943.406 1059.49 932.369C1044.4 914.81 1098.2 851.024 1151.22 843.14Z" fill="url(#paint97_linear_17_2)"/>
<path d="M1028.47 838C1022.69 842.617 1008.62 853.361 998.606 859.405C986.084 866.959 968.265 903.473 967.302 909.349C966.339 915.224 963.931 987.832 1028.47 986.993C1080.09 986.321 1093 934.95 1093 909.349C1087.22 895.778 1072.39 866.791 1059.29 859.405C1046.19 852.018 1033.28 842.057 1028.47 838Z" fill="url(#paint98_linear_17_2)"/>
<path d="M871.284 936.279C870.179 936.741 869.773 938.013 870.377 938.998C879.552 953.96 897.497 982.108 904.04 988.176C912.566 996.082 952.628 1023.24 969.998 1023.3C987.368 1023.37 1002.5 1022.47 1012.99 1013.07C1023.48 1003.68 1034.97 998.22 1034.06 982.27C1032.77 959.854 923.867 914.31 871.284 936.279Z" fill="url(#paint99_linear_17_2)"/>
<path d="M1185.72 937.121C1186.82 937.583 1187.23 938.854 1186.62 939.84C1177.45 954.802 1159.5 982.95 1152.96 989.018C1144.43 996.923 1104.37 1024.08 1087 1024.15C1069.63 1024.21 1054.5 1023.31 1044.01 1013.92C1033.52 1004.52 1022.03 999.061 1022.94 983.111C1024.23 960.695 1133.13 915.152 1185.72 937.121Z" fill="url(#paint100_linear_17_2)"/>
</g>
<rect x="66" y="43" width="132.828" height="30" rx="3" fill="white"/>
<rect x="66.5" y="43.5" width="131.828" height="29" rx="2.5" stroke="white" stroke-opacity="0.0980392"/>
<path d="M78.4375 55.5C78.3516 55.237 78.2383 55.0013 78.0977 54.793C77.9596 54.582 77.7943 54.4023 77.6016 54.2539C77.4115 54.1055 77.1953 53.9922 76.9531 53.9141C76.7109 53.8359 76.4453 53.7969 76.1562 53.7969C75.6823 53.7969 75.2513 53.9193 74.8633 54.1641C74.4753 54.4089 74.1667 54.7695 73.9375 55.2461C73.7083 55.7227 73.5938 56.3073 73.5938 57C73.5938 57.6927 73.7096 58.2773 73.9414 58.7539C74.1732 59.2305 74.487 59.5911 74.8828 59.8359C75.2786 60.0807 75.724 60.2031 76.2188 60.2031C76.6771 60.2031 77.0807 60.1055 77.4297 59.9102C77.7813 59.7122 78.0547 59.4336 78.25 59.0742C78.4479 58.7122 78.5469 58.2865 78.5469 57.7969L78.8438 57.8594H76.4375V57H79.4844V57.8594C79.4844 58.5182 79.3438 59.0911 79.0625 59.5781C78.7839 60.0651 78.3984 60.4427 77.9062 60.7109C77.4167 60.9766 76.8542 61.1094 76.2188 61.1094C75.5104 61.1094 74.888 60.9427 74.3516 60.6094C73.8177 60.276 73.401 59.8021 73.1016 59.1875C72.8047 58.5729 72.6563 57.8437 72.6563 57C72.6563 56.3672 72.7409 55.7982 72.9102 55.293C73.082 54.7852 73.3242 54.3529 73.6367 53.9961C73.9492 53.6393 74.319 53.3659 74.7461 53.1758C75.1732 52.9857 75.6432 52.8906 76.1562 52.8906C76.5781 52.8906 76.9714 52.9544 77.3359 53.082C77.7031 53.207 78.0299 53.3854 78.3164 53.6172C78.6055 53.8464 78.8464 54.1211 79.0391 54.4414C79.2318 54.7591 79.3646 55.112 79.4375 55.5H78.4375ZM83.4561 61.125C82.9144 61.125 82.4391 60.9961 82.0303 60.7383C81.624 60.4805 81.3063 60.1198 81.0771 59.6562C80.8506 59.1927 80.7373 58.651 80.7373 58.0312C80.7373 57.4062 80.8506 56.8607 81.0771 56.3945C81.3063 55.9284 81.624 55.5664 82.0303 55.3086C82.4391 55.0508 82.9144 54.9219 83.4561 54.9219C83.9977 54.9219 84.4717 55.0508 84.8779 55.3086C85.2868 55.5664 85.6045 55.9284 85.8311 56.3945C86.0602 56.8607 86.1748 57.4062 86.1748 58.0312C86.1748 58.651 86.0602 59.1927 85.8311 59.6562C85.6045 60.1198 85.2868 60.4805 84.8779 60.7383C84.4717 60.9961 83.9977 61.125 83.4561 61.125ZM83.4561 60.2969C83.8675 60.2969 84.2061 60.1914 84.4717 59.9805C84.7373 59.7695 84.9339 59.4922 85.0615 59.1484C85.1891 58.8047 85.2529 58.4323 85.2529 58.0312C85.2529 57.6302 85.1891 57.2565 85.0615 56.9102C84.9339 56.5638 84.7373 56.2839 84.4717 56.0703C84.2061 55.8568 83.8675 55.75 83.4561 55.75C83.0446 55.75 82.7061 55.8568 82.4404 56.0703C82.1748 56.2839 81.9782 56.5638 81.8506 56.9102C81.723 57.2565 81.6592 57.6302 81.6592 58.0312C81.6592 58.4323 81.723 58.8047 81.8506 59.1484C81.9782 59.4922 82.1748 59.7695 82.4404 59.9805C82.7061 60.1914 83.0446 60.2969 83.4561 60.2969ZM88.5039 53V61H87.582V53H88.5039ZM92.458 61.125C91.958 61.125 91.5166 60.9987 91.1338 60.7461C90.751 60.4909 90.4515 60.1315 90.2354 59.668C90.0192 59.2018 89.9111 58.651 89.9111 58.0156C89.9111 57.3854 90.0192 56.8385 90.2354 56.375C90.4515 55.9115 90.7523 55.5534 91.1377 55.3008C91.5231 55.0482 91.9684 54.9219 92.4736 54.9219C92.8643 54.9219 93.1729 54.987 93.3994 55.1172C93.6286 55.2448 93.8031 55.3906 93.9229 55.5547C94.0452 55.7161 94.1403 55.849 94.208 55.9531H94.2861V53H95.208V61H94.3174V60.0781H94.208C94.1403 60.1875 94.0439 60.3255 93.9189 60.4922C93.7939 60.6562 93.6156 60.8034 93.3838 60.9336C93.152 61.0612 92.8434 61.125 92.458 61.125ZM92.583 60.2969C92.9528 60.2969 93.2653 60.2005 93.5205 60.0078C93.7757 59.8125 93.9697 59.543 94.1025 59.1992C94.2354 58.8529 94.3018 58.4531 94.3018 58C94.3018 57.5521 94.2367 57.1602 94.1064 56.8242C93.9762 56.4857 93.7835 56.2227 93.5283 56.0352C93.2731 55.8451 92.958 55.75 92.583 55.75C92.1924 55.75 91.8669 55.8503 91.6064 56.0508C91.3486 56.2487 91.1546 56.5182 91.0244 56.8594C90.8968 57.1979 90.833 57.5781 90.833 58C90.833 58.4271 90.8981 58.8151 91.0283 59.1641C91.1611 59.5104 91.3564 59.7865 91.6143 59.9922C91.8747 60.1953 92.1976 60.2969 92.583 60.2969ZM100.243 61V53H101.212V60.1406H104.931V61H100.243ZM108.743 61.125C108.201 61.125 107.726 60.9961 107.317 60.7383C106.911 60.4805 106.593 60.1198 106.364 59.6562C106.138 59.1927 106.024 58.651 106.024 58.0312C106.024 57.4062 106.138 56.8607 106.364 56.3945C106.593 55.9284 106.911 55.5664 107.317 55.3086C107.726 55.0508 108.201 54.9219 108.743 54.9219C109.285 54.9219 109.759 55.0508 110.165 55.3086C110.574 55.5664 110.892 55.9284 111.118 56.3945C111.347 56.8607 111.462 57.4062 111.462 58.0312C111.462 58.651 111.347 59.1927 111.118 59.6562C110.892 60.1198 110.574 60.4805 110.165 60.7383C109.759 60.9961 109.285 61.125 108.743 61.125ZM108.743 60.2969C109.155 60.2969 109.493 60.1914 109.759 59.9805C110.024 59.7695 110.221 59.4922 110.349 59.1484C110.476 58.8047 110.54 58.4323 110.54 58.0312C110.54 57.6302 110.476 57.2565 110.349 56.9102C110.221 56.5638 110.024 56.2839 109.759 56.0703C109.493 55.8568 109.155 55.75 108.743 55.75C108.332 55.75 107.993 55.8568 107.728 56.0703C107.462 56.2839 107.265 56.5638 107.138 56.9102C107.01 57.2565 106.946 57.6302 106.946 58.0312C106.946 58.4323 107.01 58.8047 107.138 59.1484C107.265 59.4922 107.462 59.7695 107.728 59.9805C107.993 60.1914 108.332 60.2969 108.743 60.2969ZM115.479 55V55.7812H112.369V55H115.479ZM113.275 53.5625H114.197V59.2812C114.197 59.5417 114.235 59.737 114.311 59.8672C114.389 59.9948 114.488 60.0807 114.607 60.125C114.73 60.1667 114.859 60.1875 114.994 60.1875C115.096 60.1875 115.179 60.1823 115.244 60.1719C115.309 60.1589 115.361 60.1484 115.4 60.1406L115.588 60.9687C115.525 60.9922 115.438 61.0156 115.326 61.0391C115.214 61.0651 115.072 61.0781 114.9 61.0781C114.64 61.0781 114.385 61.0221 114.135 60.9102C113.887 60.7982 113.682 60.6276 113.518 60.3984C113.356 60.1693 113.275 59.8802 113.275 59.5312V53.5625ZM120.646 58.5469V55H121.568V61H120.646V59.9844H120.584C120.443 60.2891 120.225 60.5482 119.928 60.7617C119.631 60.9727 119.256 61.0781 118.803 61.0781C118.428 61.0781 118.094 60.9961 117.803 60.832C117.511 60.6654 117.282 60.4154 117.115 60.082C116.949 59.7461 116.865 59.3229 116.865 58.8125V55H117.787V58.75C117.787 59.1875 117.91 59.5365 118.154 59.7969C118.402 60.0573 118.717 60.1875 119.1 60.1875C119.329 60.1875 119.562 60.1289 119.799 60.0117C120.038 59.8945 120.239 59.7148 120.4 59.4727C120.564 59.2305 120.646 58.9219 120.646 58.5469ZM127.507 56.3437L126.679 56.5781C126.627 56.4401 126.55 56.306 126.448 56.1758C126.349 56.043 126.214 55.9336 126.042 55.8477C125.87 55.7617 125.65 55.7187 125.382 55.7187C125.015 55.7187 124.709 55.8034 124.464 55.9727C124.222 56.1393 124.101 56.3516 124.101 56.6094C124.101 56.8385 124.184 57.0195 124.351 57.1523C124.517 57.2852 124.778 57.3958 125.132 57.4844L126.022 57.7031C126.559 57.8333 126.959 58.0326 127.222 58.3008C127.485 58.5664 127.616 58.9089 127.616 59.3281C127.616 59.6719 127.517 59.9792 127.319 60.25C127.124 60.5208 126.851 60.7344 126.499 60.8906C126.147 61.0469 125.739 61.125 125.272 61.125C124.66 61.125 124.154 60.9922 123.753 60.7266C123.352 60.4609 123.098 60.0729 122.991 59.5625L123.866 59.3437C123.95 59.6667 124.107 59.9089 124.339 60.0703C124.573 60.2318 124.879 60.3125 125.257 60.3125C125.687 60.3125 126.028 60.2214 126.28 60.0391C126.535 59.8542 126.663 59.6328 126.663 59.375C126.663 59.1667 126.59 58.9922 126.444 58.8516C126.299 58.7083 126.075 58.6016 125.772 58.5312L124.772 58.2969C124.223 58.1667 123.819 57.9648 123.562 57.6914C123.306 57.4154 123.179 57.0703 123.179 56.6562C123.179 56.3177 123.274 56.0182 123.464 55.7578C123.657 55.4974 123.918 55.293 124.249 55.1445C124.582 54.9961 124.96 54.9219 125.382 54.9219C125.976 54.9219 126.442 55.0521 126.78 55.3125C127.121 55.5729 127.364 55.9167 127.507 56.3437ZM132.223 61V53H134.926C135.553 53 136.066 53.1133 136.465 53.3398C136.866 53.5638 137.163 53.8672 137.355 54.25C137.548 54.6328 137.645 55.0599 137.645 55.5312C137.645 56.0026 137.548 56.431 137.355 56.8164C137.165 57.2018 136.871 57.5091 136.473 57.7383C136.074 57.9648 135.564 58.0781 134.941 58.0781H133.004V57.2188H134.91C135.34 57.2188 135.685 57.1445 135.945 56.9961C136.206 56.8477 136.395 56.6471 136.512 56.3945C136.632 56.1393 136.691 55.8516 136.691 55.5312C136.691 55.2109 136.632 54.9245 136.512 54.6719C136.395 54.4193 136.204 54.2214 135.941 54.0781C135.678 53.9323 135.329 53.8594 134.895 53.8594H133.191V61H132.223ZM139.08 61V55H139.971V55.9062H140.033C140.143 55.6094 140.34 55.3685 140.627 55.1836C140.913 54.9987 141.236 54.9062 141.596 54.9062C141.663 54.9062 141.748 54.9076 141.85 54.9102C141.951 54.9128 142.028 54.9167 142.08 54.9219V55.8594C142.049 55.8516 141.977 55.8398 141.865 55.8242C141.756 55.806 141.64 55.7969 141.518 55.7969C141.226 55.7969 140.965 55.8581 140.736 55.9805C140.51 56.1003 140.33 56.2669 140.197 56.4805C140.067 56.6914 140.002 56.9323 140.002 57.2031V61H139.08ZM145.428 61.125C144.886 61.125 144.411 60.9961 144.002 60.7383C143.596 60.4805 143.278 60.1198 143.049 59.6562C142.822 59.1927 142.709 58.651 142.709 58.0312C142.709 57.4062 142.822 56.8607 143.049 56.3945C143.278 55.9284 143.596 55.5664 144.002 55.3086C144.411 55.0508 144.886 54.9219 145.428 54.9219C145.969 54.9219 146.443 55.0508 146.85 55.3086C147.258 55.5664 147.576 55.9284 147.803 56.3945C148.032 56.8607 148.146 57.4062 148.146 58.0312C148.146 58.651 148.032 59.1927 147.803 59.6562C147.576 60.1198 147.258 60.4805 146.85 60.7383C146.443 60.9961 145.969 61.125 145.428 61.125ZM145.428 60.2969C145.839 60.2969 146.178 60.1914 146.443 59.9805C146.709 59.7695 146.906 59.4922 147.033 59.1484C147.161 58.8047 147.225 58.4323 147.225 58.0312C147.225 57.6302 147.161 57.2565 147.033 56.9102C146.906 56.5638 146.709 56.2839 146.443 56.0703C146.178 55.8568 145.839 55.75 145.428 55.75C145.016 55.75 144.678 55.8568 144.412 56.0703C144.146 56.2839 143.95 56.5638 143.822 56.9102C143.695 57.2565 143.631 57.6302 143.631 58.0312C143.631 58.4323 143.695 58.8047 143.822 59.1484C143.95 59.4922 144.146 59.7695 144.412 59.9805C144.678 60.1914 145.016 60.2969 145.428 60.2969ZM151.976 63.375C151.53 63.375 151.147 63.3177 150.827 63.2031C150.507 63.0911 150.24 62.9427 150.026 62.7578C149.815 62.5755 149.647 62.3802 149.522 62.1719L150.257 61.6563C150.34 61.7656 150.446 61.8906 150.573 62.0312C150.701 62.1745 150.875 62.2982 151.097 62.4023C151.321 62.5091 151.614 62.5625 151.976 62.5625C152.46 62.5625 152.86 62.4453 153.175 62.2109C153.49 61.9766 153.647 61.6094 153.647 61.1094V59.8906H153.569C153.502 60 153.405 60.1354 153.28 60.2969C153.158 60.4557 152.981 60.5977 152.749 60.7227C152.52 60.8451 152.21 60.9062 151.819 60.9062C151.335 60.9062 150.9 60.7917 150.515 60.5625C150.132 60.3333 149.828 60 149.604 59.5625C149.383 59.125 149.272 58.5937 149.272 57.9687C149.272 57.3542 149.381 56.819 149.597 56.3633C149.813 55.9049 150.114 55.5508 150.499 55.3008C150.884 55.0482 151.33 54.9219 151.835 54.9219C152.226 54.9219 152.535 54.987 152.765 55.1172C152.996 55.2448 153.174 55.3906 153.296 55.5547C153.421 55.7161 153.517 55.849 153.585 55.9531H153.679V55H154.569V61.1719C154.569 61.6875 154.452 62.1068 154.218 62.4297C153.986 62.7552 153.674 62.9935 153.28 63.1445C152.89 63.2982 152.455 63.375 151.976 63.375ZM151.944 60.0781C152.314 60.0781 152.627 59.9935 152.882 59.8242C153.137 59.6549 153.331 59.4115 153.464 59.0938C153.597 58.776 153.663 58.3958 153.663 57.9531C153.663 57.5208 153.598 57.1393 153.468 56.8086C153.338 56.4779 153.145 56.2187 152.89 56.0312C152.634 55.8437 152.319 55.75 151.944 55.75C151.554 55.75 151.228 55.849 150.968 56.0469C150.71 56.2448 150.516 56.5104 150.386 56.8438C150.258 57.1771 150.194 57.5469 150.194 57.9531C150.194 58.3698 150.259 58.7383 150.39 59.0586C150.522 59.3763 150.718 59.6263 150.976 59.8086C151.236 59.9883 151.559 60.0781 151.944 60.0781ZM156.257 61V55H157.147V55.9062H157.21C157.319 55.6094 157.517 55.3685 157.804 55.1836C158.09 54.9987 158.413 54.9062 158.772 54.9062C158.84 54.9062 158.925 54.9076 159.026 54.9102C159.128 54.9128 159.205 54.9167 159.257 54.9219V55.8594C159.226 55.8516 159.154 55.8398 159.042 55.8242C158.933 55.806 158.817 55.7969 158.694 55.7969C158.403 55.7969 158.142 55.8581 157.913 55.9805C157.687 56.1003 157.507 56.2669 157.374 56.4805C157.244 56.6914 157.179 56.9323 157.179 57.2031V61H156.257ZM162.683 61.125C162.104 61.125 161.606 60.9974 161.187 60.7422C160.77 60.4844 160.448 60.125 160.222 59.6641C159.998 59.2005 159.886 58.6615 159.886 58.0469C159.886 57.4323 159.998 56.8906 160.222 56.4219C160.448 55.9505 160.763 55.5833 161.167 55.3203C161.573 55.0547 162.047 54.9219 162.589 54.9219C162.901 54.9219 163.21 54.974 163.515 55.0781C163.819 55.1823 164.097 55.3516 164.347 55.5859C164.597 55.8177 164.796 56.125 164.944 56.5078C165.093 56.8906 165.167 57.362 165.167 57.9219V58.3125H160.542V57.5156H164.229C164.229 57.1771 164.162 56.875 164.026 56.6094C163.894 56.3437 163.703 56.1341 163.456 55.9805C163.211 55.8268 162.922 55.75 162.589 55.75C162.222 55.75 161.904 55.8411 161.636 56.0234C161.37 56.2031 161.166 56.4375 161.022 56.7266C160.879 57.0156 160.808 57.3255 160.808 57.6562V58.1875C160.808 58.6406 160.886 59.0247 161.042 59.3398C161.201 59.6523 161.421 59.8906 161.702 60.0547C161.983 60.2161 162.31 60.2969 162.683 60.2969C162.925 60.2969 163.144 60.263 163.339 60.1953C163.537 60.125 163.707 60.0208 163.851 59.8828C163.994 59.7422 164.104 59.5677 164.183 59.3594L165.073 59.6094C164.979 59.9115 164.822 60.1771 164.601 60.4062C164.379 60.6328 164.106 60.8099 163.78 60.9375C163.455 61.0625 163.089 61.125 162.683 61.125ZM170.819 56.3437L169.991 56.5781C169.939 56.4401 169.862 56.306 169.761 56.1758C169.662 56.043 169.526 55.9336 169.354 55.8477C169.183 55.7617 168.963 55.7187 168.694 55.7187C168.327 55.7187 168.021 55.8034 167.776 55.9727C167.534 56.1393 167.413 56.3516 167.413 56.6094C167.413 56.8385 167.496 57.0195 167.663 57.1523C167.83 57.2852 168.09 57.3958 168.444 57.4844L169.335 57.7031C169.871 57.8333 170.271 58.0326 170.534 58.3008C170.797 58.5664 170.929 58.9089 170.929 59.3281C170.929 59.6719 170.83 59.9792 170.632 60.25C170.437 60.5208 170.163 60.7344 169.812 60.8906C169.46 61.0469 169.051 61.125 168.585 61.125C167.973 61.125 167.466 60.9922 167.065 60.7266C166.664 60.4609 166.41 60.0729 166.304 59.5625L167.179 59.3437C167.262 59.6667 167.42 59.9089 167.651 60.0703C167.886 60.2318 168.192 60.3125 168.569 60.3125C168.999 60.3125 169.34 60.2214 169.593 60.0391C169.848 59.8542 169.976 59.6328 169.976 59.375C169.976 59.1667 169.903 58.9922 169.757 58.8516C169.611 58.7083 169.387 58.6016 169.085 58.5312L168.085 58.2969C167.535 58.1667 167.132 57.9648 166.874 57.6914C166.619 57.4154 166.491 57.0703 166.491 56.6562C166.491 56.3177 166.586 56.0182 166.776 55.7578C166.969 55.4974 167.231 55.293 167.562 55.1445C167.895 54.9961 168.272 54.9219 168.694 54.9219C169.288 54.9219 169.754 55.0521 170.093 55.3125C170.434 55.5729 170.676 55.9167 170.819 56.3437ZM176.566 56.3437L175.738 56.5781C175.686 56.4401 175.609 56.306 175.508 56.1758C175.409 56.043 175.273 55.9336 175.102 55.8477C174.93 55.7617 174.71 55.7187 174.441 55.7187C174.074 55.7187 173.768 55.8034 173.523 55.9727C173.281 56.1393 173.16 56.3516 173.16 56.6094C173.16 56.8385 173.243 57.0195 173.41 57.1523C173.577 57.2852 173.837 57.3958 174.191 57.4844L175.082 57.7031C175.618 57.8333 176.018 58.0326 176.281 58.3008C176.544 58.5664 176.676 58.9089 176.676 59.3281C176.676 59.6719 176.577 59.9792 176.379 60.25C176.184 60.5208 175.91 60.7344 175.559 60.8906C175.207 61.0469 174.798 61.125 174.332 61.125C173.72 61.125 173.214 60.9922 172.813 60.7266C172.411 60.4609 172.158 60.0729 172.051 59.5625L172.926 59.3437C173.009 59.6667 173.167 59.9089 173.398 60.0703C173.633 60.2318 173.939 60.3125 174.316 60.3125C174.746 60.3125 175.087 60.2214 175.34 60.0391C175.595 59.8542 175.723 59.6328 175.723 59.375C175.723 59.1667 175.65 58.9922 175.504 58.8516C175.358 58.7083 175.134 58.6016 174.832 58.5312L173.832 58.2969C173.283 58.1667 172.879 57.9648 172.621 57.6914C172.366 57.4154 172.238 57.0703 172.238 56.6562C172.238 56.3177 172.333 56.0182 172.523 55.7578C172.716 55.4974 172.978 55.293 173.309 55.1445C173.642 54.9961 174.02 54.9219 174.441 54.9219C175.035 54.9219 175.501 55.0521 175.84 55.3125C176.181 55.5729 176.423 55.9167 176.566 56.3437ZM178.063 61V55H178.985V61H178.063ZM178.532 54C178.353 54 178.198 53.9388 178.067 53.8164C177.94 53.694 177.876 53.5469 177.876 53.375C177.876 53.2031 177.94 53.056 178.067 52.9336C178.198 52.8112 178.353 52.75 178.532 52.75C178.712 52.75 178.866 52.8112 178.993 52.9336C179.123 53.056 179.188 53.2031 179.188 53.375C179.188 53.5469 179.123 53.694 178.993 53.8164C178.866 53.9388 178.712 54 178.532 54ZM183.111 61.125C182.57 61.125 182.094 60.9961 181.686 60.7383C181.279 60.4805 180.962 60.1198 180.732 59.6562C180.506 59.1927 180.393 58.651 180.393 58.0312C180.393 57.4062 180.506 56.8607 180.732 56.3945C180.962 55.9284 181.279 55.5664 181.686 55.3086C182.094 55.0508 182.57 54.9219 183.111 54.9219C183.653 54.9219 184.127 55.0508 184.533 55.3086C184.942 55.5664 185.26 55.9284 185.486 56.3945C185.715 56.8607 185.83 57.4062 185.83 58.0312C185.83 58.651 185.715 59.1927 185.486 59.6562C185.26 60.1198 184.942 60.4805 184.533 60.7383C184.127 60.9961 183.653 61.125 183.111 61.125ZM183.111 60.2969C183.523 60.2969 183.861 60.1914 184.127 59.9805C184.393 59.7695 184.589 59.4922 184.717 59.1484C184.844 58.8047 184.908 58.4323 184.908 58.0312C184.908 57.6302 184.844 57.2565 184.717 56.9102C184.589 56.5638 184.393 56.2839 184.127 56.0703C183.861 55.8568 183.523 55.75 183.111 55.75C182.7 55.75 182.361 55.8568 182.096 56.0703C181.83 56.2839 181.633 56.5638 181.506 56.9102C181.378 57.2565 181.314 57.6302 181.314 58.0312C181.314 58.4323 181.378 58.8047 181.506 59.1484C181.633 59.4922 181.83 59.7695 182.096 59.9805C182.361 60.1914 182.7 60.2969 183.111 60.2969ZM188.159 57.3906V61H187.237V55H188.128V55.9375H188.206C188.347 55.6328 188.56 55.388 188.847 55.2031C189.133 55.0156 189.503 54.9219 189.956 54.9219C190.362 54.9219 190.718 55.0052 191.022 55.1719C191.327 55.3359 191.564 55.5859 191.733 55.9219C191.903 56.2552 191.987 56.6771 191.987 57.1875V61H191.065V57.25C191.065 56.7786 190.943 56.4115 190.698 56.1484C190.453 55.8828 190.118 55.75 189.69 55.75C189.396 55.75 189.133 55.8138 188.901 55.9414C188.672 56.069 188.491 56.2552 188.358 56.5C188.226 56.7448 188.159 57.0417 188.159 57.3906Z" fill="black"/>
<defs>
<filter id="filter0_d_17_2" x="814.9" y="128.9" width="367.2" height="315.537" filterUnits="userSpaceOnUse" color-interpolation-filters="sRGB">
<feFlood flood-opacity="0" result="BackgroundImageFix"/>
<feColorMatrix in="SourceAlpha" type="matrix" values="0 0 0 0 0 0 0 0 0 0 0 0 0 0 0 0 0 0 127 0" result="hardAlpha"/>
<feOffset dy="2"/>
<feGaussianBlur stdDeviation="12.05"/>
<feComposite in2="hardAlpha" operator="out"/>
<feColorMatrix type="matrix" values="0 0 0 0 1 0 0 0 0 0.918171 0 0 0 0 0.590853 0 0 0 0.4 0"/>
<feBlend mode="normal" in2="BackgroundImageFix" result="effect1_dropShadow_17_2"/>
<feBlend mode="normal" in="SourceGraphic" in2="effect1_dropShadow_17_2" result="shape"/>
</filter>
<filter id="filter1_d_17_2" x="77.9" y="443.9" width="367.2" height="315.537" filterUnits="userSpaceOnUse" color-interpolation-filters="sRGB">
<feFlood flood-opacity="0" result="BackgroundImageFix"/>
<feColorMatrix in="SourceAlpha" type="matrix" values="0 0 0 0 0 0 0 0 0 0 0 0 0 0 0 0 0 0 127 0" result="hardAlpha"/>
<feOffset dy="2"/>
<feGaussianBlur stdDeviation="12.05"/>
<feComposite in2="hardAlpha" operator="out"/>
<feColorMatrix type="matrix" values="0 0 0 0 1 0 0 0 0 0.918171 0 0 0 0 0.590853 0 0 0 0.4 0"/>
<feBlend mode="normal" in2="BackgroundImageFix" result="effect1_dropShadow_17_2"/>
<feBlend mode="normal" in="SourceGraphic" in2="effect1_dropShadow_17_2" result="shape"/>
</filter>
<filter id="filter2_d_17_2" x="438.9" y="443.9" width="367.2" height="315.537" filterUnits="userSpaceOnUse" color-interpolation-filters="sRGB">
<feFlood flood-opacity="0" result="BackgroundImageFix"/>
<feColorMatrix in="SourceAlpha" type="matrix" values="0 0 0 0 0 0 0 0 0 0 0 0 0 0 0 0 0 0 127 0" result="hardAlpha"/>
<feOffset dy="2"/>
<feGaussianBlur stdDeviation="12.05"/>
<feComposite in2="hardAlpha" operator="out"/>
<feColorMatrix type="matrix" values="0 0 0 0 1 0 0 0 0 0.918171 0 0 0 0 0.590853 0 0 0 0.4 0"/>
<feBlend mode="normal" in2="BackgroundImageFix" result="effect1_dropShadow_17_2"/>
<feBlend mode="normal" in="SourceGraphic" in2="effect1_dropShadow_17_2" result="shape"/>
</filter>
<filter id="filter3_d_17_2" x="820.9" y="443.9" width="367.2" height="315.537" filterUnits="userSpaceOnUse" color-interpolation-filters="sRGB">
<feFlood flood-opacity="0" result="BackgroundImageFix"/>
<feColorMatrix in="SourceAlpha" type="matrix" values="0 0 0 0 0 0 0 0 0 0 0 0 0 0 0 0 0 0 127 0" result="hardAlpha"/>
<feOffset dy="2"/>
<feGaussianBlur stdDeviation="12.05"/>
<feComposite in2="hardAlpha" operator="out"/>
<feColorMatrix type="matrix" values="0 0 0 0 1 0 0 0 0 0.918171 0 0 0 0 0.590853 0 0 0 0.4 0"/>
<feBlend mode="normal" in2="BackgroundImageFix" result="effect1_dropShadow_17_2"/>
<feBlend mode="normal" in="SourceGraphic" in2="effect1_dropShadow_17_2" result="shape"/>
</filter>
<filter id="filter4_d_17_2" x="38.9" y="758.9" width="367.2" height="315.537" filterUnits="userSpaceOnUse" color-interpolation-filters="sRGB">
<feFlood flood-opacity="0" result="BackgroundImageFix"/>
<feColorMatrix in="SourceAlpha" type="matrix" values="0 0 0 0 0 0 0 0 0 0 0 0 0 0 0 0 0 0 127 0" result="hardAlpha"/>
<feOffset dy="2"/>
<feGaussianBlur stdDeviation="12.05"/>
<feComposite in2="hardAlpha" operator="out"/>
<feColorMatrix type="matrix" values="0 0 0 0 1 0 0 0 0 0.918171 0 0 0 0 0.590853 0 0 0 0.4 0"/>
<feBlend mode="normal" in2="BackgroundImageFix" result="effect1_dropShadow_17_2"/>
<feBlend mode="normal" in="SourceGraphic" in2="effect1_dropShadow_17_2" result="shape"/>
</filter>
<filter id="filter5_d_17_2" x="441.9" y="758.9" width="367.2" height="315.537" filterUnits="userSpaceOnUse" color-interpolation-filters="sRGB">
<feFlood flood-opacity="0" result="BackgroundImageFix"/>
<feColorMatrix in="SourceAlpha" type="matrix" values="0 0 0 0 0 0 0 0 0 0 0 0 0 0 0 0 0 0 127 0" result="hardAlpha"/>
<feOffset dy="2"/>
<feGaussianBlur stdDeviation="12.05"/>
<feComposite in2="hardAlpha" operator="out"/>
<feColorMatrix type="matrix" values="0 0 0 0 1 0 0 0 0 0.918171 0 0 0 0 0.590853 0 0 0 0.4 0"/>
<feBlend mode="normal" in2="BackgroundImageFix" result="effect1_dropShadow_17_2"/>
<feBlend mode="normal" in="SourceGraphic" in2="effect1_dropShadow_17_2" result="shape"/>
</filter>
<filter id="filter6_d_17_2" x="844.9" y="758.9" width="367.2" height="315.537" filterUnits="userSpaceOnUse" color-interpolation-filters="sRGB">
<feFlood flood-opacity="0" result="BackgroundImageFix"/>
<feColorMatrix in="SourceAlpha" type="matrix" values="0 0 0 0 0 0 0 0 0 0 0 0 0 0 0 0 0 0 127 0" result="hardAlpha"/>
<feOffset dy="2"/>
<feGaussianBlur stdDeviation="12.05"/>
<feComposite in2="hardAlpha" operator="out"/>
<feColorMatrix type="matrix" values="0 0 0 0 1 0 0 0 0 0.918171 0 0 0 0 0.590853 0 0 0 0.4 0"/>
<feBlend mode="normal" in2="BackgroundImageFix" result="effect1_dropShadow_17_2"/>
<feBlend mode="normal" in="SourceGraphic" in2="effect1_dropShadow_17_2" result="shape"/>
</filter>
<linearGradient id="paint0_linear_17_2" x1="324.529" y1="244.818" x2="295.895" y2="369.16" gradientUnits="userSpaceOnUse">
<stop stop-color="#8B7562"/>
<stop offset="0.525" stop-color="#C69191"/>
</linearGradient>
<linearGradient id="paint1_linear_17_2" x1="206.377" y1="258.532" x2="231.168" y2="365.685" gradientUnits="userSpaceOnUse">
<stop stop-color="#8B7562"/>
<stop offset="0.525" stop-color="#C69191"/>
</linearGradient>
<linearGradient id="paint2_linear_17_2" x1="258.758" y1="261" x2="258.758" y2="359" gradientUnits="userSpaceOnUse">
<stop stop-color="#CEB7B7"/>
<stop offset="0.655" stop-color="#E5DED0"/>
</linearGradient>
<linearGradient id="paint3_linear_17_2" x1="398" y1="227" x2="254" y2="399" gradientUnits="userSpaceOnUse">
<stop stop-color="#8B7562"/>
<stop offset="0.643822" stop-color="#4F706C"/>
<stop offset="0.9999" stop-color="#83BB9E"/>
</linearGradient>
<linearGradient id="paint4_linear_17_2" x1="110.311" y1="218.167" x2="258.191" y2="401.071" gradientUnits="userSpaceOnUse">
<stop stop-color="#8B7562"/>
<stop offset="0.643822" stop-color="#4F706C"/>
<stop offset="0.9999" stop-color="#83BB9E"/>
</linearGradient>
<linearGradient id="paint5_linear_17_2" x1="678.622" y1="244.13" x2="656.599" y2="337.181" gradientUnits="userSpaceOnUse">
<stop stop-color="#8B7562"/>
<stop offset="0.97" stop-color="#3F362E"/>
</linearGradient>
<linearGradient id="paint6_linear_17_2" x1="566.388" y1="257.82" x2="585.371" y2="338.026" gradientUnits="userSpaceOnUse">
<stop stop-color="#8B7562"/>
<stop offset="0.97" stop-color="#3F362E"/>
</linearGradient>
<linearGradient id="paint7_linear_17_2" x1="615.758" y1="261" x2="615.758" y2="359" gradientUnits="userSpaceOnUse">
<stop stop-color="#8B7562"/>
<stop offset="0.97" stop-color="#3F362E"/>
</linearGradient>
<linearGradient id="paint8_linear_17_2" x1="722.464" y1="254.442" x2="638.335" y2="380.98" gradientUnits="userSpaceOnUse">
<stop stop-color="#8B7562"/>
<stop offset="0.97" stop-color="#3F362E"/>
</linearGradient>
<linearGradient id="paint9_linear_17_2" x1="503.286" y1="245.614" x2="591.344" y2="378.062" gradientUnits="userSpaceOnUse">
<stop stop-color="#8B7562"/>
<stop offset="0.97" stop-color="#3F362E"/>
</linearGradient>
<linearGradient id="paint10_linear_17_2" x1="970.605" y1="207.609" x2="970.605" y2="353.342" gradientUnits="userSpaceOnUse">
<stop stop-color="#FFDAD8"/>
<stop offset="1" stop-color="#96D35F"/>
</linearGradient>
<linearGradient id="paint11_linear_17_2" x1="1028.75" y1="207.263" x2="1028.75" y2="352.996" gradientUnits="userSpaceOnUse">
<stop stop-color="#FFDAD8"/>
<stop offset="1" stop-color="#96D35F"/>
</linearGradient>
<linearGradient id="paint12_linear_17_2" x1="960.454" y1="151" x2="957.568" y2="365.767" gradientUnits="userSpaceOnUse">
<stop stop-color="#F5EEE2"/>
<stop offset="0.15" stop-color="#F7B7B5"/>
<stop offset="0.3" stop-color="#C69191"/>
</linearGradient>
<linearGradient id="paint13_linear_17_2" x1="1041.23" y1="151" x2="1044.06" y2="364.726" gradientUnits="userSpaceOnUse">
<stop stop-color="#F5EEE2"/>
<stop offset="0.15" stop-color="#F7B7B5"/>
<stop offset="0.3" stop-color="#C69191"/>
</linearGradient>
<linearGradient id="paint14_linear_17_2" x1="959.674" y1="169.754" x2="956.787" y2="384.522" gradientUnits="userSpaceOnUse">
<stop offset="0.105" stop-color="#F7B7B5"/>
<stop offset="0.315" stop-color="#C69191"/>
</linearGradient>
<linearGradient id="paint15_linear_17_2" x1="1040.45" y1="169.754" x2="1043.28" y2="383.48" gradientUnits="userSpaceOnUse">
<stop offset="0.105" stop-color="#F7B7B5"/>
<stop offset="0.315" stop-color="#C69191"/>
</linearGradient>
<linearGradient id="paint16_linear_17_2" x1="1060.54" y1="173.894" x2="1025.6" y2="328.392" gradientUnits="userSpaceOnUse">
<stop stop-color="#F5EEE2"/>
<stop offset="0.325" stop-color="#F7B7B5"/>
<stop offset="0.615" stop-color="#C69191"/>
</linearGradient>
<linearGradient id="paint17_linear_17_2" x1="934.541" y1="173.998" x2="969.482" y2="328.497" gradientUnits="userSpaceOnUse">
<stop stop-color="#F5EEE2"/>
<stop offset="0.325" stop-color="#F7B7B5"/>
<stop offset="0.615" stop-color="#C69191"/>
</linearGradient>
<linearGradient id="paint18_linear_17_2" x1="883.327" y1="208.325" x2="959.462" y2="357.728" gradientUnits="userSpaceOnUse">
<stop stop-color="#F5EEE2"/>
<stop offset="0.385" stop-color="#F7B7B5"/>
<stop offset="0.715" stop-color="#C7A05D"/>
</linearGradient>
<linearGradient id="paint19_linear_17_2" x1="1114.67" y1="208.325" x2="1038.53" y2="357.728" gradientUnits="userSpaceOnUse">
<stop stop-color="#F5EEE2"/>
<stop offset="0.385" stop-color="#F7B7B5"/>
<stop offset="0.715" stop-color="#C7A05D"/>
</linearGradient>
<linearGradient id="paint20_linear_17_2" x1="1000" y1="208" x2="1000" y2="357" gradientUnits="userSpaceOnUse">
<stop offset="0.005" stop-color="white"/>
<stop offset="0.27002" stop-color="#F5EEE2"/>
<stop offset="0.43294" stop-color="#E5DED0"/>
<stop offset="0.95" stop-color="#CEB7B7"/>
</linearGradient>
<linearGradient id="paint21_linear_17_2" x1="847.523" y1="295.091" x2="985.092" y2="389.18" gradientUnits="userSpaceOnUse">
<stop stop-color="#F5EEE2"/>
<stop offset="0.34" stop-color="#F3D7A6"/>
<stop offset="0.975" stop-color="#C7A05D"/>
</linearGradient>
<linearGradient id="paint22_linear_17_2" x1="1149.48" y1="295.933" x2="1011.91" y2="390.022" gradientUnits="userSpaceOnUse">
<stop stop-color="#F5EEE2"/>
<stop offset="0.34" stop-color="#F3D7A6"/>
<stop offset="0.975" stop-color="#C7A05D"/>
</linearGradient>
<linearGradient id="paint23_linear_17_2" x1="233.605" y1="522.609" x2="233.605" y2="668.342" gradientUnits="userSpaceOnUse">
<stop stop-color="#FFDAD8"/>
<stop offset="1" stop-color="#96D35F"/>
</linearGradient>
<linearGradient id="paint24_linear_17_2" x1="291.752" y1="522.263" x2="291.752" y2="667.996" gradientUnits="userSpaceOnUse">
<stop stop-color="#FFDAD8"/>
<stop offset="1" stop-color="#96D35F"/>
</linearGradient>
<linearGradient id="paint25_linear_17_2" x1="223.454" y1="466" x2="220.568" y2="680.767" gradientUnits="userSpaceOnUse">
<stop stop-color="#F5EEE2"/>
<stop offset="0.15" stop-color="#F7B7B5"/>
<stop offset="0.3" stop-color="#C69191"/>
</linearGradient>
<linearGradient id="paint26_linear_17_2" x1="304.228" y1="466" x2="307.059" y2="679.726" gradientUnits="userSpaceOnUse">
<stop stop-color="#F5EEE2"/>
<stop offset="0.15" stop-color="#F7B7B5"/>
<stop offset="0.3" stop-color="#C69191"/>
</linearGradient>
<linearGradient id="paint27_linear_17_2" x1="222.674" y1="484.754" x2="219.787" y2="699.522" gradientUnits="userSpaceOnUse">
<stop offset="0.105" stop-color="#F7B7B5"/>
<stop offset="0.315" stop-color="#C69191"/>
</linearGradient>
<linearGradient id="paint28_linear_17_2" x1="303.447" y1="484.754" x2="306.278" y2="698.48" gradientUnits="userSpaceOnUse">
<stop offset="0.105" stop-color="#F7B7B5"/>
<stop offset="0.315" stop-color="#C69191"/>
</linearGradient>
<linearGradient id="paint29_linear_17_2" x1="323.545" y1="488.894" x2="288.604" y2="643.392" gradientUnits="userSpaceOnUse">
<stop stop-color="#F5EEE2"/>
<stop offset="0.325" stop-color="#F7B7B5"/>
<stop offset="0.615" stop-color="#C7A05D"/>
</linearGradient>
<linearGradient id="paint30_linear_17_2" x1="197.541" y1="488.998" x2="232.482" y2="643.497" gradientUnits="userSpaceOnUse">
<stop stop-color="#F5EEE2"/>
<stop offset="0.325" stop-color="#F7B7B5"/>
<stop offset="0.615" stop-color="#C7A05D"/>
</linearGradient>
<linearGradient id="paint31_linear_17_2" x1="146.327" y1="523.325" x2="222.462" y2="672.728" gradientUnits="userSpaceOnUse">
<stop stop-color="#F5EEE2"/>
<stop offset="0.385" stop-color="#F3D7A6"/>
<stop offset="0.715" stop-color="#C7A05D"/>
</linearGradient>
<linearGradient id="paint32_linear_17_2" x1="377.666" y1="523.325" x2="301.531" y2="672.728" gradientUnits="userSpaceOnUse">
<stop stop-color="#F5EEE2"/>
<stop offset="0.385" stop-color="#F3D7A6"/>
<stop offset="0.715" stop-color="#C7A05D"/>
</linearGradient>
<linearGradient id="paint33_linear_17_2" x1="263" y1="523" x2="263" y2="672" gradientUnits="userSpaceOnUse">
<stop offset="0.005" stop-color="white"/>
<stop offset="0.27002" stop-color="#F5EEE2"/>
<stop offset="0.43294" stop-color="#E5DED0"/>
<stop offset="0.95" stop-color="#CEB7B7"/>
</linearGradient>
<linearGradient id="paint34_linear_17_2" x1="110.523" y1="610.091" x2="248.092" y2="704.18" gradientUnits="userSpaceOnUse">
<stop stop-color="#F5EEE2"/>
<stop offset="0.34" stop-color="#F3D7A6"/>
<stop offset="0.975" stop-color="#C7A05D"/>
</linearGradient>
<linearGradient id="paint35_linear_17_2" x1="412.477" y1="610.933" x2="274.908" y2="705.022" gradientUnits="userSpaceOnUse">
<stop stop-color="#F5EEE2"/>
<stop offset="0.34" stop-color="#F3D7A6"/>
<stop offset="0.975" stop-color="#C7A05D"/>
</linearGradient>
<linearGradient id="paint36_linear_17_2" x1="594.605" y1="522.609" x2="594.605" y2="668.342" gradientUnits="userSpaceOnUse">
<stop stop-color="#FFDAD8"/>
<stop offset="1" stop-color="#96D35F"/>
</linearGradient>
<linearGradient id="paint37_linear_17_2" x1="652.752" y1="522.263" x2="652.752" y2="667.996" gradientUnits="userSpaceOnUse">
<stop stop-color="#FFDAD8"/>
<stop offset="1" stop-color="#96D35F"/>
</linearGradient>
<linearGradient id="paint38_linear_17_2" x1="584.454" y1="466" x2="581.568" y2="680.767" gradientUnits="userSpaceOnUse">
<stop stop-color="#F5EEE2"/>
<stop offset="0.15" stop-color="#F7B7B5"/>
<stop offset="0.3" stop-color="#C69191"/>
</linearGradient>
<linearGradient id="paint39_linear_17_2" x1="665.228" y1="466" x2="668.059" y2="679.726" gradientUnits="userSpaceOnUse">
<stop stop-color="#F5EEE2"/>
<stop offset="0.15" stop-color="#F7B7B5"/>
<stop offset="0.3" stop-color="#C69191"/>
</linearGradient>
<linearGradient id="paint40_linear_17_2" x1="583.674" y1="484.754" x2="580.787" y2="699.522" gradientUnits="userSpaceOnUse">
<stop offset="0.105" stop-color="#F7B7B5"/>
<stop offset="0.315" stop-color="#C69191"/>
</linearGradient>
<linearGradient id="paint41_linear_17_2" x1="664.447" y1="484.754" x2="667.278" y2="698.48" gradientUnits="userSpaceOnUse">
<stop offset="0.105" stop-color="#F7B7B5"/>
<stop offset="0.315" stop-color="#C69191"/>
</linearGradient>
<linearGradient id="paint42_linear_17_2" x1="684.545" y1="488.894" x2="649.604" y2="643.392" gradientUnits="userSpaceOnUse">
<stop stop-color="#F5EEE2"/>
<stop offset="0.325" stop-color="#F3D7A6"/>
<stop offset="0.615" stop-color="#C7A05D"/>
</linearGradient>
<linearGradient id="paint43_linear_17_2" x1="558.541" y1="488.998" x2="593.482" y2="643.497" gradientUnits="userSpaceOnUse">
<stop stop-color="#F5EEE2"/>
<stop offset="0.325" stop-color="#F3D7A6"/>
<stop offset="0.615" stop-color="#C7A05D"/>
</linearGradient>
<linearGradient id="paint44_linear_17_2" x1="507.327" y1="523.325" x2="583.462" y2="672.728" gradientUnits="userSpaceOnUse">
<stop stop-color="#F5EEE2"/>
<stop offset="0.385" stop-color="#F3D7A6"/>
<stop offset="0.715" stop-color="#C7A05D"/>
</linearGradient>
<linearGradient id="paint45_linear_17_2" x1="738.666" y1="523.325" x2="662.531" y2="672.728" gradientUnits="userSpaceOnUse">
<stop stop-color="#F5EEE2"/>
<stop offset="0.385" stop-color="#F3D7A6"/>
<stop offset="0.715" stop-color="#C7A05D"/>
</linearGradient>
<linearGradient id="paint46_linear_17_2" x1="624" y1="523" x2="624" y2="672" gradientUnits="userSpaceOnUse">
<stop offset="0.005" stop-color="white"/>
<stop offset="0.27002" stop-color="#F5EEE2"/>
<stop offset="0.43294" stop-color="#E5DED0"/>
<stop offset="0.95" stop-color="#CEB7B7"/>
</linearGradient>
<linearGradient id="paint47_linear_17_2" x1="471.523" y1="610.091" x2="609.092" y2="704.18" gradientUnits="userSpaceOnUse">
<stop stop-color="#F5EEE2"/>
<stop offset="0.34" stop-color="#F3D7A6"/>
<stop offset="0.975" stop-color="#C7A05D"/>
</linearGradient>
<linearGradient id="paint48_linear_17_2" x1="773.477" y1="610.933" x2="635.908" y2="705.022" gradientUnits="userSpaceOnUse">
<stop stop-color="#F5EEE2"/>
<stop offset="0.34" stop-color="#F3D7A6"/>
<stop offset="0.975" stop-color="#C7A05D"/>
</linearGradient>
<linearGradient id="paint49_linear_17_2" x1="976.605" y1="522.609" x2="976.605" y2="668.342" gradientUnits="userSpaceOnUse">
<stop stop-color="#FFDAD8"/>
<stop offset="1" stop-color="#96D35F"/>
</linearGradient>
<linearGradient id="paint50_linear_17_2" x1="1034.75" y1="522.263" x2="1034.75" y2="667.996" gradientUnits="userSpaceOnUse">
<stop stop-color="#FFDAD8"/>
<stop offset="1" stop-color="#96D35F"/>
</linearGradient>
<linearGradient id="paint51_linear_17_2" x1="966.454" y1="466" x2="963.568" y2="680.767" gradientUnits="userSpaceOnUse">
<stop stop-color="#F5EEE2"/>
<stop offset="0.15" stop-color="#F7B7B5"/>
<stop offset="0.3" stop-color="#C69191"/>
</linearGradient>
<linearGradient id="paint52_linear_17_2" x1="1047.23" y1="466" x2="1050.06" y2="679.726" gradientUnits="userSpaceOnUse">
<stop stop-color="#F5EEE2"/>
<stop offset="0.15" stop-color="#F7B7B5"/>
<stop offset="0.3" stop-color="#C69191"/>
</linearGradient>
<linearGradient id="paint53_linear_17_2" x1="965.674" y1="484.754" x2="962.787" y2="699.522" gradientUnits="userSpaceOnUse">
<stop offset="0.105" stop-color="#D6AC64"/>
<stop offset="0.315" stop-color="#C7A05D"/>
</linearGradient>
<linearGradient id="paint54_linear_17_2" x1="1046.45" y1="484.754" x2="1049.28" y2="698.48" gradientUnits="userSpaceOnUse">
<stop offset="0.105" stop-color="#D6AC64"/>
<stop offset="0.315" stop-color="#C7A05D"/>
</linearGradient>
<linearGradient id="paint55_linear_17_2" x1="1066.54" y1="488.894" x2="1031.6" y2="643.392" gradientUnits="userSpaceOnUse">
<stop stop-color="#F5EEE2"/>
<stop offset="0.325" stop-color="#F3D7A6"/>
<stop offset="0.615" stop-color="#C7A05D"/>
</linearGradient>
<linearGradient id="paint56_linear_17_2" x1="940.541" y1="488.998" x2="975.482" y2="643.497" gradientUnits="userSpaceOnUse">
<stop stop-color="#F5EEE2"/>
<stop offset="0.325" stop-color="#F3D7A6"/>
<stop offset="0.615" stop-color="#C7A05D"/>
</linearGradient>
<linearGradient id="paint57_linear_17_2" x1="889.327" y1="523.325" x2="965.462" y2="672.728" gradientUnits="userSpaceOnUse">
<stop stop-color="#F5EEE2"/>
<stop offset="0.385" stop-color="#F3D7A6"/>
<stop offset="0.715" stop-color="#C7A05D"/>
</linearGradient>
<linearGradient id="paint58_linear_17_2" x1="1120.67" y1="523.325" x2="1044.53" y2="672.728" gradientUnits="userSpaceOnUse">
<stop stop-color="#F5EEE2"/>
<stop offset="0.385" stop-color="#F3D7A6"/>
<stop offset="0.715" stop-color="#C7A05D"/>
</linearGradient>
<linearGradient id="paint59_linear_17_2" x1="1006" y1="523" x2="1006" y2="672" gradientUnits="userSpaceOnUse">
<stop offset="0.005" stop-color="white"/>
<stop offset="0.27002" stop-color="#F5EEE2"/>
<stop offset="0.43294" stop-color="#E5DED0"/>
<stop offset="0.95" stop-color="#CEB7B7"/>
</linearGradient>
<linearGradient id="paint60_linear_17_2" x1="853.523" y1="610.091" x2="991.092" y2="704.18" gradientUnits="userSpaceOnUse">
<stop stop-color="#F5EEE2"/>
<stop offset="0.34" stop-color="#F3D7A6"/>
<stop offset="0.975" stop-color="#C7A05D"/>
</linearGradient>
<linearGradient id="paint61_linear_17_2" x1="1155.48" y1="610.933" x2="1017.91" y2="705.022" gradientUnits="userSpaceOnUse">
<stop stop-color="#F5EEE2"/>
<stop offset="0.34" stop-color="#F3D7A6"/>
<stop offset="0.975" stop-color="#C7A05D"/>
</linearGradient>
<linearGradient id="paint62_linear_17_2" x1="194.605" y1="837.609" x2="194.605" y2="983.342" gradientUnits="userSpaceOnUse">
<stop stop-color="#FFDAD8"/>
<stop offset="1" stop-color="#96D35F"/>
</linearGradient>
<linearGradient id="paint63_linear_17_2" x1="252.752" y1="837.263" x2="252.752" y2="982.996" gradientUnits="userSpaceOnUse">
<stop stop-color="#FFDAD8"/>
<stop offset="1" stop-color="#96D35F"/>
</linearGradient>
<linearGradient id="paint64_linear_17_2" x1="184.454" y1="781" x2="181.568" y2="995.767" gradientUnits="userSpaceOnUse">
<stop stop-color="#F5EEE2"/>
<stop offset="0.15" stop-color="#F3D7A6"/>
<stop offset="0.3" stop-color="#C7A05D"/>
</linearGradient>
<linearGradient id="paint65_linear_17_2" x1="265.228" y1="781" x2="268.059" y2="994.726" gradientUnits="userSpaceOnUse">
<stop stop-color="#F5EEE2"/>
<stop offset="0.15" stop-color="#F3D7A6"/>
<stop offset="0.3" stop-color="#C7A05D"/>
</linearGradient>
<linearGradient id="paint66_linear_17_2" x1="183.674" y1="799.754" x2="180.787" y2="1014.52" gradientUnits="userSpaceOnUse">
<stop offset="0.105" stop-color="#D6AC64"/>
<stop offset="0.315" stop-color="#C7A05D"/>
</linearGradient>
<linearGradient id="paint67_linear_17_2" x1="264.447" y1="799.754" x2="267.278" y2="1013.48" gradientUnits="userSpaceOnUse">
<stop offset="0.105" stop-color="#D6AC64"/>
<stop offset="0.315" stop-color="#C7A05D"/>
</linearGradient>
<linearGradient id="paint68_linear_17_2" x1="284.545" y1="803.894" x2="249.604" y2="958.392" gradientUnits="userSpaceOnUse">
<stop stop-color="#F5EEE2"/>
<stop offset="0.325" stop-color="#F3D7A6"/>
<stop offset="0.615" stop-color="#C7A05D"/>
</linearGradient>
<linearGradient id="paint69_linear_17_2" x1="158.541" y1="803.998" x2="193.482" y2="958.497" gradientUnits="userSpaceOnUse">
<stop stop-color="#F5EEE2"/>
<stop offset="0.325" stop-color="#F3D7A6"/>
<stop offset="0.615" stop-color="#C7A05D"/>
</linearGradient>
<linearGradient id="paint70_linear_17_2" x1="107.327" y1="838.325" x2="183.462" y2="987.728" gradientUnits="userSpaceOnUse">
<stop stop-color="#F5EEE2"/>
<stop offset="0.385" stop-color="#F3D7A6"/>
<stop offset="0.715" stop-color="#C7A05D"/>
</linearGradient>
<linearGradient id="paint71_linear_17_2" x1="338.666" y1="838.325" x2="262.531" y2="987.728" gradientUnits="userSpaceOnUse">
<stop stop-color="#F5EEE2"/>
<stop offset="0.385" stop-color="#F3D7A6"/>
<stop offset="0.715" stop-color="#C7A05D"/>
</linearGradient>
<linearGradient id="paint72_linear_17_2" x1="224" y1="838" x2="224" y2="987" gradientUnits="userSpaceOnUse">
<stop offset="0.005" stop-color="white"/>
<stop offset="0.27002" stop-color="#F5EEE2"/>
<stop offset="0.43294" stop-color="#E5DED0"/>
<stop offset="0.95" stop-color="#CEB7B7"/>
</linearGradient>
<linearGradient id="paint73_linear_17_2" x1="71.5228" y1="925.091" x2="209.092" y2="1019.18" gradientUnits="userSpaceOnUse">
<stop stop-color="#F5EEE2"/>
<stop offset="0.34" stop-color="#F3D7A6"/>
<stop offset="0.975" stop-color="#C7A05D"/>
</linearGradient>
<linearGradient id="paint74_linear_17_2" x1="373.477" y1="925.933" x2="235.908" y2="1020.02" gradientUnits="userSpaceOnUse">
<stop stop-color="#F5EEE2"/>
<stop offset="0.34" stop-color="#F3D7A6"/>
<stop offset="0.975" stop-color="#C7A05D"/>
</linearGradient>
<linearGradient id="paint75_linear_17_2" x1="597.605" y1="837.609" x2="597.605" y2="983.342" gradientUnits="userSpaceOnUse">
<stop stop-color="#FFDAD8"/>
<stop offset="1" stop-color="#96D35F"/>
</linearGradient>
<linearGradient id="paint76_linear_17_2" x1="655.752" y1="837.263" x2="655.752" y2="982.996" gradientUnits="userSpaceOnUse">
<stop stop-color="#FFDAD8"/>
<stop offset="1" stop-color="#96D35F"/>
</linearGradient>
<linearGradient id="paint77_linear_17_2" x1="587.454" y1="781" x2="584.568" y2="995.767" gradientUnits="userSpaceOnUse">
<stop stop-color="#F5EEE2"/>
<stop offset="0.15" stop-color="#F3D7A6"/>
<stop offset="0.3" stop-color="#C7A05D"/>
</linearGradient>
<linearGradient id="paint78_linear_17_2" x1="668.228" y1="781" x2="671.059" y2="994.726" gradientUnits="userSpaceOnUse">
<stop stop-color="#F5EEE2"/>
<stop offset="0.15" stop-color="#F3D7A6"/>
<stop offset="0.3" stop-color="#C7A05D"/>
</linearGradient>
<linearGradient id="paint79_linear_17_2" x1="586.674" y1="799.754" x2="583.787" y2="1014.52" gradientUnits="userSpaceOnUse">
<stop offset="0.105" stop-color="#D6AC64"/>
<stop offset="0.315" stop-color="#C7A05D"/>
</linearGradient>
<linearGradient id="paint80_linear_17_2" x1="667.447" y1="799.754" x2="670.278" y2="1013.48" gradientUnits="userSpaceOnUse">
<stop offset="0.105" stop-color="#D6AC64"/>
<stop offset="0.315" stop-color="#C7A05D"/>
</linearGradient>
<linearGradient id="paint81_linear_17_2" x1="687.545" y1="803.894" x2="652.604" y2="958.392" gradientUnits="userSpaceOnUse">
<stop stop-color="#F5EEE2"/>
<stop offset="0.325" stop-color="#F3D7A6"/>
<stop offset="0.615" stop-color="#C7A05D"/>
</linearGradient>
<linearGradient id="paint82_linear_17_2" x1="561.541" y1="803.998" x2="596.482" y2="958.497" gradientUnits="userSpaceOnUse">
<stop stop-color="#F5EEE2"/>
<stop offset="0.325" stop-color="#F3D7A6"/>
<stop offset="0.615" stop-color="#C7A05D"/>
</linearGradient>
<linearGradient id="paint83_linear_17_2" x1="510.327" y1="838.325" x2="586.462" y2="987.728" gradientUnits="userSpaceOnUse">
<stop stop-color="#F5EEE2"/>
<stop offset="0.385" stop-color="#F3D7A6"/>
<stop offset="0.715" stop-color="#C7A05D"/>
</linearGradient>
<linearGradient id="paint84_linear_17_2" x1="741.666" y1="838.325" x2="665.531" y2="987.728" gradientUnits="userSpaceOnUse">
<stop stop-color="#F5EEE2"/>
<stop offset="0.385" stop-color="#F3D7A6"/>
<stop offset="0.715" stop-color="#C7A05D"/>
</linearGradient>
<linearGradient id="paint85_linear_17_2" x1="627" y1="838" x2="627" y2="987" gradientUnits="userSpaceOnUse">
<stop offset="0.005" stop-color="white"/>
<stop offset="0.27002" stop-color="#F5EEE2"/>
<stop offset="0.43294" stop-color="#E5DED0"/>
<stop offset="0.95" stop-color="#D6AC64"/>
</linearGradient>
<linearGradient id="paint86_linear_17_2" x1="474.523" y1="925.091" x2="612.092" y2="1019.18" gradientUnits="userSpaceOnUse">
<stop stop-color="#F5EEE2"/>
<stop offset="0.34" stop-color="#F3D7A6"/>
<stop offset="0.975" stop-color="#C7A05D"/>
</linearGradient>
<linearGradient id="paint87_linear_17_2" x1="776.477" y1="925.933" x2="638.908" y2="1020.02" gradientUnits="userSpaceOnUse">
<stop stop-color="#F5EEE2"/>
<stop offset="0.34" stop-color="#F3D7A6"/>
<stop offset="0.975" stop-color="#C7A05D"/>
</linearGradient>
<linearGradient id="paint88_linear_17_2" x1="1000.6" y1="837.609" x2="1000.6" y2="983.342" gradientUnits="userSpaceOnUse">
<stop stop-color="#FFDAD8"/>
<stop offset="1" stop-color="#96D35F"/>
</linearGradient>
<linearGradient id="paint89_linear_17_2" x1="1058.75" y1="837.263" x2="1058.75" y2="982.996" gradientUnits="userSpaceOnUse">
<stop stop-color="#FFDAD8"/>
<stop offset="1" stop-color="#96D35F"/>
</linearGradient>
<linearGradient id="paint90_linear_17_2" x1="990.454" y1="781" x2="987.568" y2="995.767" gradientUnits="userSpaceOnUse">
<stop stop-color="#F5EEE2"/>
<stop offset="0.15" stop-color="#F3D7A6"/>
<stop offset="0.3" stop-color="#C7A05D"/>
</linearGradient>
<linearGradient id="paint91_linear_17_2" x1="1071.23" y1="781" x2="1074.06" y2="994.726" gradientUnits="userSpaceOnUse">
<stop stop-color="#F5EEE2"/>
<stop offset="0.15" stop-color="#F3D7A6"/>
<stop offset="0.3" stop-color="#C7A05D"/>
</linearGradient>
<linearGradient id="paint92_linear_17_2" x1="989.674" y1="799.754" x2="986.787" y2="1014.52" gradientUnits="userSpaceOnUse">
<stop offset="0.105" stop-color="#D6AC64"/>
<stop offset="0.315" stop-color="#C7A05D"/>
</linearGradient>
<linearGradient id="paint93_linear_17_2" x1="1070.45" y1="799.754" x2="1073.28" y2="1013.48" gradientUnits="userSpaceOnUse">
<stop offset="0.105" stop-color="#D6AC64"/>
<stop offset="0.315" stop-color="#C7A05D"/>
</linearGradient>
<linearGradient id="paint94_linear_17_2" x1="1090.54" y1="803.894" x2="1055.6" y2="958.392" gradientUnits="userSpaceOnUse">
<stop stop-color="#F5EEE2"/>
<stop offset="0.325" stop-color="#F3D7A6"/>
<stop offset="0.615" stop-color="#C7A05D"/>
</linearGradient>
<linearGradient id="paint95_linear_17_2" x1="964.541" y1="803.998" x2="999.482" y2="958.497" gradientUnits="userSpaceOnUse">
<stop stop-color="#F5EEE2"/>
<stop offset="0.325" stop-color="#F3D7A6"/>
<stop offset="0.615" stop-color="#C7A05D"/>
</linearGradient>
<linearGradient id="paint96_linear_17_2" x1="913.327" y1="838.325" x2="989.462" y2="987.728" gradientUnits="userSpaceOnUse">
<stop stop-color="#F5EEE2"/>
<stop offset="0.385" stop-color="#F3D7A6"/>
<stop offset="0.715" stop-color="#C7A05D"/>
</linearGradient>
<linearGradient id="paint97_linear_17_2" x1="1144.67" y1="838.325" x2="1068.53" y2="987.728" gradientUnits="userSpaceOnUse">
<stop stop-color="#F5EEE2"/>
<stop offset="0.385" stop-color="#F3D7A6"/>
<stop offset="0.715" stop-color="#C7A05D"/>
</linearGradient>
<linearGradient id="paint98_linear_17_2" x1="1030" y1="838" x2="1030" y2="987" gradientUnits="userSpaceOnUse">
<stop stop-color="#FFF9EE"/>
<stop offset="1" stop-color="#D6AC64"/>
</linearGradient>
<linearGradient id="paint99_linear_17_2" x1="877.523" y1="925.091" x2="1015.09" y2="1019.18" gradientUnits="userSpaceOnUse">
<stop stop-color="#F5EEE2"/>
<stop offset="0.34" stop-color="#F3D7A6"/>
<stop offset="0.975" stop-color="#C7A05D"/>
</linearGradient>
<linearGradient id="paint100_linear_17_2" x1="1179.48" y1="925.933" x2="1041.91" y2="1020.02" gradientUnits="userSpaceOnUse">
<stop stop-color="#F5EEE2"/>
<stop offset="0.34" stop-color="#F3D7A6"/>
<stop offset="0.975" stop-color="#C7A05D"/>
</linearGradient>
</defs>
</svg>
