<svg width="689" height="623" viewBox="0 0 689 623" fill="none" xmlns="http://www.w3.org/2000/svg">
<path d="M40 42C40 40.8954 40.8954 40 42 40H646.753C647.857 40 648.753 40.8954 648.753 42V580.113C648.753 581.217 647.857 582.113 646.753 582.113H42C40.8954 582.113 40 581.217 40 580.113V42Z" fill="#444444"/>
<path d="M42 41H646.753V39H42V41ZM647.753 42V580.113H649.753V42H647.753ZM646.753 581.113H42V583.113H646.753V581.113ZM41 580.113V42H39V580.113H41ZM42 581.113C41.4477 581.113 41 580.665 41 580.113H39C39 581.77 40.3431 583.113 42 583.113V581.113ZM647.753 580.113C647.753 580.665 647.305 581.113 646.753 581.113V583.113C648.41 583.113 649.753 581.77 649.753 580.113H647.753ZM646.753 41C647.305 41 647.753 41.4477 647.753 42H649.753C649.753 40.3431 648.41 39 646.753 39V41ZM42 39C40.3431 39 39 40.3432 39 42H41C41 41.4477 41.4477 41 42 41V39Z" fill="white" fill-opacity="0.1"/>
<g filter="url(#filter0_d_17_2)">
<path d="M344.679 233.609C340.839 238.463 331.196 250.183 323.336 258.227C313.512 268.283 297.589 285.273 292.847 297.755C288.104 310.238 280.312 334.509 295.218 360.168C307.143 380.695 329.095 380.741 338.581 378.198H344.679V233.609Z" fill="url(#paint0_linear_17_2)"/>
<path d="M344.679 233.263C348.518 238.117 358.162 249.837 366.021 257.881C375.846 267.936 391.768 284.926 396.511 297.409C401.254 309.891 409.045 334.163 394.139 359.822C382.215 380.348 360.262 380.395 350.777 377.852H344.679V233.263Z" fill="url(#paint1_linear_17_2)"/>
<path d="M345.646 177C340.338 182.362 327.007 195.307 316.141 204.193C302.56 215.3 280.549 234.067 273.993 247.855C267.436 261.643 256.665 288.453 277.271 316.795C293.756 339.468 324.103 339.52 337.216 336.711H345.646V177Z" fill="url(#paint2_linear_17_2)"/>
<path d="M345.646 177C351.005 182.336 364.466 195.219 375.436 204.061C389.15 215.114 411.374 233.79 417.995 247.511C424.615 261.232 435.491 287.912 414.684 316.116C398.039 338.68 367.398 338.731 354.157 335.936H345.646V177Z" fill="url(#paint3_linear_17_2)"/>
<path d="M313.045 185.366C312.152 184.939 311.09 185.264 310.572 186.108C305.749 193.967 294.521 213.551 293.798 217.08C292.832 221.796 293.953 232.831 300.005 238.136C306.057 243.441 311.809 247.804 320.183 248.475C328.558 249.146 335.813 250.347 344.586 246.787C358.487 241.146 343.054 199.717 313.045 185.366Z" fill="#FFE2D6"/>
<path d="M375.527 185.167C376.419 184.74 377.482 185.064 377.999 185.908C382.822 193.768 394.051 213.352 394.773 216.88C395.74 221.597 394.619 232.631 388.566 237.936C382.514 243.241 376.763 247.604 368.388 248.275C360.014 248.947 352.758 250.147 343.985 246.588C330.084 240.947 345.517 199.518 375.527 185.167Z" fill="#FFE2D6"/>
<path d="M344.865 195.754C339.558 201.116 326.226 214.062 315.361 222.947C301.78 234.054 279.769 252.821 273.212 266.609C266.656 280.397 255.884 307.207 276.49 335.549C292.975 358.223 323.323 358.274 336.436 355.465H344.865V195.754Z" fill="url(#paint4_linear_17_2)"/>
<path d="M344.865 195.754C350.225 201.09 363.686 213.973 374.656 222.815C388.369 233.868 410.594 252.544 417.214 266.265C423.834 279.986 434.71 306.666 413.904 334.871C397.259 357.434 366.617 357.485 353.377 354.69H344.865V195.754Z" fill="url(#paint5_linear_17_2)"/>
<path d="M412.536 202.821C413.603 202.371 414.802 202.942 415.135 204.052C419.415 218.318 429.59 256.093 429.541 262.567C429.477 271.08 424.59 290.379 414.516 298.652C404.442 306.925 395.073 313.588 383.139 313.248C371.204 312.907 360.678 313.706 349.457 305.815C331.621 293.271 365.96 222.463 412.536 202.821Z" fill="url(#paint6_linear_17_2)"/>
<path d="M272.55 202.925C271.483 202.475 270.284 203.046 269.951 204.156C265.671 218.422 255.496 256.198 255.545 262.671C255.609 271.184 260.496 290.483 270.57 298.756C280.644 307.029 290.013 313.693 301.947 313.352C313.882 313.011 324.408 313.81 335.629 305.919C353.465 293.375 319.126 222.567 272.55 202.925Z" fill="url(#paint7_linear_17_2)"/>
<path d="M221.769 239.14C220.625 238.97 219.606 239.815 219.555 240.972C218.86 256.635 218.206 298.288 219.943 304.938C222.22 313.66 232.258 332.191 244.763 338.046C257.268 343.901 268.63 348.289 280.809 344.815C292.989 341.341 304.017 339.406 313.501 328.369C328.589 310.81 274.793 247.024 221.769 239.14Z" fill="url(#paint8_linear_17_2)"/>
<path d="M466.224 239.14C467.368 238.97 468.387 239.815 468.439 240.972C469.134 256.635 469.787 298.288 468.051 304.938C465.773 313.66 455.736 332.191 443.231 338.046C430.726 343.901 419.364 348.289 407.184 344.815C395.005 341.341 383.977 339.406 374.492 328.369C359.404 310.81 413.2 247.024 466.224 239.14Z" fill="url(#paint9_linear_17_2)"/>
<path d="M343.465 234C337.686 238.617 323.623 249.361 313.606 255.405C301.084 262.959 283.265 299.473 282.302 305.349C281.339 311.224 278.931 383.832 343.465 382.993C395.093 382.321 408 330.95 408 305.349C402.221 291.778 387.387 262.791 374.288 255.405C361.188 248.018 348.281 238.057 343.465 234Z" fill="url(#paint10_linear_17_2)"/>
<path d="M186.284 332.279C185.179 332.741 184.773 334.013 185.377 334.998C194.552 349.961 212.497 378.108 219.04 384.176C227.566 392.082 267.628 419.237 284.998 419.304C302.368 419.371 317.497 418.471 327.987 409.074C338.478 399.677 349.974 394.22 349.056 378.27C347.765 355.854 238.867 310.31 186.284 332.279Z" fill="url(#paint11_linear_17_2)"/>
<path d="M500.716 333.121C501.821 333.583 502.227 334.854 501.623 335.84C492.448 350.802 474.503 378.95 467.96 385.018C459.434 392.923 419.372 420.078 402.002 420.145C384.632 420.212 369.503 419.312 359.013 409.915C348.522 400.519 337.026 395.061 337.944 379.111C339.235 356.695 448.133 311.152 500.716 333.121Z" fill="url(#paint12_linear_17_2)"/>
</g>
<rect x="43" y="43" width="83.1875" height="30" rx="3" fill="#444444"/>
<rect x="43.5" y="43.5" width="82.1875" height="29" rx="2.5" stroke="white" stroke-opacity="0.0980392"/>
<path d="M49.9688 61V53H50.9375V60.1406H54.6563V61H49.9688ZM58.4688 61.125C57.9271 61.125 57.4518 60.9961 57.043 60.7383C56.6367 60.4805 56.319 60.1198 56.0898 59.6562C55.8633 59.1927 55.75 58.651 55.75 58.0312C55.75 57.4062 55.8633 56.8607 56.0898 56.3945C56.319 55.9284 56.6367 55.5664 57.043 55.3086C57.4518 55.0508 57.9271 54.9219 58.4688 54.9219C59.0104 54.9219 59.4844 55.0508 59.8906 55.3086C60.2995 55.5664 60.6172 55.9284 60.8438 56.3945C61.0729 56.8607 61.1875 57.4062 61.1875 58.0312C61.1875 58.651 61.0729 59.1927 60.8438 59.6562C60.6172 60.1198 60.2995 60.4805 59.8906 60.7383C59.4844 60.9961 59.0104 61.125 58.4688 61.125ZM58.4688 60.2969C58.8802 60.2969 59.2187 60.1914 59.4844 59.9805C59.75 59.7695 59.9466 59.4922 60.0742 59.1484C60.2018 58.8047 60.2656 58.4323 60.2656 58.0312C60.2656 57.6302 60.2018 57.2565 60.0742 56.9102C59.9466 56.5638 59.75 56.2839 59.4844 56.0703C59.2187 55.8568 58.8802 55.75 58.4688 55.75C58.0573 55.75 57.7188 55.8568 57.4531 56.0703C57.1875 56.2839 56.9909 56.5638 56.8633 56.9102C56.7357 57.2565 56.6719 57.6302 56.6719 58.0312C56.6719 58.4323 56.7357 58.8047 56.8633 59.1484C56.9909 59.4922 57.1875 59.7695 57.4531 59.9805C57.7188 60.1914 58.0573 60.2969 58.4688 60.2969ZM65.2041 55V55.7812H62.0947V55H65.2041ZM63.001 53.5625H63.9229V59.2812C63.9229 59.5417 63.9606 59.737 64.0361 59.8672C64.1143 59.9948 64.2132 60.0807 64.333 60.125C64.4554 60.1667 64.5843 60.1875 64.7197 60.1875C64.8213 60.1875 64.9046 60.1823 64.9697 60.1719C65.0348 60.1589 65.0869 60.1484 65.126 60.1406L65.3135 60.9687C65.251 60.9922 65.1637 61.0156 65.0518 61.0391C64.9398 61.0651 64.7979 61.0781 64.626 61.0781C64.3656 61.0781 64.1104 61.0221 63.8604 60.9102C63.613 60.7982 63.4072 60.6276 63.2432 60.3984C63.0817 60.1693 63.001 59.8802 63.001 59.5312V53.5625ZM70.3721 58.5469V55H71.2939V61H70.3721V59.9844H70.3096C70.1689 60.2891 69.9502 60.5482 69.6533 60.7617C69.3564 60.9727 68.9814 61.0781 68.5283 61.0781C68.1533 61.0781 67.82 60.9961 67.5283 60.832C67.2367 60.6654 67.0075 60.4154 66.8408 60.082C66.6742 59.7461 66.5908 59.3229 66.5908 58.8125V55H67.5127V58.75C67.5127 59.1875 67.6351 59.5365 67.8799 59.7969C68.1273 60.0573 68.4424 60.1875 68.8252 60.1875C69.0544 60.1875 69.2874 60.1289 69.5244 60.0117C69.764 59.8945 69.9645 59.7148 70.126 59.4727C70.29 59.2305 70.3721 58.9219 70.3721 58.5469ZM77.2324 56.3437L76.4043 56.5781C76.3522 56.4401 76.2754 56.306 76.1738 56.1758C76.0749 56.043 75.9395 55.9336 75.7676 55.8477C75.5957 55.7617 75.3757 55.7187 75.1074 55.7187C74.7402 55.7187 74.4342 55.8034 74.1895 55.9727C73.9473 56.1393 73.8262 56.3516 73.8262 56.6094C73.8262 56.8385 73.9095 57.0195 74.0762 57.1523C74.2428 57.2852 74.5033 57.3958 74.8574 57.4844L75.748 57.7031C76.2845 57.8333 76.6842 58.0326 76.9473 58.3008C77.2103 58.5664 77.3418 58.9089 77.3418 59.3281C77.3418 59.6719 77.2428 59.9792 77.0449 60.25C76.8496 60.5208 76.5762 60.7344 76.2246 60.8906C75.873 61.0469 75.4642 61.125 74.998 61.125C74.3861 61.125 73.8796 60.9922 73.4785 60.7266C73.0775 60.4609 72.8236 60.0729 72.7168 59.5625L73.5918 59.3437C73.6751 59.6667 73.8327 59.9089 74.0645 60.0703C74.2988 60.2318 74.6048 60.3125 74.9824 60.3125C75.4121 60.3125 75.7533 60.2214 76.0059 60.0391C76.2611 59.8542 76.3887 59.6328 76.3887 59.375C76.3887 59.1667 76.3158 58.9922 76.1699 58.8516C76.0241 58.7083 75.8001 58.6016 75.498 58.5312L74.498 58.2969C73.9486 58.1667 73.5449 57.9648 73.2871 57.6914C73.0319 57.4154 72.9043 57.0703 72.9043 56.6562C72.9043 56.3177 72.9993 56.0182 73.1895 55.7578C73.3822 55.4974 73.6439 55.293 73.9746 55.1445C74.3079 54.9961 74.6855 54.9219 75.1074 54.9219C75.7012 54.9219 76.1673 55.0521 76.5059 55.3125C76.847 55.5729 77.0892 55.9167 77.2324 56.3437ZM84.2607 61.125C83.7191 61.125 83.2438 60.9961 82.835 60.7383C82.4287 60.4805 82.111 60.1198 81.8818 59.6562C81.6553 59.1927 81.542 58.651 81.542 58.0312C81.542 57.4062 81.6553 56.8607 81.8818 56.3945C82.111 55.9284 82.4287 55.5664 82.835 55.3086C83.2438 55.0508 83.7191 54.9219 84.2607 54.9219C84.8024 54.9219 85.2764 55.0508 85.6826 55.3086C86.0915 55.5664 86.4092 55.9284 86.6357 56.3945C86.8649 56.8607 86.9795 57.4062 86.9795 58.0312C86.9795 58.651 86.8649 59.1927 86.6357 59.6562C86.4092 60.1198 86.0915 60.4805 85.6826 60.7383C85.2764 60.9961 84.8024 61.125 84.2607 61.125ZM84.2607 60.2969C84.6722 60.2969 85.0107 60.1914 85.2764 59.9805C85.542 59.7695 85.7386 59.4922 85.8662 59.1484C85.9938 58.8047 86.0576 58.4323 86.0576 58.0312C86.0576 57.6302 85.9938 57.2565 85.8662 56.9102C85.7386 56.5638 85.542 56.2839 85.2764 56.0703C85.0107 55.8568 84.6722 55.75 84.2607 55.75C83.8493 55.75 83.5107 55.8568 83.2451 56.0703C82.9795 56.2839 82.7829 56.5638 82.6553 56.9102C82.5277 57.2565 82.4639 57.6302 82.4639 58.0312C82.4639 58.4323 82.5277 58.8047 82.6553 59.1484C82.7829 59.4922 82.9795 59.7695 83.2451 59.9805C83.5107 60.1914 83.8493 60.2969 84.2607 60.2969ZM89.3086 57.3906V61H88.3867V55H89.2773V55.9375H89.3555C89.4961 55.6328 89.7096 55.388 89.9961 55.2031C90.2826 55.0156 90.6523 54.9219 91.1055 54.9219C91.5117 54.9219 91.8672 55.0052 92.1719 55.1719C92.4766 55.3359 92.7135 55.5859 92.8828 55.9219C93.0521 56.2552 93.1367 56.6771 93.1367 57.1875V61H92.2148V57.25C92.2148 56.7786 92.0924 56.4115 91.8477 56.1484C91.6029 55.8828 91.2669 55.75 90.8398 55.75C90.5456 55.75 90.2826 55.8138 90.0508 55.9414C89.8216 56.069 89.6406 56.2552 89.5078 56.5C89.375 56.7448 89.3086 57.0417 89.3086 57.3906ZM100.181 61.125C99.6807 61.125 99.2393 60.9987 98.8564 60.7461C98.4736 60.4909 98.1742 60.1315 97.958 59.668C97.7419 59.2018 97.6338 58.651 97.6338 58.0156C97.6338 57.3854 97.7419 56.8385 97.958 56.375C98.1742 55.9115 98.4749 55.5534 98.8604 55.3008C99.2458 55.0482 99.6911 54.9219 100.196 54.9219C100.587 54.9219 100.896 54.987 101.122 55.1172C101.351 55.2448 101.526 55.3906 101.646 55.5547C101.768 55.7161 101.863 55.849 101.931 55.9531H102.009V53H102.931V61H102.04V60.0781H101.931C101.863 60.1875 101.767 60.3255 101.642 60.4922C101.517 60.6562 101.338 60.8034 101.106 60.9336C100.875 61.0612 100.566 61.125 100.181 61.125ZM100.306 60.2969C100.675 60.2969 100.988 60.2005 101.243 60.0078C101.498 59.8125 101.692 59.543 101.825 59.1992C101.958 58.8529 102.024 58.4531 102.024 58C102.024 57.5521 101.959 57.1602 101.829 56.8242C101.699 56.4857 101.506 56.2227 101.251 56.0352C100.996 55.8451 100.681 55.75 100.306 55.75C99.915 55.75 99.5895 55.8503 99.3291 56.0508C99.0713 56.2487 98.8773 56.5182 98.7471 56.8594C98.6195 57.1979 98.5557 57.5781 98.5557 58C98.5557 58.4271 98.6208 58.8151 98.751 59.1641C98.8838 59.5104 99.0791 59.7865 99.3369 59.9922C99.5973 60.1953 99.9202 60.2969 100.306 60.2969ZM106.513 61.1406C106.132 61.1406 105.787 61.069 105.478 60.9258C105.168 60.7799 104.922 60.5703 104.739 60.2969C104.557 60.0208 104.466 59.6875 104.466 59.2969C104.466 58.9531 104.534 58.6745 104.669 58.4609C104.804 58.2448 104.985 58.0755 105.212 57.9531C105.438 57.8307 105.688 57.7396 105.962 57.6797C106.238 57.6172 106.515 57.5677 106.794 57.5313C107.159 57.4844 107.454 57.4492 107.681 57.4258C107.91 57.3997 108.076 57.3568 108.181 57.2969C108.287 57.237 108.341 57.1328 108.341 56.9844V56.9531C108.341 56.5677 108.235 56.2682 108.024 56.0547C107.816 55.8411 107.5 55.7344 107.075 55.7344C106.635 55.7344 106.29 55.8307 106.04 56.0234C105.79 56.2161 105.614 56.4219 105.513 56.6406L104.638 56.3281C104.794 55.9635 105.002 55.6797 105.263 55.4766C105.526 55.2708 105.812 55.1276 106.122 55.0469C106.435 54.9635 106.742 54.9219 107.044 54.9219C107.237 54.9219 107.458 54.9453 107.708 54.9922C107.961 55.0365 108.204 55.1289 108.438 55.2695C108.675 55.4102 108.872 55.6224 109.028 55.9062C109.185 56.1901 109.263 56.5703 109.263 57.0469V61H108.341V60.1875H108.294C108.231 60.3177 108.127 60.457 107.981 60.6055C107.836 60.7539 107.642 60.8802 107.399 60.9844C107.157 61.0885 106.862 61.1406 106.513 61.1406ZM106.653 60.3125C107.018 60.3125 107.325 60.2409 107.575 60.0977C107.828 59.9544 108.018 59.7695 108.146 59.543C108.276 59.3164 108.341 59.0781 108.341 58.8281V57.9844C108.302 58.0312 108.216 58.0742 108.083 58.1133C107.953 58.1497 107.802 58.1823 107.63 58.2109C107.461 58.237 107.295 58.2604 107.134 58.2812C106.975 58.2995 106.846 58.3151 106.747 58.3281C106.507 58.3594 106.284 58.4102 106.075 58.4805C105.869 58.5482 105.703 58.651 105.575 58.7891C105.45 58.9245 105.388 59.1094 105.388 59.3437C105.388 59.6641 105.506 59.9062 105.743 60.0703C105.983 60.2318 106.286 60.3125 106.653 60.3125ZM110.945 61V55H111.836V55.9062H111.898C112.008 55.6094 112.206 55.3685 112.492 55.1836C112.779 54.9987 113.102 54.9062 113.461 54.9062C113.529 54.9062 113.613 54.9076 113.715 54.9102C113.816 54.9128 113.893 54.9167 113.945 54.9219V55.8594C113.914 55.8516 113.842 55.8398 113.73 55.8242C113.621 55.806 113.505 55.7969 113.383 55.7969C113.091 55.7969 112.831 55.8581 112.602 55.9805C112.375 56.1003 112.195 56.2669 112.063 56.4805C111.932 56.6914 111.867 56.9323 111.867 57.2031V61H110.945ZM115.897 58.8125L115.882 57.6719H116.069L118.694 55H119.835L117.038 57.8281H116.96L115.897 58.8125ZM115.038 61V53H115.96V61H115.038ZM118.851 61L116.507 58.0312L117.163 57.3906L120.022 61H118.851Z" fill="white"/>
<defs>
<filter id="filter0_d_17_2" x="159.9" y="154.9" width="367.2" height="315.537" filterUnits="userSpaceOnUse" color-interpolation-filters="sRGB">
<feFlood flood-opacity="0" result="BackgroundImageFix"/>
<feColorMatrix in="SourceAlpha" type="matrix" values="0 0 0 0 0 0 0 0 0 0 0 0 0 0 0 0 0 0 127 0" result="hardAlpha"/>
<feOffset dy="2"/>
<feGaussianBlur stdDeviation="12.05"/>
<feComposite in2="hardAlpha" operator="out"/>
<feColorMatrix type="matrix" values="0 0 0 0 1 0 0 0 0 0.918171 0 0 0 0 0.590853 0 0 0 0.4 0"/>
<feBlend mode="normal" in2="BackgroundImageFix" result="effect1_dropShadow_17_2"/>
<feBlend mode="normal" in="SourceGraphic" in2="effect1_dropShadow_17_2" result="shape"/>
</filter>
<linearGradient id="paint0_linear_17_2" x1="315.605" y1="233.609" x2="315.605" y2="379.342" gradientUnits="userSpaceOnUse">
<stop stop-color="#FFDAD8"/>
<stop offset="1" stop-color="#96D35F"/>
</linearGradient>
<linearGradient id="paint1_linear_17_2" x1="373.752" y1="233.263" x2="373.752" y2="378.996" gradientUnits="userSpaceOnUse">
<stop stop-color="#FFDAD8"/>
<stop offset="1" stop-color="#96D35F"/>
</linearGradient>
<linearGradient id="paint2_linear_17_2" x1="305.454" y1="177" x2="302.568" y2="391.767" gradientUnits="userSpaceOnUse">
<stop stop-color="#F5EEE2"/>
<stop offset="0.15" stop-color="#F7B7B5"/>
<stop offset="0.3" stop-color="#C69191"/>
</linearGradient>
<linearGradient id="paint3_linear_17_2" x1="386.228" y1="177" x2="389.059" y2="390.726" gradientUnits="userSpaceOnUse">
<stop stop-color="#F5EEE2"/>
<stop offset="0.15" stop-color="#F7B7B5"/>
<stop offset="0.3" stop-color="#C69191"/>
</linearGradient>
<linearGradient id="paint4_linear_17_2" x1="304.674" y1="195.754" x2="301.787" y2="410.522" gradientUnits="userSpaceOnUse">
<stop offset="0.105" stop-color="#F7B7B5"/>
<stop offset="0.315" stop-color="#C69191"/>
</linearGradient>
<linearGradient id="paint5_linear_17_2" x1="385.447" y1="195.754" x2="388.278" y2="409.48" gradientUnits="userSpaceOnUse">
<stop offset="0.105" stop-color="#F7B7B5"/>
<stop offset="0.315" stop-color="#C69191"/>
</linearGradient>
<linearGradient id="paint6_linear_17_2" x1="405.545" y1="199.894" x2="370.604" y2="354.392" gradientUnits="userSpaceOnUse">
<stop stop-color="#F5EEE2"/>
<stop offset="0.325" stop-color="#F7B7B5"/>
<stop offset="0.615" stop-color="#C69191"/>
</linearGradient>
<linearGradient id="paint7_linear_17_2" x1="279.541" y1="199.998" x2="314.482" y2="354.497" gradientUnits="userSpaceOnUse">
<stop stop-color="#F5EEE2"/>
<stop offset="0.325" stop-color="#F7B7B5"/>
<stop offset="0.615" stop-color="#C69191"/>
</linearGradient>
<linearGradient id="paint8_linear_17_2" x1="228.327" y1="234.325" x2="304.462" y2="383.728" gradientUnits="userSpaceOnUse">
<stop stop-color="#F5EEE2"/>
<stop offset="0.385" stop-color="#F7B7B5"/>
<stop offset="0.715" stop-color="#C69191"/>
</linearGradient>
<linearGradient id="paint9_linear_17_2" x1="459.666" y1="234.325" x2="383.531" y2="383.728" gradientUnits="userSpaceOnUse">
<stop stop-color="#F5EEE2"/>
<stop offset="0.385" stop-color="#F7B7B5"/>
<stop offset="0.715" stop-color="#C69191"/>
</linearGradient>
<linearGradient id="paint10_linear_17_2" x1="345" y1="234" x2="345" y2="383" gradientUnits="userSpaceOnUse">
<stop offset="0.005" stop-color="white"/>
<stop offset="0.27002" stop-color="#F5EEE2"/>
<stop offset="0.43294" stop-color="#E5DED0"/>
<stop offset="0.95" stop-color="#CEB7B7"/>
</linearGradient>
<linearGradient id="paint11_linear_17_2" x1="192.523" y1="321.091" x2="330.092" y2="415.18" gradientUnits="userSpaceOnUse">
<stop stop-color="#F5EEE2"/>
<stop offset="0.485" stop-color="#83BB9E"/>
<stop offset="1" stop-color="#4F706C"/>
</linearGradient>
<linearGradient id="paint12_linear_17_2" x1="494.477" y1="321.933" x2="356.908" y2="416.022" gradientUnits="userSpaceOnUse">
<stop stop-color="#F5EEE2"/>
<stop offset="0.485" stop-color="#83BB9E"/>
<stop offset="1" stop-color="#4F706C"/>
</linearGradient>
</defs>
</svg>
