<svg width="1291" height="935" viewBox="0 0 1291 935" fill="none" xmlns="http://www.w3.org/2000/svg">
<g clip-path="url(#clip0_4035_121)">
<rect width="1291" height="935" fill="white"/>
<path d="M199.741 107.301C196.325 111.522 187.744 121.711 180.75 128.704C172.008 137.446 157.84 152.217 153.62 163.069C149.399 173.921 142.466 195.023 155.73 217.33C166.341 235.176 185.875 235.216 194.315 233.005H199.741V107.301Z" fill="url(#paint0_linear_4035_121)"/>
<path d="M199.741 107C203.158 111.22 211.739 121.409 218.732 128.403C227.474 137.145 241.643 151.916 245.863 162.768C250.083 173.62 257.016 194.722 243.753 217.029C233.142 234.875 213.608 234.915 205.167 232.704H199.741V107Z" fill="url(#paint1_linear_4035_121)"/>
<path d="M538 72.3843C533.642 77.7676 522.696 90.7644 513.775 99.6854C502.624 110.836 484.551 129.678 479.168 143.521C473.785 157.364 464.941 184.28 481.86 212.735C495.395 235.499 520.312 235.55 531.079 232.73H538V72.3843Z" fill="url(#paint2_linear_4035_121)"/>
<path d="M538 72C542.358 77.3833 553.304 90.3802 562.225 99.3011C573.376 110.452 591.448 129.294 596.832 143.137C602.215 156.979 611.059 183.896 594.14 212.351C580.605 235.114 555.688 235.166 544.921 232.346H538V72Z" fill="url(#paint3_linear_4035_121)"/>
<path d="M539.46 312.423C534.662 318.35 522.61 332.66 512.787 342.483C500.51 354.761 480.611 375.506 474.683 390.748C468.756 405.989 459.019 435.626 477.647 466.956C492.55 492.02 519.985 492.076 531.839 488.971H539.46V312.423Z" fill="url(#paint4_linear_4035_121)"/>
<path d="M539.46 312C544.258 317.927 556.311 332.237 566.133 342.06C578.411 354.338 598.31 375.083 604.237 390.325C610.164 405.566 619.902 435.203 601.273 466.533C586.37 491.597 558.936 491.653 547.081 488.548H539.46V312Z" fill="url(#paint5_linear_4035_121)"/>
<path d="M480.028 359.978C479.31 358.631 477.425 358.576 476.602 359.861C467.805 373.6 452.778 397.324 450.972 404.6C448.549 414.364 446.529 455.454 456.626 467.659C466.723 479.864 476.416 490.035 491.36 492.883C506.303 495.731 515.996 498.172 532.555 492.883C545.509 488.745 503.905 404.777 480.028 359.978Z" fill="url(#paint6_linear_4035_121)"/>
<path d="M594.977 359.946C595.696 358.608 597.568 358.554 598.386 359.834C607.182 373.594 622.222 398.18 624.028 405.395C626.451 415.074 628.471 455.807 618.374 467.906C608.277 480.005 598.584 490.087 583.64 492.91C568.697 495.733 559.004 498.153 542.445 492.91C529.49 488.808 571.1 404.404 594.977 359.946Z" fill="url(#paint7_linear_4035_121)"/>
<path d="M538.343 365C533.986 368.997 523.383 378.299 515.83 383.531C506.389 390.072 492.954 421.685 492.228 426.772C491.501 431.859 489.686 494.72 538.343 493.994C577.269 493.412 587 448.937 587 426.772C582.643 415.023 571.459 389.927 561.582 383.531C551.705 377.136 541.974 368.513 538.343 365Z" fill="url(#paint8_linear_4035_121)"/>
<path d="M203.279 575.491C197.879 582.378 184.317 599.003 173.264 610.415C159.447 624.68 137.055 648.783 130.385 666.491C123.715 684.198 112.757 718.631 133.72 755.03C150.49 784.15 181.363 784.216 194.703 780.609H203.279V575.491Z" fill="url(#paint9_linear_4035_121)"/>
<path d="M203.279 575C208.678 581.886 222.241 598.512 233.294 609.924C247.11 624.189 269.503 648.291 276.173 665.999C282.843 683.707 293.801 718.139 272.838 754.539C256.067 783.659 225.194 783.725 211.854 780.117H203.279V575Z" fill="url(#paint10_linear_4035_121)"/>
<path d="M136.46 630.085C135.749 628.702 133.819 628.659 133.002 629.982C123.21 645.846 106.23 673.628 104.201 682.11C101.496 693.419 99.2419 741.013 110.513 755.15C121.784 769.287 132.604 781.068 149.285 784.366C165.966 787.665 176.786 790.492 195.271 784.366C209.763 779.563 163.085 681.888 136.46 630.085Z" fill="url(#paint11_linear_4035_121)"/>
<path d="M266.205 630.013C266.92 628.648 268.824 628.605 269.638 629.912C279.526 645.78 296.723 674.613 298.776 683.032C301.509 694.243 303.787 741.422 292.398 755.436C281.01 769.45 270.077 781.128 253.222 784.398C236.367 787.667 225.435 790.47 206.758 784.398C192.11 779.635 239.307 681.406 266.205 630.013Z" fill="url(#paint12_linear_4035_121)"/>
<path d="M298.64 670.432C299.781 669.394 301.588 670.008 301.901 671.518C305.546 689.085 311.438 720.542 310.505 728.771C309.26 739.762 295.736 782.976 280.885 791.84C266.035 800.704 252.364 807.616 236.15 805.01C219.936 802.405 209.194 801.328 194.427 789.714C182.857 780.613 257.504 707.865 298.64 670.432Z" fill="url(#paint13_linear_4035_121)"/>
<path d="M100.36 669.573C99.2194 668.536 97.4121 669.15 97.0988 670.659C93.4537 688.226 87.5625 719.683 88.4949 727.913C89.7402 738.903 103.264 782.118 118.115 790.982C132.965 799.846 146.636 806.758 162.85 804.152C179.064 801.546 189.806 800.47 204.573 788.855C216.143 779.755 141.496 707.006 100.36 669.573Z" fill="url(#paint14_linear_4035_121)"/>
<path d="M199.611 642.977C194.383 647.748 181.659 658.853 172.596 665.099C161.267 672.908 145.145 710.647 144.273 716.719C143.402 722.792 141.223 797.837 199.611 796.969C246.322 796.275 258 743.18 258 716.719C252.771 702.694 239.351 672.734 227.499 665.099C215.647 657.465 203.969 647.17 199.611 642.977Z" fill="url(#paint15_linear_4035_121)"/>
<path d="M884.46 50.4229C879.662 56.3501 867.61 70.6603 857.787 80.4827C845.51 92.7606 825.611 113.506 819.683 128.748C813.756 143.989 804.019 173.626 822.647 204.956C837.55 230.02 864.985 230.076 876.839 226.971H884.46V50.4229Z" fill="url(#paint16_linear_4035_121)"/>
<path d="M884.46 50C889.258 55.9273 901.311 70.2374 911.133 80.0598C923.411 92.3378 943.31 113.083 949.237 128.325C955.164 143.566 964.902 173.203 946.273 204.533C931.37 229.597 903.936 229.653 892.081 226.548H884.46V50Z" fill="url(#paint17_linear_4035_121)"/>
<path d="M825.028 97.9781C824.31 96.6312 822.425 96.5759 821.602 97.8612C812.805 111.6 797.778 135.324 795.972 142.6C793.549 152.364 791.529 193.454 801.626 205.659C811.723 217.864 821.416 228.035 836.36 230.883C851.303 233.731 860.996 236.172 877.555 230.883C890.509 226.745 848.905 142.777 825.028 97.9781Z" fill="url(#paint18_linear_4035_121)"/>
<path d="M939.977 97.9462C940.696 96.6075 942.568 96.5535 943.386 97.8338C952.182 111.594 967.222 136.18 969.028 143.395C971.451 153.074 973.471 193.807 963.374 205.906C953.277 218.005 943.584 228.087 928.64 230.91C913.697 233.733 904.004 236.153 887.445 230.91C874.49 226.808 916.1 142.404 939.977 97.9462Z" fill="url(#paint19_linear_4035_121)"/>
<path d="M538.761 572.443C533.841 578.655 521.484 593.653 511.413 603.948C498.824 616.815 478.422 638.558 472.345 654.532C466.268 670.506 456.284 701.566 475.384 734.402C490.664 760.67 518.793 760.729 530.947 757.475H538.761V572.443Z" fill="url(#paint20_linear_4035_121)"/>
<path d="M538.76 572C543.68 578.212 556.037 593.21 566.108 603.504C578.697 616.372 599.099 638.114 605.176 654.088C611.253 670.062 621.237 701.123 602.137 733.958C586.857 760.226 558.728 760.286 546.574 757.032H538.76V572Z" fill="url(#paint21_linear_4035_121)"/>
<path d="M623.653 614.473C624.716 613.742 626.149 614.224 626.589 615.436C632.657 632.156 643.33 663.49 643.483 671.847C643.682 682.808 635.593 726.823 621.511 737.132C607.429 747.442 594.298 755.703 577.269 754.855C560.24 754.008 549.045 754.087 532.29 744.209C519.068 736.415 573.25 649.117 623.653 614.473Z" fill="url(#paint22_linear_4035_121)"/>
<path d="M452.555 613.885C451.492 613.154 450.059 613.636 449.619 614.848C443.551 631.568 432.877 662.902 432.725 671.259C432.525 682.22 440.615 726.235 454.697 736.545C468.778 746.854 481.91 755.115 498.939 754.267C515.968 753.42 527.163 753.499 543.918 743.622C557.14 735.827 502.957 648.529 452.555 613.885Z" fill="url(#paint23_linear_4035_121)"/>
<path d="M539.221 642.18C534.405 646.548 522.686 656.716 514.338 662.435C503.904 669.584 489.054 704.137 488.252 709.698C487.449 715.258 485.442 783.967 539.221 783.173C582.244 782.537 593 733.925 593 709.698C588.184 696.856 575.823 669.425 564.907 662.435C553.99 655.445 543.234 646.019 539.221 642.18Z" fill="url(#paint24_linear_4035_121)"/>
<path d="M538.761 572.443C533.841 578.655 521.484 593.653 511.413 603.948C498.824 616.815 478.422 638.558 472.345 654.532C466.268 670.506 456.284 701.566 475.384 734.402C490.664 760.67 518.793 760.729 530.947 757.475H538.761V572.443Z" fill="url(#paint25_linear_4035_121)"/>
<path d="M538.76 572C543.68 578.212 556.037 593.21 566.108 603.504C578.697 616.372 599.099 638.114 605.176 654.088C611.253 670.062 621.237 701.123 602.137 733.958C586.857 760.226 558.728 760.286 546.574 757.032H538.76V572Z" fill="url(#paint26_linear_4035_121)"/>
<path d="M623.653 614.473C624.716 613.742 626.149 614.224 626.589 615.436C632.657 632.156 643.33 663.49 643.483 671.847C643.682 682.808 635.593 726.823 621.511 737.132C607.429 747.442 594.298 755.703 577.269 754.855C560.24 754.008 549.045 754.087 532.29 744.209C519.068 736.415 573.25 649.117 623.653 614.473Z" fill="url(#paint27_linear_4035_121)"/>
<path d="M452.555 613.885C451.492 613.154 450.059 613.636 449.619 614.848C443.551 631.568 432.877 662.902 432.725 671.259C432.525 682.22 440.615 726.235 454.697 736.545C468.778 746.854 481.91 755.115 498.939 754.267C515.968 753.42 527.163 753.499 543.918 743.622C557.14 735.827 502.957 648.529 452.555 613.885Z" fill="url(#paint28_linear_4035_121)"/>
<path d="M539.221 642.18C534.405 646.548 522.686 656.716 514.338 662.435C503.904 669.584 489.054 704.137 488.252 709.698C487.449 715.258 485.442 783.967 539.221 783.173C582.244 782.537 593 733.925 593 709.698C588.184 696.856 575.823 669.425 564.907 662.435C553.99 655.445 543.234 646.019 539.221 642.18Z" fill="url(#paint29_linear_4035_121)"/>
<path d="M660.006 685.596C661.421 684.66 663.261 685.808 663.057 687.492C660.923 705.099 656.71 735.403 653.534 743.089C649.222 753.523 624.934 793.346 609.683 799.831C594.432 806.316 580.762 811.082 567.746 806.307C554.73 801.533 545.914 798.996 536.794 785.729C529.685 775.386 613.792 716.131 660.006 685.596Z" fill="url(#paint30_linear_4035_121)"/>
<path d="M413.669 685.596C412.254 684.66 410.414 685.808 410.618 687.492C412.753 705.099 416.965 735.403 420.141 743.089C424.453 753.523 448.741 793.346 463.992 799.831C479.243 806.316 492.913 811.082 505.929 806.307C518.945 801.533 527.761 798.996 536.881 785.729C543.99 775.386 459.883 716.131 413.669 685.596Z" fill="url(#paint31_linear_4035_121)"/>
<g filter="url(#filter0_d_4035_121)">
<path d="M883.679 614.609C879.839 619.463 870.196 631.183 862.336 639.227C852.512 649.283 836.589 666.273 831.847 678.755C827.104 691.238 819.312 715.509 834.218 741.168C846.143 761.695 868.095 761.741 877.581 759.198H883.679V614.609Z" fill="url(#paint32_linear_4035_121)"/>
<path d="M883.678 614.263C887.518 619.117 897.162 630.837 905.021 638.881C914.846 648.936 930.768 665.926 935.511 678.409C940.253 690.891 948.045 715.163 933.139 740.822C921.214 761.348 899.262 761.395 889.776 758.852H883.678V614.263Z" fill="url(#paint33_linear_4035_121)"/>
<path d="M884.646 558C879.338 563.362 866.007 576.307 855.141 585.193C841.56 596.3 819.549 615.067 812.993 628.855C806.436 642.643 795.665 669.453 816.271 697.795C832.756 720.468 863.103 720.52 876.216 717.711H884.646V558Z" fill="url(#paint34_linear_4035_121)"/>
<path d="M884.646 558C890.005 563.336 903.466 576.219 914.436 585.061C928.15 596.114 950.374 614.79 956.995 628.511C963.615 642.232 974.491 668.912 953.684 697.116C937.04 719.68 906.398 719.731 893.157 716.936H884.646V558Z" fill="url(#paint35_linear_4035_121)"/>
<path d="M852.045 566.366C851.152 565.939 850.09 566.264 849.572 567.108C844.749 574.967 833.521 594.551 832.798 598.08C831.832 602.796 832.953 613.831 839.005 619.136C845.057 624.441 850.809 628.804 859.183 629.475C867.558 630.146 874.813 631.347 883.586 627.787C897.487 622.146 882.054 580.717 852.045 566.366Z" fill="#FFE2D6"/>
<path d="M914.527 566.167C915.419 565.74 916.482 566.064 916.999 566.908C921.822 574.768 933.051 594.352 933.773 597.88C934.74 602.597 933.619 613.631 927.566 618.936C921.514 624.241 915.763 628.604 907.388 629.275C899.014 629.947 891.758 631.147 882.985 627.588C869.084 621.947 884.517 580.518 914.527 566.167Z" fill="#FFE2D6"/>
<path d="M883.865 576.754C878.558 582.116 865.226 595.062 854.361 603.947C840.78 615.054 818.769 633.821 812.212 647.609C805.656 661.397 794.884 688.207 815.49 716.549C831.975 739.223 862.323 739.274 875.436 736.465H883.865V576.754Z" fill="url(#paint36_linear_4035_121)"/>
<path d="M883.865 576.754C889.225 582.09 902.686 594.973 913.656 603.815C927.369 614.868 949.594 633.544 956.214 647.265C962.834 660.986 973.71 687.666 952.904 715.871C936.259 738.434 905.617 738.485 892.377 735.69H883.865V576.754Z" fill="url(#paint37_linear_4035_121)"/>
<path d="M951.536 583.821C952.604 583.371 953.802 583.942 954.135 585.052C958.415 599.318 968.59 637.093 968.541 643.567C968.477 652.08 963.59 671.379 953.517 679.652C943.443 687.925 934.074 694.588 922.139 694.248C910.204 693.907 899.678 694.706 888.457 686.815C870.621 674.271 904.96 603.463 951.536 583.821Z" fill="url(#paint38_linear_4035_121)"/>
<path d="M811.55 583.925C810.483 583.475 809.284 584.046 808.951 585.156C804.671 599.422 794.496 637.198 794.545 643.671C794.609 652.184 799.496 671.483 809.57 679.756C819.644 688.029 829.013 694.693 840.947 694.352C852.882 694.011 863.408 694.81 874.629 686.919C892.465 674.375 858.126 603.567 811.55 583.925Z" fill="url(#paint39_linear_4035_121)"/>
<path d="M760.769 620.14C759.625 619.97 758.606 620.815 758.555 621.972C757.86 637.635 757.206 679.288 758.943 685.938C761.22 694.66 771.258 713.191 783.763 719.046C796.268 724.901 807.63 729.289 819.809 725.815C831.989 722.341 843.017 720.406 852.501 709.369C867.589 691.81 813.793 628.024 760.769 620.14Z" fill="url(#paint40_linear_4035_121)"/>
<path d="M1005.22 620.14C1006.37 619.97 1007.39 620.815 1007.44 621.972C1008.13 637.635 1008.79 679.288 1007.05 685.938C1004.77 694.66 994.736 713.191 982.231 719.046C969.726 724.901 958.364 729.289 946.185 725.815C934.005 722.341 922.977 720.406 913.493 709.369C898.404 691.81 952.201 628.024 1005.22 620.14Z" fill="url(#paint41_linear_4035_121)"/>
<path d="M882.465 615C876.686 619.617 862.623 630.361 852.606 636.405C840.084 643.959 822.265 680.473 821.302 686.349C820.339 692.224 817.931 764.832 882.465 763.993C934.093 763.321 947 711.95 947 686.349C941.221 672.778 926.387 643.791 913.288 636.405C900.188 629.018 887.281 619.057 882.465 615Z" fill="url(#paint42_linear_4035_121)"/>
<path d="M725.284 713.279C724.179 713.741 723.773 715.013 724.377 715.998C733.552 730.96 751.497 759.108 758.04 765.176C766.566 773.082 806.628 800.236 823.998 800.303C841.368 800.371 856.497 799.47 866.988 790.074C877.478 780.677 888.974 775.22 888.056 759.27C886.765 736.854 777.867 691.31 725.284 713.279Z" fill="url(#paint43_linear_4035_121)"/>
<path d="M1039.72 714.121C1040.82 714.583 1041.23 715.854 1040.62 716.84C1031.45 731.802 1013.5 759.95 1006.96 766.018C998.434 773.923 958.372 801.078 941.002 801.145C923.632 801.212 908.503 800.312 898.012 790.915C887.522 781.519 876.026 776.061 876.944 760.111C878.235 737.695 987.133 692.152 1039.72 714.121Z" fill="url(#paint44_linear_4035_121)"/>
</g>
<rect x="1167" y="-18" width="100" height="100" fill="#4F706C"/>
<rect x="1167" y="92" width="100" height="100" fill="#83BB9E"/>
<rect x="1167" y="202" width="100" height="100" fill="#F7B7B5"/>
<rect x="1167" y="312" width="100" height="100" fill="#C69191"/>
<rect x="1167" y="422" width="100" height="100" fill="#E5DED0"/>
<rect x="1167" y="532" width="100" height="100" fill="#F5EEE2"/>
<rect x="1167" y="642" width="100" height="100" fill="#8B7562"/>
<rect x="1167" y="752" width="100" height="100" fill="#F3D7A6"/>
<rect x="1167" y="862" width="100" height="100" fill="#C7A05D"/>
</g>
<defs>
<filter id="filter0_d_4035_121" x="698.9" y="535.9" width="367.2" height="315.537" filterUnits="userSpaceOnUse" color-interpolation-filters="sRGB">
<feFlood flood-opacity="0" result="BackgroundImageFix"/>
<feColorMatrix in="SourceAlpha" type="matrix" values="0 0 0 0 0 0 0 0 0 0 0 0 0 0 0 0 0 0 127 0" result="hardAlpha"/>
<feOffset dy="2"/>
<feGaussianBlur stdDeviation="12.05"/>
<feComposite in2="hardAlpha" operator="out"/>
<feColorMatrix type="matrix" values="0 0 0 0 1 0 0 0 0 0.918171 0 0 0 0 0.590853 0 0 0 0.4 0"/>
<feBlend mode="normal" in2="BackgroundImageFix" result="effect1_dropShadow_4035_121"/>
<feBlend mode="normal" in="SourceGraphic" in2="effect1_dropShadow_4035_121" result="shape"/>
</filter>
<linearGradient id="paint0_linear_4035_121" x1="173.871" y1="107.301" x2="173.871" y2="234" gradientUnits="userSpaceOnUse">
<stop stop-color="#E5DED0"/>
<stop offset="1" stop-color="#83BB9E"/>
</linearGradient>
<linearGradient id="paint1_linear_4035_121" x1="225.612" y1="107" x2="225.612" y2="233.699" gradientUnits="userSpaceOnUse">
<stop stop-color="#E5DED0"/>
<stop offset="1" stop-color="#83BB9E"/>
</linearGradient>
<linearGradient id="paint2_linear_4035_121" x1="505" y1="72.3843" x2="505" y2="233.999" gradientUnits="userSpaceOnUse">
<stop stop-color="#E5DED0"/>
<stop offset="1" stop-color="#83BB9E"/>
</linearGradient>
<linearGradient id="paint3_linear_4035_121" x1="571" y1="72" x2="571" y2="233.614" gradientUnits="userSpaceOnUse">
<stop stop-color="#E5DED0"/>
<stop offset="1" stop-color="#83BB9E"/>
</linearGradient>
<linearGradient id="paint4_linear_4035_121" x1="503.126" y1="312.423" x2="499.225" y2="549.811" gradientUnits="userSpaceOnUse">
<stop stop-color="#F5EEE2"/>
<stop offset="0.385" stop-color="#F7B7B5"/>
<stop offset="0.715" stop-color="#C69191"/>
</linearGradient>
<linearGradient id="paint5_linear_4035_121" x1="575.795" y1="312" x2="579.696" y2="549.388" gradientUnits="userSpaceOnUse">
<stop stop-color="#F5EEE2"/>
<stop offset="0.385" stop-color="#F7B7B5"/>
<stop offset="0.715" stop-color="#C69191"/>
</linearGradient>
<linearGradient id="paint6_linear_4035_121" x1="492" y1="357" x2="492" y2="496" gradientUnits="userSpaceOnUse">
<stop offset="0.045" stop-color="#F5EEE2"/>
<stop offset="0.675" stop-color="#83BB9E"/>
<stop offset="1" stop-color="#4F706C"/>
</linearGradient>
<linearGradient id="paint7_linear_4035_121" x1="583" y1="357" x2="583" y2="496" gradientUnits="userSpaceOnUse">
<stop offset="0.045" stop-color="#F5EEE2"/>
<stop offset="0.675" stop-color="#83BB9E"/>
<stop offset="1" stop-color="#4F706C"/>
</linearGradient>
<linearGradient id="paint8_linear_4035_121" x1="539.5" y1="365" x2="539.5" y2="494" gradientUnits="userSpaceOnUse">
<stop stop-color="white"/>
<stop offset="0.275" stop-color="#F5EEE2"/>
<stop offset="0.57" stop-color="#E5DED0"/>
<stop offset="0.95" stop-color="#CEB7B7"/>
</linearGradient>
<linearGradient id="paint9_linear_4035_121" x1="162.391" y1="575.491" x2="157.712" y2="851.288" gradientUnits="userSpaceOnUse">
<stop stop-color="#F5EEE2"/>
<stop offset="0.285" stop-color="#F7B7B5"/>
<stop offset="0.55" stop-color="#C69191"/>
</linearGradient>
<linearGradient id="paint10_linear_4035_121" x1="244.166" y1="575" x2="248.846" y2="850.797" gradientUnits="userSpaceOnUse">
<stop stop-color="#F5EEE2"/>
<stop offset="0.285" stop-color="#F7B7B5"/>
<stop offset="0.55" stop-color="#C69191"/>
</linearGradient>
<linearGradient id="paint11_linear_4035_121" x1="150" y1="626.977" x2="147.582" y2="841.789" gradientUnits="userSpaceOnUse">
<stop stop-color="#F5EEE2"/>
<stop offset="0.385" stop-color="#F7B7B5"/>
<stop offset="0.715" stop-color="#C69191"/>
</linearGradient>
<linearGradient id="paint12_linear_4035_121" x1="252.5" y1="626.977" x2="254.893" y2="841.79" gradientUnits="userSpaceOnUse">
<stop stop-color="#F5EEE2"/>
<stop offset="0.385" stop-color="#F7B7B5"/>
<stop offset="0.715" stop-color="#C69191"/>
</linearGradient>
<linearGradient id="paint13_linear_4035_121" x1="287.45" y1="663.083" x2="234.321" y2="807.994" gradientUnits="userSpaceOnUse">
<stop stop-color="#F5EEE2"/>
<stop offset="0.485" stop-color="#83BB9E"/>
<stop offset="1" stop-color="#4F706C"/>
</linearGradient>
<linearGradient id="paint14_linear_4035_121" x1="111.55" y1="662.225" x2="164.679" y2="807.136" gradientUnits="userSpaceOnUse">
<stop stop-color="#F5EEE2"/>
<stop offset="0.485" stop-color="#83BB9E"/>
<stop offset="1" stop-color="#4F706C"/>
</linearGradient>
<linearGradient id="paint15_linear_4035_121" x1="201" y1="642.977" x2="201" y2="796.977" gradientUnits="userSpaceOnUse">
<stop offset="0.0099" stop-color="white"/>
<stop offset="0.01" stop-color="#F5EEE2"/>
<stop offset="0.242758" stop-color="#F5EEE2"/>
<stop offset="0.565" stop-color="#E5DED0"/>
<stop offset="0.95" stop-color="#CEB7B7"/>
</linearGradient>
<linearGradient id="paint16_linear_4035_121" x1="848.126" y1="50.4229" x2="844.225" y2="287.811" gradientUnits="userSpaceOnUse">
<stop stop-color="#F5EEE2"/>
<stop offset="0.385" stop-color="#F7B7B5"/>
<stop offset="0.715" stop-color="#C69191"/>
</linearGradient>
<linearGradient id="paint17_linear_4035_121" x1="920.795" y1="50" x2="924.696" y2="287.388" gradientUnits="userSpaceOnUse">
<stop stop-color="#F5EEE2"/>
<stop offset="0.385" stop-color="#F7B7B5"/>
<stop offset="0.715" stop-color="#C69191"/>
</linearGradient>
<linearGradient id="paint18_linear_4035_121" x1="837" y1="95" x2="837" y2="234" gradientUnits="userSpaceOnUse">
<stop stop-color="#F5EEE2"/>
<stop offset="1" stop-color="#83BB9E"/>
</linearGradient>
<linearGradient id="paint19_linear_4035_121" x1="928" y1="95" x2="928" y2="234" gradientUnits="userSpaceOnUse">
<stop stop-color="#F5EEE2"/>
<stop offset="1" stop-color="#83BB9E"/>
</linearGradient>
<linearGradient id="paint20_linear_4035_121" x1="501.507" y1="572.443" x2="501.507" y2="758.939" gradientUnits="userSpaceOnUse">
<stop stop-color="#FFDAD8"/>
<stop offset="1" stop-color="#96D35F"/>
</linearGradient>
<linearGradient id="paint21_linear_4035_121" x1="576.014" y1="572" x2="576.014" y2="758.495" gradientUnits="userSpaceOnUse">
<stop stop-color="#FFDAD8"/>
<stop offset="1" stop-color="#96D35F"/>
</linearGradient>
<linearGradient id="paint22_linear_4035_121" x1="610.515" y1="609.475" x2="575.386" y2="757.894" gradientUnits="userSpaceOnUse">
<stop stop-color="#FFDAD8"/>
<stop offset="1" stop-color="#96D35F"/>
</linearGradient>
<linearGradient id="paint23_linear_4035_121" x1="465.693" y1="608.887" x2="500.822" y2="757.306" gradientUnits="userSpaceOnUse">
<stop stop-color="#FFDAD8"/>
<stop offset="1" stop-color="#96D35F"/>
</linearGradient>
<linearGradient id="paint24_linear_4035_121" x1="540.5" y1="642.18" x2="540.5" y2="783.18" gradientUnits="userSpaceOnUse">
<stop stop-color="#FFDAD8"/>
<stop offset="1" stop-color="#96D35F"/>
</linearGradient>
<linearGradient id="paint25_linear_4035_121" x1="501.507" y1="572.443" x2="497.328" y2="821.235" gradientUnits="userSpaceOnUse">
<stop offset="0.045" stop-color="#F5EEE2"/>
<stop offset="0.525" stop-color="#F7B7B5"/>
<stop offset="0.76" stop-color="#C69191"/>
</linearGradient>
<linearGradient id="paint26_linear_4035_121" x1="576.014" y1="572" x2="580.193" y2="820.791" gradientUnits="userSpaceOnUse">
<stop offset="0.045" stop-color="#F5EEE2"/>
<stop offset="0.525" stop-color="#F7B7B5"/>
<stop offset="0.76" stop-color="#C69191"/>
</linearGradient>
<linearGradient id="paint27_linear_4035_121" x1="610.515" y1="609.475" x2="565.727" y2="807.998" gradientUnits="userSpaceOnUse">
<stop stop-color="#F5EEE2"/>
<stop offset="0.275" stop-color="#F7B7B5"/>
<stop offset="0.63" stop-color="#C69191"/>
</linearGradient>
<linearGradient id="paint28_linear_4035_121" x1="465.693" y1="608.887" x2="510.481" y2="807.41" gradientUnits="userSpaceOnUse">
<stop stop-color="#F5EEE2"/>
<stop offset="0.275" stop-color="#F7B7B5"/>
<stop offset="0.63" stop-color="#C69191"/>
</linearGradient>
<linearGradient id="paint29_linear_4035_121" x1="540.5" y1="642.18" x2="540.5" y2="783.18" gradientUnits="userSpaceOnUse">
<stop offset="0.27002" stop-color="#F5EEE2"/>
<stop offset="0.43294" stop-color="#E5DED0"/>
<stop offset="0.95" stop-color="#CEB7B7"/>
</linearGradient>
<linearGradient id="paint30_linear_4035_121" x1="653.368" y1="676.48" x2="565.307" y2="808.932" gradientUnits="userSpaceOnUse">
<stop stop-color="#F5EEE2"/>
<stop offset="0.485" stop-color="#83BB9E"/>
<stop offset="1" stop-color="#4F706C"/>
</linearGradient>
<linearGradient id="paint31_linear_4035_121" x1="420.307" y1="676.48" x2="508.368" y2="808.932" gradientUnits="userSpaceOnUse">
<stop stop-color="#F5EEE2"/>
<stop offset="0.485" stop-color="#83BB9E"/>
<stop offset="1" stop-color="#4F706C"/>
</linearGradient>
<linearGradient id="paint32_linear_4035_121" x1="854.605" y1="614.609" x2="854.605" y2="760.342" gradientUnits="userSpaceOnUse">
<stop stop-color="#FFDAD8"/>
<stop offset="1" stop-color="#96D35F"/>
</linearGradient>
<linearGradient id="paint33_linear_4035_121" x1="912.752" y1="614.263" x2="912.752" y2="759.996" gradientUnits="userSpaceOnUse">
<stop stop-color="#FFDAD8"/>
<stop offset="1" stop-color="#96D35F"/>
</linearGradient>
<linearGradient id="paint34_linear_4035_121" x1="844.454" y1="558" x2="841.568" y2="772.767" gradientUnits="userSpaceOnUse">
<stop stop-color="#F5EEE2"/>
<stop offset="0.15" stop-color="#F7B7B5"/>
<stop offset="0.3" stop-color="#C69191"/>
</linearGradient>
<linearGradient id="paint35_linear_4035_121" x1="925.228" y1="558" x2="928.059" y2="771.726" gradientUnits="userSpaceOnUse">
<stop stop-color="#F5EEE2"/>
<stop offset="0.15" stop-color="#F7B7B5"/>
<stop offset="0.3" stop-color="#C69191"/>
</linearGradient>
<linearGradient id="paint36_linear_4035_121" x1="843.674" y1="576.754" x2="840.787" y2="791.522" gradientUnits="userSpaceOnUse">
<stop offset="0.105" stop-color="#F7B7B5"/>
<stop offset="0.315" stop-color="#C69191"/>
</linearGradient>
<linearGradient id="paint37_linear_4035_121" x1="924.447" y1="576.754" x2="927.278" y2="790.48" gradientUnits="userSpaceOnUse">
<stop offset="0.105" stop-color="#F7B7B5"/>
<stop offset="0.315" stop-color="#C69191"/>
</linearGradient>
<linearGradient id="paint38_linear_4035_121" x1="944.545" y1="580.894" x2="909.604" y2="735.392" gradientUnits="userSpaceOnUse">
<stop stop-color="#F5EEE2"/>
<stop offset="0.325" stop-color="#F7B7B5"/>
<stop offset="0.615" stop-color="#C69191"/>
</linearGradient>
<linearGradient id="paint39_linear_4035_121" x1="818.541" y1="580.998" x2="853.482" y2="735.497" gradientUnits="userSpaceOnUse">
<stop stop-color="#F5EEE2"/>
<stop offset="0.325" stop-color="#F7B7B5"/>
<stop offset="0.615" stop-color="#C69191"/>
</linearGradient>
<linearGradient id="paint40_linear_4035_121" x1="767.327" y1="615.325" x2="843.462" y2="764.728" gradientUnits="userSpaceOnUse">
<stop stop-color="#F5EEE2"/>
<stop offset="0.385" stop-color="#F7B7B5"/>
<stop offset="0.715" stop-color="#C69191"/>
</linearGradient>
<linearGradient id="paint41_linear_4035_121" x1="998.667" y1="615.325" x2="922.532" y2="764.728" gradientUnits="userSpaceOnUse">
<stop stop-color="#F5EEE2"/>
<stop offset="0.385" stop-color="#F7B7B5"/>
<stop offset="0.715" stop-color="#C69191"/>
</linearGradient>
<linearGradient id="paint42_linear_4035_121" x1="884" y1="615" x2="884" y2="764" gradientUnits="userSpaceOnUse">
<stop offset="0.005" stop-color="white"/>
<stop offset="0.27002" stop-color="#F5EEE2"/>
<stop offset="0.43294" stop-color="#E5DED0"/>
<stop offset="0.95" stop-color="#CEB7B7"/>
</linearGradient>
<linearGradient id="paint43_linear_4035_121" x1="731.523" y1="702.091" x2="869.092" y2="796.18" gradientUnits="userSpaceOnUse">
<stop stop-color="#F5EEE2"/>
<stop offset="0.485" stop-color="#83BB9E"/>
<stop offset="1" stop-color="#4F706C"/>
</linearGradient>
<linearGradient id="paint44_linear_4035_121" x1="1033.48" y1="702.933" x2="895.908" y2="797.022" gradientUnits="userSpaceOnUse">
<stop stop-color="#F5EEE2"/>
<stop offset="0.485" stop-color="#83BB9E"/>
<stop offset="1" stop-color="#4F706C"/>
</linearGradient>
<clipPath id="clip0_4035_121">
<rect width="1291" height="935" fill="white"/>
</clipPath>
</defs>
</svg>
