<svg width="1291" height="935" viewBox="0 0 1291 935" fill="none" xmlns="http://www.w3.org/2000/svg">
<rect width="1291" height="935" fill="white"/>
<path d="M201.741 160.301C198.325 164.522 189.744 174.711 182.75 181.704C174.008 190.446 159.84 205.217 155.62 216.069C151.399 226.922 144.466 248.023 157.73 270.33C168.341 288.176 187.875 288.216 196.315 286.006H201.741V160.301Z" fill="#83BB9E"/>
<path d="M201.741 160C205.158 164.22 213.739 174.409 220.733 181.403C229.475 190.145 243.643 204.916 247.863 215.768C252.083 226.62 259.017 247.722 245.753 270.029C235.142 287.875 215.608 287.915 207.167 285.704H201.741V160Z" fill="#83BB9E"/>
<path d="M200.433 160.971C201.08 160.89 200.335 161.501 200.07 162.139C199.005 164.706 197.971 167.341 196.443 169.676C194.166 173.155 191.492 176.109 188.826 179.287C182.395 186.955 175.95 194.521 168.878 201.593C156.501 213.97 147.382 232.671 149.735 250.639C150.653 257.648 154.33 263.651 157.634 269.701C159.862 273.781 162.491 277.725 166.137 280.642C168.732 282.718 171.515 284.798 174.761 285.74C177.919 286.657 181.051 286.465 184.313 286.465C187.087 286.465 189.861 286.465 192.635 286.465C195 286.465 197.219 285.74 199.546 285.74C201.573 285.74 203.305 285.775 205.148 284.853C206.426 284.214 208.527 285.263 209.5 284.289" stroke="black" stroke-linecap="round"/>
<path d="M540 125.384C535.642 130.768 524.696 143.764 515.775 152.685C504.624 163.836 486.551 182.678 481.168 196.521C475.785 210.364 466.941 237.28 483.86 265.735C497.395 288.499 522.312 288.55 533.079 285.73H540V125.384Z" fill="#83BB9E"/>
<path d="M540 125C544.358 130.383 555.304 143.38 564.225 152.301C575.376 163.452 593.449 182.294 598.832 196.137C604.215 209.979 613.059 236.896 596.14 265.351C582.605 288.114 557.688 288.166 546.921 285.346H540V125Z" fill="#83BB9E"/>
<path d="M539.962 124.568C539.32 124.649 538.053 127.556 537.709 128.244C535.689 132.283 532.677 135.95 529.853 139.479C522.319 148.897 513.651 158.368 504.715 166.515C488.59 181.217 470.061 202.549 470.061 225.715C470.061 238.379 472.143 249.319 479.132 260.102C482.284 264.966 484.943 271.086 489.833 274.509C493.838 277.313 498.259 278.851 502.61 280.913C509.775 284.307 518.461 283.781 526.088 283.581C533.378 283.389 540.644 282.513 547.966 282.513" stroke="black" stroke-linecap="round"/>
<path d="M541.46 354.423C536.662 360.35 524.61 374.66 514.787 384.483C502.51 396.761 482.611 417.506 476.683 432.748C470.756 447.989 461.019 477.626 479.647 508.956C494.55 534.02 521.985 534.076 533.839 530.971H541.46V354.423Z" fill="#F7B7B5"/>
<path d="M541.46 354C546.258 359.927 558.311 374.237 568.133 384.06C580.411 396.338 600.31 417.083 606.237 432.325C612.164 447.566 621.902 477.203 603.273 508.533C588.37 533.597 560.936 533.653 549.081 530.548H541.46V354Z" fill="#F7B7B5"/>
<path d="M482.028 401.978C481.31 400.631 479.425 400.576 478.602 401.861C469.805 415.6 454.778 439.324 452.972 446.6C450.549 456.364 448.529 497.454 458.626 509.659C468.723 521.864 478.416 532.035 493.36 534.883C508.303 537.731 517.996 540.172 534.555 534.883C547.509 530.745 505.905 446.777 482.028 401.978Z" fill="#83BB9E"/>
<path d="M596.977 401.946C597.696 400.608 599.568 400.554 600.386 401.834C609.182 415.594 624.222 440.18 626.028 447.395C628.451 457.074 630.471 497.807 620.374 509.906C610.277 522.005 600.584 532.087 585.64 534.91C570.697 537.733 561.004 540.153 544.445 534.91C531.49 530.808 573.1 446.404 596.977 401.946Z" fill="#83BB9E"/>
<path d="M540.343 407C535.986 410.997 525.383 420.299 517.83 425.531C508.389 432.072 494.954 463.685 494.228 468.772C493.501 473.859 491.686 536.72 540.343 535.994C579.269 535.412 589 490.937 589 468.772C584.643 457.023 573.459 431.927 563.582 425.531C553.705 419.136 543.974 410.513 540.343 407Z" fill="#F5EEE2"/>
<path d="M494.664 472.088C494.664 456.712 505.932 442.165 514.137 430.072C518.326 423.899 523.567 419.636 528.73 414.473C530.597 412.605 533.012 410.746 535.221 409.341C535.755 409.001 540.012 406.299 539.498 407.328" stroke="black" stroke-linecap="round"/>
<path d="M487.871 413.668C484.928 416.611 493.413 407.456 496.249 404.41C499.85 400.542 504.077 397.238 507.344 393.063C512.637 386.3 518.859 380.416 524.905 374.37C529.256 370.019 533.815 365.913 538.139 361.589C539.613 360.115 540.899 358.892 541.863 357.06C542.617 355.627 545.111 354.253 542.215 355.701" stroke="black" stroke-linecap="round"/>
<path d="M479.267 401.441C476.24 404.846 474.4 409.993 471.996 413.92C468.279 419.99 463.557 425.807 460.926 432.487C458.973 437.444 455.692 442.018 453.906 446.928C452.44 450.962 451.275 455.118 450.384 459.307C449.501 463.459 450.152 467.355 449.604 471.408C448.912 476.531 449.039 482.39 450.082 487.46C451.73 495.466 454.733 504.323 460.699 510.128C463.611 512.961 466.983 515.34 469.983 518.078C472.962 520.799 475.816 522.013 479.242 523.94C483.995 526.614 488.775 528.376 493.859 530.255C500.484 532.704 507.097 533.856 514.112 534.558C516.127 534.759 524.882 533.429 525.912 535.489" stroke="black" stroke-linecap="round"/>
<path d="M577.085 441.293C577.771 441.207 580.22 435.472 580.507 434.902C582.288 431.375 583.99 427.659 586.118 424.335C588.522 420.579 591.233 416.619 593.389 412.762C594.884 410.087 596.715 407.223 598.571 404.837C599.115 404.139 599.343 403.235 599.98 402.598C601.972 400.606 603.946 405.837 604.257 406.875" stroke="black" stroke-linecap="round"/>
<path d="M205.279 605.491C199.879 612.378 186.317 629.003 175.264 640.415C161.447 654.68 139.055 678.783 132.385 696.491C125.715 714.198 114.757 748.631 135.72 785.03C152.49 814.15 183.363 814.216 196.703 810.609H205.279V605.491Z" fill="#F7B7B5"/>
<path d="M205.279 605C210.678 611.886 224.241 628.512 235.294 639.924C249.11 654.189 271.503 678.291 278.173 695.999C284.843 713.707 295.801 748.139 274.838 784.539C258.067 813.659 227.195 813.725 213.855 810.117H205.279V605Z" fill="#F7B7B5"/>
<path d="M138.46 660.085C137.749 658.702 135.819 658.659 135.002 659.982C125.21 675.846 108.23 703.628 106.201 712.11C103.496 723.419 101.242 771.013 112.513 785.15C123.784 799.287 134.604 811.068 151.285 814.366C167.966 817.665 178.786 820.492 197.271 814.366C211.763 809.563 165.085 711.888 138.46 660.085Z" fill="#F7B7B5"/>
<path d="M268.205 660.013C268.92 658.648 270.824 658.605 271.638 659.912C281.526 675.78 298.723 704.613 300.776 713.032C303.509 724.243 305.787 771.422 294.398 785.436C283.01 799.45 272.077 811.128 255.222 814.398C238.367 817.667 227.435 820.47 208.758 814.398C194.11 809.635 241.307 711.406 268.205 660.013Z" fill="#F7B7B5"/>
<path d="M300.64 700.432C301.781 699.394 303.588 700.008 303.901 701.518C307.546 719.085 313.438 750.542 312.505 758.771C311.26 769.762 297.736 812.976 282.885 821.84C268.035 830.704 254.364 837.616 238.15 835.01C221.936 832.405 211.194 831.328 196.427 819.714C184.857 810.613 259.504 737.865 300.64 700.432Z" fill="#83BB9E"/>
<path d="M102.36 699.573C101.219 698.536 99.4121 699.15 99.0988 700.659C95.4537 718.226 89.5625 749.683 90.4949 757.913C91.7402 768.903 105.264 812.118 120.115 820.982C134.965 829.846 148.636 836.758 164.85 834.152C181.064 831.546 191.806 830.47 206.573 818.855C218.143 809.755 143.496 737.006 102.36 699.573Z" fill="#83BB9E"/>
<path d="M201.611 672.977C196.383 677.748 183.659 688.853 174.596 695.099C163.267 702.908 147.145 740.647 146.273 746.719C145.402 752.792 143.223 827.837 201.611 826.969C248.322 826.275 260 773.18 260 746.719C254.771 732.694 241.351 702.734 229.499 695.099C217.647 687.465 205.969 677.17 201.611 672.977Z" fill="#F5EEE2"/>
<path d="M147.514 673.356C147.452 673.85 145.93 674.562 146.344 674.286C147.054 673.813 147.48 672.888 148.099 672.292C152.634 667.925 157.377 662.589 161.283 657.566C168.047 648.87 174.578 639.909 181.964 631.702C188.203 624.77 194.97 618.145 200.864 610.941C202.164 609.352 203.574 607.398 205.17 606.157C205.725 605.725 206.235 605.331 206.738 604.828C207.488 604.078 208.047 606.007 207.323 606.369" stroke="black" stroke-linecap="round"/>
<path d="M110.672 705.892C109.473 704.35 113.876 698.678 114.287 697.97C116.587 694.011 118.722 689.861 121.198 686.009C124.571 680.762 128.517 675.458 131.033 669.74C132.673 666.014 135.035 662.617 137.2 659.214C137.375 658.94 138.187 656.533 138.795 657.566C140.038 659.679 140.122 662.43 140.815 664.743" stroke="black" stroke-linecap="round"/>
<path d="M200.146 672.877C199.873 675.334 193.463 679.365 191.906 680.533C188.534 683.061 185.171 685.861 181.459 687.949C176.853 690.54 171.006 695.588 167.716 699.672C162.726 705.867 156.233 713.195 153.495 720.778C151.43 726.496 148.239 731.777 146.796 737.71C145.337 743.707 144.929 749.538 144.165 755.653" stroke="black" stroke-linecap="round"/>
<path d="M156.605 802.065C160.818 806.278 163.46 812.201 168.806 815.223C172.143 817.109 175.491 818.552 178.881 820.247C183.462 822.538 188.309 824.202 193.341 825.138C195.564 825.552 199.161 826.588 201.342 825.75C203.598 824.882 206.223 824.075 208.652 824.075C211.46 824.075 214.261 823.038 216.893 822.161" stroke="black" stroke-linecap="round"/>
<path d="M101.581 700.15C99.9802 701.573 99.4876 701.1 98.7363 703.792C97.6919 707.534 97.4364 711.44 96.53 715.195C94.4583 723.778 92.0889 732.53 91.0541 741.325C90.1146 749.311 89.2851 756.272 90.4693 764.266C91.6958 772.544 94.9454 780.495 99.2945 787.711C103.766 795.13 106.821 804.162 112.612 810.678C116.354 814.887 119.846 819.374 123.83 823.357C129.755 829.282 138.676 830.855 146.557 831.73" stroke="black" stroke-linecap="round"/>
<path d="M258.999 739.863C258.301 739.863 259.554 739.404 259.716 739.332C260.321 739.063 261.112 737.997 261.55 737.604C264.737 734.743 267.908 731.864 270.96 728.859C274.087 725.78 277.741 723.053 280.53 719.661C282.915 716.76 286.389 711.335 289.621 709.72" stroke="black" stroke-linecap="round"/>
<path d="M254.692 690.581C254.769 689.89 255.354 689.469 255.675 688.879C257.152 686.172 258.705 683.645 259.689 680.692C260.394 678.58 261.451 676.57 262.348 674.552C264.031 670.764 266.307 667.957 267.611 663.786" stroke="black" stroke-linecap="round"/>
<path d="M147.036 675.27C145.782 673.859 146.193 675.235 146.823 675.775C149.007 677.647 150.859 682.071 152.565 684.334C154.769 687.259 157.313 690.089 159.476 692.973" stroke="black" stroke-linecap="round"/>
<path d="M209.553 827.244C210.916 828.266 213.036 828.861 214.594 829.362C221.921 831.714 229.417 833.223 236.934 834.76" stroke="black" stroke-linecap="round"/>
<path d="M103.785 698.927C101.721 699.222 106.457 702.136 107.931 703.61C118.098 713.777 128.22 723.963 138.146 734.362" stroke="black" stroke-linecap="round"/>
<path d="M886.46 103.423C881.662 109.35 869.61 123.66 859.787 133.483C847.51 145.761 827.611 166.506 821.683 181.748C815.756 196.989 806.019 226.626 824.647 257.956C839.55 283.02 866.985 283.076 878.839 279.971H886.46V103.423Z" fill="#F7B7B5"/>
<path d="M886.46 103C891.258 108.927 903.311 123.237 913.133 133.06C925.411 145.338 945.31 166.083 951.237 181.325C957.164 196.566 966.902 226.203 948.273 257.533C933.37 282.597 905.936 282.653 894.081 279.548H886.46V103Z" fill="#F7B7B5"/>
<path d="M827.028 150.978C826.31 149.631 824.425 149.576 823.602 150.861C814.805 164.6 799.778 188.324 797.972 195.6C795.549 205.364 793.529 246.454 803.626 258.659C813.723 270.864 823.416 281.035 838.36 283.883C853.303 286.731 862.996 289.172 879.555 283.883C892.509 279.745 850.905 195.777 827.028 150.978Z" fill="#83BB9E"/>
<path d="M941.977 150.946C942.696 149.608 944.568 149.554 945.386 150.834C954.182 164.594 969.222 189.18 971.028 196.395C973.451 206.074 975.471 246.807 965.374 258.906C955.277 271.005 945.584 281.087 930.64 283.91C915.697 286.733 906.004 289.153 889.445 283.91C876.49 279.808 918.1 195.404 941.977 150.946Z" fill="#83BB9E"/>
<path d="M889.068 283.18C888.335 283.272 888.376 284.733 887.971 282.913C887.463 280.624 887.467 278.545 887.467 276.125C887.467 269.723 888.871 262.874 891.202 256.915C894.046 249.649 895.71 241.93 898.791 234.741C901.93 227.418 906.151 220.579 909.137 213.279C911.96 206.379 916.373 200.041 919.987 193.536C924.159 186.026 928.899 178.715 933.357 171.391C936.587 166.084 939.385 160.194 942.161 154.642C942.847 153.271 945.375 148.04 945.096 148.18" stroke="black" stroke-linecap="round"/>
<path d="M945.612 148.729C944.764 149.683 945.221 150.758 945.612 151.794C947.638 157.163 948.897 160.749 952.967 164.818" stroke="black" stroke-linecap="round"/>
<path d="M807.247 261.351C798.179 252.284 798.036 240.314 797.16 228.484C796.222 215.821 796.385 203.616 800.557 191.48C802.87 184.748 804.64 177.539 808.269 171.356C809.548 169.178 811.257 167.41 812.559 165.278C813.886 163.107 815.781 160.091 817.463 158.281C819.672 155.901 820.834 151.115 823.796 149.547C824.949 148.936 826.584 150.1 827.014 151.283C827.401 152.348 827.915 153.374 828.495 154.348C832.012 160.251 834.786 166.364 837.586 172.633" stroke="black" stroke-linecap="round"/>
<path d="M833.633 161.141C833.57 161.646 838.644 155.145 839.344 154.323C843.949 148.911 849.56 144.283 853.987 138.749C859.145 132.302 865.358 126.787 870.541 120.408C873.755 116.453 878 112.839 881.536 109.162C883.568 107.049 890.146 101.41 887.524 102.721" stroke="black" stroke-linecap="round"/>
<path d="M541.761 605.443C536.841 611.655 524.484 626.653 514.413 636.947C501.824 649.815 481.422 671.558 475.345 687.532C469.268 703.506 459.284 734.566 478.384 767.401C493.664 793.67 521.793 793.729 533.947 790.475H541.761V605.443Z" fill="url(#paint0_linear_4263_9719)"/>
<path d="M541.76 605C546.68 611.212 559.037 626.21 569.108 636.504C581.697 649.372 602.099 671.114 608.176 687.088C614.253 703.062 624.237 734.123 605.137 766.958C589.857 793.226 561.728 793.286 549.574 790.032H541.76V605Z" fill="url(#paint1_linear_4263_9719)"/>
<path d="M626.653 647.473C627.716 646.742 629.149 647.224 629.589 648.436C635.657 665.156 646.33 696.49 646.483 704.847C646.682 715.808 638.593 759.823 624.511 770.132C610.429 780.442 597.298 788.703 580.269 787.855C563.24 787.008 552.045 787.087 535.29 777.209C522.068 769.415 576.25 682.117 626.653 647.473Z" fill="url(#paint2_linear_4263_9719)"/>
<path d="M455.555 646.885C454.492 646.154 453.059 646.636 452.619 647.848C446.551 664.568 435.878 695.902 435.725 704.259C435.526 715.22 443.615 759.235 457.697 769.545C471.779 779.854 484.91 788.115 501.939 787.267C518.968 786.42 530.163 786.499 546.918 776.622C560.14 768.827 505.958 681.529 455.555 646.885Z" fill="url(#paint3_linear_4263_9719)"/>
<path d="M542.221 675.18C537.405 679.548 525.686 689.716 517.338 695.435C506.904 702.584 492.054 737.137 491.252 742.698C490.449 748.258 488.442 816.967 542.221 816.173C585.244 815.537 596 766.925 596 742.698C591.184 729.856 578.823 702.425 567.907 695.435C556.99 688.445 546.234 679.019 542.221 675.18Z" fill="url(#paint4_linear_4263_9719)"/>
<path d="M541.761 605.443C536.841 611.655 524.484 626.653 514.413 636.947C501.824 649.815 481.422 671.558 475.345 687.532C469.268 703.506 459.284 734.566 478.384 767.401C493.664 793.67 521.793 793.729 533.947 790.475H541.761V605.443Z" fill="#F7B7B5"/>
<path d="M541.76 605C546.68 611.212 559.037 626.21 569.108 636.504C581.697 649.372 602.099 671.114 608.176 687.088C614.253 703.062 624.237 734.123 605.137 766.958C589.857 793.226 561.728 793.286 549.574 790.032H541.76V605Z" fill="#F7B7B5"/>
<path d="M626.653 647.473C627.716 646.742 629.149 647.224 629.589 648.436C635.657 665.156 646.33 696.49 646.483 704.847C646.682 715.808 638.593 759.823 624.511 770.132C610.429 780.442 597.298 788.703 580.269 787.855C563.24 787.008 552.045 787.087 535.29 777.209C522.068 769.415 576.25 682.117 626.653 647.473Z" fill="#F7B7B5"/>
<path d="M455.555 646.885C454.492 646.154 453.059 646.636 452.619 647.848C446.551 664.568 435.878 695.902 435.725 704.259C435.526 715.22 443.615 759.235 457.697 769.545C471.779 779.854 484.91 788.115 501.939 787.267C518.968 786.42 530.163 786.499 546.918 776.622C560.14 768.827 505.958 681.529 455.555 646.885Z" fill="#F7B7B5"/>
<path d="M542.221 675.18C537.405 679.548 525.686 689.716 517.338 695.435C506.904 702.584 492.054 737.137 491.252 742.698C490.449 748.258 488.442 816.967 542.221 816.173C585.244 815.537 596 766.925 596 742.698C591.184 729.856 578.823 702.425 567.907 695.435C556.99 688.445 546.234 679.019 542.221 675.18Z" fill="#F5EEE2"/>
<path d="M663.005 718.596C664.421 717.66 666.261 718.807 666.057 720.492C663.922 738.099 659.709 768.403 656.533 776.089C652.222 786.523 627.934 826.345 612.683 832.831C597.432 839.316 583.761 844.081 570.746 839.307C557.73 834.532 548.914 831.996 539.794 818.729C532.685 808.386 616.792 749.131 663.005 718.596Z" fill="#83BB9E"/>
<path d="M416.669 718.596C415.254 717.66 413.414 718.807 413.618 720.492C415.753 738.099 419.965 768.403 423.141 776.089C427.453 786.523 451.741 826.345 466.992 832.831C482.243 839.316 495.913 844.081 508.929 839.307C521.945 834.532 530.761 831.996 539.881 818.729C546.99 808.386 462.883 749.131 416.669 718.596Z" fill="#83BB9E"/>
<path d="M454.226 647.608C454.107 648.554 452.656 649.022 452.11 649.724C449.321 653.31 448.126 658.495 446.527 662.712C443.813 669.867 441.731 677.172 439.151 684.339C437.195 689.774 436.075 695.241 435.067 700.913C433.384 710.376 436.666 719.757 438.358 729.063" stroke="black" stroke-linecap="round"/>
<path d="M485.432 672.997C485.432 671.144 486.678 669.665 487.665 668.178C490.981 663.187 494.571 658.967 498.42 654.455C504.488 647.342 511.006 640.551 517.168 633.533C522.591 627.356 529.182 622.241 534.505 616.108C536.91 613.337 539.858 610.691 541.498 607.41" stroke="black" stroke-linecap="round"/>
<path d="M485.961 672.997C485.771 674.515 485.84 674.854 486.931 676.817C490.055 682.44 493.198 688.464 497.069 693.625" stroke="black" stroke-linecap="round"/>
<path d="M492.837 742.286C492.837 736.349 495.339 730.85 497.362 725.331C498.906 721.122 500.733 715.787 503.298 712.138C505.432 709.101 506.717 706.01 509.263 703.146C511.853 700.232 514.297 696.981 517.403 694.565C522.83 690.344 530.543 685.497 534.622 679.991C535.91 678.252 538.234 677.156 539.618 675.377C540.239 674.578 543.04 673.526 542.027 673.526" stroke="black" stroke-linecap="round"/>
<path d="M492.837 771.377C492.939 772.297 493.749 772.81 494.482 773.258C498.828 775.914 502.706 779.351 506.707 782.485C510.414 785.389 513.786 788.096 517.138 791.447C523.552 797.861 530.271 804.051 536.738 810.518" stroke="black" stroke-linecap="round"/>
<path d="M413.498 718.485C415.875 721.456 414.547 728.32 414.585 731.443C414.675 738.841 415.162 745.874 416.672 753.1C418.292 760.854 419.694 769.019 423.254 776.138C431.526 792.681 443.539 807.379 455.812 821.097" stroke="black" stroke-linecap="round"/>
<path d="M553.135 799.94C553.826 799.786 554.22 799.049 554.751 798.617C558.342 795.699 561.785 792.561 565.183 789.42C568.468 786.382 571.76 783.691 575.232 780.898C581.102 776.177 586.911 771.306 592.599 766.353C598.388 761.311 605.687 757.709 611.875 753.159C619.233 747.748 626.834 742.531 634.59 737.644C642.962 732.368 651.679 727.593 660.213 722.716C661.356 722.063 665.08 720.702 665.796 719.807C666.597 718.806 665.714 722.162 665.679 722.305C664.305 727.925 662.885 733.313 662.094 739.113" stroke="black" stroke-linecap="round"/>
<path d="M591.218 685.691C596.279 680.068 599.879 672.97 604.47 666.944C606.567 664.191 609.39 661.701 611.846 659.245C616.464 654.627 620.515 651.505 626.127 648.137" stroke="black" stroke-linecap="round"/>
<path d="M542.556 606.881C546.243 609.134 548.68 614.597 551.019 617.988" stroke="black" stroke-linecap="round"/>
<path d="M540.276 814.359C540.276 815.17 539.922 816.869 540.396 817.58C545.365 825.034 552.157 830.928 560.141 834.76" stroke="black" stroke-linecap="round"/>
<path d="M543.498 673.693C543.056 673.638 542.348 672.712 542.424 673.813C542.591 676.228 546.017 678.783 547.375 680.076C552.312 684.779 557.341 689.414 562.289 694.095" stroke="black" stroke-linecap="round"/>
<path d="M438.268 732.751C439.037 732.837 439.382 733.429 439.998 733.825C446.482 737.993 452.847 742.307 459.206 746.71" stroke="black" stroke-linecap="round"/>
<path d="M887.679 643.609C883.839 648.463 874.196 660.183 866.336 668.227C856.512 678.283 840.589 695.273 835.847 707.755C831.104 720.238 823.312 744.509 838.218 770.168C850.143 790.695 872.095 790.741 881.581 788.198H887.679V643.609Z" fill="url(#paint5_linear_4263_9719)"/>
<path d="M887.679 643.263C891.518 648.117 901.162 659.837 909.021 667.881C918.846 677.936 934.768 694.926 939.511 707.409C944.254 719.891 952.045 744.163 937.139 769.822C925.215 790.348 903.262 790.395 893.777 787.852H887.679V643.263Z" fill="url(#paint6_linear_4263_9719)"/>
<path d="M888.646 587C883.338 592.362 870.007 605.307 859.141 614.193C845.56 625.3 823.549 644.067 816.993 657.855C810.436 671.643 799.665 698.453 820.271 726.795C836.756 749.468 867.103 749.52 880.216 746.711H888.646V587Z" fill="#F7B7B5"/>
<path d="M888.646 587C894.005 592.336 907.466 605.219 918.436 614.061C932.15 625.114 954.374 643.79 960.995 657.511C967.615 671.232 978.491 697.912 957.684 726.116C941.039 748.68 910.398 748.731 897.157 745.936H888.646V587Z" fill="#F7B7B5"/>
<path d="M856.045 595.366C855.152 594.939 854.09 595.264 853.572 596.108C848.749 603.967 837.521 623.551 836.798 627.08C835.832 631.796 836.953 642.831 843.005 648.136C849.057 653.441 854.809 657.804 863.183 658.475C871.558 659.146 878.813 660.347 887.586 656.787C901.487 651.146 886.054 609.717 856.045 595.366Z" fill="#F7B7B5"/>
<path d="M918.527 595.167C919.419 594.74 920.482 595.064 920.999 595.908C925.822 603.768 937.051 623.352 937.773 626.88C938.74 631.597 937.619 642.631 931.566 647.936C925.514 653.241 919.763 657.604 911.388 658.275C903.014 658.947 895.758 660.147 886.985 656.588C873.084 650.947 888.517 609.518 918.527 595.167Z" fill="#F7B7B5"/>
<path d="M887.865 605.754C882.558 611.116 869.226 624.062 858.361 632.947C844.78 644.054 822.769 662.821 816.212 676.609C809.656 690.397 798.884 717.207 819.49 745.549C835.975 768.223 866.323 768.274 879.436 765.465H887.865V605.754Z" fill="#F7B7B5"/>
<path d="M887.865 605.754C893.225 611.09 906.686 623.973 917.656 632.815C931.369 643.868 953.594 662.544 960.214 676.265C966.834 689.986 977.71 716.666 956.904 744.871C940.259 767.434 909.617 767.485 896.377 764.69H887.865V605.754Z" fill="#F7B7B5"/>
<path d="M955.536 612.821C956.603 612.371 957.802 612.942 958.135 614.052C962.415 628.318 972.59 666.093 972.541 672.567C972.477 681.08 967.59 700.379 957.516 708.652C947.442 716.925 938.073 723.588 926.139 723.248C914.204 722.907 903.678 723.706 892.457 715.815C874.621 703.271 908.96 632.463 955.536 612.821Z" fill="#F7B7B5"/>
<path d="M815.55 612.925C814.483 612.475 813.284 613.046 812.951 614.156C808.671 628.422 798.496 666.198 798.545 672.671C798.609 681.184 803.496 700.483 813.57 708.756C823.644 717.029 833.013 723.693 844.947 723.352C856.882 723.011 867.408 723.81 878.629 715.919C896.465 703.375 862.126 632.567 815.55 612.925Z" fill="#F7B7B5"/>
<path d="M764.769 649.14C763.625 648.97 762.606 649.815 762.555 650.972C761.86 666.635 761.206 708.288 762.943 714.938C765.22 723.66 775.258 742.191 787.763 748.046C800.268 753.901 811.63 758.289 823.809 754.815C835.989 751.341 847.017 749.406 856.501 738.369C871.589 720.81 817.793 657.024 764.769 649.14Z" fill="#F7B7B5"/>
<path d="M1009.22 649.14C1010.37 648.97 1011.39 649.815 1011.44 650.972C1012.13 666.635 1012.79 708.288 1011.05 714.938C1008.77 723.66 998.736 742.191 986.231 748.046C973.726 753.901 962.364 758.289 950.184 754.815C938.005 751.341 926.977 749.406 917.492 738.369C902.404 720.81 956.2 657.024 1009.22 649.14Z" fill="#F7B7B5"/>
<path d="M886.465 644C880.686 648.617 866.623 659.361 856.606 665.405C844.084 672.959 826.265 709.473 825.302 715.349C824.339 721.224 821.931 793.832 886.465 792.993C938.093 792.321 951 740.95 951 715.349C945.221 701.778 930.387 672.791 917.288 665.405C904.188 658.018 891.281 648.057 886.465 644Z" fill="#F5EEE2"/>
<path d="M729.284 742.279C728.179 742.741 727.773 744.013 728.377 744.998C737.552 759.961 755.497 788.108 762.04 794.176C770.566 802.082 810.628 829.237 827.998 829.304C845.368 829.371 860.497 828.471 870.987 819.074C881.478 809.677 892.974 804.22 892.056 788.27C890.765 765.854 781.867 720.31 729.284 742.279Z" fill="#83BB9E"/>
<path d="M1043.72 743.121C1044.82 743.583 1045.23 744.854 1044.62 745.84C1035.45 760.802 1017.5 788.95 1010.96 795.018C1002.43 802.923 962.372 830.078 945.002 830.145C927.632 830.212 912.503 829.312 902.013 819.915C891.522 810.519 880.026 805.061 880.944 789.111C882.235 766.695 991.133 721.152 1043.72 743.121Z" fill="#83BB9E"/>
<path d="M824.078 717.295C824.617 712.446 827.306 706.442 829.367 701.956C831.3 697.75 833.071 693.379 835.186 689.261C839.133 681.574 844.82 673.728 850.642 667.458C859.714 657.689 872.903 652.128 883.847 644.832" stroke="black" stroke-linecap="round"/>
<path d="M826.723 747.443C831.929 750.604 838.578 751.9 844.236 754.026C849.415 755.972 854.553 758.178 859.634 760.373C868.216 764.08 876.548 769.109 883.847 774.948" stroke="black" stroke-linecap="round"/>
<path d="M727.284 744.27C739.583 757.935 747.195 775.779 759.96 789.111C767.061 796.528 774.129 803.42 782.175 809.857C790.622 816.615 800.143 820.43 809.797 825.078C821.011 830.478 834.43 828.919 846.293 827.841" stroke="black" stroke-linecap="round"/>
<path d="M885.963 789.758C885.963 775.533 900.07 768.86 911.351 763.429C921.645 758.473 932.824 754.121 943.498 750.088C952.545 746.671 962.452 743.947 971.914 741.89C978.024 740.561 984.699 739.473 990.955 739.01C995.598 738.666 1000.6 738.452 1005.24 738.452C1009.26 738.452 1013.4 737.318 1017.4 738.187C1023.75 739.568 1031.01 737.522 1036.97 740.832C1038.68 741.782 1040.61 742.032 1042.26 742.948C1044.05 743.939 1045.29 745.721 1047.29 746.386" stroke="black" stroke-linecap="round"/>
<path d="M764.309 652.765C763.184 651.499 763.261 652.455 763.516 653.882C764.879 661.518 764.838 669.687 764.838 677.449C764.838 684.15 765.744 691.601 764.721 698.253C764.179 701.774 764.191 705.342 763.751 708.861C763.424 711.473 762.587 714.774 763.369 717.412C765.505 724.62 768.768 730.275 774.359 735.572C778.737 739.72 785.099 740.342 790.756 741.096" stroke="black" stroke-linecap="round"/>
<path d="M801.863 661.228C801.994 662.664 802.775 663.614 803.803 664.608C807.85 668.522 812.304 671.98 816.673 675.509" stroke="black" stroke-linecap="round"/>
<path d="M802.392 660.17C799.45 659.803 810.978 620.132 812.97 614.154" stroke="black" stroke-linecap="round"/>
<path d="M838.888 625.79C838.299 625.706 843.686 614.214 843.884 613.801C845.597 610.223 847.43 606.65 849.202 603.105C850.842 599.825 854.383 597.975 855.814 595.112" stroke="black" stroke-linecap="round"/>
<path d="M853.169 639.013C858.836 633.346 865.4 628.369 871.123 622.646C874.434 619.335 877.688 615.134 881.613 612.567C882.69 611.863 884.775 611.309 885.434 610.157C887.174 607.111 891.174 612.293 892.839 613.625" stroke="black" stroke-linecap="round"/>
<path d="M872.21 604.633C871.994 606.367 873.424 603.654 874.561 602.517C878.546 598.532 882.822 594.032 887.549 590.881" stroke="black" stroke-linecap="round"/>
<path d="M915.583 645.889C915.919 643.199 919.074 640.382 920.607 638.484C923.523 634.875 926.135 631.705 929.864 628.993C934.589 625.557 938.855 622.088 944.145 619.443" stroke="black" stroke-linecap="round"/>
<path d="M955.781 682.914C956.868 682.794 957.884 681.061 958.514 680.328C962.03 676.241 965.691 672.073 969.004 667.84C972.407 663.493 977.703 660.013 982.228 656.997" stroke="black" stroke-linecap="round"/>
<path d="M886.492 802.981C885.785 803.082 886.932 804.295 887.138 804.568C893.211 812.592 903.664 818.517 911.351 824.667" stroke="black" stroke-linecap="round"/>
<path d="M845.764 633.724C851.784 639.141 858.936 646.161 860.574 654.352" stroke="black" stroke-linecap="round"/>
<path d="M902.946 605.777C906.648 602.075 911.794 600.131 916.368 597.723" stroke="black" stroke-linecap="round"/>
<rect x="1134" y="261" width="100" height="100" fill="#83BB9E"/>
<rect x="1134" y="391" width="100" height="100" fill="#F7B7B5"/>
<rect x="1134" y="531" width="100" height="100" fill="#F5EEE2"/>
<defs>
<linearGradient id="paint0_linear_4263_9719" x1="504.507" y1="605.443" x2="504.507" y2="791.939" gradientUnits="userSpaceOnUse">
<stop stop-color="#FFDAD8"/>
<stop offset="1" stop-color="#96D35F"/>
</linearGradient>
<linearGradient id="paint1_linear_4263_9719" x1="579.014" y1="605" x2="579.014" y2="791.495" gradientUnits="userSpaceOnUse">
<stop stop-color="#FFDAD8"/>
<stop offset="1" stop-color="#96D35F"/>
</linearGradient>
<linearGradient id="paint2_linear_4263_9719" x1="613.515" y1="642.475" x2="578.386" y2="790.894" gradientUnits="userSpaceOnUse">
<stop stop-color="#FFDAD8"/>
<stop offset="1" stop-color="#96D35F"/>
</linearGradient>
<linearGradient id="paint3_linear_4263_9719" x1="468.693" y1="641.887" x2="503.822" y2="790.306" gradientUnits="userSpaceOnUse">
<stop stop-color="#FFDAD8"/>
<stop offset="1" stop-color="#96D35F"/>
</linearGradient>
<linearGradient id="paint4_linear_4263_9719" x1="543.5" y1="675.18" x2="543.5" y2="816.18" gradientUnits="userSpaceOnUse">
<stop stop-color="#FFDAD8"/>
<stop offset="1" stop-color="#96D35F"/>
</linearGradient>
<linearGradient id="paint5_linear_4263_9719" x1="858.605" y1="643.609" x2="858.605" y2="789.342" gradientUnits="userSpaceOnUse">
<stop stop-color="#FFDAD8"/>
<stop offset="1" stop-color="#96D35F"/>
</linearGradient>
<linearGradient id="paint6_linear_4263_9719" x1="916.752" y1="643.263" x2="916.752" y2="788.996" gradientUnits="userSpaceOnUse">
<stop stop-color="#FFDAD8"/>
<stop offset="1" stop-color="#96D35F"/>
</linearGradient>
</defs>
</svg>
