<svg width="335" height="253" viewBox="0 0 335 253" fill="none" xmlns="http://www.w3.org/2000/svg">
<g clip-path="url(#clip0_4544_8347)">
<rect width="335" height="253" fill="white"/>
<path d="M16.3037 25V14.4312H18.4717L21.6504 22.561H21.7749L24.9463 14.4312H27.1143V25H25.415V17.4854H25.2832L22.3535 25H21.0645L18.1348 17.4854H18.0103V25H16.3037ZM32.4883 25.1611C30.0859 25.1611 28.6357 23.5938 28.6357 21.001V20.9863C28.6357 18.4155 30.1079 16.8408 32.4883 16.8408C34.876 16.8408 36.3408 18.4082 36.3408 20.9863V21.001C36.3408 23.5938 34.8833 25.1611 32.4883 25.1611ZM32.4883 23.6816C33.7554 23.6816 34.4731 22.6929 34.4731 21.0083V20.9937C34.4731 19.3091 33.748 18.313 32.4883 18.313C31.2212 18.313 30.4961 19.3091 30.4961 20.9937V21.0083C30.4961 22.6929 31.2212 23.6816 32.4883 23.6816ZM37.6719 25V16.9946H39.4956V18.2178H39.6201C40.001 17.3608 40.77 16.8408 41.9272 16.8408C43.7144 16.8408 44.6885 17.9175 44.6885 19.8218V25H42.8647V20.2466C42.8647 19.0015 42.3594 18.3716 41.2534 18.3716C40.1694 18.3716 39.4956 19.1333 39.4956 20.3345V25H37.6719ZM49.2275 25.1318C47.2207 25.1318 45.9463 23.5425 45.9463 21.0083V20.9937C45.9463 18.4448 47.1987 16.8628 49.2275 16.8628C50.3262 16.8628 51.2417 17.4048 51.6592 18.269H51.7837V13.8965H53.6147V25H51.7837V23.7476H51.6592C51.2197 24.6191 50.3555 25.1318 49.2275 25.1318ZM49.7988 23.5938C51.0439 23.5938 51.813 22.6123 51.813 21.0083V20.9937C51.813 19.3896 51.0366 18.4009 49.7988 18.4009C48.561 18.4009 47.7993 19.3823 47.7993 20.9937V21.0083C47.7993 22.6196 48.5537 23.5938 49.7988 23.5938ZM57.5898 25.1318C56.0664 25.1318 54.9604 24.1943 54.9604 22.7368V22.7222C54.9604 21.2939 56.0518 20.459 58 20.3418L60.0581 20.2173V19.5288C60.0581 18.7305 59.5381 18.291 58.5566 18.291C57.7217 18.291 57.1797 18.5913 56.9966 19.1187L56.9893 19.1479H55.2681L55.2754 19.082C55.4512 17.7344 56.7402 16.8408 58.6445 16.8408C60.7026 16.8408 61.8599 17.8369 61.8599 19.5288V25H60.0581V23.9014H59.9336C59.4941 24.6777 58.6445 25.1318 57.5898 25.1318ZM56.7622 22.6489C56.7622 23.3301 57.3408 23.7329 58.1465 23.7329C59.2451 23.7329 60.0581 23.0151 60.0581 22.063V21.4185L58.2563 21.5356C57.2383 21.6016 56.7622 21.9751 56.7622 22.6343V22.6489ZM64.1577 27.8125C63.938 27.8125 63.6816 27.8052 63.4619 27.7832V26.3843C63.6084 26.3989 63.8135 26.4062 64.0039 26.4062C64.751 26.4062 65.1978 26.0986 65.3955 25.3735L65.4907 25.0073L62.627 16.9946H64.6191L66.4868 23.2495H66.626L68.4863 16.9946H70.4053L67.5342 25.1685C66.8457 27.1753 65.9302 27.8125 64.1577 27.8125ZM70.1763 27.7905L70.8135 23.3887H72.6958L71.4214 27.7905H70.1763ZM78.5439 25V14.4312H82.5063C85.6484 14.4312 87.4795 16.3501 87.4795 19.6606V19.6753C87.4795 23.0591 85.6704 25 82.5063 25H78.5439ZM80.4336 23.4106H82.2573C84.3594 23.4106 85.5532 22.0776 85.5532 19.7046V19.6899C85.5532 17.3682 84.3301 16.0205 82.2573 16.0205H80.4336V23.4106ZM92.3848 25.1611C90.0044 25.1611 88.5615 23.5645 88.5615 21.0156V21.0083C88.5615 18.4888 90.019 16.8408 92.2969 16.8408C94.5747 16.8408 95.981 18.4375 95.981 20.8545V21.4551H90.3853C90.4072 22.8906 91.1836 23.7256 92.4214 23.7256C93.4102 23.7256 93.9741 23.2275 94.1499 22.8613L94.1719 22.8101H95.9077L95.8857 22.876C95.6294 23.9087 94.5601 25.1611 92.3848 25.1611ZM92.3188 18.269C91.3008 18.269 90.5391 18.9575 90.3999 20.2319H94.2012C94.0767 18.9209 93.3369 18.269 92.3188 18.269ZM100.74 25.1611C98.3301 25.1611 96.9092 23.6011 96.9092 20.9863V20.9717C96.9092 18.3862 98.3228 16.8408 100.732 16.8408C102.791 16.8408 104.021 17.9834 104.226 19.6387V19.668H102.505L102.498 19.646C102.329 18.8696 101.736 18.313 100.74 18.313C99.4946 18.313 98.7622 19.2944 98.7622 20.9717V20.9863C98.7622 22.6855 99.502 23.6816 100.74 23.6816C101.685 23.6816 102.263 23.2495 102.49 22.4072L102.505 22.3779L104.226 22.3706L104.211 22.4292C103.948 24.0698 102.769 25.1611 100.74 25.1611ZM108.954 25V23.7256L112.425 20.1807C113.861 18.7305 114.264 18.1958 114.264 17.3828V17.3608C114.264 16.3867 113.597 15.6836 112.499 15.6836C111.378 15.6836 110.624 16.4233 110.624 17.5146L110.616 17.5439L108.858 17.5366L108.851 17.5146C108.851 15.5444 110.389 14.1675 112.594 14.1675C114.652 14.1675 116.131 15.4199 116.131 17.1997V17.2217C116.131 18.4229 115.553 19.375 113.626 21.228L111.51 23.2788V23.4326H116.292V25H108.954ZM121.71 25.2124C119.396 25.2124 117.88 23.9526 117.741 22.1436L117.733 22.0557H119.535L119.542 22.1362C119.645 23.0298 120.473 23.667 121.71 23.667C122.934 23.667 123.747 22.9858 123.747 22.0044V21.9897C123.747 20.8765 122.926 20.2612 121.571 20.2612H120.326V18.855H121.535C122.699 18.855 123.476 18.1958 123.476 17.2729V17.2583C123.476 16.2915 122.824 15.7202 121.696 15.7202C120.583 15.7202 119.813 16.3135 119.718 17.2583L119.711 17.3315H117.953L117.96 17.251C118.122 15.4199 119.564 14.2188 121.696 14.2188C123.871 14.2188 125.285 15.354 125.285 17.0093V17.0239C125.285 18.335 124.34 19.2065 123.073 19.4702V19.5068C124.625 19.6533 125.658 20.5762 125.658 22.041V22.0557C125.658 23.916 124.054 25.2124 121.71 25.2124Z" fill="#333333"/>
<path d="M16.0254 50V41.5449H17.7949V45.3418H17.9004L21.0234 41.5449H22.9922L19.9102 45.248L23.209 50H21.0879L18.6328 46.4082L17.7949 47.416V50H16.0254ZM26.707 50.1348C24.7441 50.1348 23.5547 48.8516 23.5547 46.7832V46.7773C23.5547 44.7266 24.7559 43.4082 26.6367 43.4082C28.5176 43.4082 29.6895 44.6973 29.6895 46.6484V47.1816H25.248C25.2656 48.2422 25.834 48.8574 26.7422 48.8574C27.4922 48.8574 27.9082 48.459 28.0254 48.2129L28.043 48.1777H29.6367L29.625 48.2363C29.4258 49.0449 28.5938 50.1348 26.707 50.1348ZM26.666 44.6914C25.9219 44.6914 25.3711 45.1953 25.2656 46.1094H28.0488C27.9434 45.1719 27.4102 44.6914 26.666 44.6914ZM33.9258 50.1348C31.9629 50.1348 30.7734 48.8516 30.7734 46.7832V46.7773C30.7734 44.7266 31.9746 43.4082 33.8555 43.4082C35.7363 43.4082 36.9082 44.6973 36.9082 46.6484V47.1816H32.4668C32.4844 48.2422 33.0527 48.8574 33.9609 48.8574C34.7109 48.8574 35.127 48.459 35.2441 48.2129L35.2617 48.1777H36.8555L36.8438 48.2363C36.6445 49.0449 35.8125 50.1348 33.9258 50.1348ZM33.8848 44.6914C33.1406 44.6914 32.5898 45.1953 32.4844 46.1094H35.2676C35.1621 45.1719 34.6289 44.6914 33.8848 44.6914ZM38.3086 52.1387V43.5488H40.0195V44.5449H40.125C40.459 43.8535 41.1445 43.4434 42.0586 43.4434C43.6699 43.4434 44.6777 44.709 44.6777 46.7656V46.7773C44.6777 48.8516 43.6934 50.0996 42.0586 50.0996C41.1738 50.0996 40.4531 49.6719 40.125 48.9688H40.0195V52.1387H38.3086ZM41.4727 48.6816C42.375 48.6816 42.9375 47.9609 42.9375 46.7773V46.7656C42.9375 45.582 42.3809 44.8613 41.4727 44.8613C40.5703 44.8613 40.002 45.582 40.002 46.7656V46.7773C40.002 47.9609 40.5762 48.6816 41.4727 48.6816ZM50.0449 42.5586C49.5176 42.5586 49.0781 42.1367 49.0781 41.6094C49.0781 41.0762 49.5176 40.6543 50.0449 40.6543C50.5723 40.6543 51.0059 41.0762 51.0059 41.6094C51.0059 42.1367 50.5723 42.5586 50.0449 42.5586ZM49.1836 50V43.5488H50.8945V50H49.1836ZM55.2949 50.0234C53.7246 50.0234 53.0918 49.5137 53.0918 48.2598V44.8379H52.0957V43.5488H53.0918V42.0078H54.8203V43.5488H56.1504V44.8379H54.8203V47.8672C54.8203 48.4473 55.0664 48.7051 55.6465 48.7051C55.8691 48.7051 55.9863 48.6934 56.1504 48.6758V49.9473C55.9395 49.9883 55.623 50.0234 55.2949 50.0234ZM62.8008 50.1348C61.3535 50.1348 60.6094 49.2559 60.6094 47.7207V43.5488H62.3203V47.3281C62.3203 48.2422 62.666 48.7168 63.4746 48.7168C64.3184 48.7168 64.7754 48.1484 64.7754 47.2754V43.5488H66.4863V50H64.7754V49.0039H64.6699C64.377 49.707 63.7207 50.1348 62.8008 50.1348ZM68.2031 52.1387V43.5488H69.9141V44.5449H70.0195C70.3535 43.8535 71.0391 43.4434 71.9531 43.4434C73.5645 43.4434 74.5723 44.709 74.5723 46.7656V46.7773C74.5723 48.8516 73.5879 50.0996 71.9531 50.0996C71.0684 50.0996 70.3477 49.6719 70.0195 48.9688H69.9141V52.1387H68.2031ZM71.3672 48.6816C72.2695 48.6816 72.832 47.9609 72.832 46.7773V46.7656C72.832 45.582 72.2754 44.8613 71.3672 44.8613C70.4648 44.8613 69.8965 45.582 69.8965 46.7656V46.7773C69.8965 47.9609 70.4707 48.6816 71.3672 48.6816ZM76.4707 47.2109L76.3184 41.5391H78.1934L78.0352 47.2109H76.4707ZM77.2559 50.1699C76.5996 50.1699 76.1895 49.7949 76.1895 49.1914C76.1895 48.582 76.5996 48.207 77.2559 48.207C77.918 48.207 78.3223 48.582 78.3223 49.1914C78.3223 49.7949 77.918 50.1699 77.2559 50.1699ZM85.8516 50V46.8418L82.9102 41.5449H84.8262L86.6895 45.1016H86.7949L88.6523 41.5449H90.5684L87.6211 46.8418V50H85.8516ZM93.5566 50.1348C91.5703 50.1348 90.375 48.875 90.375 46.7773V46.7656C90.375 44.6855 91.5879 43.4082 93.5566 43.4082C95.5254 43.4082 96.7383 44.6797 96.7383 46.7656V46.7773C96.7383 48.8809 95.543 50.1348 93.5566 50.1348ZM93.5566 48.793C94.4648 48.793 94.9863 48.0488 94.9863 46.7773V46.7656C94.9863 45.5059 94.459 44.75 93.5566 44.75C92.6484 44.75 92.127 45.5059 92.127 46.7656V46.7773C92.127 48.0488 92.6426 48.793 93.5566 48.793ZM100.266 50.1348C98.8184 50.1348 98.0742 49.2559 98.0742 47.7207V43.5488H99.7852V47.3281C99.7852 48.2422 100.131 48.7168 100.939 48.7168C101.783 48.7168 102.24 48.1484 102.24 47.2754V43.5488H103.951V50H102.24V49.0039H102.135C101.842 49.707 101.186 50.1348 100.266 50.1348ZM106.254 45.1719L106.084 41.5449H107.713L107.543 45.1719H106.254ZM111.527 50L109.283 43.5488H111.117L112.453 48.4004H112.559L113.883 43.5488H115.682L113.449 50H111.527ZM119.402 50.1348C117.439 50.1348 116.25 48.8516 116.25 46.7832V46.7773C116.25 44.7266 117.451 43.4082 119.332 43.4082C121.213 43.4082 122.385 44.6973 122.385 46.6484V47.1816H117.943C117.961 48.2422 118.529 48.8574 119.438 48.8574C120.188 48.8574 120.604 48.459 120.721 48.2129L120.738 48.1777H122.332L122.32 48.2363C122.121 49.0449 121.289 50.1348 119.402 50.1348ZM119.361 44.6914C118.617 44.6914 118.066 45.1953 117.961 46.1094H120.744C120.639 45.1719 120.105 44.6914 119.361 44.6914ZM126.879 50V43.5488H128.59V44.5566H128.695C128.971 43.8301 129.639 43.4082 130.482 43.4082C131.361 43.4082 132.012 43.8535 132.275 44.5977H132.381C132.674 43.8828 133.424 43.4082 134.326 43.4082C135.609 43.4082 136.412 44.2402 136.412 45.5703V50H134.701V45.998C134.701 45.2188 134.35 44.8262 133.635 44.8262C132.943 44.8262 132.498 45.3359 132.498 46.0332V50H130.787V45.9219C130.787 45.2305 130.395 44.8262 129.727 44.8262C129.059 44.8262 128.59 45.3711 128.59 46.1094V50H126.879ZM140.906 50.1348C138.943 50.1348 137.754 48.8516 137.754 46.7832V46.7773C137.754 44.7266 138.955 43.4082 140.836 43.4082C142.717 43.4082 143.889 44.6973 143.889 46.6484V47.1816H139.447C139.465 48.2422 140.033 48.8574 140.941 48.8574C141.691 48.8574 142.107 48.459 142.225 48.2129L142.242 48.1777H143.836L143.824 48.2363C143.625 49.0449 142.793 50.1348 140.906 50.1348ZM140.865 44.6914C140.121 44.6914 139.57 45.1953 139.465 46.1094H142.248C142.143 45.1719 141.609 44.6914 140.865 44.6914ZM147.592 50.0996C145.98 50.0996 144.973 48.8398 144.973 46.7773V46.7656C144.973 44.6914 145.957 43.4434 147.592 43.4434C148.477 43.4434 149.197 43.877 149.52 44.5801H149.625V41.082H151.336V50H149.625V48.998H149.52C149.186 49.6953 148.5 50.0996 147.592 50.0996ZM148.172 48.6816C149.08 48.6816 149.643 47.9668 149.643 46.7832V46.7715C149.643 45.5879 149.074 44.8613 148.172 44.8613C147.27 44.8613 146.713 45.5879 146.713 46.7656V46.7773C146.713 47.9668 147.27 48.6816 148.172 48.6816ZM153.979 42.5586C153.451 42.5586 153.012 42.1367 153.012 41.6094C153.012 41.0762 153.451 40.6543 153.979 40.6543C154.506 40.6543 154.939 41.0762 154.939 41.6094C154.939 42.1367 154.506 42.5586 153.979 42.5586ZM153.117 50V43.5488H154.828V50H153.117ZM159.229 50.0234C157.658 50.0234 157.025 49.5137 157.025 48.2598V44.8379H156.029V43.5488H157.025V42.0078H158.754V43.5488H160.084V44.8379H158.754V47.8672C158.754 48.4473 159 48.7051 159.58 48.7051C159.803 48.7051 159.92 48.6934 160.084 48.6758V49.9473C159.873 49.9883 159.557 50.0234 159.229 50.0234ZM163.266 50.0996C162.035 50.0996 161.162 49.3379 161.162 48.166V48.1543C161.162 46.9941 162.059 46.3145 163.664 46.2207L165.223 46.127V45.5938C165.223 45.0371 164.842 44.7207 164.139 44.7207C163.523 44.7207 163.131 44.9375 162.996 45.3184L162.984 45.3418H161.402L161.408 45.2891C161.543 44.1582 162.609 43.4082 164.232 43.4082C165.943 43.4082 166.91 44.2168 166.91 45.5938V50H165.223V49.1445H165.117C164.789 49.7422 164.109 50.0996 163.266 50.0996ZM162.832 48.0605C162.832 48.5527 163.248 48.8516 163.84 48.8516C164.631 48.8516 165.223 48.3301 165.223 47.6504V47.1758L163.922 47.2578C163.189 47.3047 162.832 47.5801 162.832 48.0488V48.0605ZM171.264 50.0234C169.693 50.0234 169.061 49.5137 169.061 48.2598V44.8379H168.064V43.5488H169.061V42.0078H170.789V43.5488H172.119V44.8379H170.789V47.8672C170.789 48.4473 171.035 48.7051 171.615 48.7051C171.838 48.7051 171.955 48.6934 172.119 48.6758V49.9473C171.908 49.9883 171.592 50.0234 171.264 50.0234ZM176.332 50.1348C174.369 50.1348 173.18 48.8516 173.18 46.7832V46.7773C173.18 44.7266 174.381 43.4082 176.262 43.4082C178.143 43.4082 179.314 44.6973 179.314 46.6484V47.1816H174.873C174.891 48.2422 175.459 48.8574 176.367 48.8574C177.117 48.8574 177.533 48.459 177.65 48.2129L177.668 48.1777H179.262L179.25 48.2363C179.051 49.0449 178.219 50.1348 176.332 50.1348ZM176.291 44.6914C175.547 44.6914 174.996 45.1953 174.891 46.1094H177.674C177.568 45.1719 177.035 44.6914 176.291 44.6914ZM183.018 50.0996C181.406 50.0996 180.398 48.8398 180.398 46.7773V46.7656C180.398 44.6914 181.383 43.4434 183.018 43.4434C183.902 43.4434 184.623 43.877 184.945 44.5801H185.051V41.082H186.762V50H185.051V48.998H184.945C184.611 49.6953 183.926 50.0996 183.018 50.0996ZM183.598 48.6816C184.506 48.6816 185.068 47.9668 185.068 46.7832V46.7715C185.068 45.5879 184.5 44.8613 183.598 44.8613C182.695 44.8613 182.139 45.5879 182.139 46.7656V46.7773C182.139 47.9668 182.695 48.6816 183.598 48.6816ZM192.123 50V44.8379H191.08V43.5488H192.123V42.9453C192.123 41.6621 192.779 41.0176 194.338 41.0176C194.684 41.0176 194.971 41.041 195.217 41.082V42.2246C195.111 42.207 194.93 42.1895 194.707 42.1895C194.045 42.1895 193.799 42.5 193.799 43.0625V43.5488H195.164V44.8379H193.834V50H192.123ZM199.166 50.1348C197.18 50.1348 195.984 48.875 195.984 46.7773V46.7656C195.984 44.6855 197.197 43.4082 199.166 43.4082C201.135 43.4082 202.348 44.6797 202.348 46.7656V46.7773C202.348 48.8809 201.152 50.1348 199.166 50.1348ZM199.166 48.793C200.074 48.793 200.596 48.0488 200.596 46.7773V46.7656C200.596 45.5059 200.068 44.75 199.166 44.75C198.258 44.75 197.736 45.5059 197.736 46.7656V46.7773C197.736 48.0488 198.252 48.793 199.166 48.793ZM203.742 50V43.5488H205.453V44.5508H205.559C205.764 43.8535 206.35 43.4434 207.188 43.4434C207.416 43.4434 207.656 43.4785 207.826 43.5254V45.0195C207.568 44.9609 207.305 44.9199 207.041 44.9199C206.068 44.9199 205.453 45.4766 205.453 46.3906V50H203.742ZM212.438 50L216.041 43.0508V42.9512H211.775V41.5391H217.822V42.9688L214.289 50H212.438ZM224.713 50.0996C223.102 50.0996 222.094 48.8398 222.094 46.7773V46.7656C222.094 44.6914 223.078 43.4434 224.713 43.4434C225.598 43.4434 226.318 43.877 226.641 44.5801H226.746V41.082H228.457V50H226.746V48.998H226.641C226.307 49.6953 225.621 50.0996 224.713 50.0996ZM225.293 48.6816C226.201 48.6816 226.764 47.9668 226.764 46.7832V46.7715C226.764 45.5879 226.195 44.8613 225.293 44.8613C224.391 44.8613 223.834 45.5879 223.834 46.7656V46.7773C223.834 47.9668 224.391 48.6816 225.293 48.6816ZM231.984 50.0996C230.754 50.0996 229.881 49.3379 229.881 48.166V48.1543C229.881 46.9941 230.777 46.3145 232.383 46.2207L233.941 46.127V45.5938C233.941 45.0371 233.561 44.7207 232.857 44.7207C232.242 44.7207 231.85 44.9375 231.715 45.3184L231.703 45.3418H230.121L230.127 45.2891C230.262 44.1582 231.328 43.4082 232.951 43.4082C234.662 43.4082 235.629 44.2168 235.629 45.5938V50H233.941V49.1445H233.836C233.508 49.7422 232.828 50.0996 231.984 50.0996ZM231.551 48.0605C231.551 48.5527 231.967 48.8516 232.559 48.8516C233.35 48.8516 233.941 48.3301 233.941 47.6504V47.1758L232.641 47.2578C231.908 47.3047 231.551 47.5801 231.551 48.0488V48.0605ZM237.896 52.2734C237.697 52.2734 237.48 52.2676 237.281 52.2559V50.9668C237.398 50.9785 237.568 50.9844 237.727 50.9844C238.336 50.9844 238.688 50.75 238.811 50.2461L238.869 50L236.602 43.5488H238.482L239.836 48.4355H239.953L241.307 43.5488H243.111L240.914 49.9941C240.34 51.6992 239.49 52.2734 237.896 52.2734ZM246.691 50.1348C244.939 50.1348 243.943 49.3496 243.82 48.2422L243.814 48.2188H245.496L245.508 48.2422C245.643 48.6406 246.035 48.9277 246.709 48.9277C247.365 48.9277 247.811 48.6465 247.811 48.2188V48.207C247.811 47.8613 247.553 47.6445 246.896 47.498L245.818 47.2695C244.588 47.0059 243.979 46.4023 243.979 45.4355V45.4297C243.979 44.2168 245.057 43.4082 246.668 43.4082C248.361 43.4082 249.299 44.252 249.369 45.2891V45.3125H247.781L247.775 45.2832C247.682 44.9375 247.301 44.6152 246.662 44.6152C246.07 44.6152 245.648 44.8906 245.648 45.3242V45.3301C245.648 45.6758 245.889 45.875 246.557 46.0215L247.629 46.25C248.918 46.5254 249.521 47.0645 249.521 48.0195V48.0254C249.521 49.3027 248.344 50.1348 246.691 50.1348ZM252.152 50.1465C251.555 50.1465 251.121 49.707 251.121 49.127C251.121 48.5469 251.555 48.1133 252.152 48.1133C252.756 48.1133 253.184 48.5469 253.184 49.127C253.184 49.707 252.756 50.1465 252.152 50.1465Z" fill="#858585"/>
<path d="M35.0117 116V108.717H34.918L32.7676 110.275V109.162L35.0176 107.545H36.0664V116H35.0117Z" fill="#ADADAD"/>
<path d="M35.8203 174.141C34.0742 174.141 32.9434 173.168 32.832 171.832L32.8262 171.762H33.8398L33.8457 171.82C33.9277 172.652 34.6953 173.227 35.8203 173.227C36.9277 173.227 37.6836 172.605 37.6836 171.709V171.697C37.6836 170.66 36.9395 170.08 35.7559 170.08H34.6953V169.189H35.709C36.7168 169.189 37.4199 168.568 37.4199 167.725V167.713C37.4199 166.828 36.8398 166.318 35.8086 166.318C34.8125 166.318 34.1035 166.846 34.0156 167.701L34.0098 167.76H32.9961L33.002 167.701C33.1367 166.324 34.2266 165.404 35.8086 165.404C37.4199 165.404 38.4805 166.301 38.4805 167.584V167.596C38.4805 168.639 37.7422 169.354 36.6875 169.576V169.6C37.918 169.705 38.7559 170.473 38.7559 171.674V171.686C38.7559 173.098 37.5137 174.141 35.8203 174.141Z" fill="#ADADAD"/>
<path d="M35.7207 233.199C34.1445 233.199 33.0195 232.186 32.8965 230.832L32.8906 230.768H33.9043L33.9102 230.814C34.0098 231.623 34.7422 232.268 35.7324 232.268C36.8574 232.268 37.6309 231.465 37.6309 230.322V230.311C37.6309 229.186 36.8457 228.383 35.75 228.383C35.1875 228.383 34.707 228.553 34.3438 228.898C34.1973 229.039 34.0625 229.203 33.957 229.402H33.043L33.4883 224.545H38.1934V225.488H34.3203L34.0332 228.348H34.127C34.502 227.779 35.1641 227.469 35.9316 227.469C37.5195 227.469 38.6621 228.658 38.6621 230.293V230.305C38.6621 232.01 37.4375 233.199 35.7207 233.199Z" fill="#ADADAD"/>
<path d="M95.9316 233.199C94.3848 233.199 92.75 232.109 92.75 228.928V228.916C92.75 226.033 93.9512 224.346 96.002 224.346C97.4199 224.346 98.4746 225.178 98.7617 226.426L98.7793 226.502H97.7188L97.6953 226.438C97.4375 225.729 96.8457 225.289 95.9902 225.289C94.4551 225.289 93.8281 226.789 93.7637 228.553C93.7578 228.617 93.7578 228.688 93.7578 228.752H93.8691C94.1797 228.061 94.9766 227.445 96.1191 227.445C97.707 227.445 98.8906 228.652 98.8906 230.275V230.287C98.8906 231.975 97.6367 233.199 95.9316 233.199ZM94.0098 230.275C94.0098 231.389 94.8477 232.268 95.9199 232.268C96.9805 232.268 97.8301 231.406 97.8301 230.311V230.299C97.8301 229.174 97.0332 228.365 95.9375 228.365C94.8418 228.365 94.0098 229.168 94.0098 230.27V230.275Z" fill="#ADADAD"/>
<path d="M93.8047 174V172.248H89.6855V171.287C90.8281 169.371 92.123 167.309 93.3066 165.545H94.8359V171.305H96.0371V172.248H94.8359V174H93.8047ZM90.7637 171.311H93.8105V166.523H93.7402C92.791 167.941 91.6836 169.688 90.7637 171.24V171.311Z" fill="#ADADAD"/>
<path d="M89.9434 115V114.273L92.8027 111.18C93.8809 110.014 94.1973 109.574 94.1973 108.836V108.824C94.1973 107.934 93.5938 107.266 92.5977 107.266C91.584 107.266 90.9102 107.928 90.9102 108.924L90.9043 108.936L89.8965 108.93L89.8848 108.924C89.8906 107.424 91.0508 106.346 92.668 106.346C94.1445 106.346 95.2754 107.348 95.2754 108.713V108.725C95.2754 109.691 94.8594 110.395 93.3301 111.971L91.4082 113.957V114.051H95.416V115H89.9434Z" fill="#ADADAD"/>
<path d="M154.226 207V202.833L150.52 196.431H152.585L155.105 200.965H155.229L157.749 196.431H159.814L156.108 202.833V207H154.226ZM163.05 207.161C160.647 207.161 159.197 205.594 159.197 203.001V202.986C159.197 200.416 160.669 198.841 163.05 198.841C165.438 198.841 166.902 200.408 166.902 202.986V203.001C166.902 205.594 165.445 207.161 163.05 207.161ZM163.05 205.682C164.317 205.682 165.035 204.693 165.035 203.008V202.994C165.035 201.309 164.31 200.313 163.05 200.313C161.783 200.313 161.058 201.309 161.058 202.994V203.008C161.058 204.693 161.783 205.682 163.05 205.682ZM170.885 207.161C169.083 207.161 168.16 206.077 168.16 204.173V198.995H169.984V203.755C169.984 204.993 170.445 205.623 171.544 205.623C172.723 205.623 173.353 204.861 173.353 203.66V198.995H175.177V207H173.353V205.784H173.229C172.855 206.641 172.042 207.161 170.885 207.161ZM176.903 207V198.995H178.727V200.225H178.852C179.123 199.368 179.855 198.863 180.91 198.863C181.188 198.863 181.474 198.899 181.649 198.951V200.584C181.356 200.525 181.056 200.481 180.741 200.481C179.525 200.481 178.727 201.207 178.727 202.349V207H176.903ZM186.216 207V195.896H188.04V207H186.216ZM193.304 207.161C190.901 207.161 189.451 205.594 189.451 203.001V202.986C189.451 200.416 190.923 198.841 193.304 198.841C195.691 198.841 197.156 200.408 197.156 202.986V203.001C197.156 205.594 195.699 207.161 193.304 207.161ZM193.304 205.682C194.571 205.682 195.289 204.693 195.289 203.008V202.994C195.289 201.309 194.563 200.313 193.304 200.313C192.037 200.313 191.312 201.309 191.312 202.994V203.008C191.312 204.693 192.037 205.682 193.304 205.682ZM201.637 207.037C199.798 207.037 199.044 206.421 199.044 204.876V200.408H197.799V198.995H199.044V197.032H200.897V198.995H202.589V200.408H200.897V204.444C200.897 205.242 201.212 205.579 201.974 205.579C202.23 205.579 202.369 205.572 202.589 205.55V206.956C202.325 207.007 201.988 207.037 201.637 207.037ZM206.557 207.161C204.755 207.161 203.832 206.077 203.832 204.173V198.995H205.656V203.755C205.656 204.993 206.117 205.623 207.216 205.623C208.395 205.623 209.025 204.861 209.025 203.66V198.995H210.849V207H209.025V205.784H208.9C208.527 206.641 207.714 207.161 206.557 207.161ZM215.6 207.161C213.564 207.161 212.333 206.224 212.18 204.869V204.854H213.989L213.996 204.869C214.187 205.425 214.721 205.813 215.629 205.813C216.538 205.813 217.167 205.403 217.167 204.803V204.788C217.167 204.319 216.816 204.012 215.937 203.814L214.641 203.521C213.117 203.184 212.392 202.466 212.392 201.287V201.28C212.392 199.837 213.71 198.841 215.6 198.841C217.548 198.841 218.713 199.808 218.83 201.104V201.119H217.116L217.109 201.097C216.977 200.591 216.45 200.181 215.593 200.181C214.78 200.181 214.194 200.577 214.194 201.177V201.185C214.194 201.653 214.531 201.939 215.395 202.137L216.691 202.422C218.259 202.774 218.999 203.44 218.999 204.605V204.62C218.999 206.143 217.57 207.161 215.6 207.161ZM223.909 207V195.896H225.733V200.218H225.857C226.238 199.361 227.007 198.841 228.165 198.841C229.952 198.841 230.926 199.917 230.926 201.822V207H229.102V202.247C229.102 201.001 228.597 200.372 227.491 200.372C226.407 200.372 225.733 201.133 225.733 202.334V207H223.909ZM234.762 207.132C233.238 207.132 232.132 206.194 232.132 204.737V204.722C232.132 203.294 233.224 202.459 235.172 202.342L237.23 202.217V201.529C237.23 200.73 236.71 200.291 235.729 200.291C234.894 200.291 234.352 200.591 234.168 201.119L234.161 201.148H232.44L232.447 201.082C232.623 199.734 233.912 198.841 235.816 198.841C237.875 198.841 239.032 199.837 239.032 201.529V207H237.23V205.901H237.105C236.666 206.678 235.816 207.132 234.762 207.132ZM233.934 204.649C233.934 205.33 234.513 205.733 235.318 205.733C236.417 205.733 237.23 205.015 237.23 204.063V203.418L235.428 203.536C234.41 203.602 233.934 203.975 233.934 204.634V204.649ZM243.747 207.161C241.71 207.161 240.48 206.224 240.326 204.869V204.854H242.135L242.143 204.869C242.333 205.425 242.868 205.813 243.776 205.813C244.684 205.813 245.314 205.403 245.314 204.803V204.788C245.314 204.319 244.962 204.012 244.083 203.814L242.787 203.521C241.264 203.184 240.539 202.466 240.539 201.287V201.28C240.539 199.837 241.857 198.841 243.747 198.841C245.695 198.841 246.859 199.808 246.977 201.104V201.119H245.263L245.255 201.097C245.124 200.591 244.596 200.181 243.739 200.181C242.926 200.181 242.34 200.577 242.34 201.177V201.185C242.34 201.653 242.677 201.939 243.542 202.137L244.838 202.422C246.405 202.774 247.145 203.44 247.145 204.605V204.62C247.145 206.143 245.717 207.161 243.747 207.161ZM256.436 207.132C255.315 207.132 254.443 206.619 254.004 205.748H253.879V207H252.056V195.896H253.879V200.269H254.004C254.421 199.405 255.337 198.863 256.436 198.863C258.464 198.863 259.724 200.445 259.724 202.994V203.008C259.724 205.542 258.442 207.132 256.436 207.132ZM255.864 205.594C257.109 205.594 257.864 204.62 257.864 203.008V202.994C257.864 201.382 257.109 200.401 255.864 200.401C254.626 200.401 253.857 201.39 253.857 202.994V203.008C253.857 204.612 254.626 205.594 255.864 205.594ZM261.121 207V195.896H262.945V207H261.121ZM268.209 207.161C265.807 207.161 264.356 205.594 264.356 203.001V202.986C264.356 200.416 265.829 198.841 268.209 198.841C270.597 198.841 272.062 200.408 272.062 202.986V203.001C272.062 205.594 270.604 207.161 268.209 207.161ZM268.209 205.682C269.476 205.682 270.194 204.693 270.194 203.008V202.994C270.194 201.309 269.469 200.313 268.209 200.313C266.942 200.313 266.217 201.309 266.217 202.994V203.008C266.217 204.693 266.942 205.682 268.209 205.682ZM276.85 207.161C274.447 207.161 272.997 205.594 272.997 203.001V202.986C272.997 200.416 274.469 198.841 276.85 198.841C279.237 198.841 280.702 200.408 280.702 202.986V203.001C280.702 205.594 279.245 207.161 276.85 207.161ZM276.85 205.682C278.117 205.682 278.834 204.693 278.834 203.008V202.994C278.834 201.309 278.109 200.313 276.85 200.313C275.583 200.313 274.857 201.309 274.857 202.994V203.008C274.857 204.693 275.583 205.682 276.85 205.682ZM282.033 207V198.995H283.857V200.24H283.981C284.326 199.346 285.131 198.841 286.179 198.841C287.263 198.841 288.054 199.397 288.398 200.284H288.522C288.911 199.412 289.833 198.841 290.947 198.841C292.558 198.841 293.525 199.83 293.525 201.492V207H291.701V201.939C291.701 200.899 291.225 200.372 290.251 200.372C289.299 200.372 288.684 201.082 288.684 201.998V207H286.86V201.807C286.86 200.921 286.311 200.372 285.417 200.372C284.516 200.372 283.857 201.133 283.857 202.129V207H282.033ZM298.613 207.161C296.233 207.161 294.79 205.564 294.79 203.016V203.008C294.79 200.489 296.248 198.841 298.525 198.841C300.803 198.841 302.209 200.438 302.209 202.854V203.455H296.614C296.636 204.891 297.412 205.726 298.65 205.726C299.639 205.726 300.203 205.228 300.378 204.861L300.4 204.81H302.136L302.114 204.876C301.858 205.909 300.789 207.161 298.613 207.161ZM298.547 200.269C297.529 200.269 296.768 200.958 296.628 202.232H300.43C300.305 200.921 299.565 200.269 298.547 200.269ZM306.419 207.132C304.412 207.132 303.138 205.542 303.138 203.008V202.994C303.138 200.445 304.39 198.863 306.419 198.863C307.518 198.863 308.433 199.405 308.851 200.269H308.975V195.896H310.806V207H308.975V205.748H308.851C308.411 206.619 307.547 207.132 306.419 207.132ZM306.99 205.594C308.235 205.594 309.004 204.612 309.004 203.008V202.994C309.004 201.39 308.228 200.401 306.99 200.401C305.752 200.401 304.991 201.382 304.991 202.994V203.008C304.991 204.62 305.745 205.594 306.99 205.594ZM313.185 203.506L313.016 196.424H315.045L314.876 203.506H313.185ZM314.034 207.183C313.294 207.183 312.818 206.729 312.818 206.033C312.818 205.33 313.294 204.876 314.034 204.876C314.774 204.876 315.25 205.33 315.25 206.033C315.25 206.729 314.774 207.183 314.034 207.183Z" fill="#333333"/>
<path d="M151.078 232V223.545H154.307C155.936 223.545 157.002 224.541 157.002 226.059V226.07C157.002 227.242 156.363 228.156 155.303 228.49L157.26 232H156.023L154.213 228.654H152.133V232H151.078ZM152.133 227.717H154.213C155.297 227.717 155.912 227.137 155.912 226.105V226.094C155.912 225.086 155.256 224.482 154.166 224.482H152.133V227.717ZM161.191 232.111C159.387 232.111 158.297 230.846 158.297 228.865V228.859C158.297 226.908 159.41 225.572 161.127 225.572C162.844 225.572 163.887 226.85 163.887 228.736V229.135H159.34C159.369 230.441 160.09 231.203 161.215 231.203C162.07 231.203 162.598 230.799 162.768 230.418L162.791 230.365H163.811L163.799 230.412C163.582 231.268 162.68 232.111 161.191 232.111ZM161.121 226.48C160.184 226.48 159.469 227.119 159.357 228.32H162.85C162.744 227.072 162.053 226.48 161.121 226.48ZM165.891 232V226.527H164.842V225.684H165.891V224.98C165.891 223.721 166.523 223.117 167.725 223.117C167.971 223.117 168.193 223.135 168.404 223.176V223.99C168.281 223.967 168.111 223.961 167.93 223.961C167.203 223.961 166.91 224.318 166.91 225.01V225.684H168.346V226.527H166.91V232H165.891ZM169.875 232V223.176H170.895V232H169.875ZM175.43 232.111C173.625 232.111 172.535 230.846 172.535 228.865V228.859C172.535 226.908 173.648 225.572 175.365 225.572C177.082 225.572 178.125 226.85 178.125 228.736V229.135H173.578C173.607 230.441 174.328 231.203 175.453 231.203C176.309 231.203 176.836 230.799 177.006 230.418L177.029 230.365H178.049L178.037 230.412C177.82 231.268 176.918 232.111 175.43 232.111ZM175.359 226.48C174.422 226.48 173.707 227.119 173.596 228.32H177.088C176.982 227.072 176.291 226.48 175.359 226.48ZM182.291 232.111C180.521 232.111 179.391 230.828 179.391 228.824V228.812C179.391 226.85 180.516 225.572 182.285 225.572C183.82 225.572 184.74 226.457 184.928 227.582L184.934 227.617H183.92L183.914 227.6C183.756 226.979 183.193 226.475 182.285 226.475C181.148 226.475 180.434 227.389 180.434 228.812V228.824C180.434 230.277 181.16 231.209 182.285 231.209C183.135 231.209 183.674 230.834 183.908 230.131L183.92 230.096L184.928 230.09L184.916 230.154C184.658 231.297 183.809 232.111 182.291 232.111ZM188.783 232.047C187.482 232.047 186.938 231.566 186.938 230.359V226.527H185.941V225.684H186.938V224.049H187.992V225.684H189.375V226.527H187.992V230.102C187.992 230.846 188.25 231.145 188.906 231.145C189.088 231.145 189.188 231.139 189.375 231.121V231.988C189.176 232.023 188.982 232.047 188.783 232.047ZM196.008 232.111C194.807 232.111 193.898 231.385 193.898 230.236V230.225C193.898 229.1 194.73 228.449 196.201 228.361L198.012 228.25V227.676C198.012 226.896 197.537 226.475 196.594 226.475C195.838 226.475 195.34 226.756 195.176 227.248L195.17 227.266H194.15L194.156 227.23C194.32 226.24 195.281 225.572 196.629 225.572C198.17 225.572 199.031 226.363 199.031 227.676V232H198.012V231.068H197.918C197.52 231.742 196.857 232.111 196.008 232.111ZM194.941 230.213C194.941 230.852 195.486 231.227 196.219 231.227C197.256 231.227 198.012 230.547 198.012 229.645V229.07L196.324 229.176C195.363 229.234 194.941 229.574 194.941 230.201V230.213ZM200.895 232V225.684H201.914V226.633H202.008C202.324 225.965 202.916 225.572 203.848 225.572C205.266 225.572 206.057 226.41 206.057 227.91V232H205.037V228.156C205.037 227.02 204.568 226.475 203.561 226.475C202.553 226.475 201.914 227.154 201.914 228.262V232H200.895ZM210.234 232.111C208.635 232.111 207.586 230.816 207.586 228.848V228.836C207.586 226.855 208.629 225.572 210.234 225.572C211.102 225.572 211.857 226.006 212.203 226.68H212.297V223.176H213.316V232H212.297V230.992H212.203C211.816 231.695 211.113 232.111 210.234 232.111ZM210.469 231.209C211.617 231.209 212.32 230.307 212.32 228.848V228.836C212.32 227.377 211.617 226.475 210.469 226.475C209.314 226.475 208.629 227.365 208.629 228.836V228.848C208.629 230.318 209.314 231.209 210.469 231.209ZM221.789 232.111C220.91 232.111 220.207 231.695 219.82 230.992H219.727V232H218.707V223.176H219.727V226.68H219.82C220.166 226.006 220.922 225.572 221.789 225.572C223.395 225.572 224.438 226.855 224.438 228.836V228.848C224.438 230.816 223.389 232.111 221.789 232.111ZM221.555 231.209C222.709 231.209 223.395 230.318 223.395 228.848V228.836C223.395 227.365 222.709 226.475 221.555 226.475C220.406 226.475 219.703 227.377 219.703 228.836V228.848C219.703 230.307 220.406 231.209 221.555 231.209ZM228.598 232.111C226.793 232.111 225.703 230.846 225.703 228.865V228.859C225.703 226.908 226.816 225.572 228.533 225.572C230.25 225.572 231.293 226.85 231.293 228.736V229.135H226.746C226.775 230.441 227.496 231.203 228.621 231.203C229.477 231.203 230.004 230.799 230.174 230.418L230.197 230.365H231.217L231.205 230.412C230.988 231.268 230.086 232.111 228.598 232.111ZM228.527 226.48C227.59 226.48 226.875 227.119 226.764 228.32H230.256C230.15 227.072 229.459 226.48 228.527 226.48ZM235.477 234.227C233.953 234.227 232.98 233.541 232.822 232.504L232.834 232.498H233.889L233.895 232.504C234.006 232.984 234.568 233.324 235.477 233.324C236.607 233.324 237.281 232.791 237.281 231.859V230.582H237.188C236.789 231.279 236.074 231.672 235.207 231.672C233.572 231.672 232.559 230.406 232.559 228.637V228.625C232.559 226.855 233.578 225.572 235.23 225.572C236.121 225.572 236.812 226.012 237.199 226.727H237.27V225.684H238.289V231.912C238.289 233.324 237.199 234.227 235.477 234.227ZM235.43 230.77C236.602 230.77 237.305 229.891 237.305 228.637V228.625C237.305 227.371 236.596 226.475 235.43 226.475C234.258 226.475 233.602 227.371 233.602 228.625V228.637C233.602 229.891 234.258 230.77 235.43 230.77ZM240.727 224.465C240.34 224.465 240.023 224.148 240.023 223.762C240.023 223.375 240.34 223.059 240.727 223.059C241.113 223.059 241.43 223.375 241.43 223.762C241.43 224.148 241.113 224.465 240.727 224.465ZM240.211 232V225.684H241.23V232H240.211ZM243.152 232V225.684H244.172V226.633H244.266C244.582 225.965 245.174 225.572 246.105 225.572C247.523 225.572 248.314 226.41 248.314 227.91V232H247.295V228.156C247.295 227.02 246.826 226.475 245.818 226.475C244.811 226.475 244.172 227.154 244.172 228.262V232H243.152ZM255.27 232.111C254.068 232.111 253.16 231.385 253.16 230.236V230.225C253.16 229.1 253.992 228.449 255.463 228.361L257.273 228.25V227.676C257.273 226.896 256.799 226.475 255.855 226.475C255.1 226.475 254.602 226.756 254.438 227.248L254.432 227.266H253.412L253.418 227.23C253.582 226.24 254.543 225.572 255.891 225.572C257.432 225.572 258.293 226.363 258.293 227.676V232H257.273V231.068H257.18C256.781 231.742 256.119 232.111 255.27 232.111ZM254.203 230.213C254.203 230.852 254.748 231.227 255.48 231.227C256.518 231.227 257.273 230.547 257.273 229.645V229.07L255.586 229.176C254.625 229.234 254.203 229.574 254.203 230.201V230.213ZM260.156 232V225.684H261.176V226.633H261.27C261.586 225.965 262.178 225.572 263.109 225.572C264.527 225.572 265.318 226.41 265.318 227.91V232H264.299V228.156C264.299 227.02 263.83 226.475 262.822 226.475C261.814 226.475 261.176 227.154 261.176 228.262V232H260.156ZM269.742 232.111C267.938 232.111 266.848 230.846 266.848 228.865V228.859C266.848 226.908 267.961 225.572 269.678 225.572C271.395 225.572 272.438 226.85 272.438 228.736V229.135H267.891C267.92 230.441 268.641 231.203 269.766 231.203C270.621 231.203 271.148 230.799 271.318 230.418L271.342 230.365H272.361L272.35 230.412C272.133 231.268 271.23 232.111 269.742 232.111ZM269.672 226.48C268.734 226.48 268.02 227.119 267.908 228.32H271.4C271.295 227.072 270.604 226.48 269.672 226.48ZM275.238 232L273.469 225.684H274.488L275.73 230.734H275.824L277.236 225.684H278.203L279.615 230.734H279.709L280.951 225.684H281.965L280.195 232H279.17L277.758 227.113H277.664L276.258 232H275.238ZM283.266 232.059C282.85 232.059 282.504 231.713 282.504 231.297C282.504 230.875 282.85 230.535 283.266 230.535C283.688 230.535 284.027 230.875 284.027 231.297C284.027 231.713 283.688 232.059 283.266 232.059Z" fill="#ADADAD"/>
<g filter="url(#filter0_d_4544_8347)">
<path d="M217.532 94.6219C215.799 96.8191 211.446 102.124 207.898 105.765C203.463 110.316 196.275 118.006 194.134 123.655C191.994 129.305 188.476 140.291 195.205 151.904C200.588 161.195 210.498 161.216 214.779 160.065H217.532V94.6219Z" fill="url(#paint0_linear_4544_8347)"/>
<path d="M217.532 94.4652C219.265 96.6623 223.618 101.967 227.166 105.608C231.601 110.159 238.789 117.849 240.929 123.499C243.07 129.148 246.588 140.134 239.859 151.747C234.476 161.038 224.566 161.059 220.285 159.908H217.532V94.4652Z" fill="url(#paint1_linear_4544_8347)"/>
<path d="M217.969 69C215.573 71.4269 209.555 77.2862 204.65 81.3079C198.519 86.3351 188.583 94.8292 185.624 101.07C182.664 107.31 177.802 119.445 187.103 132.273C194.545 142.535 208.244 142.558 214.163 141.287H217.969V69Z" fill="url(#paint2_linear_4544_8347)"/>
<path d="M217.969 69C220.388 71.4151 226.464 77.2459 231.417 81.2481C237.607 86.2509 247.639 94.7038 250.628 100.914C253.616 107.125 258.526 119.2 249.134 131.966C241.62 142.178 227.788 142.201 221.811 140.936H217.969V69Z" fill="url(#paint3_linear_4544_8347)"/>
<path d="M204.098 73.2127C203.222 72.7503 202.156 73.0819 201.645 73.9321C199.281 77.8707 194.868 85.654 194.564 87.1406C194.128 89.2755 194.634 94.2698 197.366 96.6709C200.098 99.072 202.694 101.047 206.474 101.351C210.255 101.654 213.53 102.198 217.49 100.587C223.633 98.0872 217.086 80.0642 204.098 73.2127Z" fill="#FFE2D6"/>
<path d="M230.611 73.1223C231.487 72.6599 232.553 72.9915 233.064 73.8417C235.429 77.7802 239.842 85.5636 240.145 87.0501C240.582 89.185 240.075 94.1793 237.343 96.5805C234.611 98.9816 232.015 100.956 228.235 101.26C224.454 101.564 221.179 102.107 217.219 100.496C211.076 97.9967 217.623 79.9737 230.611 73.1223Z" fill="#FFE2D6"/>
<path d="M217.616 77.4885C215.22 79.9154 209.202 85.7747 204.298 89.7964C198.167 94.8236 188.231 103.318 185.271 109.558C182.312 115.799 177.449 127.934 186.751 140.761C194.193 151.024 207.892 151.047 213.811 149.776H217.616V77.4885Z" fill="url(#paint4_linear_4544_8347)"/>
<path d="M217.616 77.4885C220.036 79.9037 226.112 85.7345 231.064 89.7367C237.254 94.7394 247.287 103.192 250.275 109.403C253.264 115.613 258.173 127.689 248.781 140.454C241.268 150.667 227.435 150.69 221.459 149.425H217.616V77.4885Z" fill="url(#paint5_linear_4544_8347)"/>
<path d="M247.084 81.1657C248.136 80.6774 249.347 81.2631 249.672 82.378C251.751 89.5046 255.861 104.957 255.84 107.728C255.811 111.582 253.605 120.317 249.058 124.061C244.51 127.806 240.281 130.822 234.894 130.667C229.506 130.513 224.754 130.875 219.689 127.303C211.776 121.723 226.613 90.6713 247.084 81.1657Z" fill="url(#paint6_linear_4544_8347)"/>
<path d="M186.052 81.2131C185 80.7248 183.79 81.3105 183.464 82.4254C181.385 89.552 177.275 105.004 177.296 107.776C177.325 111.629 179.531 120.364 184.079 124.109C188.626 127.853 192.855 130.869 198.243 130.715C203.63 130.56 208.382 130.922 213.447 127.35C221.36 121.771 206.524 90.7187 186.052 81.2131Z" fill="url(#paint7_linear_4544_8347)"/>
<path d="M163.209 97.3178C162.072 97.1099 161.045 97.9777 161.002 99.1368C160.709 106.94 160.481 124.051 161.225 126.906C162.253 130.854 166.784 139.241 172.429 141.892C178.074 144.542 183.203 146.528 188.701 144.955C194.199 143.383 199.177 142.507 203.458 137.511C210.159 129.692 186.761 101.621 163.209 97.3178Z" fill="url(#paint8_linear_4544_8347)"/>
<path d="M271.24 97.3178C272.377 97.1099 273.403 97.9777 273.447 99.1368C273.74 106.94 273.967 124.051 273.224 126.906C272.196 130.854 267.665 139.241 262.02 141.892C256.375 144.542 251.246 146.528 245.748 144.955C240.25 143.383 235.272 142.507 230.991 137.511C224.29 129.692 247.688 101.621 271.24 97.3178Z" fill="url(#paint9_linear_4544_8347)"/>
<path d="M216.984 94.799C214.376 96.8885 208.028 101.752 203.506 104.487C197.853 107.906 189.809 124.433 189.375 127.092C188.94 129.752 187.853 162.615 216.984 162.235C240.29 161.931 246.116 138.68 246.116 127.092C243.507 120.95 236.811 107.83 230.898 104.487C224.985 101.144 219.158 96.6352 216.984 94.799Z" fill="url(#paint10_linear_4544_8347)"/>
<path d="M147.171 138.834C146.048 139.246 145.633 140.533 146.239 141.517C150.522 148.474 158.004 160.155 160.818 162.771C164.666 166.349 182.751 178.639 190.592 178.67C198.433 178.7 205.262 178.293 209.998 174.04C214.733 169.787 219.923 167.316 219.508 160.097C218.935 150.111 171.304 129.985 147.171 138.834Z" fill="url(#paint11_linear_4544_8347)"/>
<path d="M286.829 139.215C287.952 139.627 288.367 140.914 287.761 141.898C283.478 148.855 275.996 160.536 273.182 163.152C269.334 166.73 251.249 179.02 243.408 179.051C235.567 179.081 228.738 178.674 224.002 174.421C219.267 170.167 214.077 167.697 214.492 160.478C215.065 150.492 262.696 130.365 286.829 139.215Z" fill="url(#paint12_linear_4544_8347)"/>
</g>
<path d="M35.5 78.0593C34.8067 78.8901 33.0653 80.8958 31.646 82.2725C29.872 83.9934 26.9968 86.901 26.1404 89.0373C25.284 91.1735 23.8769 95.3274 26.5686 99.7185C28.7219 103.231 32.686 103.239 34.3989 102.804H35.5V78.0593Z" fill="url(#paint13_linear_4544_8347)"/>
<path d="M35.5 78C36.1933 78.8308 37.9347 80.8365 39.354 82.2132C41.128 83.934 44.0032 86.8417 44.8596 88.978C45.716 91.1142 47.1231 95.268 44.4314 99.6592C42.2781 103.172 38.314 103.18 36.6011 102.745H35.5V78Z" fill="url(#paint14_linear_4544_8347)"/>
<path d="M92.5 71.0759C91.6086 72.1393 89.3697 74.7066 87.5449 76.4688C85.264 78.6715 81.5673 82.3933 80.4662 85.1277C79.3651 87.8621 77.5561 93.179 81.0168 98.7998C83.7853 103.296 88.882 103.306 91.0843 102.749H92.5V71.0759Z" fill="url(#paint15_linear_4544_8347)"/>
<path d="M92.5 71C93.3914 72.0634 95.6303 74.6307 97.4551 76.3929C99.736 78.5956 103.433 82.3174 104.534 85.0518C105.635 87.7862 107.444 93.1031 103.983 98.7238C101.215 103.22 96.118 103.231 93.9157 102.674H92.5V71Z" fill="url(#paint16_linear_4544_8347)"/>
<path d="M92.8654 129.078C91.9708 130.173 89.7238 132.818 87.8925 134.633C85.6034 136.901 81.8934 140.735 80.7884 143.551C79.6833 146.368 77.8678 151.844 81.3409 157.633C84.1194 162.264 89.2344 162.275 91.4446 161.701H92.8654V129.078Z" fill="url(#paint17_linear_4544_8347)"/>
<path d="M92.8653 129C93.7599 130.095 96.0069 132.74 97.8382 134.555C100.127 136.823 103.837 140.657 104.942 143.473C106.047 146.289 107.863 151.766 104.39 157.555C101.611 162.186 96.4963 162.197 94.2861 161.623H92.8653V129Z" fill="url(#paint18_linear_4544_8347)"/>
<path d="M83.0725 140.289C82.3663 138.944 80.4779 138.871 79.6675 140.156C78.196 142.49 76.6152 145.122 76.3676 146.111C75.9158 147.915 75.5393 155.508 77.4218 157.763C79.3043 160.018 81.1115 161.898 83.8976 162.424C86.6836 162.95 88.4908 163.401 91.5781 162.424C93.7734 161.729 87.5644 148.846 83.0725 140.289Z" fill="url(#paint19_linear_4544_8347)"/>
<path d="M101.934 140.259C102.639 138.921 104.509 138.853 105.305 140.139C106.784 142.529 108.383 145.272 108.632 146.258C109.084 148.046 109.461 155.573 107.578 157.809C105.696 160.044 103.889 161.907 101.102 162.429C98.3164 162.951 96.5092 163.398 93.4219 162.429C91.2256 161.74 97.4413 148.781 101.934 140.259Z" fill="url(#paint20_linear_4544_8347)"/>
<path d="M92.657 138.793C91.8447 139.532 89.8679 141.251 88.4597 142.218C86.6995 143.426 84.1947 149.268 84.0593 150.208C83.9239 151.148 83.5854 162.764 92.657 162.629C99.9144 162.522 101.729 154.304 101.729 150.208C100.916 148.037 98.8312 143.399 96.9898 142.218C95.1484 141.036 93.334 139.443 92.657 138.793Z" fill="url(#paint21_linear_4544_8347)"/>
<path d="M35.6608 183.085C34.7164 184.274 32.3443 187.146 30.411 189.117C27.9945 191.581 24.0779 195.744 22.9113 198.802C21.7447 201.861 19.8281 207.808 23.4946 214.094C26.4279 219.124 31.8276 219.135 34.1609 218.512H35.6608V183.085Z" fill="url(#paint22_linear_4544_8347)"/>
<path d="M35.6607 183C36.6051 184.189 38.9772 187.061 40.9105 189.032C43.3271 191.496 47.2436 195.659 48.4102 198.717C49.5768 201.776 51.4934 207.723 47.8269 214.01C44.8937 219.039 39.4939 219.05 37.1606 218.427H35.6607V183Z" fill="url(#paint23_linear_4544_8347)"/>
<path d="M25.2902 195.073C24.5901 193.696 22.661 193.623 21.8556 194.941C20.2957 197.495 18.5949 200.414 18.3318 201.5C17.8586 203.453 17.4644 211.673 19.4357 214.115C21.4071 216.557 23.2996 218.592 26.2172 219.161C29.1348 219.731 31.0273 220.219 34.2603 219.161C36.5696 218.406 29.9989 204.336 25.2902 195.073Z" fill="url(#paint24_linear_4544_8347)"/>
<path d="M45.3588 195.004C46.0606 193.644 47.958 193.575 48.7515 194.884C50.3417 197.506 52.0952 200.57 52.3639 201.659C52.842 203.595 53.2404 211.744 51.2485 214.164C49.2566 216.585 47.3444 218.602 44.3964 219.167C41.4484 219.731 39.5362 220.216 36.2695 219.167C33.9319 218.416 40.5994 204.227 45.3588 195.004Z" fill="url(#paint25_linear_4544_8347)"/>
<path d="M50.232 201.399C51.3653 200.358 53.1794 200.941 53.4657 202.443C54.0072 205.283 54.5356 208.511 54.4153 209.559C54.1975 211.457 51.8322 218.921 49.2347 220.452C46.6373 221.983 44.2462 223.177 41.4103 222.727C38.5744 222.277 36.6956 222.091 34.1128 220.085C32.2744 218.657 42.8803 208.157 50.232 201.399Z" fill="url(#paint26_linear_4544_8347)"/>
<path d="M19.768 201.251C18.6347 200.209 16.8206 200.793 16.5343 202.295C15.9928 205.135 15.4644 208.363 15.5847 209.411C15.8025 211.309 18.1678 218.773 20.7653 220.304C23.3627 221.835 25.7538 223.029 28.5897 222.579C31.4256 222.129 33.3044 221.943 35.8872 219.937C37.7256 218.509 27.1197 208.009 19.768 201.251Z" fill="url(#paint27_linear_4544_8347)"/>
<path d="M35.0194 194.741C34.1049 195.565 31.8795 197.483 30.2943 198.562C28.3128 199.91 25.4929 206.429 25.3405 207.477C25.1881 208.526 24.807 221.488 35.0194 221.338C43.1894 221.218 45.2319 212.048 45.2319 207.477C44.3173 205.055 41.97 199.88 39.897 198.562C37.8241 197.243 35.7816 195.465 35.0194 194.741Z" fill="url(#paint28_linear_4544_8347)"/>
<path d="M95.5487 182.082C94.6296 183.233 92.3211 186.013 90.4398 187.921C88.0881 190.306 84.2767 194.335 83.1414 197.296C82.0061 200.256 80.1409 206.013 83.709 212.099C86.5635 216.967 91.8184 216.978 94.089 216.375H95.5487V182.082Z" fill="url(#paint29_linear_4544_8347)"/>
<path d="M95.5485 182C96.4676 183.151 98.776 185.931 100.657 187.839C103.009 190.224 106.821 194.253 107.956 197.214C109.091 200.174 110.956 205.931 107.388 212.016C104.534 216.885 99.2788 216.896 97.0082 216.293H95.5485V182Z" fill="url(#paint30_linear_4544_8347)"/>
<path d="M109.763 191.084C110.772 190.286 112.218 190.759 112.643 191.968C113.75 195.121 115.089 199.238 115.112 200.505C115.149 202.537 113.638 210.694 111.007 212.605C108.377 214.515 105.924 216.046 102.742 215.889C99.5611 215.732 97.4698 215.747 94.3398 213.916C92.0132 212.556 100.859 198.121 109.763 191.084Z" fill="url(#paint31_linear_4544_8347)"/>
<path d="M81.0888 190.975C80.0795 190.177 78.6334 190.65 78.2087 191.859C77.1018 195.012 75.763 199.129 75.7398 200.396C75.7025 202.428 77.2137 210.585 79.8443 212.496C82.475 214.406 84.9281 215.937 88.1094 215.78C91.2907 215.623 93.382 215.638 96.512 213.807C98.8386 212.447 89.993 198.012 81.0888 190.975Z" fill="url(#paint32_linear_4544_8347)"/>
<path d="M95.6347 195.007C94.735 195.816 92.5457 197.701 90.9863 198.761C89.0369 200.086 86.2629 206.49 86.1129 207.52C85.963 208.551 85.5881 221.285 95.6347 221.138C103.672 221.02 105.681 212.01 105.681 207.52C104.782 205.14 102.472 200.056 100.433 198.761C98.3938 197.465 96.3844 195.718 95.6347 195.007Z" fill="url(#paint33_linear_4544_8347)"/>
<path d="M95.5487 182.082C94.6296 183.233 92.3211 186.013 90.4398 187.921C88.0881 190.306 84.2767 194.335 83.1414 197.296C82.0061 200.256 80.1409 206.013 83.709 212.099C86.5635 216.967 91.8184 216.978 94.089 216.375H95.5487V182.082Z" fill="url(#paint34_linear_4544_8347)"/>
<path d="M95.5485 182C96.4676 183.151 98.776 185.931 100.657 187.839C103.009 190.224 106.821 194.253 107.956 197.214C109.091 200.174 110.956 205.931 107.388 212.016C104.534 216.885 99.2788 216.896 97.0082 216.293H95.5485V182Z" fill="url(#paint35_linear_4544_8347)"/>
<path d="M109.763 191.084C110.772 190.286 112.218 190.759 112.643 191.968C113.75 195.121 115.089 199.238 115.112 200.505C115.149 202.537 113.638 210.694 111.007 212.605C108.377 214.515 105.924 216.046 102.742 215.889C99.5611 215.732 97.4698 215.747 94.3398 213.916C92.0132 212.556 100.859 198.121 109.763 191.084Z" fill="url(#paint36_linear_4544_8347)"/>
<path d="M81.0888 190.975C80.0795 190.177 78.6334 190.65 78.2087 191.859C77.1018 195.012 75.763 199.129 75.7398 200.396C75.7025 202.428 77.2137 210.585 79.8443 212.496C82.475 214.406 84.9281 215.937 88.1094 215.78C91.2907 215.623 93.382 215.638 96.512 213.807C98.8386 212.447 89.993 198.012 81.0888 190.975Z" fill="url(#paint37_linear_4544_8347)"/>
<path d="M95.6347 195.007C94.735 195.816 92.5457 197.701 90.9863 198.761C89.0369 200.086 86.2629 206.49 86.1129 207.52C85.963 208.551 85.5881 221.285 95.6347 221.138C103.672 221.02 105.681 212.01 105.681 207.52C104.782 205.14 102.472 200.056 100.433 198.761C98.3938 197.465 96.3844 195.718 95.6347 195.007Z" fill="url(#paint38_linear_4544_8347)"/>
<path d="M115.298 204.978C116.709 204.031 118.553 205.163 118.316 206.836C117.911 209.686 117.403 212.716 116.99 213.709C116.184 215.642 111.647 223.023 108.798 224.225C105.949 225.427 103.395 226.31 100.963 225.425C98.5319 224.54 96.885 224.07 95.1813 221.611C93.9915 219.894 106.477 210.902 115.298 204.978Z" fill="url(#paint39_linear_4544_8347)"/>
<path d="M75.0806 204.978C73.67 204.031 71.8253 205.163 72.0629 206.836C72.4676 209.686 72.9754 212.716 73.389 213.709C74.1944 215.642 78.7317 223.023 81.5808 224.225C84.4299 225.427 86.9837 226.31 89.4153 225.425C91.8468 224.54 93.4937 224.07 95.1974 221.611C96.3872 219.894 83.9013 210.902 75.0806 204.978Z" fill="url(#paint40_linear_4544_8347)"/>
<path d="M35.8434 130.073C35.003 131.104 32.8921 133.593 31.1718 135.301C29.0215 137.437 25.5364 141.044 24.4983 143.695C23.4602 146.346 21.7547 151.5 25.0173 156.949C27.6274 161.308 32.4324 161.318 34.5086 160.778H35.8434V130.073Z" fill="url(#paint41_linear_4544_8347)"/>
<path d="M35.8434 130C36.6838 131.031 38.7946 133.52 40.5149 135.228C42.6653 137.363 46.1504 140.971 47.1885 143.622C48.2266 146.272 49.9321 151.427 46.6694 156.875C44.0593 161.234 39.2544 161.244 37.1781 160.704H35.8434V130Z" fill="url(#paint42_linear_4544_8347)"/>
<path d="M26.74 140.809C26.0352 139.461 24.1437 139.386 23.3354 140.675C21.9852 142.826 20.5718 145.198 20.3454 146.104C19.9209 147.802 19.5673 154.948 21.3357 157.071C23.104 159.194 24.8017 160.963 27.4189 161.458C30.0361 161.953 31.7338 162.378 34.634 161.458C36.6806 160.809 30.9514 148.862 26.74 140.809Z" fill="url(#paint43_linear_4544_8347)"/>
<path d="M44.2664 140.779C44.9702 139.439 46.8423 139.369 47.636 140.658C48.9947 142.865 50.4266 145.338 50.6546 146.243C51.0791 147.926 51.4327 155.01 49.6643 157.114C47.896 159.218 46.1983 160.972 43.5811 161.463C40.9639 161.954 39.2662 162.374 36.366 161.463C34.3183 160.819 40.0544 148.8 44.2664 140.779Z" fill="url(#paint44_linear_4544_8347)"/>
<path d="M294.581 28.7643C292.747 28.7643 291.767 27.8014 291.767 25.9835V15.8981C291.767 14.0802 292.747 13.109 294.581 13.109H306.061C307.904 13.109 308.875 14.0802 308.875 15.8981V25.9835C308.875 27.8014 307.904 28.7643 306.061 28.7643H294.581ZM294.639 26.9215H305.995C306.659 26.9215 307.024 26.5895 307.024 25.8839V18.3468C307.024 17.6495 306.659 17.3175 305.995 17.3175H294.639C293.975 17.3175 293.618 17.6495 293.618 18.3468V25.8839C293.618 26.5895 293.975 26.9215 294.639 26.9215ZM298.74 20.1149C298.441 20.1149 298.341 20.0236 298.341 19.7247V19.235C298.341 18.9362 298.441 18.8448 298.74 18.8448H299.229C299.528 18.8448 299.628 18.9362 299.628 19.235V19.7247C299.628 20.0236 299.528 20.1149 299.229 20.1149H298.74ZM301.421 20.1149C301.122 20.1149 301.022 20.0236 301.022 19.7247V19.235C301.022 18.9362 301.122 18.8448 301.421 18.8448H301.911C302.209 18.8448 302.309 18.9362 302.309 19.235V19.7247C302.309 20.0236 302.209 20.1149 301.911 20.1149H301.421ZM304.102 20.1149C303.803 20.1149 303.704 20.0236 303.704 19.7247V19.235C303.704 18.9362 303.803 18.8448 304.102 18.8448H304.592C304.891 18.8448 304.999 18.9362 304.999 19.235V19.7247C304.999 20.0236 304.891 20.1149 304.592 20.1149H304.102ZM296.059 22.7545C295.76 22.7545 295.652 22.6632 295.652 22.3644V21.8746C295.652 21.5758 295.76 21.4845 296.059 21.4845H296.548C296.847 21.4845 296.947 21.5758 296.947 21.8746V22.3644C296.947 22.6632 296.847 22.7545 296.548 22.7545H296.059ZM298.74 22.7545C298.441 22.7545 298.341 22.6632 298.341 22.3644V21.8746C298.341 21.5758 298.441 21.4845 298.74 21.4845H299.229C299.528 21.4845 299.628 21.5758 299.628 21.8746V22.3644C299.628 22.6632 299.528 22.7545 299.229 22.7545H298.74ZM301.421 22.7545C301.122 22.7545 301.022 22.6632 301.022 22.3644V21.8746C301.022 21.5758 301.122 21.4845 301.421 21.4845H301.911C302.209 21.4845 302.309 21.5758 302.309 21.8746V22.3644C302.309 22.6632 302.209 22.7545 301.911 22.7545H301.421ZM304.102 22.7545C303.803 22.7545 303.704 22.6632 303.704 22.3644V21.8746C303.704 21.5758 303.803 21.4845 304.102 21.4845H304.592C304.891 21.4845 304.999 21.5758 304.999 21.8746V22.3644C304.999 22.6632 304.891 22.7545 304.592 22.7545H304.102ZM296.059 25.3942C295.76 25.3942 295.652 25.3029 295.652 25.004V24.5143C295.652 24.2155 295.76 24.1241 296.059 24.1241H296.548C296.847 24.1241 296.947 24.2155 296.947 24.5143V25.004C296.947 25.3029 296.847 25.3942 296.548 25.3942H296.059ZM298.74 25.3942C298.441 25.3942 298.341 25.3029 298.341 25.004V24.5143C298.341 24.2155 298.441 24.1241 298.74 24.1241H299.229C299.528 24.1241 299.628 24.2155 299.628 24.5143V25.004C299.628 25.3029 299.528 25.3942 299.229 25.3942H298.74ZM301.421 25.3942C301.122 25.3942 301.022 25.3029 301.022 25.004V24.5143C301.022 24.2155 301.122 24.1241 301.421 24.1241H301.911C302.209 24.1241 302.309 24.2155 302.309 24.5143V25.004C302.309 25.3029 302.209 25.3942 301.911 25.3942H301.421Z" fill="#999999"/>
</g>
<rect x="0.5" y="0.5" width="334" height="252" stroke="#C2C2C2"/>
<defs>
<filter id="filter0_d_4544_8347" x="120.9" y="46.9" width="192.2" height="169.2" filterUnits="userSpaceOnUse" color-interpolation-filters="sRGB">
<feFlood flood-opacity="0" result="BackgroundImageFix"/>
<feColorMatrix in="SourceAlpha" type="matrix" values="0 0 0 0 0 0 0 0 0 0 0 0 0 0 0 0 0 0 127 0" result="hardAlpha"/>
<feOffset dy="2"/>
<feGaussianBlur stdDeviation="12.05"/>
<feComposite in2="hardAlpha" operator="out"/>
<feColorMatrix type="matrix" values="0 0 0 0 1 0 0 0 0 0.918171 0 0 0 0 0.590853 0 0 0 0.4 0"/>
<feBlend mode="normal" in2="BackgroundImageFix" result="effect1_dropShadow_4544_8347"/>
<feBlend mode="normal" in="SourceGraphic" in2="effect1_dropShadow_4544_8347" result="shape"/>
</filter>
<linearGradient id="paint0_linear_4544_8347" x1="204.408" y1="94.6219" x2="204.408" y2="160.583" gradientUnits="userSpaceOnUse">
<stop stop-color="#FFDAD8"/>
<stop offset="1" stop-color="#96D35F"/>
</linearGradient>
<linearGradient id="paint1_linear_4544_8347" x1="230.656" y1="94.4652" x2="230.656" y2="160.426" gradientUnits="userSpaceOnUse">
<stop stop-color="#FFDAD8"/>
<stop offset="1" stop-color="#96D35F"/>
</linearGradient>
<linearGradient id="paint2_linear_4544_8347" x1="199.826" y1="69" x2="198.516" y2="166.206" gradientUnits="userSpaceOnUse">
<stop stop-color="#F5EEE2"/>
<stop offset="0.15" stop-color="#F7B7B5"/>
<stop offset="0.3" stop-color="#C69191"/>
</linearGradient>
<linearGradient id="paint3_linear_4544_8347" x1="236.288" y1="69" x2="237.573" y2="165.735" gradientUnits="userSpaceOnUse">
<stop stop-color="#F5EEE2"/>
<stop offset="0.15" stop-color="#F7B7B5"/>
<stop offset="0.3" stop-color="#C69191"/>
</linearGradient>
<linearGradient id="paint4_linear_4544_8347" x1="199.473" y1="77.4885" x2="198.163" y2="174.695" gradientUnits="userSpaceOnUse">
<stop offset="0.105" stop-color="#F7B7B5"/>
<stop offset="0.315" stop-color="#C69191"/>
</linearGradient>
<linearGradient id="paint5_linear_4544_8347" x1="235.936" y1="77.4885" x2="237.22" y2="174.223" gradientUnits="userSpaceOnUse">
<stop offset="0.105" stop-color="#F7B7B5"/>
<stop offset="0.315" stop-color="#C69191"/>
</linearGradient>
<linearGradient id="paint6_linear_4544_8347" x1="245.008" y1="79.3619" x2="229.155" y2="149.272" gradientUnits="userSpaceOnUse">
<stop stop-color="#F5EEE2"/>
<stop offset="0.325" stop-color="#F7B7B5"/>
<stop offset="0.615" stop-color="#C69191"/>
</linearGradient>
<linearGradient id="paint7_linear_4544_8347" x1="188.128" y1="79.4093" x2="203.981" y2="149.319" gradientUnits="userSpaceOnUse">
<stop stop-color="#F5EEE2"/>
<stop offset="0.325" stop-color="#F7B7B5"/>
<stop offset="0.615" stop-color="#C69191"/>
</linearGradient>
<linearGradient id="paint8_linear_4544_8347" x1="165.01" y1="94.9459" x2="199.523" y2="162.493" gradientUnits="userSpaceOnUse">
<stop stop-color="#F5EEE2"/>
<stop offset="0.385" stop-color="#F7B7B5"/>
<stop offset="0.715" stop-color="#C69191"/>
</linearGradient>
<linearGradient id="paint9_linear_4544_8347" x1="269.439" y1="94.9459" x2="234.925" y2="162.493" gradientUnits="userSpaceOnUse">
<stop stop-color="#F5EEE2"/>
<stop offset="0.385" stop-color="#F7B7B5"/>
<stop offset="0.715" stop-color="#C69191"/>
</linearGradient>
<linearGradient id="paint10_linear_4544_8347" x1="217.677" y1="94.799" x2="217.677" y2="162.238" gradientUnits="userSpaceOnUse">
<stop offset="0.005" stop-color="white"/>
<stop offset="0.27002" stop-color="#F5EEE2"/>
<stop offset="0.43294" stop-color="#E5DED0"/>
<stop offset="0.95" stop-color="#CEB7B7"/>
</linearGradient>
<linearGradient id="paint11_linear_4544_8347" x1="148.847" y1="134.217" x2="211.053" y2="176.649" gradientUnits="userSpaceOnUse">
<stop stop-color="#F5EEE2"/>
<stop offset="0.485" stop-color="#83BB9E"/>
<stop offset="1" stop-color="#4F706C"/>
</linearGradient>
<linearGradient id="paint12_linear_4544_8347" x1="285.153" y1="134.598" x2="222.947" y2="177.03" gradientUnits="userSpaceOnUse">
<stop stop-color="#F5EEE2"/>
<stop offset="0.485" stop-color="#83BB9E"/>
<stop offset="1" stop-color="#4F706C"/>
</linearGradient>
<linearGradient id="paint13_linear_4544_8347" x1="30.25" y1="78.0593" x2="30.25" y2="103" gradientUnits="userSpaceOnUse">
<stop stop-color="#E5DED0"/>
<stop offset="1" stop-color="#83BB9E"/>
</linearGradient>
<linearGradient id="paint14_linear_4544_8347" x1="40.75" y1="78" x2="40.75" y2="102.941" gradientUnits="userSpaceOnUse">
<stop stop-color="#E5DED0"/>
<stop offset="1" stop-color="#83BB9E"/>
</linearGradient>
<linearGradient id="paint15_linear_4544_8347" x1="85.75" y1="71.0759" x2="85.75" y2="103" gradientUnits="userSpaceOnUse">
<stop stop-color="#E5DED0"/>
<stop offset="1" stop-color="#83BB9E"/>
</linearGradient>
<linearGradient id="paint16_linear_4544_8347" x1="99.25" y1="71" x2="99.25" y2="102.924" gradientUnits="userSpaceOnUse">
<stop stop-color="#E5DED0"/>
<stop offset="1" stop-color="#83BB9E"/>
</linearGradient>
<linearGradient id="paint17_linear_4544_8347" x1="86.0911" y1="129.078" x2="85.3767" y2="172.943" gradientUnits="userSpaceOnUse">
<stop stop-color="#F5EEE2"/>
<stop offset="0.385" stop-color="#F7B7B5"/>
<stop offset="0.715" stop-color="#C69191"/>
</linearGradient>
<linearGradient id="paint18_linear_4544_8347" x1="99.6396" y1="129" x2="100.354" y2="172.865" gradientUnits="userSpaceOnUse">
<stop stop-color="#F5EEE2"/>
<stop offset="0.385" stop-color="#F7B7B5"/>
<stop offset="0.715" stop-color="#C69191"/>
</linearGradient>
<linearGradient id="paint19_linear_4544_8347" x1="84.0169" y1="137.315" x2="84.0169" y2="163" gradientUnits="userSpaceOnUse">
<stop offset="0.045" stop-color="#F5EEE2"/>
<stop offset="0.675" stop-color="#83BB9E"/>
<stop offset="1" stop-color="#4F706C"/>
</linearGradient>
<linearGradient id="paint20_linear_4544_8347" x1="100.983" y1="137.315" x2="100.983" y2="163" gradientUnits="userSpaceOnUse">
<stop offset="0.045" stop-color="#F5EEE2"/>
<stop offset="0.675" stop-color="#83BB9E"/>
<stop offset="1" stop-color="#4F706C"/>
</linearGradient>
<linearGradient id="paint21_linear_4544_8347" x1="92.8728" y1="138.793" x2="92.8728" y2="162.63" gradientUnits="userSpaceOnUse">
<stop stop-color="white"/>
<stop offset="0.275" stop-color="#F5EEE2"/>
<stop offset="0.57" stop-color="#E5DED0"/>
<stop offset="0.95" stop-color="#CEB7B7"/>
</linearGradient>
<linearGradient id="paint22_linear_4544_8347" x1="28.5094" y1="183.085" x2="27.7113" y2="230.72" gradientUnits="userSpaceOnUse">
<stop stop-color="#F5EEE2"/>
<stop offset="0.285" stop-color="#F7B7B5"/>
<stop offset="0.55" stop-color="#C69191"/>
</linearGradient>
<linearGradient id="paint23_linear_4544_8347" x1="42.8122" y1="183" x2="43.6103" y2="230.635" gradientUnits="userSpaceOnUse">
<stop stop-color="#F5EEE2"/>
<stop offset="0.285" stop-color="#F7B7B5"/>
<stop offset="0.55" stop-color="#C69191"/>
</linearGradient>
<linearGradient id="paint24_linear_4544_8347" x1="26.3422" y1="191.977" x2="25.9298" y2="229.079" gradientUnits="userSpaceOnUse">
<stop stop-color="#F5EEE2"/>
<stop offset="0.385" stop-color="#F7B7B5"/>
<stop offset="0.715" stop-color="#C69191"/>
</linearGradient>
<linearGradient id="paint25_linear_4544_8347" x1="44.27" y1="191.977" x2="44.6782" y2="229.08" gradientUnits="userSpaceOnUse">
<stop stop-color="#F5EEE2"/>
<stop offset="0.385" stop-color="#F7B7B5"/>
<stop offset="0.715" stop-color="#C69191"/>
</linearGradient>
<linearGradient id="paint26_linear_4544_8347" x1="50.3828" y1="198.214" x2="41.2945" y2="223.316" gradientUnits="userSpaceOnUse">
<stop stop-color="#F5EEE2"/>
<stop offset="0.485" stop-color="#83BB9E"/>
<stop offset="1" stop-color="#4F706C"/>
</linearGradient>
<linearGradient id="paint27_linear_4544_8347" x1="19.6172" y1="198.065" x2="28.7055" y2="223.168" gradientUnits="userSpaceOnUse">
<stop stop-color="#F5EEE2"/>
<stop offset="0.485" stop-color="#83BB9E"/>
<stop offset="1" stop-color="#4F706C"/>
</linearGradient>
<linearGradient id="paint28_linear_4544_8347" x1="35.2623" y1="194.741" x2="35.2623" y2="221.339" gradientUnits="userSpaceOnUse">
<stop offset="0.0099" stop-color="white"/>
<stop offset="0.01" stop-color="#F5EEE2"/>
<stop offset="0.242758" stop-color="#F5EEE2"/>
<stop offset="0.565" stop-color="#E5DED0"/>
<stop offset="0.95" stop-color="#CEB7B7"/>
</linearGradient>
<linearGradient id="paint29_linear_4544_8347" x1="88.5891" y1="182.082" x2="88.5891" y2="216.646" gradientUnits="userSpaceOnUse">
<stop stop-color="#FFDAD8"/>
<stop offset="1" stop-color="#96D35F"/>
</linearGradient>
<linearGradient id="paint30_linear_4544_8347" x1="102.508" y1="182" x2="102.508" y2="216.564" gradientUnits="userSpaceOnUse">
<stop stop-color="#FFDAD8"/>
<stop offset="1" stop-color="#96D35F"/>
</linearGradient>
<linearGradient id="paint31_linear_4544_8347" x1="108.953" y1="188.945" x2="102.489" y2="216.475" gradientUnits="userSpaceOnUse">
<stop stop-color="#FFDAD8"/>
<stop offset="1" stop-color="#96D35F"/>
</linearGradient>
<linearGradient id="paint32_linear_4544_8347" x1="81.8986" y1="188.836" x2="88.363" y2="216.366" gradientUnits="userSpaceOnUse">
<stop stop-color="#FFDAD8"/>
<stop offset="1" stop-color="#96D35F"/>
</linearGradient>
<linearGradient id="paint33_linear_4544_8347" x1="95.8736" y1="195.007" x2="95.8736" y2="221.139" gradientUnits="userSpaceOnUse">
<stop stop-color="#FFDAD8"/>
<stop offset="1" stop-color="#96D35F"/>
</linearGradient>
<linearGradient id="paint34_linear_4544_8347" x1="88.5891" y1="182.082" x2="87.8207" y2="228.192" gradientUnits="userSpaceOnUse">
<stop offset="0.045" stop-color="#F5EEE2"/>
<stop offset="0.525" stop-color="#F7B7B5"/>
<stop offset="0.76" stop-color="#C69191"/>
</linearGradient>
<linearGradient id="paint35_linear_4544_8347" x1="102.508" y1="182" x2="103.276" y2="228.11" gradientUnits="userSpaceOnUse">
<stop offset="0.045" stop-color="#F5EEE2"/>
<stop offset="0.525" stop-color="#F7B7B5"/>
<stop offset="0.76" stop-color="#C69191"/>
</linearGradient>
<linearGradient id="paint36_linear_4544_8347" x1="108.953" y1="188.945" x2="100.712" y2="225.767" gradientUnits="userSpaceOnUse">
<stop stop-color="#F5EEE2"/>
<stop offset="0.275" stop-color="#F7B7B5"/>
<stop offset="0.63" stop-color="#C69191"/>
</linearGradient>
<linearGradient id="paint37_linear_4544_8347" x1="81.8986" y1="188.836" x2="90.1399" y2="225.658" gradientUnits="userSpaceOnUse">
<stop stop-color="#F5EEE2"/>
<stop offset="0.275" stop-color="#F7B7B5"/>
<stop offset="0.63" stop-color="#C69191"/>
</linearGradient>
<linearGradient id="paint38_linear_4544_8347" x1="95.8736" y1="195.007" x2="95.8736" y2="221.139" gradientUnits="userSpaceOnUse">
<stop offset="0.27002" stop-color="#F5EEE2"/>
<stop offset="0.43294" stop-color="#E5DED0"/>
<stop offset="0.95" stop-color="#CEB7B7"/>
</linearGradient>
<linearGradient id="paint39_linear_4544_8347" x1="116.959" y1="201.364" x2="100.689" y2="226.031" gradientUnits="userSpaceOnUse">
<stop stop-color="#F5EEE2"/>
<stop offset="0.485" stop-color="#83BB9E"/>
<stop offset="1" stop-color="#4F706C"/>
</linearGradient>
<linearGradient id="paint40_linear_4544_8347" x1="73.4199" y1="201.364" x2="89.69" y2="226.031" gradientUnits="userSpaceOnUse">
<stop stop-color="#F5EEE2"/>
<stop offset="0.485" stop-color="#83BB9E"/>
<stop offset="1" stop-color="#4F706C"/>
</linearGradient>
<linearGradient id="paint41_linear_4544_8347" x1="29.4797" y1="130.073" x2="28.806" y2="171.358" gradientUnits="userSpaceOnUse">
<stop stop-color="#F5EEE2"/>
<stop offset="0.385" stop-color="#F7B7B5"/>
<stop offset="0.715" stop-color="#C69191"/>
</linearGradient>
<linearGradient id="paint42_linear_4544_8347" x1="42.2071" y1="130" x2="42.8808" y2="171.285" gradientUnits="userSpaceOnUse">
<stop stop-color="#F5EEE2"/>
<stop offset="0.385" stop-color="#F7B7B5"/>
<stop offset="0.715" stop-color="#C69191"/>
</linearGradient>
<linearGradient id="paint43_linear_4544_8347" x1="27.5311" y1="137.826" x2="27.5311" y2="162" gradientUnits="userSpaceOnUse">
<stop stop-color="#F5EEE2"/>
<stop offset="1" stop-color="#83BB9E"/>
</linearGradient>
<linearGradient id="paint44_linear_4544_8347" x1="43.4689" y1="137.826" x2="43.4689" y2="162" gradientUnits="userSpaceOnUse">
<stop stop-color="#F5EEE2"/>
<stop offset="1" stop-color="#83BB9E"/>
</linearGradient>
<clipPath id="clip0_4544_8347">
<rect width="335" height="253" fill="white"/>
</clipPath>
</defs>
</svg>
